<?xml version="1.0" encoding="UTF-8" standalone="no"?>
<svg
   xmlns:dc="http://purl.org/dc/elements/1.1/"
   xmlns:cc="http://creativecommons.org/ns#"
   xmlns:rdf="http://www.w3.org/1999/02/22-rdf-syntax-ns#"
   xmlns:svg="http://www.w3.org/2000/svg"
   xmlns="http://www.w3.org/2000/svg"
   xmlns:sodipodi="http://sodipodi.sourceforge.net/DTD/sodipodi-0.dtd"
   xmlns:inkscape="http://www.inkscape.org/namespaces/inkscape"
   viewBox="0 0 32 32"
   version="1.1"
   id="svg8"
   sodipodi:docname="btc.svg"
   inkscape:version="0.92.5 (2060ec1f9f, 2020-04-08)">
  <metadata
     id="metadata14">
    <rdf:RDF>
      <cc:Work
         rdf:about="">
        <dc:format>image/svg+xml</dc:format>
        <dc:type
           rdf:resource="http://purl.org/dc/dcmitype/StillImage" />
        <dc:title></dc:title>
      </cc:Work>
    </rdf:RDF>
  </metadata>
  <defs
     id="defs12" />
  <sodipodi:namedview
     pagecolor="#ffffff"
     bordercolor="#666666"
     borderopacity="1"
     objecttolerance="10"
     gridtolerance="10"
     guidetolerance="10"
     inkscape:pageopacity="0"
     inkscape:pageshadow="2"
     inkscape:window-width="1920"
     inkscape:window-height="1080"
     id="namedview10"
     showgrid="false"
     inkscape:zoom="7.375"
     inkscape:cx="16.271186"
     inkscape:cy="16"
     inkscape:window-x="0"
     inkscape:window-y="0"
     inkscape:window-maximized="0"
     inkscape:current-layer="svg8" />
  <g
     id="g6"
     transform="matrix(0.6440678,0,0,0.6440678,6.6440683,5.9661022)"
     style="fill:none;fill-rule:evenodd">
    <circle
       cx="16"
       cy="16"
       r="16"
       id="circle2"
       style="fill:#f7931a" />
    <path
       d="m 23.189,14.02 c 0.314,-2.096 -1.283,-3.223 -3.465,-3.975 l 0.708,-2.84 -1.728,-0.43 -0.69,2.765 C 17.56,9.426 17.094,9.32 16.629,9.214 L 17.324,6.431 15.596,6 14.888,8.839 C 14.512,8.753 14.142,8.669 13.784,8.579 L 13.786,8.57 11.402,7.975 10.942,9.821 c 0,0 1.283,0.294 1.256,0.312 0.7,0.175 0.826,0.638 0.805,1.006 l -0.806,3.235 c 0.048,0.012 0.11,0.03 0.18,0.057 l -0.183,-0.045 -1.13,4.532 c -0.086,0.212 -0.303,0.531 -0.793,0.41 0.018,0.025 -1.256,-0.313 -1.256,-0.313 l -0.858,1.978 2.25,0.561 c 0.418,0.105 0.828,0.215 1.231,0.318 l -0.715,2.872 1.727,0.43 0.708,-2.84 c 0.472,0.127 0.93,0.245 1.378,0.357 l -0.706,2.828 1.728,0.43 0.715,-2.866 c 2.948,0.558 5.164,0.333 6.097,-2.333 0.752,-2.146 -0.037,-3.385 -1.588,-4.192 1.13,-0.26 1.98,-1.003 2.207,-2.538 z m -3.95,5.538 c -0.533,2.147 -4.148,0.986 -5.32,0.695 l 0.95,-3.805 c 1.172,0.293 4.929,0.872 4.37,3.11 z m 0.535,-5.569 c -0.487,1.953 -3.495,0.96 -4.47,0.717 l 0.86,-3.45 c 0.975,0.243 4.118,0.696 3.61,2.733 z"
       id="path4"
       inkscape:connector-curvature="0"
       style="fill:#ffffff;fill-rule:nonzero" />
  </g>
</svg>
