<svg width="25" height="25" viewBox="0 0 25 25" fill="none" xmlns="http://www.w3.org/2000/svg">
<circle cx="12.5" cy="12.5" r="12.5" fill="url(#paint0_linear)"/>
<path d="M16.4706 14.0312C16.4706 13.8759 16.5891 13.75 16.7353 13.75C16.8815 13.75 17 13.8759 17 14.0312V15.7188C17 16.4954 16.4074 17.125 15.6765 17.125H9.32353C8.59256 17.125 8 16.4954 8 15.7188V14.0312C8 13.8759 8.11851 13.75 8.26471 13.75C8.4109 13.75 8.52941 13.8759 8.52941 14.0312V15.7188C8.52941 16.1847 8.88495 16.5625 9.32353 16.5625H15.6765C16.115 16.5625 16.4706 16.1847 16.4706 15.7188V14.0312Z" fill="#6C69FC"/>
<path d="M12.7647 13.3523V7.28125C12.7647 7.12592 12.6462 7 12.5 7C12.3538 7 12.2353 7.12592 12.2353 7.28125V13.3523M12.6872 14.2301C12.5838 14.34 12.4162 14.34 12.3128 14.2301M16.4706 14.0312C16.4706 13.8759 16.5891 13.75 16.7353 13.75C16.8815 13.75 17 13.8759 17 14.0312V15.7188C17 16.4954 16.4074 17.125 15.6765 17.125H9.32353C8.59256 17.125 8 16.4954 8 15.7188V14.0312C8 13.8759 8.11851 13.75 8.26471 13.75C8.4109 13.75 8.52941 13.8759 8.52941 14.0312V15.7188C8.52941 16.1847 8.88495 16.5625 9.32353 16.5625H15.6765C16.115 16.5625 16.4706 16.1847 16.4706 15.7188V14.0312Z" stroke="#6C69FC" stroke-width="0.6"/>
<path d="M12.2353 13.3523L10.5695 11.5824C10.4661 11.4725 10.2985 11.4725 10.1951 11.5824C10.0918 11.6922 10.0918 11.8703 10.1951 11.9801L12.3128 14.2301C12.4162 14.34 12.5838 14.34 12.6871 14.2301L14.8048 11.9801C14.9082 11.8703 14.9082 11.6922 14.8048 11.5824C14.7014 11.4725 14.5338 11.4725 14.4304 11.5824L12.7647 13.3523V7.28125C12.7647 7.12592 12.6462 7 12.5 7C12.3538 7 12.2353 7.12592 12.2353 7.28125V13.3523Z" fill="#6C69FC" stroke="#6C69FC" stroke-width="0.6"/>
<defs>
<linearGradient id="paint0_linear" x1="25" y1="-7.64285e-06" x2="-1.4251" y2="1.61001" gradientUnits="userSpaceOnUse">
<stop stop-color="#F3F3FF"/>
<stop offset="1" stop-color="#E9F0FF"/>
<stop offset="1" stop-color="#E9F0FF"/>
</linearGradient>
</defs>
</svg>
