<svg width="40" height="40" viewBox="0 0 40 40" fill="none" xmlns="http://www.w3.org/2000/svg">
<circle cx="20" cy="20" r="20" fill="#F2F4FF"/>
<circle cx="20" cy="20" r="20" fill="#F2F4FF"/>
<path d="M13.3343 28.3333C13.0813 28.3321 12.8391 28.2306 12.6608 28.0511C12.4824 27.8716 12.3826 27.6287 12.3831 27.3757C12.3853 27.2795 12.4003 27.1841 12.4277 27.0919L13.113 24.6131C13.1416 24.5215 13.1093 24.4293 13.0672 24.3564L13.059 24.3415C13.0561 24.3366 13.0419 24.3169 13.0319 24.3024C13.0218 24.2879 13.0103 24.2723 12.9999 24.257L12.9928 24.247C12.1275 22.9355 11.6664 21.3989 11.6665 19.8277C11.6598 17.6852 12.498 15.661 14.0274 14.1253C15.61 12.5398 17.7268 11.6666 19.9932 11.6666C21.9158 11.6657 23.7814 12.3196 25.2826 13.5208C26.7503 14.702 27.7703 16.3482 28.155 18.1592C28.2734 18.7093 28.333 19.2705 28.3328 19.8333C28.3328 22.0256 27.4906 24.0848 25.9608 25.632C24.4177 27.1945 22.3455 28.0524 20.1264 28.0524C19.3451 28.0524 18.3455 27.853 17.8656 27.7176C17.2882 27.5561 16.7409 27.3456 16.6807 27.3233C16.6169 27.2988 16.5492 27.2862 16.4809 27.286C16.4068 27.2856 16.3334 27.3002 16.2651 27.3288L16.2335 27.3411L13.7231 28.2481C13.5998 28.3 13.468 28.3289 13.3343 28.3333Z" fill="#6C69FC"/>
</svg>
