<svg width="89" height="239" viewBox="0 0 89 239" fill="none" xmlns="http://www.w3.org/2000/svg">
<path d="M9.41228 2.29454C14.1632 -0.392508 18.0921 1.67584 20.8785 2.29454C23.6695 2.91324 27.0791 4.77385 30.6919 7.97573C34.3093 11.1776 33.6861 17.893 35.4428 21.1987C37.1995 24.5045 41.5395 27.7064 45.8794 30.1857C50.2193 32.665 51.0458 38.6578 51.0458 38.6578C51.0458 38.6578 53.8367 43.6164 54.1438 46.4073C54.4554 49.1982 56.5192 59.3232 59.9288 63.6632C63.3384 68.0031 61.1707 74.0997 56.8308 76.5791C52.4909 79.0584 50.3232 78.6474 50.0116 80.7112C49.7 82.7796 50.2193 88.253 44.1227 90.5246C38.026 92.7962 20.9779 92.9001 16.3309 93.4194C11.6793 93.9342 13.54 94.8645 8.47746 94.0381C3.41497 93.2117 -3.81523 91.6627 -2.47396 85.8776C-1.13269 80.0925 -5.36874 76.8907 -12.3912 74.2036C-19.4137 71.5166 -25.411 65.9392 -25.6142 60.4613C-25.8174 54.9833 -19.7253 52.9195 -13.8363 49.3021C-7.94741 45.6848 -7.0171 43.5171 -10.8422 40.4145C-14.6628 37.3165 -16.7311 35.0404 -10.3274 31.2198C-3.9236 27.3993 -1.23656 26.0535 -0.202383 24.089C0.831793 22.1245 -3.09717 19.6452 -2.27073 16.5472C-1.4443 13.4492 3.92981 10.7621 4.95947 7.65961C5.98912 4.55708 9.41228 2.29454 9.41228 2.29454Z" fill="#49476A"/>
<path d="M10.3704 28.8174C11.3865 29.9825 12.3303 29.3141 12.3303 29.3141C12.3303 29.3141 12.7458 32.1141 14.6651 33.4102C16.5844 34.7063 17.3612 35.3792 17.3612 35.3792C17.3612 35.3792 17.6818 36.9643 17.5689 38.4366C17.4786 39.5972 17.7767 41.4939 13.2651 44.0861C8.7536 46.6784 5.38464 47.4054 5.07303 49.3744C4.76142 51.3434 4.40013 54.3511 4.40013 54.3511C4.40013 54.3511 2.58468 58.2394 4.40013 57.6704C6.21558 57.1014 25.1875 54.9743 25.1875 54.9743L34.1022 49.9977L34.7254 43.8287C34.7254 43.8287 35.606 43.8287 32.4448 43.2597C29.2836 42.6907 25.3411 42.641 25.1378 40.672C24.9301 38.6985 24.7766 36.7837 24.7766 36.7837C24.7766 36.7837 27.1384 35.5689 28.5881 33.6089C30.0423 31.6399 31.361 29.269 31.4648 25.7961C31.5687 22.3233 31.9842 19.2117 30.4261 16.8815C28.8726 14.5467 28.1952 12.9931 24.8262 11.4396C21.4573 9.88609 20.9379 9.26288 19.4341 11.0241C17.9302 12.7854 15.4419 16.3621 14.8187 18.0737C14.1955 19.7853 11.811 19.5233 11.9148 21.0272C12.0187 22.531 12.2264 24.9652 12.2264 24.9652C12.2264 24.9652 12.0323 24.5045 10.682 23.3123C10.2168 22.9013 8.06717 22.2465 7.95427 24.5271C7.85943 26.2794 9.57102 27.9051 10.3704 28.8174Z" fill="#F0C6B4"/>
<path d="M13.2065 84.4867L13.5317 90.5247L18.987 96.4317L29.5726 95.9123L33.9215 92.4079C33.9215 92.4079 32.7519 90.0686 32.8828 88.1854C33.0138 86.3022 33.9215 83.8996 33.9215 83.8996L19.2445 82.73L13.5317 84.4822H13.2065V84.4867Z" fill="#F0C6B4"/>
<path d="M23.0467 65.2258L25.228 86.248C25.228 86.248 17.6952 87.1286 14.0282 86.8351C10.3612 86.5415 9.37214 84.6538 9.37214 84.6538L10.4605 78.3088L6.99219 68.2019L23.0467 65.2258Z" fill="#4D599C"/>
<path d="M47.0003 47.0848C47.0003 47.0848 55.1157 48.837 55.8337 47.9925C56.5473 47.148 69.5987 22.4091 70.7051 19.8756C71.8071 17.3421 75.7722 10.1345 76.418 7.73196C77.0683 5.32942 83.6256 -0.189195 84.0817 0.00499492C84.5378 0.199185 81.0966 4.09654 81.0966 4.09654C81.0966 4.09654 84.994 2.99462 84.863 3.57719C84.732 4.15976 81.6159 5.13523 80.8392 5.97973C80.0579 6.82423 82.7856 5.78554 82.8533 6.49908C82.9166 7.21261 79.9947 7.53777 78.8295 9.68289C77.6599 11.828 76.2328 13.1873 77.4025 13.1873C78.5721 13.1873 79.5476 13.1241 81.1056 11.6925C82.6637 10.2609 84.6778 9.74612 83.5082 11.3042C82.3385 12.8622 80.8437 13.9686 80.4553 15.3957C80.0669 16.8228 79.2224 17.8615 77.7276 18.6427C76.2328 19.424 74.2864 19.8756 73.767 21.6956C73.2477 23.5156 62.8562 52.2783 60.973 55.2047C59.0898 58.1266 56.6241 57.0246 52.4015 57.0246C48.179 57.0246 43.6359 56.7627 43.6359 56.7627L40.583 45.5268L47.0003 47.0848Z" fill="#F0C6B4"/>
<path d="M4.53075 72.0857C4.53075 72.0857 2.51659 86.7629 1.80306 88.1267C1.08952 89.4906 -6.11809 110.323 -7.41871 113.511C-8.71933 116.7 -9.82124 119.622 -10.4716 120.855C-11.1219 122.087 -12.8109 125.402 -12.2238 127.674C-11.6412 129.945 -10.5348 134.818 -10.0787 133.518C-9.62253 132.217 -10.0787 130.402 -10.0787 130.402C-10.0787 130.402 -9.49609 131.115 -8.97674 130.79C-8.4574 130.465 -9.95221 127.999 -9.3019 126.242C-8.65159 124.49 -8.58837 123.84 -7.6129 123.058C-6.63743 122.277 -6.51098 122.02 -5.99163 122.733C-5.47229 123.447 -8.4574 126.888 -8.00579 127.602C-7.55419 128.315 -3.45814 124.029 -3.26395 122.146C-3.06976 120.263 -3.90523 118.317 -3.90974 116.628C-3.91426 114.939 -1.05559 108.187 3.42432 100.46C7.90424 92.7331 9.20486 88.7725 12.4519 81.1088C15.6989 73.445 16.9995 71.3044 16.9995 71.3044L5.70041 69.0328L4.53075 72.0857Z" fill="#F0C6B4"/>
<path d="M33.3525 43.174L47.524 46.3442C47.524 46.3442 48.0208 49.1171 47.524 52.6893C47.0273 56.2615 46.3363 58.8356 46.3363 58.8356L34.5403 57.7472L33.3525 43.174Z" fill="#4D599C"/>
<path d="M53.5664 212.074C53.738 208.89 56.5289 214.359 56.8675 217.412C57.1114 219.575 57.1927 221.698 57.1927 221.698L61.2841 222.868L64.6621 222.086L66.6084 220.917C66.6084 220.917 64.7885 216.762 63.6866 214.097C62.5847 211.433 61.3248 207.192 61.3248 207.192L53.5664 212.074Z" fill="#F0C6B4"/>
<path d="M3.52401 54.2247C3.52401 54.2247 19.8179 56.0808 25.9235 52.5402C34.3414 47.6629 33.5782 45.8745 33.5782 45.8745C35.9446 46.6151 40.9484 51.208 41.391 56.2343C41.698 59.6891 41.3729 61.5723 39.3858 66.4135C37.1956 71.7559 37.5252 72.1985 38.0672 76.5926C38.5775 80.7293 39.44 84.3466 39.44 84.3466C39.44 84.3466 32.9595 86.433 25.8242 86.2343C18.6889 86.0356 18.2914 86.135 18.4901 80.2867C18.6888 74.4384 19.0863 74.6372 20.7707 74.7365C22.4552 74.8359 19.8766 68.0979 19.8766 68.0979L19.4792 73.7475L15.9115 73.6481C15.9115 73.6481 7.09168 73.7475 4.21496 72.5598C1.34277 71.3721 -0.441066 70.7759 0.547945 68.2966C1.53696 65.8173 2.92789 57.0969 3.02724 56.2072C3.1266 55.313 3.52401 54.2247 3.52401 54.2247Z" fill="#6474B5"/>
<path d="M32.0072 105.103C32.0072 105.103 46.296 134.055 48.5224 138.323C50.7488 142.59 49.9133 146.488 50.1933 149.55C50.4733 152.611 56.4119 180.263 59.2886 193.996C62.1653 207.73 63.2808 209.586 63.2808 209.586C63.2808 209.586 61.1447 211.243 59.0131 212.408C56.8771 213.574 53.91 213.944 52.8894 213.944C51.8688 213.944 43.0535 189.259 39.4361 179.703C35.8188 170.147 31.8266 165.97 33.0324 159.521C34.2382 153.072 35.0736 153.352 32.0118 149.73C28.9499 146.113 26.5157 142.635 25.1429 138.964C23.7745 135.297 19.6694 119.292 19.6694 119.292L23.1965 105.839L32.0072 105.103Z" fill="#7C70B0"/>
<path d="M13.3555 89.6035C13.3555 89.6035 18.2734 94.1512 22.1708 94.3363C26.0681 94.5215 31.081 94.7066 32.6571 93.686C34.2332 92.6654 34.2332 92.6654 34.2332 92.6654C34.2332 92.6654 35.3531 96.3505 35.159 99.9046C34.9828 103.233 34.879 105.378 30.6113 115.399C26.3436 125.42 20.125 147.693 18.9192 151.591C17.7135 155.488 14.7419 156.138 11.7749 161.427C8.80329 166.715 -11.7041 204.203 -11.7041 204.203C-11.7041 204.203 -12.8241 205.223 -15.6014 203.647C-18.3788 202.071 -20.1491 199.565 -18.7582 195.573C-17.3672 191.58 -11.2435 172.189 -10.0377 167.365C-8.83189 162.542 -6.04548 155.579 -3.35843 154.097C-0.666861 152.611 1.21633 145.562 2.31825 140.269C3.42016 134.976 8.04008 118.836 8.04911 116.235C8.05814 113.638 4.81111 107.604 5.36658 103.522C5.92205 99.4395 6.75752 95.7273 9.54393 93.2209C12.3348 90.719 13.3555 89.6035 13.3555 89.6035Z" fill="#8C81B0"/>
<path d="M57.2819 220.894C57.2819 220.894 56.6678 222.551 56.6587 223.956C56.6497 225.36 58.9167 230.355 62.6967 230.03C66.4766 229.705 70.3875 224.692 70.3875 224.692C70.3875 224.692 71.1642 224.155 68.7346 222.307C66.305 220.465 66.305 220.465 66.305 220.465C66.305 220.465 64.5482 222.023 62.7509 222.362C60.958 222.696 57.2819 220.894 57.2819 220.894Z" fill="white"/>
<path d="M53.6333 234.23C52.3688 234.532 52.283 238.077 54.0803 238.19C55.8822 238.299 85.1552 237.883 86.9165 237.815C88.6732 237.743 88.7726 233.981 87.201 234.085C85.6294 234.184 53.6333 234.23 53.6333 234.23Z" fill="#D2D8EE"/>
<path d="M68.7169 221.54C68.7169 221.54 65.1131 225.929 61.7893 226.349C58.4655 226.769 56.5371 222.687 55.9003 222.718C55.2636 222.75 53.7462 226.123 53.1952 228.878C52.6443 231.633 52.9423 234.546 52.9423 234.546C52.9423 234.546 77.8078 234.284 82.7845 234.356C87.7657 234.429 88.7773 234.713 87.296 232.455C85.9592 230.423 79.0406 230.771 75.7755 228.44C72.5104 226.096 68.7169 221.54 68.7169 221.54Z" fill="#49476A"/>
<path d="M9.74285 26.2974C10.917 27.6658 12.0867 28.5464 11.7931 27.4309C11.4951 26.3155 10.6325 24.2381 9.56673 24.7574C8.50096 25.2768 9.74285 26.2974 9.74285 26.2974Z" fill="#EBB4A1"/>
<path d="M17.4974 35.5553C17.4657 35.5553 20.1077 37.6959 21.9141 37.6959C23.4722 37.6959 24.7728 36.7792 24.7728 36.7792C24.7728 36.7792 23.558 39.8456 22.2844 39.6243C21.0109 39.403 19.8909 39.1817 18.947 37.9082C18.0032 36.6346 17.4974 35.5553 17.4974 35.5553Z" fill="#EBB4A1"/>
<path d="M17.5648 28.7226C18.5949 28.7226 19.43 28.3526 19.43 27.8961C19.43 27.4397 18.5949 27.0697 17.5648 27.0697C16.5347 27.0697 15.6997 27.4397 15.6997 27.8961C15.6997 28.3526 16.5347 28.7226 17.5648 28.7226Z" fill="#E7A69B"/>
<path d="M28.7675 27.8962C29.7975 27.8962 30.6326 27.5262 30.6326 27.0697C30.6326 26.6133 29.7975 26.2433 28.7675 26.2433C27.7374 26.2433 26.9023 26.6133 26.9023 27.0697C26.9023 27.5262 27.7374 27.8962 28.7675 27.8962Z" fill="#E7A69B"/>
<path d="M23.5039 23.8273C23.5942 25.4485 24.3936 27.3769 24.3936 27.3769C24.3936 27.3769 25.1568 29.0613 24.1181 29.2149C23.0794 29.3684 22.6504 29.2149 22.6504 29.2149" stroke="#EBB4A1" stroke-width="0.5" stroke-miterlimit="10"/>
<path d="M32.4535 20.115C31.9793 19.5143 30.5342 18.2905 29.1839 18.2408C27.1788 18.164 24.3743 18.3537 24.415 19.1034C24.4601 19.9614 24.7447 20.4582 25.675 20.1195C26.6053 19.7808 27.373 19.573 28.8316 19.6227C30.2858 19.6679 32.4535 20.115 32.4535 20.115Z" fill="#39384E"/>
<path d="M12.3486 20.1286C12.8228 19.5279 13.9293 18.7015 15.1938 18.5073C17.1763 18.2002 20.4279 18.3628 20.3917 19.117C20.3466 19.975 20.0621 20.4718 19.1318 20.1331C18.2015 19.7944 17.4337 19.5866 15.975 19.6363C14.5163 19.686 12.3486 20.1286 12.3486 20.1286Z" fill="#39384E"/>
<path opacity="0.73" d="M20.0803 31.7935C20.0803 31.7935 19.7958 31.7483 20.0713 32.1502C20.3468 32.5522 21.4442 34.5211 23.6209 34.4353C25.7977 34.3495 27.0577 32.1728 27.0531 31.7257C27.0486 31.4593 24.8899 32.0283 23.35 31.9515C21.801 31.8748 20.0803 31.7935 20.0803 31.7935Z" fill="#E7A69B"/>
<path d="M21.6472 32.498C21.6472 32.498 21.4937 32.4799 21.6427 32.6516C21.7918 32.8232 22.3924 33.6677 23.5711 33.6361C24.7498 33.6045 25.4227 32.6832 25.4181 32.4935C25.4136 32.3806 24.2485 32.6154 23.413 32.5793C22.5821 32.5387 21.6472 32.498 21.6472 32.498Z" fill="#F5D9CC"/>
<path d="M25.9414 24.0711C25.9414 24.0711 27.4272 24.8252 28.642 24.771C29.8569 24.7168 31.0491 23.5924 30.8865 23.1227C30.724 22.6485 30.7556 22.784 29.6175 22.4498C28.4795 22.1156 28.0188 22.2376 27.1517 22.7208C26.2846 23.204 25.9414 24.0711 25.9414 24.0711Z" fill="#F9E6D3"/>
<path d="M25.7788 24.211C25.7788 24.211 26.4788 22.4272 28.064 22.0162C29.7124 21.5872 30.3717 22.6936 31.6317 22.2601C32.8917 21.8265 32.8917 21.8265 32.8917 21.8265C32.8917 21.8265 31.1846 23.1407 30.8866 23.1181C30.1956 23.0639 29.8208 22.5536 28.642 22.6078C27.4633 22.6665 25.7788 24.211 25.7788 24.211Z" fill="#06070D"/>
<path d="M28.4745 24.6085C29.103 24.6085 29.6125 24.0504 29.6125 23.362C29.6125 22.6736 29.103 22.1156 28.4745 22.1156C27.8459 22.1156 27.3364 22.6736 27.3364 23.362C27.3364 24.0504 27.8459 24.6085 28.4745 24.6085Z" fill="#06070D"/>
<path d="M28.0006 23.606C28.1727 23.606 28.3122 23.4543 28.3122 23.2673C28.3122 23.0802 28.1727 22.9286 28.0006 22.9286C27.8285 22.9286 27.689 23.0802 27.689 23.2673C27.689 23.4543 27.8285 23.606 28.0006 23.606Z" fill="#FBF2F7"/>
<path d="M20.0524 24.0304C20.0524 24.0304 18.6434 24.9155 17.4286 24.9743C16.2137 25.033 14.9267 24.0214 15.0441 23.5381C15.1615 23.0549 15.1434 23.1859 16.2454 22.7523C17.3473 22.3188 17.8169 22.3956 18.7247 22.7975C19.6324 23.1994 20.0524 24.0304 20.0524 24.0304Z" fill="#F9E6D3"/>
<path d="M20.2241 24.1523C20.2241 24.1523 19.366 22.4407 17.7493 22.1742C16.0693 21.8988 15.5906 22.8246 14.2764 22.6078C13.3281 22.4542 12.7681 22.4407 12.7681 22.4407C12.7681 22.4407 14.8635 23.5336 15.0442 23.5336C15.7396 23.5291 16.0558 22.8742 17.2299 22.82C18.4041 22.7659 20.2241 24.1523 20.2241 24.1523Z" fill="#06070D"/>
<path d="M17.5781 24.794C18.2039 24.7362 18.66 24.1337 18.5968 23.4482C18.5335 22.7627 17.9749 22.2538 17.349 22.3116C16.7232 22.3693 16.2671 22.9718 16.3303 23.6573C16.3936 24.3428 16.9522 24.8517 17.5781 24.794Z" fill="#06070D"/>
<path d="M17.9604 23.7545C18.1318 23.7387 18.2568 23.5748 18.2396 23.3886C18.2224 23.2023 18.0696 23.0641 17.8982 23.0799C17.7268 23.0957 17.6018 23.2595 17.619 23.4458C17.6362 23.6321 17.7891 23.7703 17.9604 23.7545Z" fill="#FBF2F7"/>
</svg>
