<svg width="28" height="28" viewBox="0 0 28 28" fill="none" xmlns="http://www.w3.org/2000/svg">
<circle cx="14" cy="14" r="14" fill="url(#paint0_linear)"/>
<path d="M18.1562 20.125H12.0312C11.5091 20.125 11.0083 19.9176 10.6391 19.5484C10.2699 19.1792 10.0625 18.6784 10.0625 18.1562V12.0312C10.0625 11.5091 10.2699 11.0083 10.6391 10.6391C11.0083 10.2699 11.5091 10.0625 12.0312 10.0625H18.1562C18.6784 10.0625 19.1792 10.2699 19.5484 10.6391C19.9176 11.0083 20.125 11.5091 20.125 12.0312V18.1562C20.125 18.6784 19.9176 19.1792 19.5484 19.5484C19.1792 19.9176 18.6784 20.125 18.1562 20.125Z" fill="#6C69FC"/>
<path d="M11.375 9.1875H17.8248C17.6887 8.80393 17.4373 8.47188 17.1049 8.23689C16.7726 8.0019 16.3758 7.87549 15.9688 7.875H9.84375C9.32161 7.875 8.82085 8.08242 8.45163 8.45163C8.08242 8.82085 7.875 9.32161 7.875 9.84375V15.9688C7.87549 16.3758 8.0019 16.7726 8.23689 17.1049C8.47188 17.4373 8.80393 17.6887 9.1875 17.8248V11.375C9.1875 10.7948 9.41797 10.2384 9.8282 9.8282C10.2384 9.41797 10.7948 9.1875 11.375 9.1875Z" fill="#6C69FC"/>
<defs>
<linearGradient id="paint0_linear" x1="14" y1="0" x2="14" y2="28" gradientUnits="userSpaceOnUse">
<stop stop-color="#F3F3FF"/>
<stop offset="1" stop-color="#E9F0FF"/>
</linearGradient>
</defs>
</svg>
