<svg width="15" height="12" viewBox="0 0 15 12" fill="none" xmlns="http://www.w3.org/2000/svg">
<path d="M9.33245 0H4.05016L3.61239 2.36284L8.379 2.36839C10.7265 2.36839 11.4207 3.19136 11.4009 4.55763C11.3907 5.25757 11.0765 6.44068 10.9408 6.82426C10.579 7.84673 9.83599 9.0135 7.04972 9.00887L2.41627 9.00702L1.97754 11.3708H7.24801C9.10702 11.3708 9.89826 11.162 10.7348 10.7883C12.591 9.96073 13.6955 8.19176 14.1377 5.88319C14.7967 2.44547 13.9761 0 9.33245 0Z" fill="#7D6CFD"/>
<path d="M1.95809 4.44946C0.561939 4.44946 0.361845 5.35959 0.229738 5.9094C0.0567095 6.62971 0 6.92137 0 6.92137H5.45764C6.85379 6.92137 7.05388 6.01125 7.18599 5.46143C7.35902 4.74113 7.41573 4.44946 7.41573 4.44946L1.95809 4.44946Z" fill="#7D6CFD"/>
</svg>
