<svg width="18" height="18" viewBox="0 0 18 18" fill="none" xmlns="http://www.w3.org/2000/svg">
<path d="M10.7153 4H5.78227L5.37344 6.20662L9.82491 6.2118C12.0173 6.2118 12.6655 6.98036 12.647 8.2563C12.6375 8.90997 12.3441 10.0149 12.2173 10.3731C11.8795 11.3279 11.1856 12.4176 8.58352 12.4133L4.2564 12.4115L3.84668 14.619H8.7687C10.5048 14.619 11.2437 14.4241 12.025 14.0751C13.7584 13.3022 14.7899 11.6502 15.2029 9.49423C15.8184 6.28379 15.052 4 10.7153 4Z" fill="#6C69FC"/>
<path d="M3.82863 8.1554C2.52479 8.1554 2.33792 9.00535 2.21455 9.51881C2.05296 10.1915 2 10.4639 2 10.4639H7.09682C8.40066 10.4639 8.58752 9.61392 8.7109 9.10046C8.87249 8.42778 8.92545 8.1554 8.92545 8.1554H3.82863Z" fill="#6C69FC"/>
</svg>
