<svg width="28" height="28" viewBox="0 0 28 28" fill="none" xmlns="http://www.w3.org/2000/svg">
<circle cx="14" cy="14" r="14" fill="url(#paint0_linear)"/>
<path d="M16.0958 8.76586C15.5637 8.19137 14.8205 7.875 14.0002 7.875C13.1755 7.875 12.4298 8.18945 11.9002 8.76039C11.3648 9.33762 11.1039 10.1221 11.1652 10.9692C11.2866 12.6405 12.5583 14 14.0002 14C15.442 14 16.7116 12.6407 16.8349 10.9698C16.897 10.1303 16.6345 9.34746 16.0958 8.76586ZM18.8127 20.125H9.18766C9.06167 20.1266 8.93691 20.1002 8.82244 20.0475C8.70798 19.9949 8.60668 19.9174 8.52594 19.8207C8.3482 19.6082 8.27656 19.3181 8.32961 19.0247C8.56039 17.7445 9.28063 16.669 10.4127 15.9141C11.4184 15.2439 12.6923 14.875 14.0002 14.875C15.308 14.875 16.582 15.2441 17.5877 15.9141C18.7197 16.6688 19.4399 17.7442 19.6707 19.0244C19.7237 19.3178 19.6521 19.6079 19.4744 19.8204C19.3937 19.9172 19.2924 19.9947 19.1779 20.0474C19.0634 20.1001 18.9387 20.1266 18.8127 20.125Z" fill="#6C69FC"/>
<defs>
<linearGradient id="paint0_linear" x1="14" y1="0" x2="14" y2="28" gradientUnits="userSpaceOnUse">
<stop stop-color="#F3F3FF"/>
<stop offset="1" stop-color="#E9F0FF"/>
</linearGradient>
</defs>
</svg>
