<svg width="335" height="184" viewBox="0 0 335 184" fill="none" xmlns="http://www.w3.org/2000/svg">
<path d="M24.1577 73.9824C24.1577 73.9824 20.0743 66.985 26.1962 66.1096C32.3181 65.2341 46.0317 66.1096 54.4861 66.1096C62.9405 66.1096 97.6527 65.9179 99.6912 65.7198C101.73 65.5217 142.858 66.985 147.817 67.5666C152.776 68.1481 196.524 61.1507 196.524 61.1507C196.524 61.1507 226.271 61.7322 227.734 61.1507C229.197 60.5692 253.397 66.985 257.193 67.5666C260.983 68.1481 274.108 66.9467 277.904 67.5474C281.694 68.1481 311.447 75.4394 312.904 75.7334C314.361 76.0273 320.489 83.4273 320.489 83.4273L315.53 89.1466C315.53 89.1466 303.862 91.1851 300.654 90.6036C297.446 90.0221 284.902 88.5651 277.323 89.1466C269.744 89.7282 225.408 88.22 214.033 87.9517C202.658 87.6833 172.911 88.22 162.118 87.9517C151.325 87.6833 138.199 87.6321 128.869 87.9517C119.533 88.2712 105.826 90.6036 93.2881 90.6036C80.7503 90.6036 69.3691 90.6036 57.1189 89.1466C44.8687 87.6896 32.6185 80.6859 31.743 80.6859C30.8611 80.6859 24.1577 73.9824 24.1577 73.9824Z" fill="#537D91"/>
<path d="M145.797 57.5916L169.25 88.0286H220.456L267.424 90.7062L309.217 96.074L269.533 76.6922L248.65 75.216L145.797 57.5916Z" fill="#A8C9DA"/>
<path opacity="0.9" d="M32.8938 57.0227H43.0927V50.6068H55.7072V53.8148H57.8544V46.7535H62.6854V54.1343L67.5165 54.4602V45.469H70.7372V42.5806H75.0315V49.8016H80.131V45.7885H88.4512L101.334 32.9504H113.137V37.7687L119.042 37.1233V40.0117H124.141V25.8891H134.072V41.4559H138.903V31.9855L153.396 31.6659V37.7687L165.205 34.8739L176.209 34.5544V41.4559L184.53 40.0117V25.8891H192.313V37.7687L210.564 36.4842V30.062L230.156 28.458L231.23 41.4559H240.355V49.9614L260.753 49.3224L272.026 49.0029V53.8148L279.004 53.4952V57.0227H281.151V41.4559H285.707V57.0227H288.66V44.83L295.37 44.5041V57.0227H312.547V72.1102L32.8938 64.7294V57.0227Z" fill="#C4CBDE"/>
<path d="M68.5901 71.5222C68.5901 71.5222 141.861 67.4963 160.643 67.7647C179.43 68.0331 167.889 72.8641 173.794 74.7429C179.699 76.6216 194.997 88.1626 207.611 85.747C220.226 83.3315 221.031 74.3978 241.966 83.4273C262.9 92.4568 277.662 74.7301 292.96 78.8966C308.259 83.0631 316.042 85.4786 315.237 93.7988C314.432 102.119 298.865 102.119 298.865 102.119L257.801 108.024C257.801 108.024 269.61 117.417 279.541 119.565C289.471 121.712 328.12 116.881 333.488 126.811C338.856 136.742 325.973 143.183 320.337 146.404C314.7 149.625 243.576 135.668 243.576 135.668L167.416 159.555L95.9662 177.806C95.9662 177.806 57.0492 184.247 29.4047 170.559C1.76025 156.871 -3.60762 141.573 13.5695 131.642C30.7467 121.705 64.2959 115.264 64.2959 115.264C64.2959 115.264 28.5996 119.29 23.7685 106.944C18.9374 94.5976 24.8421 91.3769 41.4824 90.3033C58.1228 89.2361 68.5901 71.5222 68.5901 71.5222Z" fill="#D3F6F2"/>
<path d="M327.627 141.943C320.33 146.385 317.377 156.584 293.49 157.12C269.603 157.657 268.53 158.194 269.603 162.22C270.677 166.246 291.343 165.441 292.417 169.735C293.49 174.029 294.027 181.276 253.768 180.471C213.509 179.665 156.91 186.631 112.063 182.886C67.2158 179.141 67.2158 179.141 67.2158 179.141C67.2158 179.141 43.9487 178.151 32.0883 171.799C20.2279 165.447 84.4186 160.616 106.427 160.079C128.435 159.542 136.525 153.996 144.577 148.359C152.629 142.723 178.625 154.417 194.722 143.707C211.541 132.518 227.248 136.314 241.46 134.358C256.082 132.352 249.474 126.262 232.297 123.041C215.12 119.82 208.8 113.315 195.508 113.903C182.101 114.491 178.011 111.896 175.934 110.791C173.602 109.551 169.493 107.219 169.493 107.219L211.72 111.692C211.72 111.692 217.81 112.836 233.377 113.372C248.944 113.909 259.711 116.018 266.926 122.498C278.25 132.678 284.052 139.553 305.843 140.748C327.627 141.943 327.627 141.943 327.627 141.943Z" fill="#C4E2E7"/>
<path d="M5.46632 75.0117C18.9371 72.5962 24.8418 69.6439 33.4303 73.133C42.0189 76.6221 37.7246 73.1522 41.7505 71.5354C45.7764 69.9123 55.9754 66.1548 70.737 68.3019C85.4986 70.4491 130.857 60.7869 156.354 78.5009C181.852 96.2148 196.345 102.177 219.427 100.809C242.509 99.4355 299.676 95.9464 306.917 97.5568C314.163 99.1671 320.336 108.024 305.843 114.734C291.35 121.444 263.974 120.37 256.19 117.686C248.407 115.002 188.702 113.513 169.499 107.219C120.383 91.1153 127.272 103.078 101.059 95.7547C73.1461 87.9585 35.5711 92.4573 35.5711 92.4573C35.5711 92.4573 35.1877 90.1376 27.2509 87.9585C19.4803 85.8242 17.7485 86.2076 5.45993 83.4278C-6.82864 80.648 5.46632 75.0117 5.46632 75.0117Z" fill="#A6CEDF"/>
<path opacity="0.68" d="M327.627 141.943C320.33 146.385 317.377 156.584 293.49 157.12C269.603 157.657 268.53 158.194 269.603 162.22C270.677 166.246 291.343 165.441 292.417 169.735C293.49 174.029 294.027 181.276 253.768 180.471C213.509 179.665 156.91 186.631 112.063 182.886C67.2158 179.141 67.2158 179.141 67.2158 179.141C67.2158 179.141 43.9487 178.151 32.0883 171.799C20.2279 165.447 84.4186 160.616 106.427 160.079C128.435 159.542 136.525 153.996 144.577 148.359C152.629 142.723 178.625 154.417 194.722 143.707C211.541 132.518 227.248 136.314 241.46 134.358C256.082 132.352 249.474 126.262 232.297 123.041C215.12 119.82 208.8 113.315 195.508 113.903C182.101 114.491 178.011 111.896 175.934 110.791C173.602 109.551 169.493 107.219 169.493 107.219L211.72 111.692C211.72 111.692 217.81 112.836 233.377 113.372C248.944 113.909 259.711 116.018 266.926 122.498C278.25 132.678 284.052 139.553 305.843 140.748C327.627 141.943 327.627 141.943 327.627 141.943Z" fill="#F4FFFE"/>
<path d="M320.816 86.3165C320.816 86.3165 321.991 85.8373 323.372 83.4217C324.746 81.0126 322.094 80.2266 322.094 80.2266C322.094 80.2266 325.928 78.6546 326.318 72.9544C326.708 67.2542 320.816 71.1843 320.816 71.1843C320.816 71.1843 320.618 69.919 316.886 69.8615C313.154 69.804 313.543 71.9703 313.543 71.9703C313.543 71.9703 314.917 68.0403 310.796 64.6981C306.667 61.356 305.294 66.2701 305.294 66.2701C305.294 66.2701 304.904 63.746 302.737 63.5351C300.578 63.3242 299.99 65.6822 299.99 65.6822C299.99 65.6822 298.219 61.3624 296.06 61.3624C293.9 61.3624 290.558 63.3242 290.558 63.3242C290.558 63.3242 290.168 62.3401 287.414 61.3624C284.659 60.3846 279.164 60.9726 277.195 61.3624C275.227 61.7522 271.891 63.3242 271.891 63.3242C271.891 63.3242 277.592 56.838 269.144 54.8762C260.696 52.9144 253.232 52.9144 253.232 52.9144C253.232 52.9144 247.532 51.1443 247.34 55.8603C247.142 60.5764 244.784 53.3042 241.25 55.4705C237.716 57.6368 239.288 49.3805 230.444 47.8085C221.6 46.2365 233 39.5586 229.658 36.4146C226.316 33.2706 220.424 29.3405 214.922 33.2706C209.42 37.2006 200.972 36.6127 205.298 43.6804C209.618 50.7544 201.956 40.5363 199.994 40.7344C198.032 40.9325 187.226 43.0925 191.546 46.0384C195.866 48.9843 187.226 41.1243 183.098 43.4823C178.97 45.8403 179.168 47.8021 176.222 48.0002C173.276 48.1983 167.972 47.4123 166.202 50.1602C164.432 52.908 160.7 53.694 159.524 53.3042C158.348 52.9144 159.914 55.266 157.952 56.6463C155.99 58.0202 155.006 49.1824 152.648 49.1824C150.29 49.1824 149.702 52.1284 147.146 50.1665C144.59 48.2047 143.018 45.6486 139.484 49.7767C135.95 53.9049 138.308 49.9748 135.95 49.5786C133.592 49.1824 131.432 50.5627 131.432 50.5627C131.432 50.5627 130.646 46.8308 128.876 46.0448C127.106 45.2588 123.77 47.0289 123.77 47.0289C123.77 47.0289 122.198 43.4951 119.642 43.6868C117.086 43.8849 114.338 46.8308 114.338 46.8308C114.338 46.8308 112.766 43.4887 110.606 42.7027C108.446 41.9166 106.286 43.4887 106.286 43.4887C106.286 43.4887 107.072 41.7185 106.286 38.9707C105.5 36.2229 103.539 37.2006 103.539 37.2006C103.539 37.2006 105.699 32.7274 101.769 31.6219C97.8385 30.5163 97.2506 33.4686 97.2506 33.4686C97.2506 33.4686 94.3046 29.7367 91.5504 33.0788C88.8026 36.421 89.7803 39.7567 89.7803 39.7567C89.7803 39.7567 87.2242 36.4146 85.6521 41.1306C84.0801 45.8467 88.4 48.9907 88.4 48.9907C88.4 48.9907 83.4858 48.6009 84.4699 51.1507C85.454 53.7068 86.4318 57.8285 86.4318 57.8285L77.1978 61.9567C77.1978 61.9567 79.3577 58.8829 76.4117 58.851C73.4658 58.819 70.7116 61.3688 70.7116 61.3688C70.7116 61.3688 72.6734 58.295 66.7815 58.851C60.8897 59.4069 61.4776 63.5287 61.4776 63.5287C61.4776 63.5287 61.6757 62.1548 55.1895 62.1548C48.7034 62.1548 43.9937 64.9026 43.9937 64.9026C43.9937 64.9026 43.2077 63.5287 39.2776 61.1707C35.3476 58.8126 31.4176 61.3688 31.4176 61.3688C31.4176 61.3688 28.2735 59.9949 27.6856 61.7586C27.0977 63.5223 27.6856 66.4746 27.6856 66.4746L36.5298 66.8644C36.5298 66.8644 40.0636 69.4206 43.016 70.9926C45.9619 72.5646 46.946 68.6345 48.3199 69.8168C49.6938 70.9926 53.2341 67.0689 56.5698 68.6409C59.912 70.213 59.7139 73.5551 62.8579 71.1971C66.0019 68.839 68.9479 68.6409 73.2677 71.785C77.5876 74.929 79.1596 72.9608 85.4477 72.1748C91.7357 71.3888 108.434 77.8749 112.166 77.6768C115.897 77.4787 107.06 65.2988 112.166 64.5128C117.271 63.7268 122.186 71.3888 124.933 74.5328C127.681 77.6768 135.152 78.2647 135.152 78.2647C135.152 78.2647 138.097 81.2107 141.638 77.2806C145.178 73.3506 143.012 69.8168 146.354 68.8327C149.696 67.8485 153.818 69.4206 153.818 66.2765C153.818 63.1325 156.374 62.1484 159.709 63.5287C163.052 64.9026 176.018 67.2606 178.567 68.4428C181.117 69.625 197.425 77.287 197.425 77.287L217.069 79.8432L239.071 76.6991L250.465 80.0413L267.163 81.6133L278.953 77.4851L291.331 82.591L300.763 83.4281L308.425 86.3229L315.499 80.6228L320.816 86.3165Z" fill="#C1E0DE"/>
<path d="M39.9107 65.9891C43.3486 65.2989 43.3486 67.6378 48.4353 67.7784C53.522 67.919 51.3238 65.7399 54.3464 65.8677C57.369 65.9955 63.4206 69.983 63.4206 69.983C63.4206 69.983 59.8484 72.0471 57.5096 71.0822C55.1707 70.1172 53.7968 73.5552 50.6336 72.4561C47.4704 71.357 48.5695 70.2578 45.1315 71.6317C41.6935 73.0057 38.6709 69.2673 38.6709 69.2673L39.9107 65.9891Z" fill="#B5DAD7"/>
<path d="M74.0096 62.6854C71.1212 64.4747 67.1336 67.312 71.2617 69.2611C75.3835 71.2101 77.8629 68.2769 80.6108 69.2611C83.3586 70.2452 85.2885 73.6831 85.6975 73.6831C86.1064 73.6831 88.3111 62.6854 88.3111 62.6854H74.0096Z" fill="#B5DAD7"/>
<path d="M108.108 57.4646C112.505 53.4771 116.358 56.2249 116.358 56.2249C116.358 56.2249 118.697 50.5886 122.819 53.7518C126.94 56.915 129.279 61.4522 129.279 61.4522C129.279 61.4522 129.694 58.8385 132.992 58.5638C136.289 58.289 139.727 59.3881 139.727 59.3881C139.727 59.3881 136.839 54.4356 141.926 54.1608C147.012 53.886 149.351 57.1195 149.351 57.1195C149.351 57.1195 149.076 55.9501 151.69 57.1195C154.304 58.289 156.227 60.762 156.227 60.762L153.204 68.1876L147.843 71.2102C147.843 71.2102 145.095 71.2102 143.306 73.6832C141.517 76.1563 139.868 77.9456 139.459 77.9456C139.044 77.9456 127.496 77.9456 127.496 77.9456C127.496 77.9456 122.684 78.4951 122.544 77.9456C122.403 77.396 109.623 65.8551 109.623 65.8551L108.108 57.4646Z" fill="#B5DAD7"/>
<path d="M241.467 69.5615C244.215 64.4748 249.577 60.6279 253.155 64.2001C256.728 67.7722 259.066 68.8458 261.131 65.4909C263.195 62.136 265.252 66.5389 266.767 67.9128C268.281 69.2867 269.789 70.2517 273.368 70.9354C276.94 71.6256 278.32 70.1111 278.595 69.5615C278.87 69.012 281.893 69.5615 281.893 69.5615C281.893 69.5615 279.829 66.9671 283.132 66.9607C286.436 66.9543 287.81 71.1144 287.81 71.1144C287.81 71.1144 295.785 74.514 300.048 72.9995C304.31 71.485 305 73.6897 306.783 74.6482C308.572 75.6132 309.122 74.0987 310.63 74.6482C312.144 75.1978 312.694 72.1752 315.582 73.2743C318.471 74.3734 317.781 75.3384 318.471 77.1213C319.161 78.9106 320.119 81.243 320.119 81.243L318.196 83.4157H313.244H311.454L310.214 86.0549H306.502L294.954 85.3648C294.954 85.3648 290.277 80.2781 286.979 81.652C283.682 83.0259 276.116 86.6045 276.256 87.563C276.397 88.528 279.42 77.2491 279.42 77.2491L266.907 79.5879L255.36 75.2106L247.934 75.8752L241.474 70.2389V69.5615H241.467Z" fill="#B5DAD7"/>
<path d="M21.0015 68.2443C22.1774 74.5324 27.0915 68.8322 29.2514 69.4201C31.4114 70.008 32.1974 70.6343 34.3573 69.7332C36.5172 68.8322 39.2714 67.2985 40.6454 69.7332C42.0193 72.168 47.5213 69.7332 47.5213 69.7332C47.5213 69.7332 42.8053 64.7041 39.0733 65.6882C35.3414 66.6723 31.9993 67.4008 31.9993 65.5604C31.9993 63.72 30.0374 63.3302 27.8711 63.1321C25.7112 62.934 24.3373 63.72 22.171 65.6882C20.0238 67.65 21.0015 68.2443 21.0015 68.2443Z" fill="#80C2BE"/>
<path d="M52.6335 70.2064C52.6335 70.2064 54.2055 65.1069 57.7393 67.1646C61.2732 69.2223 62.4554 69.6249 66.7752 68.4427C71.0951 67.2604 72.8652 68.4427 73.6512 70.2064C74.4372 71.9701 76.2073 71.0627 79.5431 71.2224C82.8852 71.3822 83.275 77.0824 83.275 77.0824C83.275 77.0824 73.0569 74.3345 71.0951 72.7625C69.1333 71.1905 67.5612 72.5708 64.021 71.8806C60.4872 71.1905 52.6271 71.2288 52.6271 71.2288V70.2064H52.6335Z" fill="#80C2BE"/>
<path d="M90.7516 67.1649C84.4636 65.1008 82.3036 67.855 76.6035 67.1649C70.9033 66.4747 71.2995 62.5447 73.8556 61.3688C76.4118 60.193 77.9838 57.049 79.5558 56.4547C81.1278 55.8668 83.4858 56.2566 85.8439 54.6846C88.2019 53.1126 91.7357 55.8604 91.7357 55.8604C91.7357 55.8604 105.686 60.1802 114.332 61.7523C122.978 63.3243 119.636 70.0021 125.924 73.3443C132.212 76.6864 131.03 80.4184 133.784 77.0762C136.532 73.7341 135.944 76.2902 137.516 77.0762C139.088 77.8622 141.836 76.2902 141.836 76.2902C141.836 76.2902 140.264 81.2044 138.494 81.5942C136.724 81.984 132.404 80.2203 130.832 81.5942C129.26 82.9681 126.116 84.0672 125.918 81.6517C125.719 79.2361 126.505 80.6101 122.773 81.0063C119.042 81.3961 99.7875 75.5042 99.7875 75.5042L90.7516 67.1649Z" fill="#80C2BE"/>
<path d="M144.584 71.8806C144.584 71.8806 144.974 69.0433 146.354 68.6471C147.728 68.2445 152.246 69.0433 152.246 66.6789C152.246 64.3145 150.872 66.4169 150.872 63.1067C150.872 59.7965 150.086 57.2404 154.214 57.6366C158.342 58.0328 159.32 61.1704 161.678 61.1704C164.036 61.1704 166.592 60.525 166.982 63.1067C167.372 65.6884 168.554 64.9663 171.11 64.7362C173.666 64.5125 174.452 66.4744 178.184 65.8865C181.916 65.2986 184.076 68.6471 184.076 68.6471C184.076 68.6471 191.15 71.4588 196.058 71.2288C200.972 70.9987 189.77 76.8906 182.894 75.1205C176.018 73.3503 168.944 69.8868 164.426 71.2288C159.908 72.5707 156.764 72.641 155.78 71.2288C154.795 69.8165 151.85 70.4811 149.69 71.2288C147.53 71.9764 144.584 71.8806 144.584 71.8806Z" fill="#80C2BE"/>
<path d="M217.082 75.4527C223.958 75.1204 228.278 69.2285 232.016 71.1903C235.748 73.1521 235.358 75.9767 239.09 75.4527C242.822 74.9223 242.822 74.3344 245.576 76.4943C248.324 78.6542 251.078 74.4046 253.826 75.4527C256.574 76.4943 255.596 74.3983 261.488 77.1205C267.38 79.8428 267.776 78.1366 269.936 77.1205C272.096 76.1045 273.47 77.7915 274.256 74.6922C275.042 71.5929 278.186 73.1585 278.186 73.1585C278.186 73.1585 280.544 71.3884 282.506 72.5706C284.468 73.7465 287.612 75.3696 285.65 78.5903C283.688 81.8046 287.42 77.734 289.58 78.5903C291.74 79.4466 293.114 82.0027 293.114 82.0027C293.114 82.0027 295.076 78.8587 297.044 79.6447C299.012 80.4307 300.974 83.0891 300.974 83.0891C300.974 83.0891 302.744 80.0537 306.08 83.0891C309.422 86.1245 309.422 84.3735 310.994 83.0891C312.566 81.8046 311.384 77.8874 314.726 77.7851C318.068 77.6765 316.298 79.8428 318.656 81.2167C321.014 82.5906 324.356 82.8335 322.976 84.7761C321.602 86.7188 322.388 88.8787 317.672 86.7188C312.956 84.5589 312.368 84.757 310.4 86.5207C308.438 88.2908 310.4 90.6808 303.128 87.6198C295.855 84.5589 295.267 85.3449 292.718 85.7347C290.168 86.1245 286.04 84.7506 286.04 84.7506C286.04 84.7506 288.002 87.8307 286.04 87.9585C284.078 88.0863 280.148 84.3544 280.148 84.3544C280.148 84.3544 282.308 87.8243 278.378 87.9585C274.448 88.0927 273.592 85.0573 270.185 83.4278C266.786 81.8046 252.836 78.0663 249.89 79.0504C246.944 80.0345 235.94 82.7887 229.85 79.9387C223.76 77.0886 222.578 78.4625 220.616 78.8523C218.654 79.2421 213.344 78.0663 213.344 78.0663C213.344 78.0663 210.788 74.1363 211.772 71.9763C212.756 69.8164 217.082 75.4527 217.082 75.4527Z" fill="#80C2BE"/>
<path d="M262.657 54.1987C266.588 53.7003 269.533 55.2723 271.105 58.6144C272.677 61.9566 272.677 61.7585 276.211 60.9725C279.745 60.1865 281.515 61.4517 281.515 61.4517C281.515 61.4517 282.301 58.8062 285.643 59.4005C288.986 59.9884 291.535 63.1324 291.535 63.1324C291.535 63.1324 282.691 61.9566 281.713 63.1324C280.729 64.3082 273.265 62.0461 273.655 66.5193C274.045 70.9925 272.767 59.0043 267.418 59.4005C262.063 59.7903 259.705 56.4545 259.705 56.4545L262.657 54.1987Z" fill="#80C2BE"/>
<g opacity="0.57">
<path opacity="0.57" d="M26.6949 68.7369V74.6735" stroke="#855F55" stroke-width="0.5" stroke-miterlimit="10"/>
<path opacity="0.57" d="M53.3683 69.9702V74.6734" stroke="#855F55" stroke-width="0.5" stroke-miterlimit="10"/>
<path opacity="0.57" d="M146.935 71.7786V75.3636" stroke="#855F55" stroke-width="0.5" stroke-miterlimit="10"/>
<path opacity="0.57" d="M55.4959 68.7369V75.9069" stroke="#855F55" stroke-width="0.5" stroke-miterlimit="10"/>
<path opacity="0.57" d="M51.0098 68.7369V75.9069" stroke="#855F55" stroke-width="0.5" stroke-miterlimit="10"/>
<path opacity="0.57" d="M38.7984 69.1841V76.6928" stroke="#855F55" stroke-width="0.5" stroke-miterlimit="10"/>
<path opacity="0.57" d="M67.8228 65.4268L67.3755 75.5682" stroke="#855F55" stroke-width="0.5" stroke-miterlimit="10"/>
<path opacity="0.57" d="M142.315 74.1558L141.861 84.2972" stroke="#855F55" stroke-width="0.5" stroke-miterlimit="10"/>
<path opacity="0.57" d="M139.759 77.5303L139.311 87.6718" stroke="#855F55" stroke-width="0.5" stroke-miterlimit="10"/>
<path opacity="0.57" d="M132.487 76.6932L132.033 86.8346" stroke="#855F55" stroke-width="0.5" stroke-miterlimit="10"/>
<path opacity="0.57" d="M163.045 68.5004L162.598 78.6418" stroke="#855F55" stroke-width="0.5" stroke-miterlimit="10"/>
<path opacity="0.57" d="M187.155 67.8294L186.778 76.3157" stroke="#855F55" stroke-width="0.5" stroke-miterlimit="10"/>
<path opacity="0.57" d="M225.152 71.2423L224.705 81.3837" stroke="#855F55" stroke-width="0.5" stroke-miterlimit="10"/>
<path opacity="0.57" d="M231.882 66.1743L231.556 73.5679" stroke="#855F55" stroke-width="0.5" stroke-miterlimit="10"/>
<path opacity="0.57" d="M250.477 73.5679L250.03 83.7093" stroke="#855F55" stroke-width="0.5" stroke-miterlimit="10"/>
<path opacity="0.57" d="M256.541 72.4304L256.094 82.5718" stroke="#855F55" stroke-width="0.5" stroke-miterlimit="10"/>
<path opacity="0.57" d="M280.039 87.3391L279.63 96.637" stroke="#855F55" stroke-width="0.5" stroke-miterlimit="10"/>
<path opacity="0.57" d="M313.69 82.7381L313.403 89.3457" stroke="#855F55" stroke-width="0.5" stroke-miterlimit="10"/>
<path opacity="0.57" d="M293.222 82.8663L292.851 91.1673" stroke="#855F55" stroke-width="0.5" stroke-miterlimit="10"/>
<path opacity="0.57" d="M286.909 84.2975L286.704 88.9177" stroke="#855F55" stroke-width="0.5" stroke-miterlimit="10"/>
</g>
<path d="M93.71 44.5816C96.3684 43.0799 98.5666 44.2365 100.126 44.5816C101.685 44.9267 103.596 45.9683 105.615 47.7576C107.634 49.5469 107.289 53.3044 108.274 55.1512C109.258 56.998 111.68 58.7937 114.108 60.1804C116.536 61.5671 116.996 64.9156 116.996 64.9156C116.996 64.9156 118.556 67.689 118.728 69.2482C118.901 70.8075 120.057 76.4693 121.962 78.8976C123.866 81.3259 122.658 84.732 120.23 86.1187C117.801 87.5054 116.587 87.2753 116.415 88.4319C116.242 89.5886 116.53 92.6496 113.124 93.9212C109.718 95.1929 100.183 95.2504 97.5825 95.538C94.9817 95.8255 96.0233 96.3496 93.1924 95.8831C90.3615 95.4166 86.3164 94.5539 87.0704 91.3204C87.8245 88.0869 85.4537 86.2912 81.5237 84.7895C77.5936 83.2877 74.2451 80.1693 74.1301 77.1019C74.015 74.041 77.4211 72.8843 80.7185 70.8586C84.0095 68.8393 84.5335 67.6251 82.3927 65.8869C80.252 64.1551 79.1017 62.8835 82.6803 60.7427C86.2589 58.602 87.767 57.8543 88.3421 56.7552C88.9172 55.656 86.7254 54.2693 87.1855 52.5376C87.6456 50.8058 90.6554 49.3041 91.2305 47.5659C91.8057 45.8277 93.71 44.5816 93.71 44.5816Z" fill="#3E356A"/>
<path d="M94.2405 59.4131C94.8093 60.0649 95.3397 59.6942 95.3397 59.6942C95.3397 59.6942 95.5697 61.2599 96.6433 61.982C97.7168 62.7041 98.1514 63.0811 98.1514 63.0811C98.1514 63.0811 98.3303 63.9694 98.2664 64.7937C98.2153 65.4455 98.3814 66.5063 95.8573 67.9505C93.3331 69.4011 91.448 69.8037 91.2754 70.9092C91.1029 72.0084 90.8984 73.6954 90.8984 73.6954C90.8984 73.6954 89.8823 75.8681 90.8984 75.5486C91.9144 75.2291 102.522 74.0405 102.522 74.0405L107.507 71.2543L107.852 67.8035C107.852 67.8035 108.344 67.8035 106.574 67.484C104.804 67.1645 102.599 67.139 102.484 66.0334C102.369 64.9279 102.28 63.8607 102.28 63.8607C102.28 63.8607 103.602 63.1833 104.414 62.0842C105.225 60.9851 105.967 59.6559 106.024 57.7132C106.082 55.7706 106.312 54.0324 105.443 52.7288C104.574 51.4252 104.197 50.5561 102.311 49.687C100.426 48.8179 100.139 48.4665 99.2953 49.457C98.4517 50.4411 97.065 52.4412 96.7136 53.3998C96.3685 54.3583 95.0329 54.2113 95.0904 55.0549C95.1479 55.8984 95.263 57.2595 95.263 57.2595C95.263 57.2595 95.1543 57.0039 94.4003 56.3329C94.1383 56.1029 92.9369 55.7386 92.873 57.0103C92.8346 58.0008 93.7932 58.9082 94.2405 59.4131Z" fill="#FFC9B1"/>
<path d="M95.8256 90.5469L96.0045 93.9274L99.0527 97.2312L104.97 96.9436L107.405 94.9818C107.405 94.9818 106.753 93.6718 106.823 92.6238C106.894 91.5694 107.405 90.2274 107.405 90.2274L99.1997 89.5756L96.0045 90.5533H95.8256V90.5469Z" fill="#FFC9B1"/>
<path d="M101.334 79.7794L102.554 91.5376C102.554 91.5376 98.3429 92.0296 96.2916 91.8635C94.2403 91.6973 93.6844 90.643 93.6844 90.643L94.2915 87.0963L92.3488 81.4409L101.334 79.7794Z" fill="#4D599C"/>
<path d="M83.179 111.577C82.048 111.405 80.8019 111.437 79.8625 114.472C78.9231 117.508 78.7825 118.064 78.7314 119.501C78.6739 120.939 79.8625 120.441 79.8625 120.441C79.8625 120.441 79.1979 120.549 79.6388 118.728C80.0797 116.907 80.4696 113.84 81.1022 113.399C81.7348 112.958 82.7062 112.9 82.7062 112.9L83.179 111.577Z" fill="#F1C26F"/>
<path d="M114.728 69.6313C114.728 69.6313 119.265 70.609 119.667 70.1425C120.07 69.6696 127.368 55.8346 127.981 54.416C128.601 52.9973 130.812 48.9714 131.176 47.6231C131.541 46.2811 135.209 43.1946 135.464 43.3032C135.72 43.4118 133.796 45.5909 133.796 45.5909C133.796 45.5909 135.976 44.9711 135.905 45.3034C135.835 45.6293 134.09 46.1725 133.656 46.6453C133.221 47.1182 134.742 46.5367 134.781 46.9329C134.819 47.3291 133.183 47.5144 132.531 48.7094C131.879 49.9108 131.081 50.6712 131.732 50.6712C132.384 50.6712 132.934 50.6329 133.803 49.8341C134.672 49.0353 135.803 48.7478 135.145 49.6168C134.493 50.4859 133.656 51.1058 133.439 51.9046C133.221 52.7034 132.748 53.2849 131.911 53.7194C131.074 54.154 129.988 54.4096 129.694 55.4256C129.406 56.4417 123.591 72.5325 122.537 74.162C121.482 75.7916 120.102 75.1781 117.744 75.1781C115.386 75.1781 112.843 75.0311 112.843 75.0311L111.136 68.7494L114.728 69.6313Z" fill="#FFC9B1"/>
<path d="M90.9752 83.6133C90.9752 83.6133 89.8505 91.8185 89.4479 92.5853C89.0453 93.3458 85.0194 104.995 84.2909 106.778C83.5624 108.561 82.9489 110.197 82.5847 110.887C82.2204 111.577 81.2747 113.431 81.607 114.702C81.9329 115.974 82.5527 118.696 82.8083 117.968C83.0639 117.239 82.8083 116.223 82.8083 116.223C82.8083 116.223 83.1342 116.626 83.4282 116.44C83.7158 116.261 82.885 114.881 83.2493 113.897C83.6135 112.919 83.6519 112.555 84.195 112.121C84.7382 111.686 84.8149 111.539 85.1025 111.942C85.39 112.344 83.7222 114.268 83.9778 114.664C84.2334 115.06 86.5211 112.664 86.6297 111.616C86.7384 110.561 86.2719 109.475 86.2719 108.529C86.2719 107.583 87.8695 103.807 90.3745 99.4869C92.8795 95.167 93.608 92.9496 95.4228 88.6681C97.2377 84.3802 97.9662 83.1852 97.9662 83.1852L91.6461 81.9135L90.9752 83.6133Z" fill="#FFC9B1"/>
<path d="M107.098 67.4459L115.022 69.2224C115.022 69.2224 115.297 70.7753 115.022 72.769C114.747 74.7628 114.357 76.207 114.357 76.207L107.763 75.6L107.098 67.4459Z" fill="#4D599C"/>
<path d="M78.4118 155.115C78.4118 155.115 78.0859 157.223 77.4661 158.163C76.8462 159.108 76.0474 159.543 76.0474 159.543L77.2296 161.543L78.7761 162.086L79.7219 161.869C79.7219 161.869 79.8305 160.125 80.3417 159.255C80.8529 158.386 81.575 156.789 81.575 156.789L78.4118 155.115Z" fill="#FFC9B1"/>
<path d="M118.402 161.901C118.498 160.118 120.058 163.179 120.249 164.886C120.383 166.093 120.428 167.282 120.428 167.282L122.716 167.934L124.607 167.499L125.694 166.848C125.694 166.848 124.678 164.521 124.058 163.032C123.438 161.544 122.735 159.173 122.735 159.173L118.402 161.901Z" fill="#FFC9B1"/>
<path d="M90.4128 73.6251C90.4128 73.6251 99.5254 74.6603 102.938 72.6857C107.647 69.957 107.219 68.9601 107.219 68.9601C108.542 69.3755 111.341 71.9444 111.59 74.7562C111.763 76.686 111.578 77.7404 110.472 80.4499C109.245 83.4342 109.43 83.6834 109.737 86.1437C110.025 88.457 110.504 90.4827 110.504 90.4827C110.504 90.4827 106.881 91.6521 102.893 91.5371C98.9055 91.4285 98.6819 91.4796 98.7905 88.2142C98.8991 84.9423 99.1228 85.0573 100.062 85.1085C101.002 85.1596 99.5637 81.3957 99.5637 81.3957L99.3401 84.5525L97.3463 84.495C97.3463 84.495 92.413 84.5525 90.809 83.8879C89.1986 83.2233 88.2017 82.891 88.7577 81.5043C89.3137 80.1176 90.0869 75.2418 90.1444 74.7434C90.2019 74.2449 90.4128 73.6251 90.4128 73.6251Z" fill="#6073D0"/>
<path d="M106.344 102.081C106.344 102.081 114.338 118.274 115.578 120.658C116.824 123.048 116.358 125.227 116.511 126.939C116.664 128.652 119.987 144.117 121.598 151.798C123.208 159.479 123.828 160.514 123.828 160.514C123.828 160.514 122.633 161.441 121.438 162.093C120.243 162.744 118.581 162.955 118.013 162.955C117.444 162.955 112.511 149.152 110.485 143.803C108.459 138.461 106.229 136.122 106.906 132.518C107.584 128.914 108.05 129.067 106.338 127.042C104.625 125.016 103.264 123.073 102.497 121.022C101.73 118.971 99.4361 110.018 99.4361 110.018L101.411 102.49L106.344 102.081Z" fill="#5954A2"/>
<path d="M95.9083 93.4093C95.9083 93.4093 98.6561 95.9527 100.835 96.0549C103.014 96.1571 105.82 96.2594 106.702 95.6907C107.583 95.1219 107.583 95.1219 107.583 95.1219C107.583 95.1219 108.21 97.1796 108.101 99.167C107.999 101.027 107.948 102.228 105.558 107.832C103.168 113.437 99.6914 125.891 99.0204 128.07C98.3494 130.249 96.6879 130.614 95.0264 133.572C93.365 136.531 81.8944 157.498 81.8944 157.498C81.8944 157.498 81.2681 158.066 79.7153 157.185C78.1624 156.303 77.1719 154.903 77.9515 152.667C78.7311 150.436 82.1564 139.592 82.8273 136.889C83.5047 134.192 85.0576 130.301 86.5657 129.47C88.0738 128.639 89.1218 124.696 89.7417 121.738C90.3551 118.779 92.9432 109.749 92.9432 108.299C92.9496 106.848 91.1348 103.474 91.4415 101.186C91.7546 98.905 92.2211 96.8281 93.774 95.4286C95.3268 94.0292 95.9083 93.4093 95.9083 93.4093Z" fill="#8E82B4"/>
<path d="M83.7287 112.676C83.7287 112.676 85.633 112.555 85.6649 114.376C85.6905 116.198 85.6649 119.955 85.6649 119.955L85.4413 121.393H87.0452C87.0452 121.393 86.9366 119.239 86.8791 116.92C86.8216 114.6 86.566 112.625 85.6585 112.006C84.1377 110.97 83.7287 112.676 83.7287 112.676Z" fill="#F1C26F"/>
<path d="M81.2684 128.141C81.2684 128.141 87.2881 129.246 88.7515 129.496C90.2149 129.745 90.2724 129.08 90.3555 126.32C90.4385 123.559 90.822 120.517 90.822 120.517L74.8014 118.14C74.8014 118.14 72.814 124.025 72.4242 125.074C72.0344 126.122 72.5073 126.371 73.5873 126.646C74.6736 126.927 81.2684 128.141 81.2684 128.141Z" fill="#EFBA44"/>
<path d="M74.8078 118.147L90.8283 120.524C90.8283 120.524 89.3202 126.876 81.8052 125.304C74.2838 123.725 74.8078 118.147 74.8078 118.147Z" fill="#F1C26F"/>
<path d="M81.8308 126.32C82.4449 126.32 82.9427 125.822 82.9427 125.208C82.9427 124.594 82.4449 124.096 81.8308 124.096C81.2167 124.096 80.7189 124.594 80.7189 125.208C80.7189 125.822 81.2167 126.32 81.8308 126.32Z" fill="white"/>
<path d="M76.0536 159.587C76.0536 159.587 74.833 159.849 74.3793 160.495C73.9256 161.134 73.376 164.157 75.2164 165.211C77.0568 166.265 80.4501 165.211 80.4501 165.211C80.4501 165.211 80.9805 165.211 80.4501 163.588C79.9197 161.965 79.9197 161.965 79.9197 161.965C79.9197 161.965 78.6161 162.118 77.6831 161.703C76.7501 161.287 76.0536 159.587 76.0536 159.587Z" fill="#FFFBF8"/>
<path d="M70.2641 164.156C69.5867 163.894 68.4173 165.492 69.2097 166.118C70.0021 166.744 83.5815 175.889 84.4122 176.419C85.243 176.95 86.4891 175.25 85.735 174.796C84.9746 174.342 70.2641 164.156 70.2641 164.156Z" fill="#FFFBF8"/>
<path d="M81.243 163.134C81.243 163.134 78.1884 164.003 76.5269 163.134C74.8655 162.265 75.2808 159.779 74.9805 159.587C74.6801 159.396 72.9036 160.463 71.7725 161.556C70.6415 162.648 69.8491 164.08 69.8491 164.08C69.8491 164.08 81.358 171.889 83.6202 173.512C85.8824 175.135 86.2594 175.589 86.2977 174.081C86.3297 172.719 83.0387 170.675 82.2846 168.559C81.5306 166.438 81.243 163.134 81.243 163.134Z" fill="#383769"/>
<path d="M120.479 166.834C120.479 166.834 120.134 167.76 120.128 168.546C120.122 169.332 121.393 172.125 123.508 171.94C125.624 171.754 127.809 168.955 127.809 168.955C127.809 168.955 128.244 168.655 126.882 167.62C125.521 166.585 125.521 166.591 125.521 166.591C125.521 166.591 124.537 167.466 123.534 167.652C122.531 167.844 120.479 166.834 120.479 166.834Z" fill="#FFFBF8"/>
<path d="M118.434 174.291C117.725 174.464 117.68 176.445 118.684 176.502C119.693 176.566 136.065 176.33 137.049 176.292C138.034 176.253 138.085 174.144 137.209 174.208C136.334 174.272 118.434 174.291 118.434 174.291Z" fill="#FFFBF8"/>
<path d="M126.876 167.192C126.876 167.192 124.863 169.646 123.004 169.882C121.144 170.119 120.064 167.837 119.713 167.85C119.361 167.863 118.505 169.755 118.198 171.295C117.891 172.835 118.057 174.464 118.057 174.464C118.057 174.464 131.963 174.317 134.749 174.356C137.535 174.394 138.104 174.554 137.273 173.295C136.525 172.157 132.653 172.355 130.832 171.045C128.991 169.742 126.876 167.192 126.876 167.192Z" fill="#383769"/>
<path d="M93.8895 58.0075C94.5477 58.7744 95.1995 59.2664 95.0334 58.6402C94.8672 58.0139 94.388 56.8509 93.7873 57.1449C93.193 57.4388 93.8895 58.0075 93.8895 58.0075Z" fill="#EBB4A1"/>
<path d="M98.2288 63.1837C98.2096 63.1837 99.6858 64.3787 100.695 64.3787C101.565 64.3787 102.293 63.8675 102.293 63.8675C102.293 63.8675 101.616 65.5801 100.9 65.4587C100.191 65.3373 99.558 65.2095 99.034 64.5001C98.51 63.7908 98.2288 63.1837 98.2288 63.1837Z" fill="#EBB4A1"/>
<path d="M98.2032 59.0617C98.7784 59.0617 99.2448 58.8557 99.2448 58.6016C99.2448 58.3475 98.7784 58.1415 98.2032 58.1415C97.6279 58.1415 97.1616 58.3475 97.1616 58.6016C97.1616 58.8557 97.6279 59.0617 98.2032 59.0617Z" fill="#FFA392"/>
<path d="M104.766 59.0617C105.341 59.0617 105.807 58.8557 105.807 58.6016C105.807 58.3475 105.341 58.1415 104.766 58.1415C104.19 58.1415 103.724 58.3475 103.724 58.6016C103.724 58.8557 104.19 59.0617 104.766 59.0617Z" fill="#FFA392"/>
<path d="M101.59 56.6273C101.641 57.5347 102.088 58.6146 102.088 58.6146C102.088 58.6146 102.516 59.554 101.935 59.6435C101.353 59.7266 101.11 59.6435 101.11 59.6435" stroke="#EBB4A1" stroke-width="0.3" stroke-miterlimit="10"/>
<path d="M106.594 54.5505C106.332 54.2182 105.52 53.5281 104.766 53.5025C103.641 53.4578 102.076 53.5664 102.101 53.9882C102.127 54.4674 102.287 54.7486 102.804 54.5569C103.322 54.3652 103.756 54.2502 104.568 54.2757C105.379 54.3013 106.594 54.5505 106.594 54.5505Z" fill="#2D254D"/>
<path d="M95.3464 54.557C95.6084 54.2247 96.2283 53.7582 96.9376 53.6496C98.0495 53.477 99.8644 53.5729 99.8452 53.9882C99.8196 54.4675 99.6599 54.7487 99.1423 54.557C98.6246 54.3653 98.1901 54.2502 97.3785 54.2758C96.567 54.3014 95.3464 54.557 95.3464 54.557Z" fill="#2D254D"/>
<path opacity="0.73" d="M99.6728 61.0812C99.6728 61.0812 99.513 61.0557 99.6664 61.2793C99.8198 61.503 100.433 62.6021 101.647 62.5574C102.862 62.5127 103.571 61.2921 103.564 61.0429C103.564 60.8959 102.357 61.209 101.494 61.1707C100.631 61.1323 99.6728 61.0812 99.6728 61.0812Z" fill="#E7A69B"/>
<path d="M100.548 61.4777C100.548 61.4777 100.459 61.4649 100.548 61.5608C100.638 61.6566 100.97 62.1295 101.628 62.1103C102.286 62.0912 102.663 61.5799 102.663 61.4713C102.663 61.4074 102.012 61.5416 101.545 61.516C101.072 61.4969 100.548 61.4777 100.548 61.4777Z" fill="#F5D9CC"/>
<path d="M102.951 56.7625C102.951 56.7625 103.782 57.1842 104.459 57.1523C105.136 57.1203 105.801 56.4941 105.712 56.2321C105.622 55.9701 105.635 56.0404 105.002 55.855C104.363 55.6697 104.108 55.7336 103.622 56.0084C103.143 56.2768 102.951 56.7625 102.951 56.7625Z" fill="#F9E6D3"/>
<path d="M102.862 56.8382C102.862 56.8382 103.251 55.8413 104.14 55.6113C105.06 55.3748 105.43 55.9883 106.133 55.7519C106.836 55.5154 106.836 55.509 106.836 55.509C106.836 55.509 105.884 56.2439 105.712 56.2311C105.322 56.1992 105.117 55.918 104.459 55.9436C103.801 55.9755 102.862 56.8382 102.862 56.8382Z" fill="#06070D"/>
<path d="M105.239 56.5175C105.336 56.145 105.138 55.7708 104.796 55.6818C104.454 55.5928 104.099 55.8226 104.002 56.1951C103.905 56.5676 104.103 56.9418 104.445 57.0308C104.786 57.1199 105.142 56.8901 105.239 56.5175Z" fill="#06070D"/>
<path d="M104.54 56.2862C104.567 56.1836 104.514 56.081 104.422 56.057C104.329 56.033 104.233 56.0966 104.206 56.1991C104.179 56.3016 104.233 56.4043 104.325 56.4283C104.417 56.4523 104.514 56.3887 104.54 56.2862Z" fill="#FBF2F7"/>
<path d="M99.6548 56.7362C99.6548 56.7362 98.8688 57.2347 98.185 57.2666C97.5076 57.2986 96.7855 56.7362 96.8494 56.4614C96.9133 56.1866 96.907 56.2633 97.5204 56.0205C98.1403 55.7777 98.4023 55.8224 98.9071 56.0461C99.4247 56.2697 99.6548 56.7362 99.6548 56.7362Z" fill="#F9E6D3"/>
<path d="M99.7497 56.8074C99.7497 56.8074 99.2704 55.8489 98.363 55.7019C97.4236 55.5485 97.1552 56.0661 96.4204 55.9447C95.89 55.8553 95.5768 55.8489 95.5768 55.8489C95.5768 55.8489 96.7527 56.4623 96.8485 56.4623C97.2383 56.4623 97.4109 56.0917 98.0691 56.0661C98.7337 56.0342 99.7497 56.8074 99.7497 56.8074Z" fill="#06070D"/>
<path d="M98.6068 57.141C98.9453 57.0401 99.1306 56.6593 99.0207 56.2904C98.9108 55.9214 98.5473 55.7041 98.2088 55.8049C97.8703 55.9057 97.685 56.2866 97.7949 56.6555C97.9049 57.0245 98.2683 57.2418 98.6068 57.141Z" fill="#06070D"/>
<path d="M98.6982 56.5299C98.7896 56.5026 98.8392 56.3982 98.8089 56.2967C98.7787 56.1952 98.6801 56.1349 98.5887 56.1621C98.4973 56.1894 98.4477 56.2937 98.478 56.3953C98.5082 56.4968 98.6068 56.5571 98.6982 56.5299Z" fill="#FBF2F7"/>
<path d="M174.516 19.5185C174.516 19.5185 172.797 17.4545 175.34 16.1445C177.89 14.8344 179.954 16.0742 180.644 16.7643C181.334 17.4545 181.468 18.2788 182.644 18.3491C183.814 18.4194 185.328 17.25 185.814 18.3491C186.293 19.4482 186.913 20.0042 186.293 20.8286C185.673 21.6529 185.673 21.6529 185.673 21.6529C185.673 21.6529 186.881 22.0683 186.555 23.1674C186.223 24.2665 185.264 24.6819 185.264 24.6819C185.264 24.6819 185.814 26.746 184.644 29.9156C183.475 33.0852 182.369 34.5294 182.369 34.5294L182.44 35.9736C182.44 35.9736 182.58 36.389 183.954 36.7979C185.334 37.2133 188.568 37.4178 188.568 37.4178C188.568 37.4178 189.533 40.6577 192.977 34.8681C196.422 29.0848 199.866 23.8448 202.62 21.7104C205.374 19.5761 206.48 19.9914 206.48 19.9914C206.48 19.9914 209.72 16.8218 208.959 15.0325C208.199 13.2433 207.1 12.1377 207.17 10.8277C207.24 9.5177 207.311 9.10872 207.311 9.10872C207.311 9.10872 206.416 11.2431 205.592 9.45379C204.767 7.66451 204.077 5.11477 204.077 5.11477C204.077 5.11477 206.212 6.69957 207.451 6.21391C208.691 5.73463 207.106 1.7343 208.212 1.05053C209.317 0.366768 220.475 -0.604558 221.229 0.500966C221.989 1.6001 222.328 2.43084 222.469 4.22013C222.609 6.00941 222.469 7.46002 222.469 7.46002L226.737 9.3196L222.532 9.38989L222.737 10.9044C222.737 10.9044 225.766 14.828 225.012 16.0039C224.251 17.1733 223.427 17.103 222.948 17.0391C222.469 16.9688 221.849 16.8346 221.849 16.8346L221.574 18.3491C221.574 18.3491 222.954 18.2021 222.264 19.1735C221.574 20.1448 221.644 21.5187 219.855 22.4836C218.066 23.4486 216.411 23.6531 215.311 22.9629C214.212 22.2728 214.072 21.3781 213.382 22.6178C212.691 23.8576 211.247 25.9216 211.247 25.9216L213.177 29.5066C213.177 29.5066 215.797 29.8517 219.171 30.6057C222.545 31.3662 223.235 31.4301 223.235 31.4301C223.235 31.4301 223.165 29.1551 224.475 28.2605C225.785 27.3658 227.574 25.0206 232.054 25.9855C236.534 26.9505 238.253 27.7045 239.147 29.3596C240.042 31.0147 239.147 31.9094 239.147 31.9094L238.802 31.7688C238.802 31.7688 238.872 32.248 238.943 33.6283C239.013 35.0087 239.218 35.6924 239.908 36.7979C240.598 37.8971 240.457 38.191 239.908 38.3188C239.358 38.4467 239.837 39.5522 239.563 39.7567C239.288 39.9612 237.844 38.1719 236.879 39.2774C235.914 40.3829 237.639 41.4117 237.639 41.4117H238.4L237.984 42.447C237.984 42.447 238.879 43.2713 237.709 43.8912C236.54 44.5111 236.885 43.8912 235.505 43.8912C234.124 43.8912 233.505 44.0318 233.505 44.4408C233.505 44.8497 234.329 44.3705 236.534 45.8211C238.738 47.2653 238.738 47.2653 238.738 47.2653C238.738 47.2653 238.598 41.5459 240.943 37.6223C243.288 33.6986 244.183 33.1427 244.183 33.1427L244.873 33.5581C244.873 33.5581 245.014 31.9733 245.838 32.0436C246.662 32.1138 246.662 32.1138 246.662 32.1138L247.627 28.8101C247.627 28.8101 245.352 27.5703 243.767 25.3657C242.183 23.161 240.873 20.2662 241.908 18.8923C242.943 17.512 243.838 17.5823 243.838 17.5823C243.838 17.5823 242.253 16.3426 244.732 14.9622C247.212 13.5819 252.037 13.4477 253.551 12.2783C255.066 11.1089 255.896 11.7287 256.03 12.5531C256.171 13.3774 255.34 14.7578 255.34 14.7578C255.34 14.7578 256.101 14.9622 256.51 16.2723C256.925 17.5823 256.785 18.8923 258.51 19.7166C260.229 20.541 260.855 20.6816 260.574 21.1609C260.293 21.6401 259.475 22.0555 259.475 22.0555L259.75 23.2249C259.75 23.2249 257.27 22.8798 257.404 23.9854C257.545 25.0845 258.369 25.2251 259.123 25.3657C259.884 25.5063 260.695 25.1612 260.632 26.3306C260.568 27.5 260.152 28.3308 259.194 28.465C258.229 28.6056 255.749 28.5353 255.2 29.5641C254.65 30.5993 255.545 33.9734 255.545 33.9734L256.51 34.3185L255.96 35.9736C255.96 35.9736 258.58 35.3537 259.475 37.9035C260.369 40.4532 263.335 55.1254 265.194 59.5347C267.054 63.944 270.358 70.2832 270.428 72.5518C270.498 74.8267 271.942 74.897 272.147 75.8555C272.351 76.8141 270.907 78.7504 270.907 78.7504C270.907 78.7504 271.457 81.1212 273.042 83.4153C274.626 85.7094 274.006 87.6393 274.006 87.6393C274.006 87.6393 281.036 74.0023 283.79 69.7975C286.544 65.5927 288.404 63.4583 288.404 63.4583C288.404 63.4583 289.369 59.4644 291.989 57.33C294.609 55.1957 297.088 53.2658 298.462 53.4064C299.836 53.547 299.842 53.547 299.842 53.547L300.737 52.1027C300.737 52.1027 298.462 50.1729 297.568 47.4186C296.673 44.6644 297.363 41.9741 297.363 41.9741C297.363 41.9741 293.094 42.7345 290.27 39.2199C287.445 35.7052 289.58 32.1905 291.439 30.4715C293.299 28.7525 297.159 27.647 300.737 30.4012C304.322 33.1555 303.146 36.4657 303.146 36.4657C303.146 36.4657 305.626 35.6413 307.351 36.2612C309.076 36.881 309.485 38.1207 309.485 38.1207C309.485 38.1207 311.345 37.5712 312.655 39.2199C313.965 40.875 313.55 44.4535 313.55 44.4535L311.965 44.7986C311.965 44.7986 311.55 46.5879 311.69 47.8979C311.831 49.2079 311.69 50.4477 311.69 50.4477L310.246 50.3774C310.246 50.3774 309.696 51.6874 309.211 52.7226C308.731 53.7578 308.112 54.0326 307.147 53.6875C306.182 53.3425 305.977 53.6173 305.357 54.857C304.737 56.0967 303.843 58.1608 305.012 59.8862C306.182 61.6051 309.767 66.9794 309.626 71.3887C309.485 75.798 306.597 80.137 305.702 83.9265C304.808 87.716 304.808 87.716 304.808 87.716C304.808 87.716 308.112 88.4061 310.182 88.6106C312.246 88.8151 312.936 88.7512 314.521 86.8916C316.106 85.032 316.93 85.1023 318.17 85.9267C319.41 86.751 318.79 91.5054 317.55 91.5054C316.31 91.5054 314.655 90.6811 313.761 90.8856C312.866 91.09 308.661 93.2308 306.393 93.5695C304.118 93.9146 304.118 93.9146 304.118 93.9146L304.597 99.9087H310.246C310.246 99.9087 310.936 103.353 309.351 107.558C307.766 111.763 307.766 111.763 307.766 111.763L316.719 142.072L315.48 142.967L319.474 154.68C319.474 154.68 321.058 155.23 321.819 155.44C322.579 155.645 320.854 153.306 322.854 153.651C324.854 153.996 325.678 154.642 324.918 155.453C324.158 156.265 325.608 156.955 326.982 157.3C328.362 157.645 331.462 159.23 329.877 159.364C328.292 159.505 315.825 159.364 315.825 159.364V155.715L314.655 154.68L315.895 154.61L310.521 145.101L308.112 145.171C308.112 145.171 307.492 143.382 305.766 140.417C304.047 137.452 303.146 137.043 303.146 137.043L304.661 136.008C304.661 136.008 301.076 130.978 296.532 124.364C291.989 117.75 291.433 117.271 291.433 117.271C291.433 117.271 289.918 122.096 286.678 125.329C283.439 128.563 277.106 135.803 277.106 135.803L277.726 136.768C277.726 136.768 274.006 139.733 272.492 141.657C270.977 143.58 270.492 147.101 270.492 147.101L266.632 145.101L262.089 149.644V151.709C262.089 151.709 263.328 152.124 264.018 154.054C264.709 155.984 266.428 157.703 266.428 157.703C266.428 157.703 269.182 157.632 269.182 158.463C269.182 159.287 269.182 159.287 269.182 159.287L264.843 159.415L260.849 155.773L249.135 155.913L249.896 144.066L246.522 144.27L245.697 136.142L241.633 154.258L240.668 154.329L240.738 156.188L242.394 156.258C242.394 156.258 242.048 158.463 248.662 160.048C255.276 161.633 254.931 163.697 254.931 163.697H233.99L233.786 153.779C233.786 153.779 231.306 154.329 231.306 153.159C231.306 151.99 233.754 133.873 234.942 127.604C236.131 121.335 237.575 120.786 236.131 118.926C234.687 117.067 233.856 117.207 233.722 119.751C233.581 122.3 231.862 124.85 231.517 126.639C231.172 128.429 228.003 153.99 228.003 153.99L226.967 154.13L226.897 156.955C226.897 156.955 231.166 159.85 232.405 160.329L233.575 160.604L233.645 163.703L218.903 163.358C218.903 163.358 220.142 158.259 220.002 156.265C219.861 154.265 220.206 152.68 220.206 152.68L218.277 152.539C218.277 152.539 217.797 141.516 218.967 133.253C220.136 124.984 222.616 121.201 223.446 113.552C224.271 105.903 223.862 105.564 223.862 105.564L220.762 105.289L217.733 117.482L212.57 117.067L204.582 95.0904L192.185 119.06H190.67L190.945 122.92L195.425 124.16L195.495 126.224L190.606 125.464L189.367 146.545L188.127 147.095L187.852 148.264L191.156 150.814L195.981 151.913L197.016 154.392L192.472 154.942L180.209 155.012L181.104 147.024L180.759 146.884C180.759 146.884 179.724 138.896 179.59 127.183C179.449 115.469 180.829 114.715 180.414 106.516C179.999 98.3175 180.273 94.3938 180.069 93.0838C179.864 91.7738 179.308 94.119 179.174 95.6336C179.04 97.1481 176.765 107.066 176.145 112.51C175.525 117.955 174.867 128.007 173.992 132.071C173.116 136.135 172.222 142.82 172.081 144.123C171.94 145.427 171.736 146.807 171.736 146.807L170.426 146.737C170.426 146.737 168.911 147.216 171.736 149.012C174.56 150.808 176.561 150.392 177.18 152.181C177.8 153.971 177.73 154.936 177.73 154.936C177.73 154.936 166.572 155.485 165.333 154.591C164.093 153.696 164.508 149.977 165.333 148.667C166.157 147.357 164.553 146.047 164.553 146.047L163.754 145.906C163.754 145.906 163.409 128.409 164.17 123.451C164.93 118.492 166.719 110.913 166.234 104.574C165.755 98.2344 165.755 94.1702 165.755 94.1702L163.678 94.5153C163.678 94.5153 163.684 88.1058 164.445 79.7025C165.205 71.2992 165.205 71.2992 165.205 71.2992C165.205 71.2992 163.876 70.264 163.678 71.0245C163.48 71.7849 162.17 73.4336 160.725 73.0246C159.281 72.6093 158.521 72.0597 158.521 72.0597L156.246 73.5039L156.795 69.5803C156.795 69.5803 154.246 69.5802 154.52 65.0367C154.795 60.4932 155.415 60.1482 156.866 60.0779C158.31 60.0076 158.246 58.7678 156.661 58.8381C155.076 58.9084 156.112 57.0488 156.112 57.0488L154.802 56.3587L157.351 56.4993C157.351 56.4993 157.351 49.4699 159.141 43.5461C160.93 37.6223 171.538 34.9384 171.538 34.9384C171.538 34.9384 171.883 36.0375 172.848 35.9033C173.813 35.7627 173.813 35.7627 173.813 35.7627L173.742 29.5641C173.742 29.5641 173.193 29.7686 172.503 27.9793C171.813 26.19 172.707 25.7044 172.707 25.7044C172.707 25.7044 169.538 24.6691 170.777 21.4356C171.972 18.2085 174.516 19.5185 174.516 19.5185Z" fill="#96A4AA" fill-opacity="0.65"/>
<path d="M204.947 41.514L203.036 42.9646C203.036 42.9646 206.09 44.9456 213.682 43.2011C216.692 42.5109 215.484 44.7028 212.442 44.2107C209.407 43.7251 209.177 44.0638 209.177 44.0638C209.177 44.0638 213.695 44.5494 215.433 47.0992C217.171 49.6489 217.395 52.9846 217.395 52.9846C217.395 52.9846 220.469 51.6746 219.83 50.2112C219.191 48.7479 217.734 48.1152 219.606 45.9745C221.478 43.8401 220.283 43.5398 219.421 43.3481C218.558 43.1627 212.072 41.514 212.072 41.514H204.947Z" fill="#005D9C"/>
<path d="M198.498 31.5064C198.498 31.5064 195.763 29.8577 195.54 27.947C195.316 26.0363 197.188 24.4259 197.789 23.9722C198.39 23.5249 197.885 22.4385 197.01 22.2852C196.14 22.1382 198.16 20.7131 199.476 20.5981C200.786 20.4831 203.189 21.4991 204.275 21.7228C205.362 21.9465 205.624 20.9176 204.985 20.5917C204.346 20.2658 206.819 20.3233 207.234 20.5917C207.649 20.8601 208.02 21.2755 207.982 21.9529C207.943 22.6302 208.097 22.7772 210.116 22.9625C212.135 23.1479 214.5 24.0042 214.391 25.9404C214.283 27.8767 213.49 28.5477 213.49 28.5477C213.49 28.5477 215.062 28.963 214.168 31.1357C213.273 33.3085 211.88 35.5195 211.956 36.2352C212.033 36.9509 211.279 36.7592 211.279 36.7592L210.64 35.4109L198.498 31.5064Z" fill="#49476A"/>
<path d="M221.069 141.567C221.069 141.567 222.36 143.88 221.887 146.264C221.408 148.648 223.453 151.913 223.453 151.913C223.453 151.913 227.127 151.434 227.262 151.236C227.396 151.031 229.166 145.178 229.166 145.178C229.166 145.178 229.236 143.586 227.364 142.647C225.491 141.708 221.069 141.567 221.069 141.567Z" fill="#F0C6B4"/>
<path d="M205.01 147.286C204.806 149.599 204.531 151.165 205.688 151.983C206.844 152.801 205.688 154.571 205.688 154.571L198.818 155.453C198.818 155.453 196.23 154.43 196.709 154.226C197.188 154.021 197.457 153.817 197.661 149.599C197.866 145.382 198.818 141.982 198.818 141.982L205.01 147.286Z" fill="#F0C6B4"/>
<path d="M192.722 84.4248C192.722 84.4248 191.482 113.916 192.722 118.376C193.962 122.837 191.565 126.141 193.38 130.601C195.195 135.062 196.684 139.19 196.85 142.66C197.016 146.13 195.527 148.36 201.56 148.028C207.592 147.695 206.186 148.194 206.02 145.465C205.854 142.736 204.864 136.876 204.864 136.876L203.79 125.061L201.228 114.325V106.561L204.614 115.565C204.614 115.565 204.448 117.38 205.03 118.869C205.611 120.357 214.532 132.001 216.43 135.637C218.328 139.273 219.402 144.475 221.057 144.807C222.712 145.139 228.406 143.152 228.246 141.088C228.08 139.024 226.182 140.513 226.514 138.276C226.846 136.046 228.412 133.4 227.754 129.93C227.096 126.46 223.21 125.387 221.312 122.741C219.414 120.095 219.497 117.865 218.916 116.709C218.334 115.552 215.695 115.884 215.695 115.884C215.695 115.884 217.018 114.894 217.759 113.488C218.501 112.082 215.778 105.225 216.52 103.078C217.261 100.931 217.51 100.682 216.104 98.2853C214.698 95.889 214.698 91.3455 214.615 89.8565C214.532 88.3676 214.532 87.9586 214.532 87.9586C214.532 87.9586 215.689 87.7925 215.772 86.9681C215.855 86.1438 214.2 83.7474 214.2 83.7474H204.697L192.722 84.4248Z" fill="#355F8D"/>
<path d="M186.683 48.1919C186.683 48.1919 187.124 44.6708 186.312 41.514C185.501 38.3572 186.306 36.8235 186.804 35.6541C187.303 34.4847 187.354 32.5931 187.047 31.5515C186.734 30.5163 186.395 30.0178 186.811 29.8389C187.226 29.66 187.616 30.1265 187.616 30.1265C187.616 30.1265 187.098 28.3372 187.616 28.1519C188.133 27.9729 188.395 28.056 188.523 28.5672C188.651 29.0848 188.76 29.5002 188.76 29.5002C188.76 29.5002 188.421 27.5256 189.303 27.5256C190.185 27.5256 190.287 28.3052 190.312 29.6025C190.338 30.8997 190.261 27.4489 190.932 27.5256C191.61 27.6023 191.469 27.8707 191.61 29.1104C191.769 30.5227 191.974 32.1905 191.897 34.8106C191.821 37.4306 190.549 40.4021 190.076 41.105C189.609 41.808 190.945 45.4952 190.945 45.4952L186.683 48.1919Z" fill="#F0C6B4"/>
<path d="M207.1 84.5652C207.1 84.5652 206.058 85.3065 205.388 86.8977C204.717 88.4889 205.534 88.9298 204.717 90.0481C203.899 91.1664 203.547 91.7352 204.071 92.0355C204.595 92.3359 205.036 92.2847 205.586 91.4668C206.129 90.6488 205.662 88.8851 206.129 88.7381C206.602 88.5911 206.921 88.9362 206.87 90.3038C206.819 91.6713 206.448 92.2911 205.975 93.0835C205.503 93.8759 205.253 94.745 205.803 94.3233C206.346 93.9015 205.458 95.1668 205.701 95.7866C205.95 96.4065 205.822 96.579 206.493 96.0614C207.164 95.5438 207.087 96.1381 206.889 96.6557C206.691 97.1733 207.285 97.9466 208.033 96.8794C208.781 95.8122 208.953 96.2148 208.455 97.4162C207.956 98.6176 208.998 98.5153 209.842 96.6046C210.685 94.6939 211.925 91.2942 211.95 89.8309C211.976 88.3675 211.803 85.3385 211.803 85.3385L207.1 84.5652Z" fill="#F0C6B4"/>
<path d="M188.344 40.5105C189.738 40.7022 189.955 41.418 190.351 40.6767C190.747 39.9354 192.211 39.2261 192.211 37.9544C192.211 36.6827 192.537 36.0245 193.195 35.0979C193.853 34.1713 193.201 32.8166 192.402 34.018C191.604 35.213 191.201 36.0309 191.201 36.0309L190.581 34.4078L188.53 38.587L188.344 40.5105Z" fill="#F0C6B4"/>
<path d="M211.803 32.7777V42.5229L206.442 45.6734L205.317 43.3856C205.317 43.3856 205.956 42.2609 205.317 41.6603C204.678 41.0596 203.969 40.4205 203.969 40.4205L205.918 36.9314L208.429 33.7107L211.803 32.7777Z" fill="#F0C6B4"/>
<path d="M204.423 40.9511L205.809 42.9002C205.809 42.9002 208.359 42.9002 209.26 40.5741C210.161 38.248 210.985 37.5387 210.985 37.5387H211.733V35.89L211.548 34.3563L207.912 33.8707L205.023 35.9347L204.423 40.9511Z" fill="#EAB19F"/>
<path d="M204.083 25.1674C204.083 25.1674 200.262 25.0205 198.984 27.4935C197.706 29.9666 197.936 31.3533 198.383 33.2256C198.831 35.098 198.198 35.2513 198.569 36.376C198.946 37.5007 199.955 40.0888 200.895 40.7598C201.834 41.4372 202.844 41.4372 204.384 40.7598C205.917 40.0824 208.621 39.1494 208.806 38.3251C208.991 37.5007 209.515 35.328 209.515 35.328C209.515 35.328 209.63 36.4144 210.301 36.0374C210.979 35.6603 211.464 34.3886 211.503 32.9636C211.541 31.5386 211.241 30.2286 209.969 30.2669C208.697 30.3052 208.582 32.7783 208.582 32.7783L207.905 33.2192C207.905 33.2192 208.32 30.8676 206.818 29.5959C205.317 28.3242 205.157 27.7939 204.767 26.5605C204.384 25.3208 204.083 25.1674 204.083 25.1674Z" fill="#F0C6B4"/>
<path d="M203.036 42.9645C203.036 42.9645 207.982 44.2809 209.746 43.3159C211.509 42.351 211.216 41.2391 212.072 41.5202C219.338 43.8974 218.04 44.1083 216.053 44.3703C214.066 44.6323 209.976 44.3703 209.976 44.3703H204.269L203.036 42.9645Z" fill="#4A8FBA"/>
<path d="M197.699 54.4734C197.699 54.4734 195.405 48.7093 193.782 48.0383C192.153 47.3737 191.859 46.7794 191.859 46.7794C191.859 46.7794 194.006 44.1147 190.53 45.6675C187.053 47.2204 186.018 45.5972 185.724 46.6325C185.43 47.6677 185.13 49.4442 186.165 50.6264C187.2 51.8086 185.647 51.2207 185.053 52.1793C184.459 53.1378 184.241 53.6554 185.865 56.8378C187.494 60.0202 186.159 62.2376 187.417 63.7905C188.676 65.3433 193.699 67.0431 193.699 67.0431L198.025 54.6971L197.699 54.4734Z" fill="#005D9C"/>
<path d="M203.119 42.9006C203.119 42.9006 203.566 43.9869 202.882 44.4854C202.199 44.9838 199.668 46.2427 197.291 49.2781C194.907 52.3071 194.224 51.9109 193.936 58.3012C193.648 64.6852 193.789 65.4456 193.323 65.8418C192.856 66.238 193.323 69.414 192.888 71.1841C192.453 72.9542 190.69 76.0535 191.444 77.9323C192.198 79.811 192.741 79.811 192.818 81.3255C192.888 82.84 192.6 83.1595 195.521 83.4343C198.441 83.7091 202.448 84.4632 202.448 84.4632C202.448 84.4632 204.359 84.3545 205.662 84.6804C206.959 85.0064 205.375 85.5815 207.969 85.8371C210.57 86.0927 210.889 86.7765 212.334 85.8371C213.778 84.8977 213.599 83.4343 213.599 83.4343L214.57 83.6005C214.57 83.6005 214.423 79.7024 215.542 77.6128C216.66 75.5231 214.967 72.2385 215.542 70.1105C216.117 67.9826 216.411 66.6086 216.513 63.9055C216.615 61.2024 217.107 59.8924 217.561 56.2947C218.008 52.6905 217.331 48.556 215.829 47.2652C214.327 45.9743 213.803 44.4598 209.17 44.0764C204.544 43.6802 203.119 42.9006 203.119 42.9006Z" fill="#0096CA"/>
<path d="M192.767 82.1819V84.3865C192.767 84.3865 193.757 85.524 198.39 85.3004C203.03 85.0703 206.142 85.3323 206.142 85.3323V84.77C206.142 84.77 204.723 84.0862 204.979 82.7954C205.228 81.5045 205.765 80.5907 205.688 78.8397C205.611 77.0888 204.806 74.5838 204.979 72.7562C205.151 70.9285 206.979 70.3215 207.056 65.1517C207.132 59.9819 205.841 58.3077 205.841 58.3077C205.841 58.3077 205.995 64.0078 205.464 66.2125C204.934 68.4172 203.106 70.0914 203.49 72.3727C203.867 74.6541 204.404 78.3796 203.566 80.808C202.729 83.2427 201.892 84.5335 198.85 83.7731C195.809 83.019 192.767 82.1819 192.767 82.1819Z" fill="#005D9C"/>
<path d="M197.847 87.396L204.87 115.648C204.87 115.648 202.307 116.887 203.215 120.357C204.122 123.827 206.352 122.671 206.602 129.527C206.851 136.384 207.592 139.03 206.602 140.845C205.611 142.659 205.362 148.36 204.288 139.439C203.215 130.518 201.892 120.932 199.413 111.353C196.933 101.768 195.86 97.5566 195.86 97.5566L198.505 96.483C198.505 96.483 197.432 90.7829 197.182 88.7188C196.94 86.6547 197.847 87.396 197.847 87.396Z" fill="#2B4A79"/>
<path d="M198.308 53.8248C198.308 53.8248 203.912 52.0339 204.044 55.3977C204.172 58.7662 202.728 60.6187 200.272 60.2728C197.815 59.9269 197.598 59.8606 197.598 59.8606V58.7804C197.598 58.7804 200.594 59.1926 201.327 58.5435C202.061 57.8945 202.231 57.1175 202.127 56.1463C202.023 55.175 201.697 54.8529 200.296 54.9618C198.895 55.0708 198.355 55.0897 198.355 55.0897L198.308 53.8248Z" fill="white"/>
<path d="M197.01 56.2879L196.703 57.2902L199.485 57.4382L199.898 56.4168L197.01 56.2879Z" fill="white"/>
<path d="M207.1 155.037C207.1 155.037 209.433 159.53 208.481 160.482C207.528 161.434 205.452 160.961 194.818 161.843C184.185 162.725 182.83 161.709 182.421 161.843C182.012 161.977 182.421 160.207 182.421 160.207L184.6 159.594L199.841 154.085L207.1 155.351V155.037Z" fill="white"/>
<path d="M196.85 149.599C199.233 149.12 199.981 152.251 199.981 152.251H203.317C203.317 152.251 203.183 150.705 205.151 150.903C207.125 151.094 207.106 154.162 207.106 154.162L207.534 155.996C207.534 155.996 202.499 156.744 202.192 156.744C201.885 156.744 199.502 158.923 199.502 158.923C199.502 158.923 187.463 161.166 185.756 161.166C184.05 161.166 179.225 160.757 184.529 158.373C189.833 155.989 194.422 154.564 194.818 153.472C195.214 152.379 195.757 152.315 195.859 151.024C195.962 149.733 196.85 149.599 196.85 149.599Z" fill="#49476A"/>
<path d="M232.361 147.363C232.361 147.363 234.265 147.695 234.06 149.05C233.856 150.411 233.651 152.654 231.543 154.763C229.434 156.872 227.05 160.271 224.13 160.616C221.21 160.961 219.229 161.569 217.056 161.907C214.883 162.246 212.563 161.837 215.42 161.16C218.276 160.482 225.759 155.919 225.759 155.919L227.121 151.427L231.134 148.059L232.361 147.363Z" fill="white"/>
<path d="M220.456 147.484C221.478 146.462 222.839 146.87 223.383 147.484C223.926 148.097 222.769 150.308 223.996 149.542C225.223 148.775 226.444 148.96 227.671 146.858C228.897 144.755 228.693 144.551 229.645 145.707C230.597 146.864 232.367 147.35 232.367 147.35C232.367 147.35 229.377 149.855 229.377 151.42C229.377 152.986 230.872 153.957 228.699 155.344C226.52 156.731 225.843 158.84 222.782 159.517C219.721 160.194 215.369 162.239 214.756 161.153C214.142 160.066 213.599 159.249 216.392 157.549C219.184 155.849 220.2 153.261 220.2 150.948C220.2 148.634 220.456 147.484 220.456 147.484Z" fill="#49476A"/>
<path d="M202.154 31.0592C202.102 31.0401 202.058 31.0017 202.045 30.9506C201.853 30.3563 202.294 29.9857 203.694 29.877C205.822 29.7109 206.256 30.3435 206.307 30.4394C206.314 30.4458 206.314 30.4522 206.314 30.4586L206.32 30.4777C206.365 30.5927 206.269 30.7142 206.147 30.7014C205.802 30.6694 205.183 30.6119 204.678 30.6119C204.109 30.6119 203.438 30.7845 203.035 31.0273C202.741 31.2126 202.326 31.1104 202.154 31.0592Z" fill="#49476A"/>
<path d="M200.735 30.6696C200.709 31.0274 200.064 31.2 199.297 31.1808C198.792 31.168 198.256 31.315 197.949 31.4236C197.757 31.4875 197.565 31.3278 197.604 31.1297C197.617 31.0594 197.655 30.9827 197.719 30.906C197.974 30.6121 198.345 30.2414 199.553 30.1903C200.761 30.1328 200.735 30.6696 200.735 30.6696Z" fill="#49476A"/>
<path d="M201.502 31.9472C201.502 31.9472 201.841 32.5351 201.771 33.8004C201.7 35.0657 201.304 35.5322 202.378 35.481C203.451 35.4299 202.864 35.4874 202.864 35.4874" stroke="#EAB19F" stroke-width="0.3" stroke-miterlimit="10"/>
<path d="M200.364 37.5578C200.364 37.5578 201.924 38.1904 203.221 37.7303C204.512 37.2638 204.103 37.4363 204.103 37.4363" fill="#EAB19F"/>
<path d="M201.553 38.555C201.553 38.555 202.41 38.1522 202.966 38.555H201.553Z" fill="#EAB19F"/>
<path d="M202.991 32.6569C202.991 32.6569 203.521 31.5961 204.595 31.6152C205.419 31.628 205.918 32.2223 205.918 32.2223C205.918 32.2223 205.719 32.938 204.863 33.1553C203.707 33.4493 202.991 32.6569 202.991 32.6569Z" fill="#EAB19F"/>
<path d="M203.081 32.7153C203.081 32.7153 203.113 32.2552 203.713 31.9293C204.193 31.6673 204.851 31.6353 205.369 31.859C205.861 32.0699 205.88 32.268 205.88 32.268" stroke="#393D45" stroke-width="0.3" stroke-miterlimit="10"/>
<path d="M202.991 32.6518C202.991 32.6518 203.509 31.7571 204.608 31.7571C205.445 31.7571 205.918 32.2492 205.918 32.2492C205.918 32.2492 205.681 32.8307 204.844 33.016C203.713 33.2589 202.991 32.6518 202.991 32.6518Z" fill="#F9E4D6"/>
<path d="M204.858 32.2806C204.922 32.5812 204.692 32.8945 204.308 32.9585C203.873 33.0288 203.49 32.7602 203.496 32.3829C203.503 32.0504 203.829 31.801 204.187 31.801C204.513 31.801 204.801 32.0057 204.858 32.2806Z" fill="#393D45"/>
<path d="M204.18 32.1908C204.193 32.3123 204.091 32.421 203.95 32.4338C203.803 32.4466 203.675 32.3507 203.675 32.2228C203.675 32.1013 203.79 31.999 203.924 31.999C204.052 31.9926 204.167 32.0757 204.18 32.1908Z" fill="white"/>
<path d="M198.301 32.9121C198.301 32.9121 198.889 31.9919 199.866 32.1133C200.614 32.2027 201.017 32.797 201.017 32.797C201.017 32.797 200.767 33.4361 199.969 33.5511C198.889 33.7045 198.301 32.9121 198.301 32.9121Z" fill="#EAB19F"/>
<path d="M198.385 32.9706C198.385 32.9706 198.455 32.5553 199.037 32.3124C199.497 32.1207 200.098 32.1463 200.558 32.4019C200.986 32.6383 200.986 32.8237 200.986 32.8237" stroke="#393D45" stroke-width="0.3" stroke-miterlimit="10"/>
<path d="M198.307 32.9067C198.307 32.9067 198.863 32.1399 199.873 32.2421C200.64 32.3188 201.023 32.8109 201.023 32.8109C201.023 32.8109 200.755 33.3221 199.969 33.4115C198.914 33.533 198.307 32.9067 198.307 32.9067Z" fill="#F9E4D6"/>
<path d="M200.105 32.746C200.136 33.0274 199.893 33.2896 199.535 33.3152C199.133 33.3407 198.806 33.0594 198.845 32.7141C198.883 32.4071 199.203 32.2153 199.529 32.2472C199.836 32.2792 200.079 32.4966 200.105 32.746Z" fill="#393D45"/>
<path d="M199.433 32.5996C199.433 32.7083 199.331 32.7978 199.196 32.7978C199.062 32.7978 198.953 32.6955 198.966 32.5804C198.979 32.4653 199.088 32.3886 199.215 32.395C199.343 32.4014 199.433 32.4909 199.433 32.5996Z" fill="white"/>
<path d="M210.688 33.7343C210.788 32.9786 210.708 32.3446 210.508 32.3182C210.309 32.2918 210.066 32.883 209.966 33.6387C209.866 34.3944 209.947 35.0284 210.146 35.0548C210.345 35.0812 210.588 34.49 210.688 33.7343Z" fill="#EAB19F"/>
<path d="M228.444 158.067L226.558 156.412L226.38 153.69L227.466 153.868L228.865 144.794L227.37 142.634L228.252 141.561C228.252 141.561 229.147 140.289 226.808 139.554C225.095 139.017 228.118 134.653 228.022 130.998C227.907 126.614 222.136 123.559 221.925 123.483C221.925 123.483 218.98 138.66 218.66 140.73C218.532 141.554 219.957 143.804 219.957 143.804C220.718 145.523 222.162 144.002 221.951 145.887C221.881 146.507 220.488 147.248 220.392 147.785C220.245 148.596 220.449 149.613 220.341 151.67C220.251 153.396 219.114 161.505 219.114 161.505C219.114 161.505 220.916 161.051 222.526 160.828C224.137 160.604 225.613 160.451 226.808 159.46C228.003 158.489 228.444 158.067 228.444 158.067Z" fill="#96A4AA" fill-opacity="0.65"/>
<path opacity="0.64" d="M216.577 104.031C216.577 104.031 216.967 102.024 217.114 100.791C217.261 99.5574 216.424 99.3146 215.836 97.8895C215.248 96.4645 214.487 91.889 214.506 89.9336C214.526 87.9782 215.689 87.7481 215.689 87.2688C215.682 86.7896 214.308 83.7669 214.308 83.7669C214.308 83.7669 214.359 80.5526 215.19 78.6866C216.027 76.8207 215.778 74.3157 215.484 72.5008C215.19 70.686 215.58 69.9447 216.027 68.4749C216.468 66.9988 216.449 63.9314 216.583 62.7684C216.717 61.6053 217.433 57.228 217.433 57.228L216.206 61.7204C216.206 61.7204 216.206 68.3407 215.024 69.1587C213.842 69.9766 206.404 72.5136 204.231 78.8656C202.052 85.2175 200.876 88.0293 203.777 89.3904C206.678 90.7516 210.583 92.5664 210.941 94.835C211.299 97.1035 211.12 100.005 213.842 101.909C216.564 103.813 216.564 103.813 216.564 103.813" fill="#97A3B8"/>
</svg>
