<svg width="333" height="200" viewBox="0 0 333 200" fill="none" xmlns="http://www.w3.org/2000/svg">
<path d="M52.033 119.902C52.033 119.902 41.9158 119.065 36.4021 119.065C30.8884 119.065 32.9725 112.159 36.9033 112.272C40.8341 112.384 40.8341 112.384 40.8341 112.384C40.8341 112.384 39.1589 107.371 45.0947 107.708C51.0305 108.044 50.4435 108.624 50.4435 108.624C50.4435 108.624 46.8491 103.276 50.028 97.4255C53.2003 91.5755 62.8097 86.9785 62.8097 86.9785L75.7629 76.4524L84.8711 83.3049L106.352 90.4081L107.856 72.0203L133.347 68.9271L152.988 73.5241L168.922 78.365L169.759 93.8047L157.551 101.211C157.551 101.211 127.714 104.238 125.94 105.591C124.166 106.943 106.187 120.094 101.406 120.509C96.6239 120.925 62.8229 123.431 62.0908 123.431C61.3521 123.431 52.033 119.902 52.033 119.902Z" fill="#5E93BD"/>
<path d="M75.4401 122.395C75.4401 122.395 70.7442 119.685 71.2718 114.784C71.7929 109.884 78.3684 111.447 78.3684 111.447C78.3684 111.447 74.6156 107.068 78.3684 103.618C82.1211 100.176 91.7239 101.007 91.7239 101.007C91.7239 101.007 90.6752 96.0009 93.1815 94.1212C95.6877 92.2415 104.13 92.3471 104.13 92.3471C104.13 92.3471 108.093 84.2084 115.289 84.9405C122.484 85.6726 123.118 89.7419 123.118 89.7419C123.118 89.7419 130.214 86.4047 136.678 93.0791C143.141 99.7536 133.439 102.069 133.439 102.069L120.605 113.848L96.0966 122.395H75.4401Z" fill="#49698D"/>
<path d="M116.766 108.215C116.766 108.215 123.131 101.02 132.001 101.02C140.865 101.02 142.646 104.258 143.161 102.999C143.675 101.745 138.992 100.182 139.513 93.7123C140.034 87.2489 138.161 76.182 149.426 76.7096C160.691 77.2306 174.462 73.4713 174.462 73.4713L179.89 75.661V105.815L116.766 108.215Z" fill="#425179"/>
<path d="M300.801 129.426C300.01 129.426 263.584 126.729 258.427 126.273C253.269 125.825 233.892 111.652 231.986 110.194C230.08 108.736 197.914 105.472 197.914 105.472L184.757 97.4915L185.66 80.8515L202.835 75.6346L224.006 70.6815L251.482 74.0122L253.104 93.8311L276.254 86.1739L286.068 78.7872L300.03 90.1311C300.03 90.1311 310.384 95.0842 313.807 101.389C317.23 107.694 313.359 113.459 313.359 113.459C313.359 113.459 312.732 112.832 319.123 112.469C325.514 112.107 323.714 117.508 323.714 117.508C323.714 117.508 323.714 117.508 327.948 117.39C332.182 117.271 334.431 124.717 328.489 124.717C322.546 124.717 311.644 125.621 311.644 125.621C311.644 125.621 301.593 129.419 300.801 129.426Z" fill="#5E93BD"/>
<path d="M256.949 126.326L230.535 117.113L216.705 104.417C216.705 104.417 206.251 101.923 213.216 94.728C220.187 87.5259 227.831 91.127 227.831 91.127C227.831 91.127 228.51 86.7411 236.266 85.9562C244.023 85.1714 248.296 93.9366 248.296 93.9366C248.296 93.9366 257.398 93.8244 260.102 95.8492C262.799 97.874 261.672 103.269 261.672 103.269C261.672 103.269 272.02 102.365 276.069 106.079C280.112 109.792 276.069 114.514 276.069 114.514C276.069 114.514 283.153 112.832 283.713 118.115C284.274 123.398 279.215 126.32 279.215 126.32H256.949V126.326Z" fill="#5E93BD"/>
<path d="M169.917 109.561V77.0591L175.768 74.698C175.768 74.698 190.614 78.7475 202.756 78.1869C214.898 77.6263 212.873 89.5441 213.44 96.5153C214.007 103.487 208.949 105.168 209.509 106.52C210.07 107.872 211.982 104.384 221.539 104.384C231.102 104.384 237.955 112.14 237.955 112.14L169.917 109.561Z" fill="#2169A3"/>
<path d="M194.908 46.6614C192.118 47.3605 192.19 38.47 185.101 38.8261C178.011 39.1691 181.143 42.1634 179.574 42.7569C178.004 43.3505 176.784 40.3958 175.399 41.6094C174.007 42.8295 176.098 45.7842 173.829 45.2698C171.567 44.7421 169.47 39.3274 164.075 38.813C158.673 38.2985 157.75 40.9169 153.509 40.7388C149.275 40.5673 152.408 43.7001 148.576 45.7908C144.744 47.8815 144.045 43.7001 142.304 44.5707C140.562 45.4412 141.961 48.7455 139.692 48.574C137.423 48.4026 140.391 42.3019 136.209 40.0397C132.028 37.7775 131.85 39.5384 129.067 38.747C126.277 37.9556 128.539 35.6868 124.892 36.0363C121.231 36.3793 124.549 37.4279 119.319 38.8261C114.089 40.2178 114.267 37.085 111.827 38.8261C109.386 40.5673 110.257 44.2277 108.694 45.7908C107.124 47.3605 103.82 45.2632 103.82 46.8329C103.82 48.4025 119.497 50.1437 119.497 50.1437L132.905 57.636L141.967 59.8718L150.159 54.8462L156.081 55.1891L165.836 54.6615L173.328 54.3185L180.471 49.6161L185.127 53.448L194.934 54.1471L194.908 46.6614Z" fill="#91C6AA"/>
<path d="M103.978 47.8815C103.807 45.0917 106.59 45.2697 111.121 46.3118C115.652 47.3539 113.733 43.001 118.956 43.179C124.186 43.3505 127.148 44.2145 127.491 45.5336C127.833 46.8526 126.62 49.4578 131.85 50.1503C137.08 50.8494 138.122 53.4611 138.643 55.8948C139.171 58.3351 142.126 58.157 142.126 54.5032C142.126 50.8494 142.653 48.2838 146.3 50.3481C149.961 52.4125 150.422 47.3605 153.502 47.5319C156.576 47.7034 156.207 52.9863 159.959 50.3481C163.719 47.71 166.68 44.7421 168.593 48.4025C170.505 52.0629 171.903 49.4973 173.994 50.3481C176.085 51.1923 178.354 54.3317 175.386 55.3738C172.424 56.4158 164.411 59.8718 164.411 59.8718L149.084 65.8208C149.084 65.8208 141.769 65.1217 139.679 64.2511C137.588 63.3805 132.186 65.8208 132.186 65.8208C132.186 65.8208 125.565 61.9889 124.872 61.9889C124.173 61.9889 117.38 60.3664 116.681 59.8718C115.982 59.3771 110.58 52.0629 110.58 52.0629C110.58 52.0629 108.318 50.8428 106.221 49.8007C104.136 48.7587 103.978 47.8815 103.978 47.8815Z" fill="#7CB797"/>
<path d="M103.279 55.8948C104.67 51.0209 112.512 50.4933 117.043 52.4125C121.574 54.3252 118.435 57.115 125.406 58.8561C132.371 60.5973 128.018 63.7301 138.992 62.3385C149.967 60.9469 148.226 65.9989 148.226 65.9989L136.901 73.6626L128.71 76.7954L120.347 69.3031C120.347 69.3031 115.473 72.4359 114.946 72.4359C114.418 72.4359 103.272 68.2611 103.272 68.2611L97.1713 67.0409L91.7697 68.083L86.0252 71.0443L81.3228 70.0022C81.3228 70.0022 82.1933 64.2643 86.5528 64.0862C90.9123 63.9082 88.6436 59.0342 93.346 59.0342C98.0485 59.0342 96.6569 62.8661 99.7896 61.646C102.929 60.4258 103.279 55.8948 103.279 55.8948Z" fill="#6EA387"/>
<path d="M244.59 66.4011C241.8 67.1002 241.873 58.2097 234.783 58.5659C227.693 58.9088 230.825 61.9031 229.256 62.4967C227.686 63.0903 226.466 60.1356 225.081 61.3491C223.689 62.5692 225.78 65.5239 223.511 65.0095C221.249 64.4819 219.152 59.0671 213.757 58.5527C208.355 58.0383 207.432 60.6566 203.191 60.4785C198.957 60.3071 202.09 63.4398 198.258 65.5305C194.426 67.6213 193.727 63.4398 191.986 64.3104C190.244 65.181 191.643 68.4852 189.374 68.3138C187.105 68.1423 190.073 62.0416 185.892 59.7794C181.71 57.5172 181.532 59.2782 178.749 58.4867C175.966 57.6953 178.221 55.4265 174.574 55.7761C170.914 56.119 174.231 57.1677 169.001 58.5659C163.771 59.9575 163.949 56.8247 161.509 58.5659C159.068 60.3071 159.939 63.9674 158.376 65.5305C156.806 67.1002 153.502 65.0029 153.502 66.5726C153.502 68.1423 169.179 69.8834 169.179 69.8834L182.587 77.3757L191.649 79.6115L199.841 74.5859L205.763 74.9289L215.518 74.4012L223.01 74.0583L230.153 69.3558L234.809 73.1877L244.616 73.8868L244.59 66.4011Z" fill="#91C6AA"/>
<path d="M153.66 67.6278C153.489 64.838 156.272 65.0161 160.803 66.0581C165.334 67.1002 163.415 62.7473 168.638 62.9254C173.868 63.0968 176.83 63.9608 177.173 65.2799C177.516 66.599 176.302 69.2041 181.532 69.8966C186.762 70.5957 187.804 73.2075 188.325 75.6411C188.853 78.0814 191.808 77.9033 191.808 74.2495C191.808 70.5957 192.335 68.0301 195.982 70.0945C199.643 72.1588 200.105 67.1068 203.185 67.2783C206.258 67.4498 205.889 72.7326 209.641 70.0945C213.401 67.4564 216.362 64.4885 218.275 68.1489C220.187 71.8093 221.585 69.2437 223.676 70.0945C225.767 70.9387 228.036 74.0781 225.068 75.1201C222.107 76.1622 214.093 79.6181 214.093 79.6181L198.766 85.5671C198.766 85.5671 191.451 84.868 189.361 83.9974C187.27 83.1268 181.868 85.5671 181.868 85.5671C181.868 85.5671 175.247 81.7352 174.554 81.7352C173.855 81.7352 167.062 80.1128 166.363 79.6181C165.664 79.1235 160.262 71.8093 160.262 71.8093C160.262 71.8093 158 70.5891 155.903 69.5471C153.819 68.505 153.66 67.6278 153.66 67.6278Z" fill="#7CB797"/>
<path d="M152.961 75.6346C154.353 70.7606 162.195 70.233 166.726 72.1523C171.257 74.0649 168.117 76.8547 175.088 78.5959C182.053 80.337 177.7 83.4698 188.675 82.0782C199.649 80.6866 197.908 85.7386 197.908 85.7386L186.584 93.4024L178.393 96.5352L170.03 89.0429C170.03 89.0429 165.156 92.1756 164.628 92.1756C164.101 92.1756 152.955 88.0008 152.955 88.0008L146.854 86.7807L141.452 87.8227L135.708 90.784L131.005 89.742C131.005 89.742 131.876 84.004 136.235 83.826C140.595 83.6479 138.326 78.774 143.029 78.774C147.731 78.774 146.339 82.6058 149.472 81.3857C152.612 80.1722 152.961 75.6346 152.961 75.6346Z" fill="#6EA387"/>
<path d="M176.816 50.1372V57.6294L186.624 56.9304L191.28 53.0985L198.423 57.8009L205.915 58.1439L215.669 58.6715L221.592 58.3286L229.783 63.3542L238.845 61.1184L252.254 53.6261C252.254 53.6261 267.931 51.8849 267.931 50.3152C267.931 48.7456 264.626 50.8429 263.057 49.2732C261.494 47.7101 262.364 44.0497 259.924 42.3085C257.484 40.5674 257.662 43.7002 252.432 42.3085C247.202 40.9103 250.519 39.8683 246.859 39.5187C243.205 39.1692 245.467 41.4313 242.684 42.2294C239.894 43.0208 239.723 41.2599 235.541 43.5221C231.36 45.7843 234.321 51.8849 232.059 52.0564C229.79 52.2279 231.188 48.9236 229.447 48.0531C227.706 47.1825 227.007 51.3573 223.175 49.2732C219.343 47.1825 222.476 44.0497 218.242 44.2212C214.007 44.3927 213.077 41.7809 207.676 42.2953C202.281 42.8098 200.184 48.2245 197.921 48.7522C195.653 49.2732 197.743 46.3119 196.352 45.0918C194.96 43.8716 193.747 46.8329 192.177 46.2393C190.607 45.6458 193.74 42.6515 186.65 42.3085C179.534 41.9458 179.606 50.8363 176.816 50.1372Z" fill="#91C6AA"/>
<path d="M265.491 53.2831C263.393 54.3252 261.131 55.5453 261.131 55.5453C261.131 55.5453 255.73 62.8595 255.031 63.3542C254.331 63.8488 247.538 65.4713 246.839 65.4713C246.14 65.4713 239.525 69.3032 239.525 69.3032C239.525 69.3032 234.123 66.8629 232.033 67.7335C229.942 68.6041 222.628 69.3032 222.628 69.3032L207.3 63.3542C207.3 63.3542 199.287 59.8983 196.326 58.8562C193.358 57.8141 195.626 54.6748 197.717 53.8306C199.808 52.9864 201.2 55.5453 203.119 51.8849C205.031 48.2245 207.993 51.1924 211.752 53.8306C215.505 56.4687 215.135 51.1858 218.209 51.0144C221.289 50.8429 221.757 55.8949 225.411 53.8306C229.065 51.7662 229.586 54.3318 229.586 57.9856C229.586 61.6394 232.547 61.8175 233.068 59.3772C233.589 56.9435 234.631 54.3252 239.861 53.6327C245.091 52.9336 243.871 50.3284 244.221 49.016C244.564 47.7035 247.525 46.8395 252.755 46.6615C257.979 46.4834 256.059 50.8363 260.59 49.7942C265.121 48.7522 267.905 48.5741 267.733 51.3639C267.746 51.3573 267.588 52.2345 265.491 53.2831Z" fill="#7CB797"/>
<path d="M271.934 65.1217C275.067 66.3418 273.675 62.5099 278.378 62.5099C283.08 62.5099 280.812 67.3839 285.171 67.5619C289.531 67.74 290.401 73.4779 290.401 73.4779L285.699 74.52L279.954 71.5587L274.553 70.5166L268.452 71.7368C268.452 71.7368 257.306 75.9116 256.778 75.9116C256.251 75.9116 251.377 72.7788 251.377 72.7788L243.014 80.2711L234.822 77.1383L223.505 69.4746C223.505 69.4746 221.764 64.4226 232.738 65.8142C243.713 67.2058 239.36 64.073 246.325 62.3318C253.296 60.5907 250.157 57.8009 254.687 55.8882C259.218 53.9756 267.06 54.4966 268.452 59.3706C268.445 59.3706 268.801 63.9015 271.934 65.1217Z" fill="#6EA387"/>
<path d="M107.981 74.2034C107.665 67.2256 111.787 65.9856 121.627 67.9774C131.467 69.9692 131.784 78.187 136.229 72.2116C140.674 66.2363 135.596 62.0021 146.702 61.2502C157.815 60.5049 158.132 61.7448 160.348 56.2641C162.571 50.7834 153.997 44.2343 160.348 45.5138C166.699 46.7999 167.649 45.7974 175.9 44.3068C184.151 42.8163 184.151 46.7933 186.057 49.2929C187.963 51.7793 187.646 51.5353 191.768 48.7982C195.89 46.0612 199.702 43.5616 198.436 49.2929C197.17 55.0242 195.264 60.2543 203.831 57.7613C212.398 55.2748 211.772 51.2847 229.546 51.7793C247.327 52.274 242.565 58.8297 251.133 59.1595C259.7 59.5024 257.8 50.2822 269.863 50.7834C281.926 51.2781 284.782 55.0176 285.415 61.9889C286.048 68.9667 293.356 66.7243 293.356 70.4573C293.356 74.1902 281.293 76.4392 278.437 84.4064C275.581 92.3801 265.418 76.6832 261.613 84.4064C257.807 92.1295 267.951 94.9457 260.023 101.343C252.096 107.741 250.816 98.1048 242.242 99.8526C233.675 101.594 230.812 103.586 227.957 97.1155C225.101 90.6455 221.289 92.3801 213.355 93.3826C205.42 94.3785 201.925 92.6373 196.213 91.3908C190.502 90.1443 192.408 85.6595 185.1 83.4171C177.793 81.1746 172.398 82.9224 173.987 88.1525C175.577 93.3892 177.793 99.1139 172.398 100.604C167.003 102.095 165.097 97.1221 159.379 97.1221C153.667 97.1221 155.89 102.603 149.538 102.108C143.187 101.614 146.999 95.1303 149.538 91.3974C152.078 87.6644 154.3 84.9208 147.632 86.9126C140.964 88.9044 138.748 89.155 137.159 85.6661C135.569 82.1837 132.081 83.9249 130.174 86.1607C128.268 88.4031 126.719 84.4196 124.001 83.9183C121.284 83.4171 119.385 80.1854 115.882 79.4335C112.42 78.6882 107.981 74.2034 107.981 74.2034Z" fill="#84C3BA"/>
<path d="M111.556 77.4417C111.24 70.4638 116.424 64.561 125.248 68.5182C132.852 71.928 134.791 83.8655 136.17 72.3765C137.984 57.2336 140.576 71.9675 151.689 71.2157C162.802 70.4638 154.353 83.7996 156.576 78.3189C158.798 72.8381 160.731 70.3583 167.082 71.6378C173.433 72.9173 171.607 68.294 179.033 71.4927C188.266 75.4763 180.385 74.4012 182.291 76.8943C184.197 79.3807 186.129 80.1985 190.258 77.4615C194.387 74.7244 181.315 74.5133 182.654 68.7952C184.283 61.8305 187.482 61.3425 196.049 58.8495C204.616 56.3564 197.526 53.4677 209.444 63.8223C212.563 66.533 219.581 61.9756 224.837 64.2444C227.818 65.5305 227.337 59.1397 230.635 59.2716C239.202 59.6145 240.501 77.9825 248.561 70.9189C256.35 64.0993 260.696 62.5362 273.188 69.3558C280.964 73.5966 285.072 58.7571 285.376 62.1471C286.009 69.125 293.317 66.8826 293.317 70.6155C293.317 74.3485 281.254 76.5975 278.398 84.5646C275.542 92.5384 265.379 76.8415 261.573 84.5646C257.768 92.2877 267.911 95.1039 259.984 101.501C252.056 107.899 250.777 98.2631 242.203 100.011C233.636 101.752 230.773 103.744 227.917 97.2738C225.062 90.8038 221.25 92.5383 213.315 93.5408C205.381 94.5433 201.886 92.7956 196.174 91.5491C190.463 90.3025 192.369 85.8177 185.061 83.5753C177.753 81.3329 172.358 83.0807 173.948 88.3108C175.537 93.5474 177.753 99.2722 172.358 100.763C166.963 102.253 165.057 97.2804 159.339 97.2804C153.628 97.2804 155.85 102.761 149.499 102.266C143.148 101.772 146.96 95.2886 149.499 91.5557C152.038 87.8227 154.261 85.0791 147.593 87.0708C140.925 89.0626 138.709 89.3132 137.12 85.8243C135.53 82.342 132.041 84.0831 130.135 86.319C128.229 88.5614 126.679 84.5778 123.962 84.0766C121.245 83.5753 119.345 80.3436 115.843 79.5917C112.354 78.8597 111.556 77.4417 111.556 77.4417Z" fill="#9BD2CC"/>
<path d="M163.633 64.9699C163.811 62.1273 171.6 57.2929 171.6 57.2929C174.139 52.6036 182.284 48.4816 182.462 53.7446C182.641 59.0077 179.382 63.2617 184.091 63.6904C188.801 64.1125 191.696 68.6632 186.631 67.9509C181.559 67.2386 179.884 68.5181 176.467 69.2304C173.051 69.9427 171.607 71.5058 171.969 67.1001C172.332 62.6945 167.26 66.1042 165.453 66.3878C163.633 66.678 163.633 64.9699 163.633 64.9699Z" fill="#9BD2CC"/>
<path d="M159.471 57.8668C159.471 57.8668 162.011 58.7176 161.278 62.1274C160.56 65.5372 161.457 65.5372 158.02 63.9741C154.584 62.411 152.045 61.9889 148.602 63.1233C145.16 64.2577 142.442 66.6979 141.901 64.9832C141.361 63.2618 146.248 62.0219 147.699 61.7251C149.15 61.4151 159.471 57.8668 159.471 57.8668Z" fill="#9BD2CC"/>
<path d="M189.302 87.9876C189.526 85.145 194.605 84.004 194.605 84.004C194.605 84.004 190.436 78.8926 197.5 77.1844C204.564 75.4762 203.838 78.4639 209.998 76.4722C216.158 74.4804 218.875 71.9214 218.691 76.4722C218.513 81.0229 213.441 83.5753 222.49 83.5753C231.538 83.5753 235.707 84.2876 231.908 85.9892C228.109 87.6974 220.142 92.8088 230.998 93.6661C241.86 94.5169 247.295 93.6661 245.844 96.7923C244.393 99.9185 251.272 102.906 243.852 101.62C236.426 100.341 237.342 101.442 234.757 101.462C232.178 101.482 229.903 102.194 229.006 98.639C228.096 95.0907 223.202 93.0924 215.789 93.3825C208.369 93.6661 199.855 95.9415 193.338 93.0989C186.822 90.2564 189.302 87.9876 189.302 87.9876Z" fill="#76ADA7"/>
<path d="M131.408 86.0024C131.408 86.0024 132.318 83.1599 127.972 82.3091C123.626 81.4583 127.609 74.7772 119.464 74.9223C111.319 75.0674 108.061 74.21 108.061 77.1977C108.061 80.1854 108.239 80.3239 110.956 79.7567C113.673 79.1895 116.028 82.3156 116.753 83.45C117.472 84.5844 118.019 84.1623 123.269 84.868C128.519 85.5803 125.439 88.1723 129.245 87.9415C133.037 87.704 131.408 86.0024 131.408 86.0024Z" fill="#4E8B7F"/>
<path d="M212.893 81.6628C212.721 76.7888 214.984 75.9182 220.385 77.3032C225.787 78.6949 225.958 84.446 228.398 80.2646C230.839 76.0897 228.055 73.1218 234.143 72.6008C240.244 72.0732 240.415 72.9438 241.635 69.1185C242.855 65.2932 238.153 60.7028 241.635 61.6064C245.118 62.5034 245.639 61.8108 250.17 60.7622C254.701 59.7201 254.701 62.5034 255.743 64.2445C256.785 65.9857 256.613 65.8142 258.875 63.9016C261.138 61.9889 263.235 60.2412 262.536 64.2445C261.837 68.2479 260.795 71.9083 265.497 70.1671C270.2 68.426 269.857 65.6361 279.604 65.9923C289.352 66.3484 286.747 70.919 291.45 71.1564C296.152 71.3938 295.11 64.9502 301.725 65.2932C308.347 65.6361 309.91 68.2545 310.26 73.1284C310.602 78.0023 314.619 76.4393 314.619 79.051C314.619 81.6628 307.997 83.2259 306.428 88.8055C304.858 94.3785 299.285 83.4039 297.194 88.8055C295.103 94.2071 300.677 96.179 296.324 100.651C291.971 105.122 291.272 98.3885 286.569 99.6086C281.867 100.829 280.297 102.22 278.734 97.696C277.164 93.165 275.073 94.3851 270.721 95.0842C266.368 95.7833 264.448 94.5566 261.316 93.6926C258.183 92.822 259.225 89.6893 255.215 88.1196C251.212 86.5499 248.25 87.7766 249.114 91.4304C249.985 95.0908 251.205 99.0942 248.244 100.136C245.282 101.178 244.24 97.696 241.101 97.696C237.962 97.696 239.188 101.528 235.699 101.178C232.217 100.835 234.308 96.3044 235.699 93.686C237.091 91.0743 238.311 89.155 234.657 90.5532C230.997 91.9449 229.783 92.1229 228.913 89.6827C228.042 87.2424 226.123 88.4625 225.081 90.0256C224.039 91.5953 223.182 88.8055 221.698 88.4559C220.207 88.113 219.158 85.8442 217.246 85.3232C215.326 84.8021 212.893 81.6628 212.893 81.6628Z" fill="#84C3BA"/>
<path d="M214.858 83.9316C214.687 79.0577 217.53 74.929 222.37 77.6924C226.545 80.0799 227.607 88.4296 228.366 80.3899C229.362 69.8044 230.78 80.1063 236.88 79.5787C242.981 79.0511 238.344 88.3834 239.558 84.545C240.771 80.7065 241.84 78.9785 245.322 79.8755C248.805 80.779 247.802 77.5407 251.878 79.7766C256.943 82.5598 252.623 81.8145 253.665 83.5557C254.707 85.2968 255.769 85.8706 258.038 83.958C260.3 82.0454 253.131 81.9002 253.863 77.8969C254.76 73.0295 256.514 72.6866 261.217 70.9454C265.919 69.2043 262.028 67.1795 268.571 74.4278C270.285 76.3272 274.131 73.1417 277.013 74.7245C278.648 75.6281 278.385 71.1565 280.192 71.2422C284.894 71.4796 285.606 84.3273 290.025 79.3874C294.299 74.619 296.68 73.5242 303.539 78.2926C307.806 81.2605 310.055 70.8795 310.227 73.2472C310.57 78.1211 314.586 76.558 314.586 79.1698C314.586 81.7815 307.965 83.3446 306.395 88.9243C304.825 94.4973 299.252 83.5227 297.161 88.9243C295.071 94.3258 300.644 96.2978 296.291 100.769C291.938 105.241 291.239 98.5073 286.536 99.7274C281.834 100.948 280.264 102.339 278.701 97.8147C277.131 93.2838 275.041 94.5039 270.688 95.203C266.328 95.9021 264.416 94.6754 261.283 93.8114C258.15 92.9408 259.192 89.808 255.182 88.2383C251.172 86.6687 248.218 87.8954 249.082 91.5492C249.952 95.2096 251.172 99.213 248.211 100.255C245.25 101.297 244.208 97.8147 241.068 97.8147C237.929 97.8147 239.156 101.647 235.667 101.297C232.184 100.954 234.275 96.4231 235.667 93.8048C237.058 91.193 238.278 89.2738 234.625 90.672C230.964 92.0636 229.751 92.2417 228.88 89.8014C228.009 87.3612 226.09 88.5813 225.048 90.1444C224.006 91.7075 223.149 88.9243 221.665 88.5747C220.174 88.2318 219.126 85.963 217.213 85.4419C215.294 84.9209 214.858 83.9316 214.858 83.9316Z" fill="#9BD2CC"/>
<path d="M243.429 75.2059C243.528 73.2207 247.802 69.8439 247.802 69.8439C249.194 66.5661 253.665 63.6839 253.764 67.3641C253.863 71.0377 252.076 74.0188 254.661 74.3156C257.246 74.6123 258.836 77.7979 256.053 77.2966C253.269 76.7954 252.353 77.699 250.473 78.1936C248.593 78.6883 247.808 79.7831 248 76.7031C248.198 73.6231 245.414 76.004 244.425 76.2084C243.429 76.3997 243.429 75.2059 243.429 75.2059Z" fill="#9BD2CC"/>
<path d="M241.148 70.2462C241.148 70.2462 242.539 70.8398 242.137 73.2273C241.735 75.6148 242.236 75.6148 240.35 74.5134C238.463 73.4186 237.072 73.1218 235.179 73.9198C233.293 74.7112 231.802 76.4194 231.505 75.2191C231.208 74.0187 233.893 73.1482 234.684 72.9371C235.482 72.7261 241.148 70.2462 241.148 70.2462Z" fill="#9BD2CC"/>
<path d="M257.51 91.305C257.636 89.3198 260.419 88.5218 260.419 88.5218C260.419 88.5218 258.13 84.9471 262.008 83.7533C265.88 82.5596 265.491 84.6503 268.867 83.2587C272.244 81.8671 273.735 80.0798 273.636 83.2587C273.537 86.4376 270.754 88.225 275.727 88.225C280.699 88.225 282.975 88.7196 280.897 89.9134C278.807 91.1071 274.441 94.6818 280.403 95.2754C286.365 95.8689 289.346 95.2754 288.548 97.4584C287.756 99.6415 291.529 101.732 287.453 100.835C283.377 99.9383 283.878 100.71 282.467 100.723C281.056 100.736 279.803 101.238 279.308 98.7511C278.813 96.2713 276.129 94.8731 272.06 95.0775C267.99 95.282 263.314 96.8648 259.74 94.8796C256.165 92.8945 257.51 91.305 257.51 91.305Z" fill="#4E8B7F"/>
<path d="M225.747 89.9134C225.747 89.9134 226.242 87.9283 223.861 87.3281C221.474 86.7345 223.663 82.065 219.192 82.1574C214.72 82.2497 212.933 81.6627 212.933 83.7468C212.933 85.8375 213.032 85.9299 214.522 85.5342C216.013 85.1318 217.305 87.3215 217.701 88.1195C218.103 88.911 218.4 88.6142 221.276 89.1088C224.158 89.6035 222.469 91.4172 224.554 91.2589C226.638 91.1072 225.747 89.9134 225.747 89.9134Z" fill="#4E8B7F"/>
<path d="M213.869 79.018C213.697 74.144 215.96 73.2735 221.361 74.6585C226.763 76.0501 226.934 81.8012 229.374 77.6198C231.815 73.4449 229.032 70.477 235.119 69.956C241.22 69.4284 241.391 70.299 242.611 66.4737C243.831 62.6484 239.129 58.0581 242.611 58.9616C246.094 59.8586 246.615 59.1661 251.146 58.1174C255.677 57.0753 255.677 59.8586 256.719 61.5997C257.761 63.3409 257.589 63.1694 259.851 61.2568C262.114 59.3441 264.211 57.5964 263.512 61.5997C262.813 65.6031 261.771 69.2635 266.473 67.5223C271.176 65.7812 270.833 62.9914 280.581 63.3475C290.328 63.7036 287.723 68.2742 292.426 68.5116C297.128 68.7491 296.086 62.3054 302.701 62.6484C309.323 62.9913 310.893 65.6097 311.236 70.4836C311.579 75.3576 315.595 73.7945 315.595 76.4062C315.595 79.018 308.973 80.5811 307.404 86.1607C305.834 91.7337 300.261 80.7591 298.17 86.1607C296.08 91.5623 301.653 93.5343 297.3 98.0059C292.947 102.478 292.248 95.7437 287.545 96.9638C282.843 98.184 281.273 99.5756 279.71 95.0512C278.14 90.5202 276.05 91.7403 271.697 92.4394C267.337 93.1385 265.425 91.9118 262.292 91.0478C259.159 90.1773 260.201 87.0445 256.191 85.4748C252.188 83.9051 249.226 85.1318 250.09 88.7856C250.961 92.446 252.181 96.4494 249.22 97.4915C246.259 98.5335 245.216 95.0512 242.077 95.0512C238.938 95.0512 240.164 98.8831 236.676 98.5335C233.193 98.1906 235.284 93.6596 236.676 91.0412C238.067 88.4295 239.287 86.5103 235.633 87.9085C231.973 89.3001 230.759 89.4781 229.889 87.0379C229.018 84.5976 227.099 85.8177 226.057 87.3808C225.015 88.9505 224.158 86.1607 222.674 85.8111C221.183 85.4682 220.134 83.1994 218.222 82.6784C216.303 82.1507 213.869 79.018 213.869 79.018Z" fill="#84C3BA"/>
<path d="M215.828 81.2867C215.656 76.4128 218.499 72.2841 223.34 75.0475C227.515 77.4351 228.576 85.7847 229.335 77.745C230.331 67.1595 231.749 77.4614 237.849 76.9338C243.95 76.4062 239.314 85.7386 240.527 81.9001C241.747 78.0616 242.809 76.3336 246.291 77.2306C249.774 78.1342 248.771 74.8959 252.847 77.1317C257.912 79.9149 253.592 79.1696 254.635 80.9108C255.677 82.6519 256.738 83.2257 259.007 81.3131C261.269 79.4005 254.1 79.2554 254.832 75.252C255.729 70.3847 257.484 70.0417 262.186 68.3005C266.889 66.5594 262.997 64.5346 269.54 71.7829C271.255 73.6823 275.1 70.4968 277.982 72.0797C279.618 72.9832 279.354 68.5116 281.161 68.5973C285.863 68.8348 286.576 81.6824 290.994 76.7425C295.268 71.9741 297.649 70.8793 304.508 75.6477C308.775 78.6156 311.025 68.2346 311.196 70.6023C311.539 75.4762 315.555 73.9131 315.555 76.5249C315.555 79.1366 308.934 80.6997 307.364 86.2794C305.794 91.8524 300.221 80.8778 298.131 86.2794C296.04 91.6809 301.613 93.6529 297.26 98.1246C292.907 102.596 292.208 95.8624 287.506 97.0825C282.803 98.3026 281.233 99.6943 279.67 95.1699C278.101 90.6389 276.01 91.859 271.657 92.5581C267.298 93.2572 265.385 92.0305 262.252 91.1665C259.119 90.2959 260.161 87.1631 256.151 85.5935C252.141 84.0238 249.187 85.2505 250.051 88.9043C250.921 92.5647 252.141 96.5681 249.18 97.6101C246.219 98.6522 245.177 95.1699 242.037 95.1699C238.898 95.1699 240.125 99.0017 236.636 98.6522C233.154 98.3092 235.244 93.7783 236.636 91.1599C238.027 88.5482 239.248 86.6289 235.594 88.0271C231.933 89.4187 230.72 89.5968 229.849 87.1566C228.979 84.7163 227.059 85.9364 226.017 87.4995C224.975 89.0626 224.118 86.2794 222.634 85.9298C221.143 85.5869 220.095 83.3181 218.182 82.797C216.263 82.276 215.828 81.2867 215.828 81.2867Z" fill="#9BD2CC"/>
<path d="M244.405 72.5612C244.504 70.576 248.777 67.1992 248.777 67.1992C250.169 63.9213 254.641 61.0391 254.74 64.7193C254.839 68.3929 253.051 71.374 255.637 71.6708C258.222 71.9676 259.811 75.1531 257.028 74.6519C254.245 74.1506 253.328 75.0542 251.449 75.5488C249.569 76.0435 248.784 77.1383 248.975 74.0583C249.173 70.9783 246.39 73.3592 245.401 73.5636C244.405 73.7549 244.405 72.5612 244.405 72.5612Z" fill="#9BD2CC"/>
<path d="M242.117 67.5948C242.117 67.5948 243.508 68.1884 243.106 70.5759C242.704 72.9634 243.205 72.9634 241.319 71.862C239.433 70.7672 238.041 70.4704 236.148 71.2684C234.262 72.0599 232.771 73.7681 232.474 72.5677C232.178 71.3674 234.862 70.4968 235.653 70.2857C236.458 70.0813 242.117 67.5948 242.117 67.5948Z" fill="#9BD2CC"/>
<path d="M226.723 87.2687C226.723 87.2687 227.218 85.2835 224.837 84.6833C222.449 84.0897 224.639 79.4202 220.167 79.5126C215.696 79.6049 213.908 79.0179 213.908 81.1021C213.908 83.1928 214.007 83.2851 215.498 82.8894C216.988 82.4871 218.281 84.6767 218.677 85.4748C219.079 86.2662 219.376 85.9694 222.251 86.4641C225.133 86.9587 223.445 88.7724 225.529 88.6141C227.613 88.4624 226.723 87.2687 226.723 87.2687Z" fill="#76ADA7"/>
<path d="M32.2141 79.9281C32.0426 75.0542 34.3048 74.1836 39.7064 75.5686C45.108 76.9536 45.2794 82.7114 47.7197 78.5299C50.16 74.3551 47.3767 71.3872 53.4642 70.8662C59.5649 70.3385 59.7364 71.2091 60.9565 67.3838C62.1766 63.5585 57.4742 58.9682 60.9565 59.8718C64.4388 60.7687 64.9599 60.0762 69.4909 59.0276C74.0218 57.9855 74.0218 60.7687 75.0639 62.5099C76.106 64.251 75.9345 64.0796 78.1967 62.1669C80.4589 60.2543 82.5562 58.5065 81.8571 62.5099C81.158 66.5132 80.1159 70.1736 84.8184 68.4325C89.5208 66.6913 89.1779 63.9015 98.9258 64.2576C108.674 64.6138 106.068 69.1843 110.771 69.4218C115.473 69.6592 114.431 63.2156 121.046 63.5585C127.668 63.9015 129.238 66.5198 129.581 71.3938C129.924 76.2677 133.94 74.7046 133.94 77.3164C133.94 79.9281 127.319 81.4912 125.749 87.0709C124.179 92.6505 118.606 81.6693 116.515 87.0709C114.425 92.4724 119.998 94.4444 115.645 98.916C111.292 103.388 110.593 96.6539 105.89 97.874C101.188 99.0941 99.6183 100.486 98.0552 95.9613C96.4855 91.4304 94.3948 92.6505 90.0419 93.3496C85.6824 94.0487 83.7697 92.822 80.6369 91.958C77.5042 91.0874 78.5462 87.9546 74.5363 86.3849C70.5329 84.8152 67.5716 86.042 68.4356 89.6958C69.3062 93.3562 70.5263 97.3596 67.565 98.4016C64.6037 99.4437 63.5617 95.9613 60.4223 95.9613C57.2829 95.9613 58.5096 99.7932 55.0207 99.4437C51.5384 99.1007 53.6291 94.5697 55.0207 91.9514C56.4123 89.3396 57.6325 87.4204 53.9787 88.8186C50.3183 90.2102 49.1047 90.3883 48.2341 87.948C47.3636 85.5078 45.4443 86.7279 44.4023 88.291C43.3602 89.8607 42.5028 87.0709 41.0189 86.7213C39.5283 86.3783 38.4797 84.1096 36.567 83.5885C34.6478 83.0609 32.2141 79.9281 32.2141 79.9281Z" fill="#84C3BA"/>
<path d="M34.1729 82.1969C34.0014 77.3229 36.844 73.1943 41.6849 75.9577C45.8598 78.3452 46.9216 86.6949 47.6801 78.6552C48.676 68.0697 50.094 78.3716 56.1946 77.844C62.2953 77.3163 57.6588 86.6487 58.8723 82.8102C60.0925 78.9718 61.1543 77.2438 64.6366 78.1407C68.119 79.0443 67.1165 75.806 71.1924 78.0418C76.2576 80.825 71.9377 80.0798 72.9797 81.8209C74.0218 83.5621 75.0836 84.1359 77.3524 82.2233C79.6146 80.3106 72.4455 80.1655 73.1776 76.1621C74.0745 71.2948 75.8289 70.9519 80.5314 69.2107C85.2338 67.4695 81.3426 65.4448 87.8851 72.693C89.5999 74.5925 93.445 71.4069 96.3271 72.9898C97.9628 73.8934 97.699 69.4217 99.5061 69.5075C104.209 69.7449 104.921 82.5926 109.34 77.6527C113.613 72.8843 115.994 71.7895 122.854 76.5579C127.121 79.5258 129.37 69.1447 129.541 71.5124C129.884 76.3864 133.901 74.8233 133.901 77.435C133.901 80.0468 127.279 81.6099 125.709 87.1895C124.14 92.7692 118.567 81.788 116.476 87.1895C114.385 92.5911 119.958 94.5631 115.605 99.0347C111.252 103.506 110.553 96.7725 105.851 97.9926C101.148 99.2128 99.5786 100.604 98.0155 96.08C96.4459 91.549 94.3551 92.7692 90.0022 93.4683C85.6427 94.1674 83.7301 92.9406 80.5973 92.0767C77.4645 91.2061 78.5066 88.0733 74.4966 86.5036C70.4867 84.9339 67.532 86.1606 68.396 89.8145C69.2666 93.4749 70.4867 97.4782 67.5254 98.5203C64.5641 99.5623 63.522 96.08 60.3827 96.08C57.2433 96.08 58.47 99.9119 54.9811 99.5623C51.4988 99.2194 53.5895 94.6884 54.9811 92.0701C56.3727 89.4517 57.5928 87.5391 53.939 88.9373C50.2786 90.3289 49.0651 90.507 48.1945 88.0667C47.3239 85.6264 45.4047 86.8466 44.3626 88.4097C43.3206 89.9728 42.4632 87.1895 40.9792 86.84C39.4887 86.497 38.44 84.2282 36.5274 83.7072C34.6082 83.1862 34.1729 82.1969 34.1729 82.1969Z" fill="#9BD2CC"/>
<path d="M62.7505 73.4713C62.8494 71.4861 67.1232 68.1093 67.1232 68.1093C68.5148 64.8314 72.9864 61.9493 73.0854 65.6295C73.1843 69.3097 71.397 72.2842 73.9823 72.5809C76.5677 72.8777 78.1572 76.0633 75.3739 75.562C72.5907 75.0608 71.674 75.9643 69.7943 76.459C67.9146 76.9536 67.1298 78.0485 67.321 74.9685C67.5189 71.8884 64.7357 74.2693 63.7464 74.4738C62.7505 74.6651 62.7505 73.4713 62.7505 73.4713Z" fill="#9BD2CC"/>
<path d="M60.462 68.5049C60.462 68.5049 61.8536 69.0985 61.4513 71.486C61.049 73.8735 61.5503 73.8735 59.664 72.7721C57.7777 71.6772 56.3861 71.3804 54.4933 72.1785C52.607 72.9699 51.1165 74.6781 50.8197 73.4777C50.5229 72.2774 53.2072 71.4068 53.9986 71.1958C54.8032 70.9913 60.462 68.5049 60.462 68.5049Z" fill="#9BD2CC"/>
<path d="M76.8319 89.5704C76.9572 87.5852 79.7405 86.7871 79.7405 86.7871C79.7405 86.7871 77.4519 83.2125 81.3299 82.0187C85.208 80.825 84.8123 82.9157 88.1891 81.5241C91.5659 80.1325 93.0564 78.3451 92.9575 81.5241C92.8585 84.703 90.0753 86.4904 95.0482 86.4904C100.021 86.4904 102.296 86.985 100.219 88.1788C98.1282 89.3725 93.7621 92.9472 99.7243 93.5407C105.686 94.1343 108.668 93.5408 107.869 95.7238C107.071 97.9069 110.851 99.9976 106.775 99.1006C102.699 98.2036 103.2 98.9753 101.789 98.9885C100.377 99.0017 99.1241 99.5029 98.6295 97.0165C98.1348 94.5301 95.4505 93.1384 91.3812 93.3429C87.3119 93.5473 82.6358 95.1302 79.0611 93.145C75.4733 91.1598 76.8319 89.5704 76.8319 89.5704Z" fill="#76ADA7"/>
<path d="M45.0686 88.1788C45.0686 88.1788 45.5633 86.1936 43.1823 85.5935C40.7948 84.9999 42.9845 80.3304 38.5129 80.4227C34.0412 80.5151 32.2539 79.9281 32.2539 82.0122C32.2539 84.1029 32.3528 84.1953 33.8434 83.7995C35.3339 83.3972 36.6266 85.5869 37.0223 86.3849C37.4246 87.1763 37.7214 86.8795 40.597 87.3742C43.4791 87.8688 41.7907 89.6826 43.8749 89.5243C45.959 89.3726 45.0686 88.1788 45.0686 88.1788Z" fill="#76ADA7"/>
<path d="M326.979 93.0134C324.104 93.02 326.306 84.4131 319.342 83.0544C312.377 81.6892 314.699 85.343 313.03 85.5475C311.361 85.7519 310.893 82.5862 309.251 83.4304C307.609 84.2746 308.928 87.6514 306.85 86.6027C304.779 85.5475 304.047 79.7897 298.936 77.9958C293.818 76.2019 292.288 78.5169 288.218 77.3297C284.149 76.1425 286.438 79.9414 282.217 81.0495C277.996 82.1575 278.319 77.9365 276.419 78.3652C274.52 78.7939 275.081 82.3355 272.924 81.6232C270.761 80.911 275.107 75.7006 271.585 72.5019C268.063 69.3032 267.476 70.9718 264.963 69.534C262.45 68.0962 265.188 66.4342 261.56 65.9C257.926 65.3592 260.887 67.1663 255.479 67.2652C250.071 67.3576 250.994 64.3633 248.211 65.4713C245.428 66.5793 245.388 70.3387 243.496 71.4796C241.596 72.6272 238.885 69.7978 238.509 71.3214C238.134 72.8449 252.933 78.2992 252.933 78.2992L264.152 88.7858L272.409 93.1321L281.564 90.2169L287.229 91.9713L296.825 93.7982L304.179 95.2624L312.245 92.4132L315.846 97.2476L325.198 100.275L326.979 93.0134Z" fill="#91C6AA"/>
<path d="M238.417 72.3831C238.918 69.6328 241.583 70.4704 245.731 72.5744C249.88 74.6783 249.062 69.989 254.088 71.4136C259.12 72.8382 261.784 74.3881 261.811 75.7467C261.837 77.1053 260.023 79.3411 264.93 81.2736C269.837 83.206 270.226 85.9958 270.147 88.4823C270.075 90.9753 272.99 91.5161 273.867 87.9678C274.744 84.4195 275.872 82.0584 278.919 84.9406C281.973 87.8227 283.641 83.0279 286.589 83.9315C289.531 84.835 287.908 89.8739 292.182 88.2184C296.463 86.5564 300.05 84.3932 301.033 88.4031C302.016 92.4131 303.988 90.263 305.808 91.5887C307.635 92.9077 309.079 96.4956 305.953 96.799C302.827 97.1023 294.22 98.5335 294.22 98.5335L277.917 100.631C277.917 100.631 270.978 98.1972 269.165 96.8517C267.344 95.5063 261.514 96.5813 261.514 96.5813C261.514 96.5813 256.007 91.2721 255.328 91.1072C254.648 90.9423 248.449 87.737 247.888 87.0841C247.327 86.4377 243.839 78.0353 243.839 78.0353C243.839 78.0353 241.932 76.3139 240.152 74.797C238.364 73.2735 238.417 72.3831 238.417 72.3831Z" fill="#7CB797"/>
<path d="M235.819 79.9941C238.338 75.595 246.074 76.9668 250.018 79.9149C253.956 82.8631 250.243 84.8153 256.587 88.1789C262.932 91.5425 257.952 93.5409 268.94 94.8204C279.928 96.0999 277.026 100.585 277.026 100.585L264.198 105.307L255.499 106.382L249.181 97.1023C249.181 97.1023 243.693 98.9754 243.186 98.8501C242.678 98.7248 232.857 91.991 232.857 91.991L227.232 89.3463L221.738 89.0626L215.446 90.5598L211.132 88.4163C211.132 88.4163 213.355 83.0543 217.629 83.9315C221.902 84.8021 220.867 79.5258 225.438 80.6536C230.002 81.7814 227.733 85.1648 231.07 84.7361C234.407 84.3074 235.819 79.9941 235.819 79.9941Z" fill="#6EA387"/>
<path d="M268.194 107.609C267.654 100.605 204.22 100.631 163.27 100.09C122.319 99.5493 73.8172 97.3926 74.8988 103.322C75.9739 109.251 89.4481 106.554 89.9889 111.408C90.5297 116.255 -0.538417 114.639 0.00239927 126.498C0.543215 138.35 89.4547 141.588 86.2164 146.976C82.9781 152.365 40.4053 156.665 39.8711 171.755C39.3303 186.845 98.0682 200.313 198.831 197.622C299.595 194.931 286.562 187.346 280.884 184.668C275.034 181.912 262.417 176.609 262.417 176.609C262.417 176.609 327.618 170.146 328.693 158.828C329.768 147.51 315.76 148.618 315.76 148.618C315.76 148.618 333 145.354 333 136.734C333 128.114 331.371 123.757 313.742 121.924C296.594 120.143 236.539 122.719 238.696 116.796C240.853 110.873 262.087 110.069 264.752 109.673C268.201 109.159 268.194 107.609 268.194 107.609Z" fill="#D8ECEA"/>
<path d="M51 116C51 116 146.168 126.762 181.46 123.259C216.751 119.757 232.112 119.269 232.112 119.269C232.112 119.269 225.727 112.074 257.787 110.187C289.847 108.301 258.5 101 228.583 101.323C212.399 101.498 145.383 99.8394 104.67 99.5492C46.0906 99.1271 59.2087 107.266 73.791 111.757C86.0319 115.523 51 116 51 116Z" fill="#ABD4DA"/>
<path d="M104.822 99.7142C104.822 99.7142 101.188 102.919 133.65 104.133C166.119 105.347 185.245 103.058 200.335 103.322C215.425 103.592 240 101.5 240 101.5C240 101.5 186 100 156.417 99.7142C126.514 99.0085 104.822 99.7142 104.822 99.7142Z" fill="#78C4D2"/>
<path d="M64.3729 96.9573L59.1758 126.214H62.6383L64.3729 121.723L65.5271 124.288C65.5271 124.288 69.1875 119.474 69.1875 120.054C69.1875 120.634 72.2675 122.752 72.2675 122.752L68.0333 109.469V92.334L64.3729 96.9573Z" fill="#78635E"/>
<path d="M149.024 80.9505L145.786 104.456H147.942L149.024 100.849L149.743 102.913C149.743 102.913 152.025 99.0414 152.025 99.5097C152.025 99.978 153.944 101.68 153.944 101.68L151.306 91.0083V77.2373L149.024 80.9505Z" fill="#78635E"/>
<path d="M82.2993 89.2013L81.4683 108.71C81.4683 108.71 84.1328 110.155 85.2012 109.68C86.2697 109.205 87.6877 107.325 87.6877 107.325L84.5747 89.1947L82.2993 89.2013Z" fill="#78635E"/>
<path d="M212.728 82.3223L210.031 104.146C210.031 104.146 212.141 105.966 213.104 105.518C214.06 105.07 215.459 103.071 215.459 103.071L214.674 82.4871L212.728 82.3223Z" fill="#78635E"/>
<path d="M264.6 83.4237L263.063 106.329H264.6L265.761 83.4237H264.6Z" fill="#78635E"/>
<path d="M109.379 82.4412L107.843 105.347H109.379L110.54 82.4412H109.379Z" fill="#78635E"/>
<path d="M288.376 86.616L285.573 124.084H288.376L290.493 86.616H288.376Z" fill="#78635E"/>
<path d="M250.559 104.852L249.708 92.3208L247.802 99.8131L247.841 104.872L250.559 105.564V104.852Z" fill="#78635E"/>
<path d="M258.48 108.334L258.638 89.2012L256.132 100.499L255.763 108.202L258.427 109.422L258.48 108.334Z" fill="#78635E"/>
<path d="M188.247 98.2237L188.398 79.0907L185.899 90.3885L185.529 98.0918L188.194 99.3119L188.247 98.2237Z" fill="#78635E"/>
<path d="M186.301 78.2135L185.892 97.3465L188.543 86.0817L189.011 78.3783L186.366 77.1318L186.301 78.2135Z" fill="#78635E"/>
<path d="M227.587 64.5083C224.797 65.2074 224.87 56.3169 217.78 56.6731C210.69 57.016 213.823 60.0103 212.253 60.6039C210.683 61.1974 209.463 58.2428 208.078 59.4563C206.693 60.6698 208.777 63.6311 206.508 63.1167C204.246 62.5891 202.149 57.1743 196.754 56.6599C191.352 56.1454 190.429 58.7638 186.188 58.5857C181.954 58.4142 185.087 61.547 181.255 63.6377C177.423 65.7284 176.724 61.547 174.983 62.4176C173.242 63.2882 174.64 66.5924 172.371 66.4209C170.102 66.2495 173.07 60.1488 168.889 57.8866C164.707 55.6244 164.529 57.3854 161.746 56.5939C158.956 55.8025 161.218 53.5337 157.571 53.8832C153.911 54.2262 157.228 55.2748 151.998 56.6731C146.768 58.0647 146.946 54.9319 144.506 56.6731C142.065 58.4142 142.936 62.0746 141.373 63.6377C139.803 65.2074 136.499 63.1101 136.499 64.6798C136.499 66.2495 152.176 67.9906 152.176 67.9906L165.584 75.4829L174.646 77.7187L182.838 72.6931L188.76 73.036L198.515 72.5084L206.007 72.1655L213.15 67.463L217.806 71.2949L227.613 71.994L227.587 64.5083Z" fill="#84C3BA"/>
<path d="M136.657 65.735C136.485 62.9452 139.269 63.1233 143.8 64.1653C148.331 65.2074 146.411 60.8545 151.635 61.0325C156.865 61.204 159.826 62.068 160.169 63.3871C160.512 64.6995 159.299 67.3113 164.529 68.0038C169.759 68.7029 170.801 71.3147 171.322 73.7483C171.85 76.1886 174.804 76.0105 174.804 72.3567C174.804 68.7029 175.332 66.1373 178.979 68.2017C182.639 70.266 183.101 65.214 186.181 65.3855C189.255 65.5569 188.885 70.8398 192.638 68.2017C196.397 65.5635 199.359 62.5956 201.271 66.256C203.184 69.9164 204.582 67.3509 206.673 68.2017C208.764 69.0459 211.032 72.1852 208.064 73.2273C205.103 74.2693 197.09 77.7253 197.09 77.7253L181.762 83.6743C181.762 83.6743 174.448 82.9752 172.357 82.1046C170.267 81.234 164.865 83.6743 164.865 83.6743C164.865 83.6743 158.243 79.8424 157.551 79.8424C156.852 79.8424 150.059 78.22 149.359 77.7253C148.66 77.2307 143.259 69.9164 143.259 69.9164C143.259 69.9164 140.997 68.6963 138.899 67.6542C136.822 66.6122 136.657 65.735 136.657 65.735Z" fill="#7CB797"/>
<path d="M135.965 73.7418C137.356 68.8678 145.198 68.3402 149.729 70.2594C154.26 72.1721 151.121 74.9619 158.092 76.7031C165.057 78.4442 160.704 81.577 171.678 80.1854C182.653 78.7938 180.912 83.8458 180.912 83.8458L169.588 91.5096L161.396 94.6423L153.033 87.1501C153.033 87.1501 148.159 90.2828 147.632 90.2828C147.104 90.2828 135.958 86.108 135.958 86.108L129.857 84.8879L124.456 85.9299L118.711 88.8912L114.009 87.8492C114.009 87.8492 114.879 82.1112 119.239 81.9331C123.598 81.7551 121.33 76.8811 126.032 76.8811C130.735 76.8811 129.343 80.713 132.476 79.4929C135.608 78.2793 135.965 73.7418 135.965 73.7418Z" fill="#76ADA7"/>
<path d="M107.968 99.3976C107.968 99.3976 93.689 100.967 95.7006 105.742C97.7122 110.517 121.844 112.529 136.176 112.278C150.508 112.028 208.322 108.506 221.895 109.765C235.469 111.025 248.125 111.038 248.125 111.038C248.125 111.038 225.193 115.576 233.866 118.794C242.44 121.98 145.983 120.074 120.842 117.561C95.7006 115.048 88.4128 112.285 88.914 106.501C88.914 106.501 89.6461 102.887 94.4936 101.528C99.3412 100.169 100.891 100.077 100.891 100.077L107.968 99.3976Z" fill="#C8ECE8"/>
<path d="M65.1245 162.547L145.475 145.438L162.584 140.888L166.719 146.085L93.0623 173.376L65.1245 162.547Z" fill="#BCCFCD"/>
<path d="M96.5249 174.458L127.279 185.505L152.836 176.403L118.184 165.792L96.5249 174.458Z" fill="#BCCFCD"/>
<path d="M130.095 185.505L152.836 177.492L180.127 184.206L155.111 195.464L130.095 185.505Z" fill="#BCCFCD"/>
<path d="M207.201 189.62C207.201 189.62 234.275 174.893 244.452 167.315C254.628 159.737 264.594 151.724 264.594 151.724L239.472 148.261C239.472 148.261 209.8 171.866 203.521 175.658C197.242 179.45 184.896 183.777 184.896 183.777L207.201 189.62Z" fill="#BCCFCD"/>
<path d="M65.1245 160.547L145.475 143.438L162.584 138.888L166.719 144.085L93.0623 171.376L65.1245 160.547Z" fill="#F3F8FA"/>
<path d="M96.5249 172.458L127.279 183.505L152.836 174.403L118.184 163.792L96.5249 172.458Z" fill="#F3F8FA"/>
<path d="M130.095 183.505L152.836 175.492L180.127 182.206L155.111 193.464L130.095 183.505Z" fill="#F3F8FA"/>
<mask id="mask0" style="mask-type:alpha" maskUnits="userSpaceOnUse" x="0" y="99" width="333" height="99">
<path d="M268.194 107.609C267.654 100.605 204.22 100.631 163.27 100.09C122.319 99.5493 73.8172 97.3926 74.8988 103.322C75.9739 109.251 89.4481 106.554 89.9889 111.408C90.5297 116.255 -0.538417 114.639 0.00239927 126.498C0.543215 138.35 89.4547 141.588 86.2164 146.976C82.9781 152.365 40.4053 156.665 39.8711 171.755C39.3303 186.845 98.0682 200.313 198.831 197.622C299.595 194.931 286.562 187.346 280.884 184.668C275.034 181.912 262.417 176.609 262.417 176.609C262.417 176.609 327.618 170.146 328.693 158.828C329.768 147.51 315.76 148.618 315.76 148.618C315.76 148.618 333 145.354 333 136.734C333 128.114 331.371 127.757 313.742 125.924C296.594 124.143 229.539 122.719 231.696 116.796C233.853 110.873 262.087 110.069 264.752 109.673C268.201 109.159 268.194 107.609 268.194 107.609Z" fill="#D8ECEA"/>
</mask>
<g mask="url(#mask0)">
<path d="M180.127 203.26L203.514 192.001L181.426 185.505L156.733 196.546L180.127 203.26Z" fill="#BCCFCD"/>
<path d="M180.127 201.26L203.514 190.001L181.426 183.505L156.733 194.546L180.127 201.26Z" fill="#F3F8FA"/>
</g>
<path d="M207.201 187.62C207.201 187.62 234.275 172.893 244.452 165.315C254.628 157.737 264.594 149.724 264.594 149.724L239.472 146.261C239.472 146.261 209.8 169.866 203.521 173.658C197.242 177.45 184.896 181.777 184.896 181.777L207.201 187.62Z" fill="#F3F8FA"/>
<path d="M156.733 172.652L157.815 172.981L182.508 180.553C182.508 180.553 203.514 172.539 208.282 166.907C213.044 161.275 237.737 145.248 237.737 145.248L213.915 141.133L156.733 172.652Z" fill="#F3F8FA"/>
<path opacity="0.58" d="M145.687 144.602C145.687 144.602 93.0986 146.112 90.5 148.5C87.9014 150.881 75.3013 151.969 75.3013 151.969C75.3013 151.969 67.0703 152.833 67.0703 154.35C67.0703 155.867 60.3563 161.499 73.5667 161.064C86.7771 160.628 95.8721 160.628 100.423 162.145C104.974 163.662 124.898 163.662 124.898 163.662L121 169.295C121 169.295 116.238 170.594 117.538 173.192C118.837 175.791 140.496 172.757 146.775 173.192C153.053 173.628 176.012 179.906 178.393 177.308C180.774 174.709 178.393 173.628 178.393 173.628C178.393 173.628 188.141 180.124 202.868 179.689C217.595 179.254 221.928 177.737 221.928 177.737L224.745 179.709C224.745 179.709 249.649 165.825 249.22 160.628C248.785 155.431 242.941 143.738 241.424 144.602C239.907 145.466 233.846 144.556 233.846 144.556L145.687 144.602Z" fill="#BFC2C4"/>
<path opacity="0.78" d="M70.9682 155.649C70.9682 155.649 65.7711 158.465 67.7167 158.9C69.6623 159.336 100.634 159.336 105.838 160.2C111.035 161.064 126.626 166.478 126.626 166.478L119.266 174.274C119.266 174.274 144.823 172.757 149.373 173.192C153.924 173.628 175.366 177.09 176.665 177.09C177.964 177.09 178.617 173.839 178.617 173.839L186.195 171.023L197.671 172.757C197.671 172.757 193.555 176.009 196.807 178.172C200.058 180.335 201.786 178.39 208.5 178.172C215.214 177.954 221.711 177.954 221.711 177.954C221.711 177.954 223.445 180.77 225.173 180.335C226.908 179.9 230.806 176.002 230.806 176.002L216.942 162.139L196.8 161.703L151.319 157.588H121.211L70.9682 155.649Z" fill="#A1A4A6"/>
<path d="M75.3008 125.759C75.3008 125.759 74.6281 124.658 74.8853 123.649C75.1425 122.646 75.4855 122.046 75.4855 122.046" stroke="#261B1C" stroke-width="0.3" stroke-miterlimit="10"/>
<path d="M75.5913 122.864C76.0502 122.864 76.4223 122.492 76.4223 122.033C76.4223 121.574 76.0502 121.202 75.5913 121.202C75.1323 121.202 74.7603 121.574 74.7603 122.033C74.7603 122.492 75.1323 122.864 75.5913 122.864Z" fill="#261B1C"/>
<path d="M76.9626 124.77C76.9626 124.77 75.36 122.428 74.6873 122.613C74.0079 122.798 74.2586 125.878 74.2586 125.878L76.9626 124.77Z" fill="#D18353"/>
<path d="M69.273 129.571C68.963 128.463 69.1477 127.85 70.9943 127.17C72.841 126.491 74.5624 124.954 74.5624 124.954C74.5624 124.954 76.0991 125.139 76.7191 124.644C77.339 124.15 79.8585 124.09 79.8585 124.09C79.8585 124.09 79.3638 125.568 78.9351 126.366C78.5064 127.164 77.3324 127.289 79.8585 132.09C82.3845 136.892 81.9492 137.202 89.8306 137.446C97.712 137.69 95.7993 142.373 95.7993 142.373L87.1793 146.62C87.1793 146.62 86.2559 145.637 85.3919 145.637C84.5279 145.637 82.5691 145.881 82.5691 145.881L84.8379 152.345L82.5691 153.393L80.2212 147.794L79.9112 153.763L77.3852 153.393C77.3852 153.393 77.9392 141.146 77.3852 138.31C76.8312 135.48 75.4132 131.477 74.7405 130.923C74.0612 130.369 71.7858 130.428 70.8624 130.494C69.9457 130.554 69.273 129.571 69.273 129.571Z" fill="#FFC54E"/>
<path d="M70.0114 127.606C70.0114 127.606 70.3808 127.731 70.6907 128.898C71.0007 130.066 70.6907 130.686 70.6907 130.686C70.6907 130.686 69.154 129.947 68.9694 129.149C68.7781 128.338 70.0114 127.606 70.0114 127.606Z" fill="#D18353"/>
<path d="M77.5171 124.954L78.0117 125.878C78.0117 125.878 79.0604 125.324 78.8757 124.954C78.6845 124.585 77.5171 124.954 77.5171 124.954Z" fill="#D18353"/>
<path d="M85.4575 137.017C85.4575 137.017 85.8862 142.188 87.4295 142.432C88.9662 142.676 90.6942 137.631 91.4329 138C92.1716 138.369 90.9382 141.957 91.8616 142.439C92.7849 142.92 96.0496 140.401 96.0496 140.401C96.0496 140.401 94.6316 137.69 92.6003 137.505C90.5689 137.321 85.4575 137.017 85.4575 137.017Z" fill="#D18353"/>
<path d="M77.5168 132.341C78.2555 134.188 76.6528 135.724 76.6528 135.724C76.6528 135.724 76.0527 133.693 75.5844 132.895C75.1161 132.097 74.8062 131.319 74.8062 131.319C74.8062 131.319 75.4327 130.917 76.2571 131.319C77.0815 131.721 77.5168 132.341 77.5168 132.341Z" fill="#D18353"/>
<path d="M81.0258 140.407C82.6285 141.146 82.7274 142.808 82.0943 143.672C81.4611 144.536 79.9838 145.947 79.3044 144.78C78.6251 143.613 78.5658 142.689 79.3044 141.825C80.0431 140.961 81.0258 140.407 81.0258 140.407Z" fill="#D18353"/>
<path d="M78.447 126.821C78.447 126.821 76.8245 126.913 77.0751 129.024C77.3258 131.134 79.3373 130.448 79.3373 130.448C79.3373 130.448 78.3085 129.4 78.3612 128.358C78.4074 127.309 78.447 126.821 78.447 126.821Z" fill="#D18353"/>
<path d="M77.7149 144.773L80.6169 148.097L79.8386 153.268H77.5171L77.7149 145.222V144.773Z" fill="#D18353"/>
<path d="M80.788 133.931C80.788 133.931 81.7114 136.087 82.5094 136.331C83.3075 136.575 84.4814 136.701 84.4814 136.701C84.4814 136.701 82.6347 139.161 80.788 138.119C78.9413 137.077 80.788 133.931 80.788 133.931Z" fill="#D18353"/>
<path d="M77.4575 151.791L79.9967 152.186L79.9176 153.763L77.5169 153.268L77.4575 151.791Z" fill="#261B1C"/>
<path d="M82.5756 153.393L85.1477 152.285L84.2903 150.762L81.9028 151.791L82.5756 153.393Z" fill="#261B1C"/>
<path d="M75.5645 125.897C75.5645 125.897 75.5974 124.605 76.3493 123.899C77.1012 123.193 77.7211 122.87 77.7211 122.87" stroke="#261B1C" stroke-width="0.3" stroke-miterlimit="10"/>
<path d="M77.8134 123.741C78.2724 123.741 78.6444 123.369 78.6444 122.91C78.6444 122.451 78.2724 122.079 77.8134 122.079C77.3545 122.079 76.9824 122.451 76.9824 122.91C76.9824 123.369 77.3545 123.741 77.8134 123.741Z" fill="#261B1C"/>
<path d="M74.2654 127.573C74.4912 127.573 74.6743 127.39 74.6743 127.164C74.6743 126.938 74.4912 126.755 74.2654 126.755C74.0395 126.755 73.8564 126.938 73.8564 127.164C73.8564 127.39 74.0395 127.573 74.2654 127.573Z" fill="#261B1C"/>
<path d="M84.4092 141.146H104.419L124.172 131.787L124.726 132.77L105.897 142.188H121.587L118.514 154.627L110.203 157.087H88.1685L84.4092 141.146Z" fill="#FFB034"/>
<path d="M105.158 141.944L124.357 132.401V133.139L105.956 142.373L105.158 141.944Z" fill="#FF9C25"/>
<path d="M116.851 144.345L115.064 156.474L117.775 144.035L116.851 144.345Z" fill="#FF9C25"/>
<path d="M119.621 144.655L119.555 144.932L117.28 154.686L120.419 144.285L119.621 144.655Z" fill="#FF9C25"/>
<path d="M118.573 152.714L108.357 152.101V153.084L118.573 152.714Z" fill="#FF9C25"/>
<path d="M105.896 154.686V155.425H118.078L105.896 154.686Z" fill="#FF9C25"/>
<path d="M92.6597 152.101L93.029 152.595H87.6143V152.101H92.6597Z" fill="#FF9C25"/>
<path d="M89.8305 155.854L87.6145 147.055H92.7852L88.7225 142.927L84.8643 143.072L85.8008 147.055H86.1372L89.2106 155.854H89.8305Z" fill="#FF9C25"/>
<path d="M84.6597 141.205L90.8131 139.543L100.845 141.205L101.155 141.944L84.6597 141.205Z" fill="#FF9C25"/>
<path d="M128.743 134.254L124.509 139.055L117.379 142.234H107.737L117.379 136.879L128.743 134.254Z" fill="#BA290C"/>
<path d="M106.015 141.931C106.015 141.931 121.475 133.495 125.669 133.647C129.864 133.799 128.551 134.557 128.551 134.557L121.831 137.235L117.636 136.984L114.906 139.411L107.73 142.241H106.015V141.931Z" fill="#F24F26"/>
<path d="M120.367 139.609L121.831 137.235L114.906 139.405L120.367 139.609Z" fill="#F24F26"/>
<path d="M113.36 137.044C113.36 137.044 113.95 129.156 111.984 126.577C110.012 123.998 108.35 123.141 108.35 123.141C108.35 123.141 111.43 126.274 111.635 129.301C111.839 132.335 111.5 138 111.5 138L113.36 137.044Z" fill="#FF4F00"/>
<path d="M104.453 124.15C104.453 124.15 106.299 122.086 108.014 122.996C109.729 123.906 112.38 127.243 112.38 127.243C112.38 127.243 111.358 122.831 108.337 122.336C104.954 121.776 104.453 124.15 104.453 124.15Z" fill="#FF9C25"/>
<path d="M101.221 141.43C101.221 141.43 101.847 131.378 102.632 127.691C103.443 123.906 105.059 122.356 107.077 122.626C109.096 122.897 110.494 125.093 110.494 125.093C110.494 125.093 105.897 121.175 105.33 125.423C104.756 129.663 103.799 139.161 103.799 139.161L101.221 141.43Z" fill="#FFB034"/>
<path d="M101.214 144.107L101.352 139.491L103.99 137.235L103.687 142.32L101.418 144.107" fill="#FF9B25"/>
<path d="M103.443 145.618L103.793 140.869L101.214 142.538V145.42L103.443 145.618Z" fill="#FF4F00"/>
<path d="M104.604 146.099C104.604 147.201 103.714 148.091 102.612 148.091C101.926 148.091 101.326 147.748 100.963 147.22C100.746 146.897 100.614 146.515 100.614 146.093C100.614 144.991 101.504 144.101 102.606 144.101C103.714 144.107 104.604 144.998 104.604 146.099Z" fill="#FFDFA8"/>
<path d="M100.772 146.871L104.235 144.945L104.452 145.327L100.963 147.227L100.772 146.871Z" fill="#BFA77E"/>
<path d="M84.772 142.234L84.9237 143.243L91.3013 143.507L90.378 142.234H84.772Z" fill="#FF4F00"/>
<path d="M86.9619 142.235C86.9619 142.235 90.6751 145.176 92.3041 148.296C93.9398 151.416 94.7906 153.678 94.7906 153.678C94.7906 153.678 97.6463 150.387 98.4641 147.228C99.282 144.068 99.3545 143.877 100.133 143.251C100.911 142.624 101.267 142.241 101.267 142.241H86.9619V142.235Z" fill="#C51E00"/>
<path d="M96.0898 152.009C96.0898 152.009 93.7154 145.888 92.1194 144.701C90.5233 143.514 88.9272 142.241 88.9272 142.241H91.229C91.229 142.241 94.2365 144.404 95.3115 146.706C96.3866 149.008 96.8812 150.769 96.8812 150.769L96.0898 152.009Z" fill="#E25100"/>
<path d="M92.5278 142.234C92.5278 142.234 94.4932 143.731 95.4232 145.4C96.3531 147.069 97.6722 149.318 97.6722 149.318L98.3911 147.504C98.3911 147.504 96.6631 144.292 95.5287 143.362C94.3943 142.432 93.9392 142.234 93.9392 142.234H92.5278Z" fill="#E25100"/>
<path d="M96.0898 142.234C96.0898 142.234 96.9802 142.465 97.798 143.652C98.6159 144.839 98.9456 145.618 98.9456 145.618L99.3941 144.101C99.3941 144.101 98.6686 142.294 98.1014 142.234C97.5144 142.175 96.0898 142.234 96.0898 142.234Z" fill="#E25100"/>
<path opacity="0.46" d="M87.1396 142.234L90.6681 146.079C90.6681 146.079 92.2906 146.462 94.6517 144.371C99.3344 140.229 99.0178 144.932 99.7697 143.863C100.772 142.452 101.267 142.228 101.267 142.228H87.1396V142.234Z" fill="#730D00"/>
<path d="M69.2598 155.234L72.5047 157.753H69.6819H69.2598V155.234Z" fill="#E1B270"/>
<path d="M82.0811 157.351H87.0276L86.7506 156.342L76.1717 156.196L75.6309 157.456L82.0811 157.351Z" fill="#721104"/>
<path d="M69.2598 153.908C69.2598 153.908 70.348 157.641 71.423 157.753C72.4981 157.865 75.987 157.694 76.8905 157.212C77.7941 156.731 78.3349 155.827 79.2319 156.493C80.1288 157.159 79.8914 157.516 81.1511 157.456C82.4108 157.397 81.9953 156.375 83.5518 156.493C85.1149 156.612 84.3301 157.529 87.5156 157.463C90.7011 157.397 92.6072 157.885 92.7919 157.469C92.9699 157.047 92.7655 154.574 92.7655 154.574C92.7655 154.574 90.655 155.972 89.0787 155.689C87.265 155.365 85.293 152.708 83.6705 152.826C82.0481 152.945 81.006 155.827 81.006 155.827C81.006 155.827 80.8477 153.242 78.3811 153.123C75.921 153.004 74.7735 155.049 72.8542 155.141C70.9416 155.234 69.2598 153.908 69.2598 153.908Z" fill="#FFEACB"/>
<path d="M71.9043 155.471C71.9043 155.471 73.7642 155.412 75.0898 154.508C76.4155 153.604 77.7939 153.486 78.5128 153.545C79.2317 153.604 80.432 155.464 80.432 155.464C80.432 155.464 78.3875 154.205 77.728 154.205C77.0684 154.205 74.8458 155.286 74.1203 155.464C73.408 155.649 71.9043 155.471 71.9043 155.471Z" fill="#E1B270"/>
<path d="M71.4824 156.493C71.4824 156.493 71.6473 156.506 71.9045 156.513C72.6036 156.533 74.015 156.493 74.846 156.012C75.987 155.352 77.3061 154.627 78.3877 155.233C79.4694 155.834 79.9508 156.078 79.9508 156.078C79.9508 156.078 78.269 155.332 77.128 155.768C75.987 156.196 75.2681 156.803 74.602 156.863C73.9425 156.915 71.4824 156.493 71.4824 156.493Z" fill="#E1B270"/>
<path d="M81.4548 156.856C81.4548 156.856 81.3361 154.086 83.4993 153.789C85.6626 153.492 87.3444 156.863 89.3296 156.856C91.3148 156.849 91.8556 155.933 91.8556 155.933C91.8556 155.933 89.9957 156.276 88.7888 155.933C87.5884 155.59 86.6585 154.541 86.6585 154.541C86.6585 154.541 87.4103 155.603 89.3955 155.801C91.3873 155.999 92.1788 155.695 92.1788 155.695L92.6009 155.735V156.071C92.6009 156.071 90.9652 156.929 90.2529 157.014C89.5406 157.1 88.3667 157.1 86.0451 156.032C83.717 154.963 81.4548 156.856 81.4548 156.856Z" fill="#E1B270"/>
<path d="M92.871 157.252H68.8179V158.05H92.871V157.252Z" fill="#EC3007"/>
<path d="M81.7911 157.753H80.3071V158.419H81.7911V157.753Z" fill="#EC3007"/>
<path d="M243.126 164.797L246.767 170.818L244.947 174.452L236.201 165.39L243.126 164.797Z" fill="#F0C6B4"/>
<path d="M251.245 180.329L258.104 182.433L255.097 188.731L249.563 187.887L251.245 180.329Z" fill="#F0C6B4"/>
<path d="M240.752 170.818L241.867 172.573L246.767 170.119L245.784 168.714L240.752 170.818Z" fill="white"/>
<path d="M257.254 180.553C257.254 180.553 256.555 183.771 255.084 185.592C253.613 187.412 249.834 186.713 249.834 186.713C249.834 186.713 250.533 189.028 252.63 189.061C254.728 189.094 259.067 188.81 260.05 186.574C261.033 184.332 259.351 181.259 259.351 181.259L257.254 180.553Z" fill="white"/>
<path d="M252.822 197.965C252.947 198.281 253.125 198.565 253.316 198.815C254.081 199.798 255.433 200.115 256.555 199.574C260.756 197.569 272.733 191.772 274.296 190.096C276.196 188.052 279.467 183.864 280.001 182.505C280.43 181.417 280.047 180.751 279.308 180.382C278.761 180.111 277.581 180.382 277.581 180.382L252.525 192.721L252.822 197.965Z" fill="white"/>
<path d="M247.604 168.714L241.345 171.755L253.896 180.612C253.896 180.612 255.716 182.578 256.976 182.644C258.236 182.71 260.472 183.659 258.658 185.842C256.838 188.025 252.359 189.008 252.359 189.008L252.636 195.307C252.636 195.307 252.801 195.267 253.098 195.188C254.714 194.772 260.208 193.302 264.106 191.528C268.722 189.43 277.962 180.751 277.962 180.751C277.962 180.751 276.142 178.231 271.802 181.588C267.463 184.945 263.123 183.27 262.008 181.588C260.887 179.907 256.455 178.825 252.188 176.437C247.927 174.057 247.604 168.714 247.604 168.714Z" fill="#49476A"/>
<path d="M180.642 143.19C180.642 143.19 209.932 129.769 217.378 126.109C224.824 122.448 228.043 124.987 231.373 131.286C234.704 137.584 237.461 140.843 238.997 144.747C240.534 148.651 246.76 164.935 246.76 164.935L236.406 172.566C236.406 172.566 224.785 155.458 224.508 155.418C222.687 155.141 223.294 149.502 221.586 146.706C220.537 144.998 218.242 144.582 216.659 145.809L205.685 155.689L180.642 143.19Z" fill="#2B4A79"/>
<path d="M161.561 155.596C161.284 162.647 160.895 167.244 164.186 166.934C167.477 166.624 165.334 168.695 166.785 168.925C168.243 169.156 168.473 168.233 169.008 168.925C169.542 169.618 169.931 169.235 171.151 169.849C172.371 170.462 174.132 170.462 176.665 169.849C179.191 169.235 185.087 169.776 188.385 170.304C191.676 170.838 192.368 169.084 195.435 169.77C198.502 170.462 201.945 169.77 206.924 170.08C211.904 170.39 216.158 169.282 215.472 171.267C214.779 173.259 217.437 171.451 219.145 173.753C220.847 176.048 232.646 185.084 235.027 187.61C237.401 190.136 246.707 187.181 246.707 187.181C246.707 187.181 246.575 187.847 248.488 189.378C250.4 190.908 249.517 189.661 250.565 188.731C253.078 186.489 256.165 179.663 254.767 178.093C253.461 176.629 248.329 175.151 240.072 168.576C230.417 160.602 231.841 161.651 228.88 159.309C225.839 156.909 226.308 153.229 222.093 152.391C217.879 151.553 193.45 148.493 193.45 148.493L161.561 155.596Z" fill="#355F8D"/>
<path d="M191.095 136.529L191.062 104.43C191.062 104.43 197.401 108.262 201.668 119.995C203.145 122.072 202.064 126.979 204.873 130.659C207.683 134.333 207.564 135.058 207.129 136.45C206.7 137.842 206.291 137.723 207.841 138.983C209.397 140.242 205.711 140.678 207.043 141.931C208.072 142.9 205.651 142.696 201.978 145.585C198.304 148.473 199.722 144.912 199.722 144.912C199.722 144.912 200.078 144.463 197.974 144.015C195.87 143.566 191.551 136.727 191.551 136.727L191.095 136.529Z" fill="#005D9C"/>
<path d="M188.227 97.1552C188.227 97.1552 187.64 98.5863 188.543 99.2459C189.454 99.8988 190.252 101.976 193.384 105.967C196.524 109.963 196.108 109.614 196.491 118.029C195.29 123.728 194.334 127.276 194.11 129.446C194.024 130.25 194.657 136.147 195.231 138.475C195.798 140.81 195.574 144.239 194.578 146.712C193.582 149.186 190.515 145.281 190.416 147.28C190.318 149.278 189.625 150.175 185.773 150.531C181.922 150.894 180.458 154.244 180.458 154.244C180.458 154.244 182.324 157.621 180.616 158.05C178.908 158.478 181.071 161.341 177.655 161.677C174.225 162.007 177.869 155.892 175 157C172.883 157.818 170.993 144.793 170.993 144.793L169.5 146.712C169.5 146.712 166.358 136.433 162.5 131.5C160.574 129.033 160.5 132.559 159.742 129.756C158.983 126.953 161.377 129.34 161.232 125.772C161.087 122.204 163.659 118.089 164.451 112.872C165.17 108.143 169.49 104.595 171.475 102.9C173.453 101.205 174.146 99.2063 180.246 98.6985C186.347 98.1906 188.227 97.1552 188.227 97.1552Z" fill="#0096CA"/>
<path d="M182.796 105C182.796 105 185.077 111.401 184.424 114.059C183.772 116.712 182.736 119.134 182.796 123.9C182.857 128.666 183.575 129.677 187.033 132.257C190.486 134.837 189.379 141.159 191.369 141.625C193.358 142.091 193.309 142.163 194.01 141.31C194.712 140.463 196 141.074 196 141.074L195.315 144.665C195.315 144.665 191.56 152.562 189.916 153.409C188.272 154.256 184.781 157 184.781 157C184.781 157 173.258 154.5 173 154.5C172.742 154.5 163.5 132.257 163.5 132.257L166.5 128.5L173 130.5C173 130.5 179.87 146.227 183.191 147.008C186.518 147.79 190.689 144.901 189.45 142.4C188.212 139.899 187.099 135.297 184.786 133.032C182.473 130.767 181.3 130.767 181.169 127.255C181.037 123.743 180.451 117.493 181.624 114.526C182.796 111.558 182.802 109.609 182.802 107.889C182.796 106.169 182.796 105 182.796 105Z" fill="#005D9C"/>
<path d="M188.339 97.2408C188.339 97.2408 181.816 98.9754 179.501 97.7025C177.18 96.4296 177.569 94.9655 176.435 95.3348C166.858 98.4676 168.566 98.7446 171.185 99.0941C173.803 99.4371 179.191 99.0941 179.191 99.0941H186.71L188.339 97.2408Z" fill="#0096CA"/>
<path d="M185.82 95.3217L188.339 97.2343C188.339 97.2343 184.316 99.8461 174.311 97.5443C170.347 96.6275 171.943 99.5229 175.94 98.8765C179.943 98.2302 180.247 98.6787 180.247 98.6787C180.247 98.6787 174.291 99.325 172.009 102.682C169.727 106.039 166.377 108.196 166.377 108.196C166.377 108.196 165.374 108.71 166.212 106.784C167.049 104.858 168.975 104.021 166.509 101.198C164.042 98.3819 165.618 97.9862 166.759 97.7421C167.9 97.4981 176.441 95.3217 176.441 95.3217H185.82Z" fill="#005D9C"/>
<path d="M187.778 111.355C187.778 111.355 195.27 108.552 195.666 113.109C196.068 117.667 194.222 120.285 190.865 119.975C187.508 119.672 187.204 119.599 187.204 119.599L187.132 118.135C187.132 118.135 191.228 118.491 192.177 117.568C193.127 116.638 193.312 115.576 193.101 114.27C192.89 112.964 192.428 112.535 190.535 112.786C188.636 113.024 187.91 113.089 187.91 113.089L187.778 111.355Z" fill="white"/>
<path d="M186.274 114.798L185.925 116.169L189.651 116.189L190.146 114.791L186.274 114.798Z" fill="white"/>
<path d="M205.764 143.019C205.764 143.019 208.514 145.618 209.741 146.97C210.968 148.322 212.748 152.47 213.619 154.93C214.49 157.39 213.626 158.366 213.052 156.856C212.478 155.346 211.97 155.128 212.214 156.731C212.452 158.34 211.251 158.149 210.987 157.509C210.724 156.869 210.282 156.262 210.123 157.311C209.959 158.36 209.926 158.096 209.167 157.74C208.409 157.384 208.145 155.471 208.006 156.328C207.868 157.173 207.353 156.177 207.103 155.049C206.852 153.921 206.661 153.044 205.54 151.758C204.418 150.478 203.825 150.439 203.528 150.973C203.231 151.514 205.164 152.708 205.368 153.915C205.573 155.121 205.203 155.55 204.484 155.728C203.759 155.906 203.587 155.095 203.376 153.374C203.165 151.659 202.044 151.956 201.292 149.938C200.54 147.919 200.85 146.35 200.85 146.35L205.764 143.019Z" fill="#F0C6B4"/>
<path d="M187.185 143.019C187.185 143.019 188.748 143.329 190.324 144.8C191.9 146.264 191.195 147.187 192.698 148.051C194.202 148.915 194.888 149.377 194.446 149.984C194.004 150.59 193.47 150.762 192.435 150.109C191.393 149.456 191.03 147.207 190.416 147.286C189.803 147.365 189.612 147.919 190.37 149.449C191.122 150.98 191.861 151.501 192.804 152.16C193.747 152.82 194.473 153.69 193.635 153.479C192.797 153.268 194.459 154.257 194.499 155.095C194.539 155.933 194.763 156.065 193.734 155.807C192.705 155.563 193.094 156.196 193.589 156.691C194.083 157.179 193.793 158.36 192.402 157.529C191.01 156.698 191.017 157.245 192.197 158.353C193.371 159.468 192.138 159.883 190.205 158.142C188.273 156.401 185.12 153.163 184.342 151.514C183.571 149.858 182.212 146.323 182.212 146.323L187.185 143.019Z" fill="#F0C6B4"/>
<path d="M197.097 87.6645C197.097 87.6645 201.167 86.5961 202.162 84.2613C203.158 81.9332 201.384 79.1895 200.791 78.4047C200.197 77.6066 201.239 76.4261 202.4 76.558C203.561 76.6899 201.523 74.1375 199.907 73.5109C198.291 72.8844 194.875 73.2735 193.424 73.1548C191.966 73.0295 192.012 71.6379 192.942 71.4598C193.872 71.2817 190.72 70.4309 190.1 70.6222C189.48 70.8135 188.847 71.196 188.649 72.06C188.444 72.924 188.2 73.0625 185.569 72.548C182.937 72.0336 179.633 72.2381 179.059 74.7245C178.479 77.2109 179.231 78.3585 179.231 78.3585C179.231 78.3585 177.087 78.2926 177.417 81.3792C177.753 84.4592 178.683 87.7766 178.32 88.6472C177.958 89.5178 178.98 89.5574 178.98 89.5574L180.292 88.0866L197.097 87.6645Z" fill="#49476A"/>
<path d="M179 97.3134L178.934 98.5336H187.455L187.442 95.5657C187.442 95.5657 186.163 94.4445 186.697 93.4156C187.231 92.3933 187.838 91.2919 187.838 91.2919L183.9 87.7964L180.247 87.8162L179 97.3134Z" fill="#F0C6B4"/>
<path d="M185.121 96.7923L182.146 97.841C182.146 97.841 179.402 95.9086 180.194 92.723C180.985 89.5309 180.636 88.1393 180.636 88.1393L179.831 87.5721L181.078 85.7913L182.449 84.2744L186.736 86.5036L188.28 90.9159L185.121 96.7923Z" fill="#EAB19F"/>
<path d="M191.808 76.8877C191.808 76.8877 196.702 78.1144 197.394 81.7221C198.087 85.3231 197.289 86.9917 196.022 89.2012C194.763 91.404 195.508 91.8327 194.618 93.1122C193.727 94.3917 192.982 94.8138 189.843 97.9663C188.768 99.0414 186.492 97.3926 184.797 95.9614C183.102 94.5368 180.886 92.8945 180.946 91.7799C181.018 90.6719 181.163 87.7238 181.163 87.7238C181.163 87.7238 180.622 89.0561 179.903 88.3372C179.191 87.6117 179.046 85.8244 179.528 84.0041C180.009 82.1903 180.88 80.6404 182.476 81.1615C184.072 81.6825 183.293 84.8548 183.293 84.8548L183.986 85.6661C183.986 85.6661 184.335 82.5333 186.71 81.4846C189.078 80.4294 189.48 79.8226 190.43 78.4046C191.379 76.9866 191.808 76.8877 191.808 76.8877Z" fill="#F0C6B4"/>
<path d="M192.059 85.0526C192.132 85.046 192.204 85.013 192.244 84.9537C192.699 84.2743 192.283 83.6412 190.555 82.9882C187.924 81.9858 187.146 82.6321 187.047 82.731C187.04 82.7376 187.027 82.7442 187.027 82.7574L187.014 82.7772C186.915 82.9091 186.987 83.0938 187.152 83.1268C187.601 83.2059 188.405 83.3708 189.045 83.5621C189.764 83.7731 190.549 84.2414 190.964 84.6964C191.268 85.0262 191.822 85.0592 192.059 85.0526Z" fill="#49476A"/>
<path d="M193.998 85.0921C193.899 85.5604 194.644 86.0089 195.627 86.2661C196.267 86.431 196.887 86.8201 197.243 87.0707C197.461 87.2224 197.771 87.0905 197.784 86.8267C197.79 86.7344 197.777 86.6156 197.724 86.4969C197.507 86.0287 197.177 85.4153 195.667 84.9074C194.156 84.393 193.998 85.0921 193.998 85.0921Z" fill="#49476A"/>
<path d="M192.316 86.9388C192.316 86.9388 191.743 87.6182 191.551 89.2868C191.367 90.9554 191.769 91.6347 190.39 91.3379C189.012 91.0411 189.757 91.239 189.757 91.239" stroke="#EAB19F" stroke-width="0.3" stroke-miterlimit="10"/>
<path d="M191.887 94.174C191.887 94.174 190.034 94.6093 188.636 93.62C187.152 92.5713 186.875 92.1228 186.875 92.1228" fill="#C89A89"/>
<path d="M191.874 94.108C191.874 94.108 190.238 93.9761 188.761 93.2044C187.191 92.3932 186.842 92.103 186.842 92.103" fill="#F0C6B4"/>
<path d="M189.942 94.8335C189.942 94.8335 189.084 93.9299 188.214 94.1673L189.942 94.8335Z" fill="#C89A89"/>
<path d="M190.41 86.7674C190.41 86.7674 190.133 85.2241 188.768 84.8548C187.726 84.5712 186.869 85.1318 186.869 85.1318C186.869 85.1318 186.855 86.1145 187.858 86.7014C189.21 87.4995 190.41 86.7674 190.41 86.7674Z" fill="#EAB19F"/>
<path d="M190.272 86.807C190.272 86.807 190.404 86.22 189.764 85.5802C189.256 85.0724 188.439 84.7888 187.693 84.8745C186.994 84.9537 186.902 85.1977 186.902 85.1977" stroke="#393D45" stroke-width="0.5" stroke-miterlimit="10"/>
<path d="M190.41 86.7609C190.41 86.7609 190.087 85.4352 188.696 85.0329C187.634 84.7163 186.855 85.1648 186.855 85.1648C186.855 85.1648 186.935 85.9892 187.931 86.5301C189.269 87.2555 190.41 86.7609 190.41 86.7609Z" fill="#F9E4D6"/>
<path d="M188.168 85.7254C187.976 86.0815 188.148 86.563 188.616 86.7872C189.137 87.0445 189.731 86.84 189.863 86.3652C189.981 85.9431 189.658 85.5078 189.203 85.3759C188.774 85.2505 188.333 85.4022 188.168 85.7254Z" fill="#393D45"/>
<path d="M188.399 85.4483C188.339 85.6 188.425 85.7715 188.596 85.8374C188.808 85.9232 188.834 85.8902 189.025 85.6725C189.071 85.5143 188.966 85.3494 188.794 85.29C188.636 85.2438 188.458 85.3098 188.399 85.4483Z" fill="white"/>
<path d="M196.241 88.8317C196.241 88.8317 195.845 87.4532 194.559 87.2356C193.576 87.0707 192.851 87.6643 192.851 87.6643C192.851 87.6643 192.93 88.5613 193.899 89.0097C195.205 89.6099 196.241 88.8317 196.241 88.8317Z" fill="#EAB19F"/>
<path d="M196.122 88.8778C196.122 88.8778 196.188 88.3238 195.541 87.8093C195.033 87.3938 194.255 87.2026 193.582 87.3609C192.956 87.4994 192.883 87.7302 192.883 87.7302" stroke="#393D45" stroke-width="0.5" stroke-miterlimit="10"/>
<path d="M196.24 88.8184C196.24 88.8184 195.825 87.6379 194.512 87.3938C193.51 87.2092 192.844 87.684 192.844 87.684C192.844 87.684 192.995 88.4293 193.958 88.8316C195.244 89.3856 196.24 88.8184 196.24 88.8184Z" fill="#F9E4D6"/>
<path d="M193.958 88.2777C193.82 88.6207 194.017 89.0428 194.466 89.201C194.967 89.3857 195.488 89.1417 195.561 88.6998C195.627 88.3041 195.29 87.9347 194.868 87.8556C194.473 87.783 194.083 87.9611 193.958 88.2777Z" fill="#393D45"/>
<path d="M194.011 87.8754C193.971 88.0139 194.07 88.1656 194.235 88.2117C194.406 88.2645 194.578 88.1787 194.611 88.0205C194.637 87.882 194.525 87.7303 194.367 87.6973C194.209 87.6643 194.05 87.7435 194.011 87.8754Z" fill="white"/>
<path d="M181.21 85.4205C181.364 84.427 181.276 83.5886 181.013 83.5478C180.751 83.507 180.413 84.2794 180.259 85.2728C180.104 86.2663 180.193 87.1047 180.455 87.1455C180.718 87.1862 181.056 86.4139 181.21 85.4205Z" fill="#EAB19F"/>
<path d="M148.931 83.3182C154.933 83.0939 157.881 86.2663 159.127 91.1336C160.374 96.0076 160.71 99.5163 167.286 102.346C173.855 105.175 168.42 108.915 172.496 114.923C176.572 120.925 175.781 121.492 176.005 125.911C176.229 130.33 174.191 134.861 171.586 135.316C168.981 135.771 159.695 136.45 159.695 136.45L140.779 145.176C140.779 145.176 138.398 146.534 136.928 143.817C135.457 141.1 138.966 137.927 136.136 135.547C133.307 133.166 121.976 133.053 121.64 124.895C121.297 116.737 131.605 116.855 133.083 113.907C134.553 110.959 128.097 111.19 128.776 106.995C129.455 102.801 137.383 102.801 137.95 100.539C138.517 98.2698 135.345 96.6869 137.838 93.4024C140.331 90.118 140.219 91.1336 141.465 88.8714C142.712 86.6092 141.92 86.4905 143.958 85.0198C145.983 83.5424 148.931 83.3182 148.931 83.3182Z" fill="#3B3169"/>
<path d="M150.092 90.0189C150.092 90.0189 145.159 90.1179 144.282 92.6109C143.405 95.1039 143.273 97.1221 143.273 97.1221L142.534 96.6538L142.066 99.6877C142.066 99.6877 140.991 98.2763 140.918 100.09C140.846 101.904 141.05 103.592 141.657 103.322C142.264 103.051 142.264 103.051 142.264 103.051C142.264 103.051 143.095 105.386 144.354 106.685C145.7 108.077 147.454 108.842 147.454 108.842C147.454 108.842 147.586 112.476 145.838 113.221C144.084 113.96 138.227 114.435 137.554 115.173C136.882 115.912 136.545 117.798 136.545 117.798C136.545 117.798 141.531 121.973 150.086 121.169C158.64 120.364 163.289 117.601 163.289 117.601C163.289 117.601 164.101 116.255 161.74 115.246C159.378 114.237 155.54 114.573 154.063 112.621C152.579 110.669 152.717 108.849 152.717 108.849C152.717 108.849 155.342 106.461 155.817 105.228C156.285 103.994 156.628 103.124 156.628 103.124C156.628 103.124 158.58 103.592 158.58 101.778C158.58 99.9647 158.02 99.6811 157.571 99.6877C156.938 99.7009 156.16 100.835 156.16 100.835C156.16 100.835 156.562 97.6695 154.814 95.9151C153.067 94.1608 150.092 90.0189 150.092 90.0189Z" fill="#FFCDB5"/>
<path d="M140.272 140.223C140.272 140.223 141.314 142.254 141.248 143.468C141.182 144.681 139.836 146.838 139.836 146.838C139.836 146.838 143.879 150.406 147.85 150.003C151.827 149.601 159.906 146.904 159.906 146.904C159.906 146.904 158.29 144.813 158.692 142.999C159.095 141.179 159.906 139.629 159.906 139.629L140.272 140.223Z" fill="#FFCDB5"/>
<path d="M140.271 140.223L141.102 142.359C141.102 142.359 146.774 143.336 150.138 143.402C153.508 143.468 158.897 142.201 158.897 142.201L159.906 139.629L140.271 140.223Z" fill="#E79A7E"/>
<path d="M172.299 124.743L163.408 139.154L136.869 139.629L127.978 125.014L172.299 124.743Z" fill="#4956A8"/>
<path d="M127.978 125.014L136.532 117.132C136.532 117.132 143.332 121.709 150.072 121.175C156.806 120.634 163.408 117.132 163.408 117.132C163.408 117.132 172.299 124.137 172.299 124.743C172.299 124.862 172.12 124.987 171.83 125.146C170.604 125.785 167.326 126.841 166.237 129.123C164.892 131.952 163.408 139.161 163.408 139.161C163.408 139.161 156.945 142.26 151.081 141.72C145.218 141.179 136.869 139.629 136.869 139.629C136.869 139.629 136.934 133.97 134.514 129.795C132.087 125.62 127.978 125.014 127.978 125.014Z" fill="#6073D0"/>
<path d="M139.969 146.501C139.969 146.501 145.357 148.994 150.138 148.387C154.92 147.781 159.57 146.501 159.57 146.501L160.849 150.676L162.195 154.785C162.195 154.785 172.84 153.842 177.958 154.046C183.076 154.251 187.052 160.041 187.052 160.041C187.052 160.041 182.878 155.121 174.389 157.614C165.901 160.107 161.858 161.855 161.858 161.855L151.959 166.168C151.959 166.168 129.594 155.187 124.008 154.112C118.415 153.037 114.913 152.358 113.027 153.776C111.14 155.187 116.324 150.742 121.31 151.151C126.296 151.553 135.655 153.578 135.655 153.578C135.655 153.578 136.394 151.289 137.41 149.871C138.419 148.453 139.969 146.501 139.969 146.501Z" fill="#8067D5"/>
<path d="M151.958 166.168C151.958 166.168 181 148.772 187.725 161.591C194.122 173.786 161.726 172.639 154.115 171.155C146.504 169.671 154.115 171.623 154.115 171.623L146.3 172.045L145.831 171.286C145.831 171.286 125.083 171.155 117.274 168.662C109.458 166.168 109.056 161.453 109.597 158.557C110.138 155.662 113.818 150.151 123.5 153C133.182 155.849 151.958 166.168 151.958 166.168Z" fill="#8E82B4"/>
<path d="M141.162 150.168C141.162 150.168 141.558 149.971 142.066 149.779C142.725 149.529 143.57 149.291 143.992 149.502C144.737 149.872 153.522 152.78 153.522 152.78C153.522 152.78 162.089 148.757 162.755 148.981C163.422 149.205 164.543 149.799 164.543 149.799L153.964 154.792L141.156 151.29V150.168H141.162Z" fill="#FCD8A7"/>
<path d="M142.672 149.575L154.043 153.149L163.804 149.423L164.918 150.023L161.495 158.736C161.495 158.736 147.79 157.694 147.566 157.951C147.342 158.215 138.9 154.785 138.9 154.785L141.769 149.898L142.672 149.575Z" fill="#FCD875"/>
<path d="M139.817 149.575L138.029 159.705L151.589 166.334L162.386 161.638L164.918 149.575L153.818 153.519L152.453 153.136L139.817 149.575Z" fill="#CD3118"/>
<path d="M151.959 153.149L150.541 165.812L151.583 166.485L153.297 165.443L154.86 153.156C154.86 153.156 153.818 153.829 153.297 153.829C152.776 153.829 151.959 153.149 151.959 153.149Z" fill="#A42822"/>
<path d="M169.403 126.63C169.403 126.63 177.014 140.302 176.342 142.326C175.669 144.345 167.049 153.037 165.024 156.335C163.006 159.632 161.252 162.396 161.252 162.396C161.252 162.396 154.518 165.021 155.731 164.348C156.945 163.675 158.897 162.666 158.158 162.798C157.42 162.93 156.404 162.666 157.552 162.191C158.699 161.723 162.472 159.969 161.054 158.689C159.636 157.41 157.683 160.912 157.011 160.642C156.338 160.371 159.167 157.476 159.365 156.599C159.57 155.721 162.531 155.319 163.408 153.703C164.285 152.087 169.944 142.861 169.878 141.106C169.812 139.352 164.219 133.7 164.219 133.7C164.219 133.7 164.721 131.345 165.987 129.657C167.247 127.975 169.403 126.63 169.403 126.63Z" fill="#FFCDB5"/>
<path d="M130.471 126.63C130.471 126.63 122.557 141.515 123.982 143.091C125.406 144.674 136.533 152.206 139.705 154.416C142.877 156.625 146.505 159.83 146.505 159.83C159.102 162.528 147.718 159.191 148.859 158.894C150.125 158.564 153.575 158.551 151.431 158.043C150.079 157.72 147.857 157.766 148.589 157.595C149.321 157.423 150.139 156.77 148.899 156.796C147.659 156.823 143.504 156.731 144.289 154.989C145.073 153.248 148.266 155.675 148.773 155.161C149.281 154.646 145.529 153.123 144.994 152.404C144.46 151.685 141.585 152.496 140.134 151.369C138.683 150.241 130.907 143.487 130.267 141.851C129.627 140.222 135.787 133.7 135.787 133.7C135.787 133.7 135.134 130.982 133.835 129.32C132.628 127.777 130.471 126.63 130.471 126.63Z" fill="#FFCDB5"/>
<path d="M130.471 126.63L129.145 129.202C129.145 129.202 131.546 130 132.423 131.279C133.3 132.559 134.54 135.085 134.54 135.085L135.793 133.706C135.793 133.706 135.2 131.405 133.841 129.327C132.469 127.236 130.471 126.63 130.471 126.63Z" fill="#E79A7E"/>
<path d="M169.383 126.63L170.709 129.202C170.709 129.202 168.308 130 167.431 131.279C166.554 132.559 165.314 135.085 165.314 135.085L164.061 133.706C164.061 133.706 164.655 131.405 166.013 129.327C167.385 127.236 169.383 126.63 169.383 126.63Z" fill="#E79A7E"/>
<path d="M150.693 171.695C150.693 171.695 149.875 166.261 151.662 166.333C153.449 166.406 155.982 166.037 157.473 164.619C158.963 163.201 161.423 164.322 162.465 165.812C163.507 167.303 164.028 170.284 167.306 170.357C170.584 170.429 173.341 170.284 173.638 171.326C173.934 172.368 174.086 172.962 174.086 172.962C174.086 172.962 177.509 173.483 177.14 175.046C176.77 176.609 170.063 173.41 164.404 172.586C158.739 171.768 150.693 171.695 150.693 171.695Z" fill="#FFCDB5"/>
<path d="M146.821 171.84C146.821 171.84 147.791 171.095 146.373 170.944C144.955 170.792 124.179 170.047 123.434 169.71C122.689 169.374 122.24 170.772 122.24 170.772C122.24 170.772 119.708 170.64 119.635 172.507C119.563 174.367 128.869 172.731 137.436 172.507C146.003 172.282 146.821 171.84 146.821 171.84Z" fill="#FFCDB5"/>
<path d="M196.351 146.363C196.351 146.363 196.78 145.288 198.33 145.288C199.88 145.288 202.795 146.66 202.795 147.003C202.795 147.345 206.317 148.203 205.717 150.696C205.116 153.182 202.623 155.161 205.717 155.59C208.81 156.018 220.398 159.283 220.398 159.54C220.398 159.797 222.456 160.655 223.148 163.319C223.834 165.984 223.722 168.8 224.639 169.578C225.555 170.357 225.813 173.107 225.47 174.736C225.127 176.365 223.907 177.572 222.713 177.572C221.519 177.572 219.804 177.143 220.747 176.543C221.691 175.943 223.669 175.771 223.412 174.571C223.155 173.371 222.64 172.427 219.719 170.62C216.797 168.813 216.025 167.098 216.025 167.098C216.025 167.098 214.462 167.224 211.982 167.415C209.502 167.606 207.695 167.098 207.695 167.098C207.695 167.098 207.695 170.706 206.152 172.935C204.609 175.165 202.802 176.371 202.802 176.371C202.802 176.371 202.973 177.572 201.258 177.572C199.543 177.572 197.05 178.086 197.736 176.629C198.422 175.171 200.328 175.428 200.328 175.428C200.328 175.428 202.947 173.087 202.802 171.141C202.656 169.189 202.373 167.019 202.373 167.019C202.373 167.019 197.908 165.476 197.136 162.211C196.364 158.947 196.707 156.289 196.707 156.289C196.707 156.289 194.564 156.289 193.7 155.003C192.843 153.717 193.291 152.371 193.291 152.371L196.351 146.363Z" fill="#FEFEFE"/>
<path d="M219.541 156.803L221.935 162.198C221.935 162.198 225.285 153.611 224.507 149.581C223.735 145.545 221.908 143.316 219.125 142.63C216.837 142.063 219.982 143.751 220.972 145.38C222.344 147.636 222.621 149.1 221.842 152.365C221.077 155.623 219.541 156.803 219.541 156.803Z" fill="#7A5A49"/>
<path d="M193.608 142.63L197.301 146.58C197.301 146.58 200.566 148.467 200.309 149.845C200.051 151.217 198.165 152.595 195.672 152.681C193.186 152.767 192.836 153.71 192.836 153.71L193.436 151.909C193.436 151.909 192.236 149.595 192.407 147.53C192.579 145.466 192.579 144.78 192.836 143.837C193.093 142.887 193.608 142.63 193.608 142.63Z" fill="#7A5A49"/>
<path d="M199.874 145.288C199.874 145.288 201.846 142.538 202.71 142.623C203.567 142.709 203.91 147.26 203.91 147.26L205.71 148.889C205.71 148.889 205.282 150.775 203.31 149.832C201.338 148.889 200.764 147.431 200.322 146.356C199.874 145.288 199.874 145.288 199.874 145.288Z" fill="#EC9042"/>
<path d="M204.424 153.703V154.304C204.424 154.304 202.281 156.533 211.204 158.597C220.128 160.661 220.049 163.491 220.049 163.491C220.049 163.491 223.485 164.777 222.535 161.433C221.585 158.089 219.185 155.853 216.098 155.253C213.005 154.653 205.025 153.71 205.025 153.71H204.424V153.703Z" fill="#EC9042"/>
<path d="M197.724 163.735C197.724 163.735 199.696 168.213 199.867 171.478C200.039 174.742 199.867 175.428 199.867 175.428C199.867 175.428 203.046 173.113 202.789 170.535C202.532 167.962 202.36 167.013 202.36 167.013L197.724 163.735Z" fill="#7A5A49"/>
<path d="M209.489 167.606C209.489 167.606 209.403 169.921 210.432 170.785C211.461 171.643 211.375 173.45 210.432 173.964C209.489 174.479 206.139 174.479 206.567 175.936C206.996 177.394 210.261 177.565 212.49 175.422C214.719 173.278 214.548 170.785 214.719 169.071C214.891 167.356 216.005 167.099 216.005 167.099L209.489 167.606Z" fill="#7A5A49"/>
<path d="M202.116 151.791C202.162 151.837 202.202 151.876 202.241 151.916C202.875 152.51 203.415 152.727 203.389 152.965C203.363 153.222 203.006 154.93 202.419 155.029C201.832 155.128 200.533 154.033 200.533 153.571C200.533 153.11 202.116 152.371 201.964 151.936C201.813 151.501 200.665 151.322 200.711 150.788C200.764 150.254 202.703 149.819 202.795 150.228C202.888 150.637 202.373 151.375 202.248 151.58C202.116 151.791 202.116 151.791 202.116 151.791Z" fill="#FBA498"/>
<path opacity="0.5" d="M204.899 151.58C204.899 151.58 204.529 152.338 203.903 152.424C203.276 152.503 202.089 151.811 202.089 151.811C202.089 151.811 201.087 153.928 198.792 153.42" stroke="black" stroke-width="0.2" stroke-miterlimit="10"/>
<path opacity="0.6" d="M204.193 150.617L210.36 148.163" stroke="black" stroke-width="0.2" stroke-miterlimit="10"/>
<path opacity="0.6" d="M204.306 151.151L208.289 150.538" stroke="black" stroke-width="0.2" stroke-miterlimit="10"/>
<path opacity="0.6" d="M204.385 151.58H211.072" stroke="black" stroke-width="0.2" stroke-miterlimit="10"/>
<path opacity="0.6" d="M198.627 152.8L188.925 155.115" stroke="black" stroke-width="0.2" stroke-miterlimit="10"/>
<path opacity="0.6" d="M199.458 152.912L192.902 156.025" stroke="black" stroke-width="0.2" stroke-miterlimit="10"/>
<path opacity="0.6" d="M199.049 152.068L192.031 152.536" stroke="black" stroke-width="0.2" stroke-miterlimit="10"/>
<path opacity="0.18" d="M200.533 161.156C200.381 162.818 201.12 165.14 201.555 165.549C201.99 165.958 202.366 167.013 202.366 167.013" stroke="black" stroke-width="0.3" stroke-miterlimit="10"/>
<path opacity="0.59" d="M202.987 148.816C203.818 149.047 204.484 148.599 204.484 148.599" stroke="black" stroke-width="0.2" stroke-miterlimit="10"/>
<path opacity="0.18" d="M214.383 162.976C214.357 164.5 215.353 166.531 215.861 166.861C216.369 167.191 216.863 168.108 216.863 168.108" stroke="black" stroke-width="0.3" stroke-miterlimit="10"/>
<path opacity="0.18" d="M207.148 160.694C207.94 162.343 208.164 164.994 207.927 165.568C207.683 166.142 207.755 167.356 207.755 167.356" stroke="black" stroke-width="0.3" stroke-miterlimit="10"/>
<path d="M195.336 144.641C196.292 145.98 197.321 146.323 196.879 146.798C196.431 147.28 195.132 147.794 194.822 148.856C194.512 149.918 193.964 151.29 193.483 150.069C193.001 148.856 192.315 146.488 192.935 145.083C193.555 143.679 193.654 142.208 194.373 143.059C195.099 143.923 195.336 144.641 195.336 144.641Z" fill="#FFCEC2"/>
<path d="M201.845 146.145C201.502 145.149 201.984 144.16 202.188 143.441C202.393 142.722 202.426 141.97 203.079 143.065C203.732 144.16 204.141 144.78 204.035 145.637C203.93 146.495 204.444 147.557 203.758 147.075C203.072 146.594 202.835 146.422 202.353 146.455" fill="#FFCEC2"/>
<path opacity="0.59" d="M197.288 150.841C198.145 150.735 198.587 150.069 198.587 150.069" stroke="black" stroke-width="0.2" stroke-miterlimit="10"/>
<path d="M157.815 101.521C157.136 102.168 156.483 102.563 156.694 102.003C156.905 101.442 157.459 100.413 157.986 100.736C158.514 101.06 157.815 101.521 157.815 101.521Z" fill="#EBB4A1"/>
<path d="M153.106 108.552C153.132 108.552 150.923 110.003 149.525 109.864C148.318 109.746 147.388 108.941 147.388 108.941C147.388 108.941 148.093 111.401 149.089 111.322C150.092 111.249 150.976 111.164 151.8 110.26C152.631 109.343 153.106 108.552 153.106 108.552Z" fill="#EBB4A1"/>
<path d="M155.196 102.356C155.231 102.005 154.613 101.655 153.816 101.576C153.019 101.496 152.344 101.717 152.309 102.068C152.274 102.42 152.892 102.769 153.689 102.849C154.486 102.929 155.161 102.708 155.196 102.356Z" fill="#E7A69B"/>
<path d="M146.024 102.168C146.059 101.816 145.441 101.467 144.644 101.387C143.846 101.308 143.171 101.528 143.136 101.88C143.101 102.231 143.719 102.581 144.517 102.66C145.314 102.74 145.989 102.519 146.024 102.168Z" fill="#E7A69B"/>
<path d="M149.261 98.5601C149.241 99.8132 148.681 101.337 148.681 101.337C148.681 101.337 148.14 102.662 148.951 102.755C149.762 102.84 150.092 102.709 150.092 102.709" stroke="#EBB4A1" stroke-width="0.3" stroke-miterlimit="10"/>
<path d="M142.389 97.1222C142.685 96.7265 143.609 95.9087 144.486 95.8559C145.785 95.7767 147.612 95.8493 147.606 96.3374C147.592 96.898 147.414 97.2211 146.808 97.0167C146.194 96.8056 145.693 96.6869 144.743 96.7463C143.793 96.799 142.389 97.1222 142.389 97.1222Z" fill="#39384E"/>
<path d="M156.581 97.3926C156.304 96.964 155.618 96.3374 154.787 96.1197C153.482 95.7834 151.292 95.6779 151.272 96.1791C151.239 96.7529 151.397 97.1024 152.044 96.9376C152.69 96.7727 153.218 96.687 154.187 96.8189C155.163 96.9508 156.581 97.3926 156.581 97.3926Z" fill="#39384E"/>
<path d="M147.586 99.655C147.586 99.655 146.497 100.249 145.594 100.216C144.697 100.183 143.807 99.3252 143.925 98.9559C144.037 98.5865 144.018 98.6854 144.855 98.4282C145.693 98.1644 146.029 98.2501 146.682 98.6195C147.328 98.9822 147.586 99.655 147.586 99.655Z" fill="#F9E6D3"/>
<path d="M147.705 99.7604C147.705 99.7604 147.17 98.3885 146.01 98.0786C144.79 97.762 144.308 98.6194 143.378 98.2896C142.448 97.9598 142.448 97.9598 142.448 97.9598C142.448 97.9598 143.715 98.9689 143.932 98.9491C144.44 98.903 144.717 98.5007 145.588 98.5402C146.452 98.5732 147.705 99.7604 147.705 99.7604Z" fill="#06070D"/>
<path d="M145.76 100.084C146.216 100.003 146.51 99.5138 146.418 98.9901C146.326 98.4663 145.882 98.1069 145.426 98.1873C144.97 98.2676 144.676 98.7573 144.768 99.2811C144.861 99.8048 145.305 100.164 145.76 100.084Z" fill="#06070D"/>
<path d="M145.973 99.2304C146.099 99.2083 146.18 99.074 146.155 98.9305C146.129 98.787 146.007 98.6886 145.882 98.7107C145.756 98.7328 145.675 98.8671 145.7 99.0106C145.725 99.1541 145.848 99.2525 145.973 99.2304Z" fill="#FBF2F7"/>
<path d="M151.312 99.6812C151.312 99.6812 152.355 100.361 153.252 100.394C154.148 100.433 155.092 99.6417 155.006 99.2657C154.914 98.8898 154.933 98.9887 154.116 98.659C153.298 98.3292 152.948 98.3951 152.282 98.7051C151.616 99.0283 151.312 99.6812 151.312 99.6812Z" fill="#F9E6D3"/>
<path d="M151.187 99.7735C151.187 99.7735 151.814 98.4413 153.001 98.2236C154.241 98.006 154.597 98.7117 155.566 98.5402C156.265 98.4149 156.681 98.4083 156.681 98.4083C156.681 98.4083 155.138 99.2657 155.006 99.2657C154.498 99.2723 154.254 98.7644 153.39 98.7183C152.519 98.6919 151.187 99.7735 151.187 99.7735Z" fill="#06070D"/>
<path d="M154.119 99.4561C154.215 98.9329 153.923 98.4414 153.468 98.3582C153.013 98.2749 152.567 98.6316 152.471 99.1547C152.375 99.6778 152.667 100.169 153.122 100.253C153.577 100.336 154.023 99.9792 154.119 99.4561Z" fill="#06070D"/>
<path d="M153.87 99.1688C153.896 99.0255 153.816 98.8907 153.69 98.8678C153.565 98.8449 153.442 98.9426 153.416 99.0859C153.39 99.2293 153.47 99.364 153.596 99.3869C153.721 99.4098 153.844 99.3121 153.87 99.1688Z" fill="#FBF2F7"/>
<path d="M147.229 105.544C147.229 105.544 148.39 105.967 149.723 105.789C151.055 105.61 152.506 104.958 152.506 104.958C152.506 104.958 150.824 106.079 149.617 106.164C148.403 106.257 147.229 105.544 147.229 105.544Z" fill="#BA564C"/>
<path d="M161 16H210.875C210.875 16 212.144 14.0061 206.602 12.5539C201.06 11.1018 203.564 9.64964 203.384 7.83779C203.205 6.0215 196.59 6.20358 196.77 5.11558C196.949 4.02758 201.598 -0.626386 193.552 0.0708206C185.506 0.763587 186.329 1.12773 186.005 3.30373C185.681 5.47972 184.788 9.79619 182.464 8.0021C180.139 6.20802 176.563 5.47972 176.742 9.28994C176.922 13.1001 175.67 13.824 173.879 11.648C172.089 9.47201 167.798 11.8301 167.798 12.736C167.798 13.6419 166.188 13.4599 163.863 13.824C161.538 14.1882 161 16 161 16Z" fill="#ECEFF7"/>
<path d="M84 34H29C29 34 34.4121 30.8919 38.5899 30.8919C42.7678 30.8919 40.9519 27.934 43.6291 27.964C46.3063 27.9984 45.2851 24.8387 49.7427 24.5769C54.1958 24.315 55.6609 27.964 55.6609 27.964C55.6609 27.964 54.1958 18 63.4438 18C72.6919 18 71.3333 25.9979 71.3333 25.9979C71.3333 25.9979 73.7796 24.0016 77.3181 25.9979C80.8566 27.9941 79.8666 30.8876 79.8666 30.8876C79.8666 30.8876 83.9956 27.7794 83.9956 30.8876C84 34 84 34 84 34Z" fill="#DFECF5"/>
<path d="M283.605 36.9994L314 35.2323C314 35.2323 304.578 30.6742 300.185 31.6506C295.792 32.6269 303.764 26.2911 294.522 27.0659C288.346 27.5806 289.877 33.4282 289.877 33.4282C289.877 33.4282 283.19 30.6317 281.413 33.9907C279.759 37.1214 283.605 36.9994 283.605 36.9994Z" fill="#DFECF5"/>
</svg>
