<svg width="333" height="70" viewBox="0 0 333 70" fill="none" xmlns="http://www.w3.org/2000/svg">
<path d="M52.033 83.9023C52.033 83.9023 41.9158 83.0647 36.4021 83.0647C30.8884 83.0647 32.9725 76.1594 36.9033 76.2715C40.8341 76.3837 40.8341 76.3837 40.8341 76.3837C40.8341 76.3837 39.1589 71.3712 45.0947 71.7076C51.0305 72.044 50.4435 72.6244 50.4435 72.6244C50.4435 72.6244 46.8491 67.2755 50.028 61.4255C53.2003 55.5755 62.8097 50.9785 62.8097 50.9785L75.7629 40.4524L84.8711 47.3049L106.352 54.4081L107.856 36.0203L133.347 32.9271L152.988 37.5241L168.922 42.365L169.759 57.8047L157.551 65.2112C157.551 65.2112 127.714 68.2385 125.94 69.5905C124.166 70.9425 106.187 84.0936 101.406 84.5091C96.6239 84.9246 62.8229 87.4308 62.0908 87.4308C61.3521 87.4308 52.033 83.9023 52.033 83.9023Z" fill="#5E93BD"/>
<path d="M75.4401 86.3953C75.4401 86.3953 70.7442 83.6846 71.2718 78.7843C71.7929 73.884 78.3684 75.4471 78.3684 75.4471C78.3684 75.4471 74.6156 71.0678 78.3684 67.6184C82.1211 64.1757 91.7239 65.0067 91.7239 65.0067C91.7239 65.0067 90.6752 60.0009 93.1815 58.1212C95.6877 56.2415 104.13 56.3471 104.13 56.3471C104.13 56.3471 108.093 48.2084 115.289 48.9405C122.484 49.6726 123.118 53.7419 123.118 53.7419C123.118 53.7419 130.214 50.4047 136.678 57.0791C143.141 63.7536 133.439 66.0685 133.439 66.0685L120.605 77.8478L96.0966 86.3953H75.4401Z" fill="#49698D"/>
<path d="M116.766 72.2154C116.766 72.2154 123.131 65.02 132.001 65.02C140.865 65.02 142.646 68.2583 143.161 66.9986C143.675 65.7454 138.992 64.1823 139.513 57.7123C140.034 51.2489 138.161 40.182 149.426 40.7096C160.691 41.2306 174.462 37.4713 174.462 37.4713L179.89 39.661V69.8148L116.766 72.2154Z" fill="#425179"/>
<path d="M300.801 93.426C300.01 93.426 263.584 90.7285 258.427 90.2734C253.269 89.825 233.892 75.6516 231.986 74.1941C230.08 72.7365 197.914 69.4718 197.914 69.4718L184.757 61.4915L185.66 44.8515L202.835 39.6346L224.006 34.6815L251.482 38.0122L253.104 57.8311L276.254 50.1739L286.068 42.7872L300.03 54.1311C300.03 54.1311 310.384 59.0842 313.807 65.3893C317.23 71.6944 313.359 77.4587 313.359 77.4587C313.359 77.4587 312.732 76.8322 319.123 76.4694C325.514 76.1067 323.714 81.5083 323.714 81.5083C323.714 81.5083 323.714 81.5083 327.948 81.3896C332.182 81.2708 334.431 88.717 328.489 88.717C322.546 88.717 311.644 89.6205 311.644 89.6205C311.644 89.6205 301.593 93.4194 300.801 93.426Z" fill="#5E93BD"/>
<path d="M256.949 90.3262L230.535 81.1125L216.705 68.4165C216.705 68.4165 206.251 65.9235 213.216 58.728C220.187 51.5259 227.831 55.127 227.831 55.127C227.831 55.127 228.51 50.7411 236.266 49.9562C244.023 49.1714 248.296 57.9366 248.296 57.9366C248.296 57.9366 257.398 57.8244 260.102 59.8492C262.799 61.874 261.672 67.2689 261.672 67.2689C261.672 67.2689 272.02 66.3654 276.069 70.0785C280.112 73.7917 276.069 78.514 276.069 78.514C276.069 78.514 283.153 76.8322 283.713 82.115C284.274 87.3979 279.215 90.3196 279.215 90.3196H256.949V90.3262Z" fill="#5E93BD"/>
<path d="M169.917 73.5609V41.0591L175.768 38.698C175.768 38.698 190.614 42.7475 202.756 42.1869C214.898 41.6263 212.873 53.5441 213.44 60.5153C214.007 67.4866 208.949 69.1684 209.509 70.5204C210.07 71.8724 211.982 68.3835 221.539 68.3835C231.102 68.3835 237.955 76.1396 237.955 76.1396L169.917 73.5609Z" fill="#2169A3"/>
<path d="M194.908 10.6614C192.118 11.3605 192.19 2.47 185.101 2.82615C178.011 3.1691 181.143 6.16337 179.574 6.75695C178.004 7.35052 176.784 4.39583 175.399 5.60937C174.007 6.8295 176.098 9.7842 173.829 9.26977C171.567 8.74214 169.47 3.32739 164.075 2.81296C158.673 2.29852 157.75 4.91686 153.509 4.73879C149.275 4.56731 152.408 7.70008 148.576 9.79079C144.744 11.8815 144.045 7.70008 142.304 8.57066C140.562 9.44124 141.961 12.7455 139.692 12.574C137.423 12.4026 140.391 6.30187 136.209 4.03968C132.028 1.77748 131.85 3.53844 129.067 2.74701C126.277 1.95557 128.539 -0.313228 124.892 0.036324C121.231 0.379281 124.549 1.42794 119.319 2.82615C114.089 4.21776 114.267 1.08498 111.827 2.82615C109.386 4.56731 110.257 8.2277 108.694 9.79079C107.124 11.3605 103.82 9.26317 103.82 10.8329C103.82 12.4025 119.497 14.1437 119.497 14.1437L132.905 21.636L141.967 23.8718L150.159 18.8462L156.081 19.1891L165.836 18.6615L173.328 18.3185L180.471 13.6161L185.127 17.448L194.934 18.1471L194.908 10.6614Z" fill="#91C6AA"/>
<path d="M103.978 11.8815C103.807 9.09168 106.59 9.26975 111.121 10.3118C115.652 11.3539 113.733 7.00096 118.956 7.17903C124.186 7.35051 127.148 8.21449 127.491 9.53356C127.833 10.8526 126.62 13.4578 131.85 14.1503C137.08 14.8494 138.122 17.4611 138.643 19.8948C139.171 22.3351 142.126 22.157 142.126 18.5032C142.126 14.8494 142.653 12.2838 146.3 14.3481C149.961 16.4125 150.422 11.3605 153.502 11.5319C156.576 11.7034 156.207 16.9863 159.959 14.3481C163.719 11.71 166.68 8.74212 168.593 12.4025C170.505 16.0629 171.903 13.4973 173.994 14.3481C176.085 15.1923 178.354 18.3317 175.386 19.3738C172.424 20.4158 164.411 23.8718 164.411 23.8718L149.084 29.8208C149.084 29.8208 141.769 29.1217 139.679 28.2511C137.588 27.3805 132.186 29.8208 132.186 29.8208C132.186 29.8208 125.565 25.9889 124.872 25.9889C124.173 25.9889 117.38 24.3664 116.681 23.8718C115.982 23.3771 110.58 16.0629 110.58 16.0629C110.58 16.0629 108.318 14.8428 106.221 13.8007C104.136 12.7587 103.978 11.8815 103.978 11.8815Z" fill="#7CB797"/>
<path d="M103.279 19.8948C104.67 15.0209 112.512 14.4933 117.043 16.4125C121.574 18.3252 118.435 21.115 125.406 22.8561C132.371 24.5973 128.018 27.7301 138.992 26.3385C149.967 24.9469 148.226 29.9989 148.226 29.9989L136.901 37.6626L128.71 40.7954L120.347 33.3031C120.347 33.3031 115.473 36.4359 114.946 36.4359C114.418 36.4359 103.272 32.2611 103.272 32.2611L97.1713 31.0409L91.7697 32.083L86.0252 35.0443L81.3228 34.0022C81.3228 34.0022 82.1933 28.2643 86.5528 28.0862C90.9123 27.9082 88.6436 23.0342 93.346 23.0342C98.0485 23.0342 96.6569 26.8661 99.7896 25.646C102.929 24.4258 103.279 19.8948 103.279 19.8948Z" fill="#6EA387"/>
<path d="M244.59 30.4011C241.8 31.1002 241.873 22.2097 234.783 22.5659C227.693 22.9088 230.825 25.9031 229.256 26.4967C227.686 27.0903 226.466 24.1356 225.081 25.3491C223.689 26.5692 225.78 29.5239 223.511 29.0095C221.249 28.4819 219.152 23.0671 213.757 22.5527C208.355 22.0383 207.432 24.6566 203.191 24.4785C198.957 24.3071 202.09 27.4398 198.258 29.5305C194.426 31.6213 193.727 27.4398 191.986 28.3104C190.244 29.181 191.643 32.4852 189.374 32.3138C187.105 32.1423 190.073 26.0416 185.892 23.7794C181.71 21.5172 181.532 23.2782 178.749 22.4867C175.966 21.6953 178.221 19.4265 174.574 19.7761C170.914 20.119 174.231 21.1677 169.001 22.5659C163.771 23.9575 163.949 20.8247 161.509 22.5659C159.068 24.3071 159.939 27.9674 158.376 29.5305C156.806 31.1002 153.502 29.0029 153.502 30.5726C153.502 32.1423 169.179 33.8834 169.179 33.8834L182.587 41.3757L191.649 43.6115L199.841 38.5859L205.763 38.9289L215.518 38.4012L223.01 38.0583L230.153 33.3558L234.809 37.1877L244.616 37.8868L244.59 30.4011Z" fill="#91C6AA"/>
<path d="M153.66 31.6278C153.489 28.838 156.272 29.0161 160.803 30.0581C165.334 31.1002 163.415 26.7473 168.638 26.9254C173.868 27.0968 176.83 27.9608 177.173 29.2799C177.516 30.599 176.302 33.2041 181.532 33.8966C186.762 34.5957 187.804 37.2075 188.325 39.6411C188.853 42.0814 191.808 41.9033 191.808 38.2495C191.808 34.5957 192.335 32.0301 195.982 34.0945C199.643 36.1588 200.105 31.1068 203.185 31.2783C206.258 31.4498 205.889 36.7326 209.641 34.0945C213.401 31.4564 216.362 28.4885 218.275 32.1489C220.187 35.8093 221.585 33.2437 223.676 34.0945C225.767 34.9387 228.036 38.0781 225.068 39.1201C222.107 40.1622 214.093 43.6181 214.093 43.6181L198.766 49.5671C198.766 49.5671 191.451 48.868 189.361 47.9974C187.27 47.1268 181.868 49.5671 181.868 49.5671C181.868 49.5671 175.247 45.7352 174.554 45.7352C173.855 45.7352 167.062 44.1128 166.363 43.6181C165.664 43.1235 160.262 35.8093 160.262 35.8093C160.262 35.8093 158 34.5891 155.903 33.5471C153.819 32.505 153.66 31.6278 153.66 31.6278Z" fill="#7CB797"/>
<path d="M152.961 39.6346C154.353 34.7606 162.195 34.233 166.726 36.1523C171.257 38.0649 168.117 40.8547 175.088 42.5959C182.053 44.337 177.7 47.4698 188.675 46.0782C199.649 44.6866 197.908 49.7386 197.908 49.7386L186.584 57.4024L178.393 60.5352L170.03 53.0429C170.03 53.0429 165.156 56.1756 164.628 56.1756C164.101 56.1756 152.955 52.0008 152.955 52.0008L146.854 50.7807L141.452 51.8227L135.708 54.784L131.005 53.742C131.005 53.742 131.876 48.004 136.235 47.826C140.595 47.6479 138.326 42.774 143.029 42.774C147.731 42.774 146.339 46.6058 149.472 45.3857C152.612 44.1722 152.961 39.6346 152.961 39.6346Z" fill="#6EA387"/>
<path d="M176.816 14.1372V21.6294L186.624 20.9304L191.28 17.0985L198.423 21.8009L205.915 22.1439L215.669 22.6715L221.592 22.3286L229.783 27.3542L238.845 25.1184L252.254 17.6261C252.254 17.6261 267.931 15.8849 267.931 14.3152C267.931 12.7456 264.626 14.8429 263.057 13.2732C261.494 11.7101 262.364 8.0497 259.924 6.30854C257.484 4.56737 257.662 7.70015 252.432 6.30854C247.202 4.91033 250.519 3.86827 246.859 3.51872C243.205 3.16916 245.467 5.43135 242.684 6.22938C239.894 7.02082 239.723 5.25988 235.541 7.52207C231.36 9.78427 234.321 15.8849 232.059 16.0564C229.79 16.2279 231.188 12.9236 229.447 12.0531C227.706 11.1825 227.007 15.3573 223.175 13.2732C219.343 11.1825 222.476 8.0497 218.242 8.22118C214.007 8.39266 213.077 5.7809 207.676 6.29534C202.281 6.80977 200.184 12.2245 197.921 12.7522C195.653 13.2732 197.743 10.3119 196.352 9.09176C194.96 7.87163 193.747 10.8329 192.177 10.2393C190.607 9.64576 193.74 6.6515 186.65 6.30854C179.534 5.9458 179.606 14.8363 176.816 14.1372Z" fill="#91C6AA"/>
<path d="M265.491 17.2831C263.393 18.3252 261.131 19.5453 261.131 19.5453C261.131 19.5453 255.73 26.8595 255.031 27.3542C254.331 27.8488 247.538 29.4713 246.839 29.4713C246.14 29.4713 239.525 33.3032 239.525 33.3032C239.525 33.3032 234.123 30.8629 232.033 31.7335C229.942 32.6041 222.628 33.3032 222.628 33.3032L207.3 27.3542C207.3 27.3542 199.287 23.8983 196.326 22.8562C193.358 21.8141 195.626 18.6748 197.717 17.8306C199.808 16.9864 201.2 19.5453 203.119 15.8849C205.031 12.2245 207.993 15.1924 211.752 17.8306C215.505 20.4687 215.135 15.1858 218.209 15.0144C221.289 14.8429 221.757 19.8949 225.411 17.8306C229.065 15.7662 229.586 18.3318 229.586 21.9856C229.586 25.6394 232.547 25.8175 233.068 23.3772C233.589 20.9435 234.631 18.3252 239.861 17.6327C245.091 16.9336 243.871 14.3284 244.221 13.016C244.564 11.7035 247.525 10.8395 252.755 10.6615C257.979 10.4834 256.059 14.8363 260.59 13.7942C265.121 12.7522 267.905 12.5741 267.733 15.3639C267.746 15.3573 267.588 16.2345 265.491 17.2831Z" fill="#7CB797"/>
<path d="M271.934 29.1217C275.067 30.3418 273.675 26.5099 278.378 26.5099C283.08 26.5099 280.812 31.3839 285.171 31.5619C289.531 31.74 290.401 37.4779 290.401 37.4779L285.699 38.52L279.954 35.5587L274.553 34.5166L268.452 35.7368C268.452 35.7368 257.306 39.9116 256.778 39.9116C256.251 39.9116 251.377 36.7788 251.377 36.7788L243.014 44.2711L234.822 41.1383L223.505 33.4746C223.505 33.4746 221.764 28.4226 232.738 29.8142C243.713 31.2058 239.36 28.073 246.325 26.3318C253.296 24.5907 250.157 21.8009 254.687 19.8882C259.218 17.9756 267.06 18.4966 268.452 23.3706C268.445 23.3706 268.801 27.9015 271.934 29.1217Z" fill="#6EA387"/>
<path d="M107.981 38.2034C107.665 31.2256 111.787 29.9856 121.627 31.9774C131.467 33.9692 131.784 42.187 136.229 36.2116C140.674 30.2363 135.596 26.0021 146.702 25.2502C157.815 24.5049 158.132 25.7448 160.348 20.2641C162.571 14.7834 153.997 8.23428 160.348 9.51377C166.699 10.7999 167.649 9.79736 175.9 8.30682C184.151 6.81628 184.151 10.7933 186.057 13.2929C187.963 15.7793 187.646 15.5353 191.768 12.7982C195.89 10.0612 199.702 7.56156 198.436 13.2929C197.17 19.0242 195.264 24.2543 203.831 21.7613C212.398 19.2748 211.772 15.2847 229.546 15.7793C247.327 16.274 242.565 22.8297 251.133 23.1595C259.7 23.5024 257.8 14.2822 269.863 14.7834C281.926 15.2781 284.782 19.0176 285.415 25.9889C286.048 32.9667 293.356 30.7243 293.356 34.4573C293.356 38.1902 281.293 40.4392 278.437 48.4064C275.581 56.3801 265.418 40.6832 261.613 48.4064C257.807 56.1295 267.951 58.9457 260.023 65.3431C252.096 71.7406 250.816 62.1048 242.242 63.8526C233.675 65.5938 230.812 67.5856 227.957 61.1155C225.101 54.6455 221.289 56.3801 213.355 57.3826C205.42 58.3785 201.925 56.6373 196.213 55.3908C190.502 54.1443 192.408 49.6595 185.1 47.4171C177.793 45.1746 172.398 46.9224 173.987 52.1525C175.577 57.3892 177.793 63.1139 172.398 64.6045C167.003 66.095 165.097 61.1221 159.379 61.1221C153.667 61.1221 155.89 66.6028 149.538 66.1082C143.187 65.6135 146.999 59.1303 149.538 55.3974C152.078 51.6644 154.3 48.9208 147.632 50.9126C140.964 52.9044 138.748 53.155 137.159 49.6661C135.569 46.1837 132.081 47.9249 130.174 50.1607C128.268 52.4031 126.719 48.4196 124.001 47.9183C121.284 47.4171 119.385 44.1854 115.882 43.4335C112.42 42.6882 107.981 38.2034 107.981 38.2034Z" fill="#84C3BA"/>
<path d="M111.556 41.4417C111.24 34.4638 116.424 28.561 125.248 32.5182C132.852 35.928 134.791 47.8655 136.17 36.3765C137.984 21.2336 140.576 35.9675 151.689 35.2157C162.802 34.4638 154.353 47.7996 156.576 42.3189C158.798 36.8381 160.731 34.3583 167.082 35.6378C173.433 36.9173 171.607 32.294 179.033 35.4927C188.266 39.4763 180.385 38.4012 182.291 40.8943C184.197 43.3807 186.129 44.1985 190.258 41.4615C194.387 38.7244 181.315 38.5133 182.654 32.7952C184.283 25.8305 187.482 25.3425 196.049 22.8495C204.616 20.3564 197.526 17.4677 209.444 27.8223C212.563 30.533 219.581 25.9756 224.837 28.2444C227.818 29.5305 227.337 23.1397 230.635 23.2716C239.202 23.6145 240.501 41.9825 248.561 34.9189C256.35 28.0993 260.696 26.5362 273.188 33.3558C280.964 37.5966 285.072 22.7571 285.376 26.1471C286.009 33.125 293.317 30.8826 293.317 34.6155C293.317 38.3485 281.254 40.5975 278.398 48.5646C275.542 56.5384 265.379 40.8415 261.573 48.5646C257.768 56.2877 267.911 59.1039 259.984 65.5014C252.056 71.8989 250.777 62.2631 242.203 64.0108C233.636 65.752 230.773 67.7438 227.917 61.2738C225.062 54.8038 221.25 56.5383 213.315 57.5408C205.381 58.5433 201.886 56.7956 196.174 55.5491C190.463 54.3025 192.369 49.8177 185.061 47.5753C177.753 45.3329 172.358 47.0807 173.948 52.3108C175.537 57.5474 177.753 63.2722 172.358 64.7627C166.963 66.2533 165.057 61.2804 159.339 61.2804C153.628 61.2804 155.85 66.7611 149.499 66.2664C143.148 65.7718 146.96 59.2886 149.499 55.5557C152.038 51.8227 154.261 49.0791 147.593 51.0708C140.925 53.0626 138.709 53.3132 137.12 49.8243C135.53 46.342 132.041 48.0831 130.135 50.319C128.229 52.5614 126.679 48.5778 123.962 48.0766C121.245 47.5753 119.345 44.3436 115.843 43.5917C112.354 42.8597 111.556 41.4417 111.556 41.4417Z" fill="#9BD2CC"/>
<path d="M163.633 28.9699C163.811 26.1273 171.6 21.2929 171.6 21.2929C174.139 16.6036 182.284 12.4816 182.462 17.7446C182.641 23.0077 179.382 27.2617 184.091 27.6904C188.801 28.1125 191.696 32.6632 186.631 31.9509C181.559 31.2386 179.884 32.5181 176.467 33.2304C173.051 33.9427 171.607 35.5058 171.969 31.1001C172.332 26.6945 167.26 30.1042 165.453 30.3878C163.633 30.678 163.633 28.9699 163.633 28.9699Z" fill="#9BD2CC"/>
<path d="M159.471 21.8668C159.471 21.8668 162.011 22.7176 161.278 26.1274C160.56 29.5372 161.457 29.5372 158.02 27.9741C154.584 26.411 152.045 25.9889 148.602 27.1233C145.16 28.2577 142.442 30.6979 141.901 28.9832C141.361 27.2618 146.248 26.0219 147.699 25.7251C149.15 25.4151 159.471 21.8668 159.471 21.8668Z" fill="#9BD2CC"/>
<path d="M189.302 51.9876C189.526 49.145 194.605 48.004 194.605 48.004C194.605 48.004 190.436 42.8926 197.5 41.1844C204.564 39.4762 203.838 42.4639 209.998 40.4722C216.158 38.4804 218.875 35.9214 218.691 40.4722C218.513 45.0229 213.441 47.5753 222.49 47.5753C231.538 47.5753 235.707 48.2876 231.908 49.9892C228.109 51.6974 220.142 56.8088 230.998 57.6661C241.86 58.5169 247.295 57.6661 245.844 60.7923C244.393 63.9185 251.272 66.9062 243.852 65.6201C236.426 64.3406 237.342 65.442 234.757 65.4618C232.178 65.4816 229.903 66.1939 229.006 62.639C228.096 59.0907 223.202 57.0924 215.789 57.3825C208.369 57.6661 199.855 59.9415 193.338 57.0989C186.822 54.2564 189.302 51.9876 189.302 51.9876Z" fill="#76ADA7"/>
<path d="M131.408 50.0024C131.408 50.0024 132.318 47.1599 127.972 46.3091C123.626 45.4583 127.609 38.7772 119.464 38.9223C111.319 39.0674 108.061 38.21 108.061 41.1977C108.061 44.1854 108.239 44.3239 110.956 43.7567C113.673 43.1895 116.028 46.3156 116.753 47.45C117.472 48.5844 118.019 48.1623 123.269 48.868C128.519 49.5803 125.439 52.1723 129.245 51.9415C133.037 51.704 131.408 50.0024 131.408 50.0024Z" fill="#4E8B7F"/>
<path d="M212.893 45.6628C212.721 40.7888 214.984 39.9182 220.385 41.3032C225.787 42.6949 225.958 48.446 228.398 44.2646C230.839 40.0897 228.055 37.1218 234.143 36.6008C240.244 36.0732 240.415 36.9438 241.635 33.1185C242.855 29.2932 238.153 24.7028 241.635 25.6064C245.118 26.5034 245.639 25.8108 250.17 24.7622C254.701 23.7201 254.701 26.5034 255.743 28.2445C256.785 29.9857 256.613 29.8142 258.875 27.9016C261.138 25.9889 263.235 24.2412 262.536 28.2445C261.837 32.2479 260.795 35.9083 265.497 34.1671C270.2 32.426 269.857 29.6361 279.604 29.9923C289.352 30.3484 286.747 34.919 291.45 35.1564C296.152 35.3938 295.11 28.9502 301.725 29.2932C308.347 29.6361 309.91 32.2545 310.26 37.1284C310.602 42.0023 314.619 40.4393 314.619 43.051C314.619 45.6628 307.997 47.2259 306.428 52.8055C304.858 58.3785 299.285 47.4039 297.194 52.8055C295.103 58.2071 300.677 60.179 296.324 64.6507C291.971 69.1223 291.272 62.3885 286.569 63.6086C281.867 64.8287 280.297 66.2204 278.734 61.696C277.164 57.165 275.073 58.3851 270.721 59.0842C266.368 59.7833 264.448 58.5566 261.316 57.6926C258.183 56.822 259.225 53.6893 255.215 52.1196C251.212 50.5499 248.25 51.7766 249.114 55.4304C249.985 59.0908 251.205 63.0942 248.244 64.1362C245.282 65.1783 244.24 61.696 241.101 61.696C237.962 61.696 239.188 65.5279 235.699 65.1783C232.217 64.8353 234.308 60.3044 235.699 57.686C237.091 55.0743 238.311 53.155 234.657 54.5532C230.997 55.9449 229.783 56.1229 228.913 53.6827C228.042 51.2424 226.123 52.4625 225.081 54.0256C224.039 55.5953 223.182 52.8055 221.698 52.4559C220.207 52.113 219.158 49.8442 217.246 49.3232C215.326 48.8021 212.893 45.6628 212.893 45.6628Z" fill="#84C3BA"/>
<path d="M214.858 47.9316C214.687 43.0577 217.53 38.929 222.37 41.6924C226.545 44.0799 227.607 52.4296 228.366 44.3899C229.362 33.8044 230.78 44.1063 236.88 43.5787C242.981 43.0511 238.344 52.3834 239.558 48.545C240.771 44.7065 241.84 42.9785 245.322 43.8755C248.805 44.779 247.802 41.5407 251.878 43.7766C256.943 46.5598 252.623 45.8145 253.665 47.5557C254.707 49.2968 255.769 49.8706 258.038 47.958C260.3 46.0454 253.131 45.9002 253.863 41.8969C254.76 37.0295 256.514 36.6866 261.217 34.9454C265.919 33.2043 262.028 31.1795 268.571 38.4278C270.285 40.3272 274.131 37.1417 277.013 38.7245C278.648 39.6281 278.385 35.1565 280.192 35.2422C284.894 35.4796 285.606 48.3273 290.025 43.3874C294.299 38.619 296.68 37.5242 303.539 42.2926C307.806 45.2605 310.055 34.8795 310.227 37.2472C310.57 42.1211 314.586 40.558 314.586 43.1698C314.586 45.7815 307.965 47.3446 306.395 52.9243C304.825 58.4973 299.252 47.5227 297.161 52.9243C295.071 58.3258 300.644 60.2978 296.291 64.7695C291.938 69.2411 291.239 62.5073 286.536 63.7274C281.834 64.9475 280.264 66.3391 278.701 61.8147C277.131 57.2838 275.041 58.5039 270.688 59.203C266.328 59.9021 264.416 58.6754 261.283 57.8114C258.15 56.9408 259.192 53.808 255.182 52.2383C251.172 50.6687 248.218 51.8954 249.082 55.5492C249.952 59.2096 251.172 63.213 248.211 64.255C245.25 65.2971 244.208 61.8147 241.068 61.8147C237.929 61.8147 239.156 65.6466 235.667 65.2971C232.184 64.9541 234.275 60.4231 235.667 57.8048C237.058 55.193 238.278 53.2738 234.625 54.672C230.964 56.0636 229.751 56.2417 228.88 53.8014C228.009 51.3612 226.09 52.5813 225.048 54.1444C224.006 55.7075 223.149 52.9243 221.665 52.5747C220.174 52.2318 219.126 49.963 217.213 49.4419C215.294 48.9209 214.858 47.9316 214.858 47.9316Z" fill="#9BD2CC"/>
<path d="M243.429 39.2059C243.528 37.2207 247.802 33.8439 247.802 33.8439C249.194 30.5661 253.665 27.6839 253.764 31.3641C253.863 35.0377 252.076 38.0188 254.661 38.3156C257.246 38.6123 258.836 41.7979 256.053 41.2966C253.269 40.7954 252.353 41.699 250.473 42.1936C248.593 42.6883 247.808 43.7831 248 40.7031C248.198 37.6231 245.414 40.004 244.425 40.2084C243.429 40.3997 243.429 39.2059 243.429 39.2059Z" fill="#9BD2CC"/>
<path d="M241.148 34.2462C241.148 34.2462 242.539 34.8398 242.137 37.2273C241.735 39.6148 242.236 39.6148 240.35 38.5134C238.463 37.4186 237.072 37.1218 235.179 37.9198C233.293 38.7112 231.802 40.4194 231.505 39.2191C231.208 38.0187 233.893 37.1482 234.684 36.9371C235.482 36.7261 241.148 34.2462 241.148 34.2462Z" fill="#9BD2CC"/>
<path d="M257.51 55.305C257.636 53.3198 260.419 52.5218 260.419 52.5218C260.419 52.5218 258.13 48.9471 262.008 47.7533C265.88 46.5596 265.491 48.6503 268.867 47.2587C272.244 45.8671 273.735 44.0798 273.636 47.2587C273.537 50.4376 270.754 52.225 275.727 52.225C280.699 52.225 282.975 52.7196 280.897 53.9134C278.807 55.1071 274.441 58.6818 280.403 59.2754C286.365 59.8689 289.346 59.2754 288.548 61.4584C287.756 63.6415 291.529 65.7322 287.453 64.8352C283.377 63.9383 283.878 64.7099 282.467 64.7231C281.056 64.7363 279.803 65.2375 279.308 62.7511C278.813 60.2713 276.129 58.8731 272.06 59.0775C267.99 59.282 263.314 60.8648 259.74 58.8796C256.165 56.8945 257.51 55.305 257.51 55.305Z" fill="#4E8B7F"/>
<path d="M225.747 53.9134C225.747 53.9134 226.242 51.9283 223.861 51.3281C221.474 50.7345 223.663 46.065 219.192 46.1574C214.72 46.2497 212.933 45.6627 212.933 47.7468C212.933 49.8375 213.032 49.9299 214.522 49.5342C216.013 49.1318 217.305 51.3215 217.701 52.1195C218.103 52.911 218.4 52.6142 221.276 53.1088C224.158 53.6035 222.469 55.4172 224.554 55.2589C226.638 55.1072 225.747 53.9134 225.747 53.9134Z" fill="#4E8B7F"/>
<path d="M213.869 43.018C213.697 38.144 215.96 37.2735 221.361 38.6585C226.763 40.0501 226.934 45.8012 229.374 41.6198C231.815 37.4449 229.032 34.477 235.119 33.956C241.22 33.4284 241.391 34.299 242.611 30.4737C243.831 26.6484 239.129 22.0581 242.611 22.9616C246.094 23.8586 246.615 23.1661 251.146 22.1174C255.677 21.0753 255.677 23.8586 256.719 25.5997C257.761 27.3409 257.589 27.1694 259.851 25.2568C262.114 23.3441 264.211 21.5964 263.512 25.5997C262.813 29.6031 261.771 33.2635 266.473 31.5223C271.176 29.7812 270.833 26.9914 280.581 27.3475C290.328 27.7036 287.723 32.2742 292.426 32.5116C297.128 32.7491 296.086 26.3054 302.701 26.6484C309.323 26.9913 310.893 29.6097 311.236 34.4836C311.579 39.3576 315.595 37.7945 315.595 40.4062C315.595 43.018 308.973 44.5811 307.404 50.1607C305.834 55.7337 300.261 44.7591 298.17 50.1607C296.08 55.5623 301.653 57.5343 297.3 62.0059C292.947 66.4775 292.248 59.7437 287.545 60.9638C282.843 62.184 281.273 63.5756 279.71 59.0512C278.14 54.5202 276.05 55.7403 271.697 56.4394C267.337 57.1385 265.425 55.9118 262.292 55.0478C259.159 54.1773 260.201 51.0445 256.191 49.4748C252.188 47.9051 249.226 49.1318 250.09 52.7856C250.961 56.446 252.181 60.4494 249.22 61.4915C246.259 62.5335 245.216 59.0512 242.077 59.0512C238.938 59.0512 240.164 62.8831 236.676 62.5335C233.193 62.1906 235.284 57.6596 236.676 55.0412C238.067 52.4295 239.287 50.5103 235.633 51.9085C231.973 53.3001 230.759 53.4781 229.889 51.0379C229.018 48.5976 227.099 49.8177 226.057 51.3808C225.015 52.9505 224.158 50.1607 222.674 49.8111C221.183 49.4682 220.134 47.1994 218.222 46.6784C216.303 46.1507 213.869 43.018 213.869 43.018Z" fill="#84C3BA"/>
<path d="M215.828 45.2867C215.656 40.4128 218.499 36.2841 223.34 39.0475C227.515 41.4351 228.576 49.7847 229.335 41.745C230.331 31.1595 231.749 41.4614 237.849 40.9338C243.95 40.4062 239.314 49.7386 240.527 45.9001C241.747 42.0616 242.809 40.3336 246.291 41.2306C249.774 42.1342 248.771 38.8959 252.847 41.1317C257.912 43.9149 253.592 43.1696 254.635 44.9108C255.677 46.6519 256.738 47.2257 259.007 45.3131C261.269 43.4005 254.1 43.2554 254.832 39.252C255.729 34.3847 257.484 34.0417 262.186 32.3005C266.889 30.5594 262.997 28.5346 269.54 35.7829C271.255 37.6823 275.1 34.4968 277.982 36.0797C279.618 36.9832 279.354 32.5116 281.161 32.5973C285.863 32.8348 286.576 45.6824 290.994 40.7425C295.268 35.9741 297.649 34.8793 304.508 39.6477C308.775 42.6156 311.025 32.2346 311.196 34.6023C311.539 39.4762 315.555 37.9131 315.555 40.5249C315.555 43.1366 308.934 44.6997 307.364 50.2794C305.794 55.8524 300.221 44.8778 298.131 50.2794C296.04 55.6809 301.613 57.6529 297.26 62.1246C292.907 66.5962 292.208 59.8624 287.506 61.0825C282.803 62.3026 281.233 63.6943 279.67 59.1699C278.101 54.6389 276.01 55.859 271.657 56.5581C267.298 57.2572 265.385 56.0305 262.252 55.1665C259.119 54.2959 260.161 51.1631 256.151 49.5935C252.141 48.0238 249.187 49.2505 250.051 52.9043C250.921 56.5647 252.141 60.5681 249.18 61.6101C246.219 62.6522 245.177 59.1699 242.037 59.1699C238.898 59.1699 240.125 63.0017 236.636 62.6522C233.154 62.3092 235.244 57.7783 236.636 55.1599C238.027 52.5482 239.248 50.6289 235.594 52.0271C231.933 53.4187 230.72 53.5968 229.849 51.1566C228.979 48.7163 227.059 49.9364 226.017 51.4995C224.975 53.0626 224.118 50.2794 222.634 49.9298C221.143 49.5869 220.095 47.3181 218.182 46.797C216.263 46.276 215.828 45.2867 215.828 45.2867Z" fill="#9BD2CC"/>
<path d="M244.405 36.5612C244.504 34.576 248.777 31.1992 248.777 31.1992C250.169 27.9213 254.641 25.0391 254.74 28.7193C254.839 32.3929 253.051 35.374 255.637 35.6708C258.222 35.9676 259.811 39.1531 257.028 38.6519C254.245 38.1506 253.328 39.0542 251.449 39.5488C249.569 40.0435 248.784 41.1383 248.975 38.0583C249.173 34.9783 246.39 37.3592 245.401 37.5636C244.405 37.7549 244.405 36.5612 244.405 36.5612Z" fill="#9BD2CC"/>
<path d="M242.117 31.5948C242.117 31.5948 243.508 32.1884 243.106 34.5759C242.704 36.9634 243.205 36.9634 241.319 35.862C239.433 34.7672 238.041 34.4704 236.148 35.2684C234.262 36.0599 232.771 37.7681 232.474 36.5677C232.178 35.3674 234.862 34.4968 235.653 34.2857C236.458 34.0813 242.117 31.5948 242.117 31.5948Z" fill="#9BD2CC"/>
<path d="M226.723 51.2687C226.723 51.2687 227.218 49.2835 224.837 48.6833C222.449 48.0897 224.639 43.4202 220.167 43.5126C215.696 43.6049 213.908 43.0179 213.908 45.1021C213.908 47.1928 214.007 47.2851 215.498 46.8894C216.988 46.4871 218.281 48.6767 218.677 49.4748C219.079 50.2662 219.376 49.9694 222.251 50.4641C225.133 50.9587 223.445 52.7724 225.529 52.6141C227.613 52.4624 226.723 51.2687 226.723 51.2687Z" fill="#76ADA7"/>
<path d="M32.2141 43.9281C32.0426 39.0542 34.3048 38.1836 39.7064 39.5686C45.108 40.9536 45.2794 46.7114 47.7197 42.5299C50.16 38.3551 47.3767 35.3872 53.4642 34.8662C59.5649 34.3385 59.7364 35.2091 60.9565 31.3838C62.1766 27.5585 57.4742 22.9682 60.9565 23.8718C64.4388 24.7687 64.9599 24.0762 69.4909 23.0276C74.0218 21.9855 74.0218 24.7687 75.0639 26.5099C76.106 28.251 75.9345 28.0796 78.1967 26.1669C80.4589 24.2543 82.5562 22.5065 81.8571 26.5099C81.158 30.5132 80.1159 34.1736 84.8184 32.4325C89.5208 30.6913 89.1779 27.9015 98.9258 28.2576C108.674 28.6138 106.068 33.1843 110.771 33.4218C115.473 33.6592 114.431 27.2156 121.046 27.5585C127.668 27.9015 129.238 30.5198 129.581 35.3938C129.924 40.2677 133.94 38.7046 133.94 41.3164C133.94 43.9281 127.319 45.4912 125.749 51.0709C124.179 56.6505 118.606 45.6693 116.515 51.0709C114.425 56.4724 119.998 58.4444 115.645 62.916C111.292 67.3877 110.593 60.6539 105.89 61.874C101.188 63.0941 99.6183 64.4857 98.0552 59.9613C96.4855 55.4304 94.3948 56.6505 90.0419 57.3496C85.6824 58.0487 83.7697 56.822 80.6369 55.958C77.5042 55.0874 78.5462 51.9546 74.5363 50.3849C70.5329 48.8152 67.5716 50.042 68.4356 53.6958C69.3062 57.3562 70.5263 61.3596 67.565 62.4016C64.6037 63.4437 63.5617 59.9613 60.4223 59.9613C57.2829 59.9613 58.5096 63.7932 55.0207 63.4437C51.5384 63.1007 53.6291 58.5697 55.0207 55.9514C56.4123 53.3396 57.6325 51.4204 53.9787 52.8186C50.3183 54.2102 49.1047 54.3883 48.2341 51.948C47.3636 49.5078 45.4443 50.7279 44.4023 52.291C43.3602 53.8607 42.5028 51.0709 41.0189 50.7213C39.5283 50.3783 38.4797 48.1096 36.567 47.5885C34.6478 47.0609 32.2141 43.9281 32.2141 43.9281Z" fill="#84C3BA"/>
<path d="M34.1729 46.1969C34.0014 41.3229 36.844 37.1943 41.6849 39.9577C45.8598 42.3452 46.9216 50.6949 47.6801 42.6552C48.676 32.0697 50.094 42.3716 56.1946 41.844C62.2953 41.3163 57.6588 50.6487 58.8723 46.8102C60.0925 42.9718 61.1543 41.2438 64.6366 42.1407C68.119 43.0443 67.1165 39.806 71.1924 42.0418C76.2576 44.825 71.9377 44.0798 72.9797 45.8209C74.0218 47.5621 75.0836 48.1359 77.3524 46.2233C79.6146 44.3106 72.4455 44.1655 73.1776 40.1621C74.0745 35.2948 75.8289 34.9519 80.5314 33.2107C85.2338 31.4695 81.3426 29.4448 87.8851 36.693C89.5999 38.5925 93.445 35.4069 96.3271 36.9898C97.9628 37.8934 97.699 33.4217 99.5061 33.5075C104.209 33.7449 104.921 46.5926 109.34 41.6527C113.613 36.8843 115.994 35.7895 122.854 40.5579C127.121 43.5258 129.37 33.1447 129.541 35.5124C129.884 40.3864 133.901 38.8233 133.901 41.435C133.901 44.0468 127.279 45.6099 125.709 51.1895C124.14 56.7692 118.567 45.788 116.476 51.1895C114.385 56.5911 119.958 58.5631 115.605 63.0347C111.252 67.5063 110.553 60.7725 105.851 61.9926C101.148 63.2128 99.5786 64.6044 98.0155 60.08C96.4459 55.549 94.3551 56.7692 90.0022 57.4683C85.6427 58.1674 83.7301 56.9406 80.5973 56.0767C77.4645 55.2061 78.5066 52.0733 74.4966 50.5036C70.4867 48.9339 67.532 50.1606 68.396 53.8145C69.2666 57.4749 70.4867 61.4782 67.5254 62.5203C64.5641 63.5623 63.522 60.08 60.3827 60.08C57.2433 60.08 58.47 63.9119 54.9811 63.5623C51.4988 63.2194 53.5895 58.6884 54.9811 56.0701C56.3727 53.4517 57.5928 51.5391 53.939 52.9373C50.2786 54.3289 49.0651 54.507 48.1945 52.0667C47.3239 49.6264 45.4047 50.8466 44.3626 52.4097C43.3206 53.9728 42.4632 51.1895 40.9792 50.84C39.4887 50.497 38.44 48.2282 36.5274 47.7072C34.6082 47.1862 34.1729 46.1969 34.1729 46.1969Z" fill="#9BD2CC"/>
<path d="M62.7505 37.4713C62.8494 35.4861 67.1232 32.1093 67.1232 32.1093C68.5148 28.8314 72.9864 25.9493 73.0854 29.6295C73.1843 33.3097 71.397 36.2842 73.9823 36.5809C76.5677 36.8777 78.1572 40.0633 75.3739 39.562C72.5907 39.0608 71.674 39.9643 69.7943 40.459C67.9146 40.9536 67.1298 42.0485 67.321 38.9685C67.5189 35.8884 64.7357 38.2693 63.7464 38.4738C62.7505 38.6651 62.7505 37.4713 62.7505 37.4713Z" fill="#9BD2CC"/>
<path d="M60.462 32.5049C60.462 32.5049 61.8536 33.0985 61.4513 35.486C61.049 37.8735 61.5503 37.8735 59.664 36.7721C57.7777 35.6772 56.3861 35.3804 54.4933 36.1785C52.607 36.9699 51.1165 38.6781 50.8197 37.4777C50.5229 36.2774 53.2072 35.4068 53.9986 35.1958C54.8032 34.9913 60.462 32.5049 60.462 32.5049Z" fill="#9BD2CC"/>
<path d="M76.8319 53.5704C76.9572 51.5852 79.7405 50.7871 79.7405 50.7871C79.7405 50.7871 77.4519 47.2125 81.3299 46.0187C85.208 44.825 84.8123 46.9157 88.1891 45.5241C91.5659 44.1325 93.0564 42.3451 92.9575 45.5241C92.8585 48.703 90.0753 50.4904 95.0482 50.4904C100.021 50.4904 102.296 50.985 100.219 52.1788C98.1282 53.3725 93.7621 56.9472 99.7243 57.5407C105.686 58.1343 108.668 57.5408 107.869 59.7238C107.071 61.9069 110.851 63.9976 106.775 63.1006C102.699 62.2036 103.2 62.9753 101.789 62.9885C100.377 63.0017 99.1241 63.5029 98.6295 61.0165C98.1348 58.5301 95.4505 57.1384 91.3812 57.3429C87.3119 57.5473 82.6358 59.1302 79.0611 57.145C75.4733 55.1598 76.8319 53.5704 76.8319 53.5704Z" fill="#76ADA7"/>
<path d="M45.0686 52.1788C45.0686 52.1788 45.5633 50.1936 43.1823 49.5935C40.7948 48.9999 42.9845 44.3304 38.5129 44.4227C34.0412 44.5151 32.2539 43.9281 32.2539 46.0122C32.2539 48.1029 32.3528 48.1953 33.8434 47.7995C35.3339 47.3972 36.6266 49.5869 37.0223 50.3849C37.4246 51.1763 37.7214 50.8795 40.597 51.3742C43.4791 51.8688 41.7907 53.6826 43.8749 53.5243C45.959 53.3726 45.0686 52.1788 45.0686 52.1788Z" fill="#76ADA7"/>
<path d="M326.979 57.0134C324.104 57.02 326.306 48.4131 319.342 47.0544C312.377 45.6892 314.699 49.343 313.03 49.5475C311.361 49.7519 310.893 46.5862 309.251 47.4304C307.609 48.2746 308.928 51.6514 306.85 50.6027C304.779 49.5475 304.047 43.7897 298.936 41.9958C293.818 40.2019 292.288 42.5169 288.218 41.3297C284.149 40.1425 286.438 43.9414 282.217 45.0495C277.996 46.1575 278.319 41.9365 276.419 42.3652C274.52 42.7939 275.081 46.3355 272.924 45.6232C270.761 44.911 275.107 39.7006 271.585 36.5019C268.063 33.3032 267.476 34.9718 264.963 33.534C262.45 32.0962 265.188 30.4342 261.56 29.9C257.926 29.3592 260.887 31.1663 255.479 31.2652C250.071 31.3576 250.994 28.3633 248.211 29.4713C245.428 30.5793 245.388 34.3387 243.496 35.4796C241.596 36.6272 238.885 33.7978 238.509 35.3214C238.134 36.8449 252.933 42.2992 252.933 42.2992L264.152 52.7858L272.409 57.1321L281.564 54.2169L287.229 55.9713L296.825 57.7982L304.179 59.2624L312.245 56.4132L315.846 61.2476L325.198 64.2748L326.979 57.0134Z" fill="#91C6AA"/>
<path d="M238.417 36.3831C238.918 33.6328 241.583 34.4704 245.731 36.5744C249.88 38.6783 249.062 33.989 254.088 35.4136C259.12 36.8382 261.784 38.3881 261.811 39.7467C261.837 41.1053 260.023 43.3411 264.93 45.2736C269.837 47.206 270.226 49.9958 270.147 52.4823C270.075 54.9753 272.99 55.5161 273.867 51.9678C274.744 48.4195 275.872 46.0584 278.919 48.9406C281.973 51.8227 283.641 47.0279 286.589 47.9315C289.531 48.835 287.908 53.8739 292.182 52.2184C296.463 50.5564 300.05 48.3932 301.033 52.4031C302.016 56.4131 303.988 54.263 305.808 55.5887C307.635 56.9077 309.079 60.4956 305.953 60.799C302.827 61.1023 294.22 62.5335 294.22 62.5335L277.917 64.6308C277.917 64.6308 270.978 62.1972 269.165 60.8517C267.344 59.5063 261.514 60.5813 261.514 60.5813C261.514 60.5813 256.007 55.2721 255.328 55.1072C254.648 54.9423 248.449 51.737 247.888 51.0841C247.327 50.4377 243.839 42.0353 243.839 42.0353C243.839 42.0353 241.932 40.3139 240.152 38.797C238.364 37.2735 238.417 36.3831 238.417 36.3831Z" fill="#7CB797"/>
<path d="M235.819 43.9941C238.338 39.595 246.074 40.9668 250.018 43.9149C253.956 46.8631 250.243 48.8153 256.587 52.1789C262.932 55.5425 257.952 57.5409 268.94 58.8204C279.928 60.0999 277.026 64.5847 277.026 64.5847L264.198 69.3069L255.499 70.382L249.181 61.1023C249.181 61.1023 243.693 62.9754 243.186 62.8501C242.678 62.7248 232.857 55.991 232.857 55.991L227.232 53.3463L221.738 53.0626L215.446 54.5598L211.132 52.4163C211.132 52.4163 213.355 47.0543 217.629 47.9315C221.902 48.8021 220.867 43.5258 225.438 44.6536C230.002 45.7814 227.733 49.1648 231.07 48.7361C234.407 48.3074 235.819 43.9941 235.819 43.9941Z" fill="#6EA387"/>
<path d="M268.194 71.6088C267.654 64.6046 204.22 64.6309 163.27 64.0901C122.319 63.5493 73.8172 61.3926 74.8988 67.3218C75.9739 73.251 89.4481 70.5535 89.9889 75.4077C90.5297 80.2553 -0.538417 78.6394 0.00239927 90.4978C0.543215 102.35 89.4547 105.588 86.2164 110.976C82.9781 116.365 40.4053 120.665 39.8711 135.755C39.3303 150.845 98.0682 164.313 198.831 161.622C299.595 158.931 286.562 151.346 280.884 148.668C275.034 145.912 262.417 140.609 262.417 140.609C262.417 140.609 327.618 134.146 328.693 122.828C329.768 111.51 315.76 112.618 315.76 112.618C315.76 112.618 333 109.354 333 100.734C333 92.1136 331.371 87.7575 313.742 85.924C296.594 84.1432 236.539 86.7187 238.696 80.7961C240.853 74.8735 262.087 74.0688 264.752 73.6731C268.201 73.1587 268.194 71.6088 268.194 71.6088Z" fill="#D8ECEA"/>
<path d="M51 80C51 80 146.168 90.7615 181.46 87.2594C216.751 83.7573 232.112 83.2692 232.112 83.2692C232.112 83.2692 225.727 76.0738 257.787 74.1875C289.847 72.3012 258.5 65 228.583 65.3234C212.399 65.4983 145.383 63.8394 104.67 63.5492C46.0906 63.1271 59.2087 71.2658 73.791 75.7572C86.0319 79.5231 51 80 51 80Z" fill="#ABD4DA"/>
<path d="M104.822 63.7142C104.822 63.7142 101.188 66.9195 133.65 68.133C166.119 69.3466 185.245 67.058 200.335 67.3218C215.425 67.5922 240 65.5 240 65.5C240 65.5 186 64 156.417 63.7142C126.514 63.0085 104.822 63.7142 104.822 63.7142Z" fill="#78C4D2"/>
<path d="M64.3729 60.9573L59.1758 90.2141H62.6383L64.3729 85.7227L65.5271 88.2883C65.5271 88.2883 69.1875 83.4737 69.1875 84.0541C69.1875 84.6345 72.2675 86.7516 72.2675 86.7516L68.0333 73.4686V56.334L64.3729 60.9573Z" fill="#78635E"/>
<path d="M149.024 44.9505L145.786 68.4562H147.942L149.024 64.8485L149.743 66.9129C149.743 66.9129 152.025 63.0414 152.025 63.5097C152.025 63.978 153.944 65.6796 153.944 65.6796L151.306 55.0083V41.2373L149.024 44.9505Z" fill="#78635E"/>
<path d="M82.2993 53.2013L81.4683 72.7102C81.4683 72.7102 84.1328 74.1546 85.2012 73.6798C86.2697 73.2049 87.6877 71.3252 87.6877 71.3252L84.5747 53.1947L82.2993 53.2013Z" fill="#78635E"/>
<path d="M212.728 46.3223L210.031 68.1462C210.031 68.1462 212.141 69.9665 213.104 69.518C214.06 69.0695 215.459 67.0711 215.459 67.0711L214.674 46.4871L212.728 46.3223Z" fill="#78635E"/>
<path d="M264.6 47.4237L263.063 70.3293H264.6L265.761 47.4237H264.6Z" fill="#78635E"/>
<path d="M109.379 46.4412L107.843 69.3467H109.379L110.54 46.4412H109.379Z" fill="#78635E"/>
<path d="M288.376 50.616L285.573 88.084H288.376L290.493 50.616H288.376Z" fill="#78635E"/>
<path d="M250.559 68.8519L249.708 56.3208L247.802 63.8131L247.841 68.8717L250.559 69.5642V68.8519Z" fill="#78635E"/>
<path d="M258.48 72.3342L258.638 53.2012L256.132 64.4989L255.763 72.2023L258.427 73.4224L258.48 72.3342Z" fill="#78635E"/>
<path d="M188.247 62.2237L188.398 43.0907L185.899 54.3885L185.529 62.0918L188.194 63.3119L188.247 62.2237Z" fill="#78635E"/>
<path d="M186.301 42.2135L185.892 61.3465L188.543 50.0817L189.011 42.3783L186.366 41.1318L186.301 42.2135Z" fill="#78635E"/>
<path d="M227.587 28.5083C224.797 29.2074 224.87 20.3169 217.78 20.6731C210.69 21.016 213.823 24.0103 212.253 24.6039C210.683 25.1974 209.463 22.2428 208.078 23.4563C206.693 24.6698 208.777 27.6311 206.508 27.1167C204.246 26.5891 202.149 21.1743 196.754 20.6599C191.352 20.1454 190.429 22.7638 186.188 22.5857C181.954 22.4142 185.087 25.547 181.255 27.6377C177.423 29.7284 176.724 25.547 174.983 26.4176C173.242 27.2882 174.64 30.5924 172.371 30.4209C170.102 30.2495 173.07 24.1488 168.889 21.8866C164.707 19.6244 164.529 21.3854 161.746 20.5939C158.956 19.8025 161.218 17.5337 157.571 17.8832C153.911 18.2262 157.228 19.2748 151.998 20.6731C146.768 22.0647 146.946 18.9319 144.506 20.6731C142.065 22.4142 142.936 26.0746 141.373 27.6377C139.803 29.2074 136.499 27.1101 136.499 28.6798C136.499 30.2495 152.176 31.9906 152.176 31.9906L165.584 39.4829L174.646 41.7187L182.838 36.6931L188.76 37.036L198.515 36.5084L206.007 36.1655L213.15 31.463L217.806 35.2949L227.613 35.994L227.587 28.5083Z" fill="#84C3BA"/>
<path d="M136.657 29.735C136.485 26.9452 139.269 27.1233 143.8 28.1653C148.331 29.2074 146.411 24.8545 151.635 25.0325C156.865 25.204 159.826 26.068 160.169 27.3871C160.512 28.6995 159.299 31.3113 164.529 32.0038C169.759 32.7029 170.801 35.3147 171.322 37.7483C171.85 40.1886 174.804 40.0105 174.804 36.3567C174.804 32.7029 175.332 30.1373 178.979 32.2017C182.639 34.266 183.101 29.214 186.181 29.3855C189.255 29.5569 188.885 34.8398 192.638 32.2017C196.397 29.5635 199.359 26.5956 201.271 30.256C203.184 33.9164 204.582 31.3509 206.673 32.2017C208.764 33.0459 211.032 36.1852 208.064 37.2273C205.103 38.2693 197.09 41.7253 197.09 41.7253L181.762 47.6743C181.762 47.6743 174.448 46.9752 172.357 46.1046C170.267 45.234 164.865 47.6743 164.865 47.6743C164.865 47.6743 158.243 43.8424 157.551 43.8424C156.852 43.8424 150.059 42.22 149.359 41.7253C148.66 41.2307 143.259 33.9164 143.259 33.9164C143.259 33.9164 140.997 32.6963 138.899 31.6542C136.822 30.6122 136.657 29.735 136.657 29.735Z" fill="#7CB797"/>
<path d="M135.965 37.7418C137.356 32.8678 145.198 32.3402 149.729 34.2594C154.26 36.1721 151.121 38.9619 158.092 40.7031C165.057 42.4442 160.704 45.577 171.678 44.1854C182.653 42.7938 180.912 47.8458 180.912 47.8458L169.588 55.5096L161.396 58.6423L153.033 51.1501C153.033 51.1501 148.159 54.2828 147.632 54.2828C147.104 54.2828 135.958 50.108 135.958 50.108L129.857 48.8879L124.456 49.9299L118.711 52.8912L114.009 51.8492C114.009 51.8492 114.879 46.1112 119.239 45.9331C123.598 45.7551 121.33 40.8811 126.032 40.8811C130.735 40.8811 129.343 44.713 132.476 43.4929C135.608 42.2793 135.965 37.7418 135.965 37.7418Z" fill="#76ADA7"/>
<path d="M107.968 63.3976C107.968 63.3976 93.689 64.9673 95.7006 69.7423C97.7122 74.5173 121.844 76.5289 136.176 76.2782C150.508 76.0276 208.322 72.5057 221.895 73.7654C235.469 75.0251 248.125 75.0383 248.125 75.0383C248.125 75.0383 225.193 79.5759 233.866 82.7944C242.44 85.98 145.983 84.0739 120.842 81.5611C95.7006 79.0483 88.4128 76.2848 88.914 70.5007C88.914 70.5007 89.6461 66.8865 94.4936 65.5279C99.3412 64.1692 100.891 64.0769 100.891 64.0769L107.968 63.3976Z" fill="#C8ECE8"/>
<path d="M102.938 52.8346C102.861 53.5313 106.586 53.6739 106.882 54.1018C107.179 54.5352 107.881 59.1487 107.881 59.1487C107.881 59.1487 110.086 55.753 109.971 55.8134C109.856 55.8737 108.78 55.6488 108.78 55.6488C108.78 55.6488 108.111 54.228 108.369 54.1018C108.632 53.9756 109.598 54.1018 109.598 54.1018L110.267 52.297C110.267 52.297 107.327 52.2915 105.242 52.2367C103.158 52.1818 102.938 52.8346 102.938 52.8346Z" fill="#3069C1"/>
<path d="M122.999 66.8561C122.999 66.8561 121.77 71.9907 122.105 72.9616C122.439 73.9271 122.511 75.1998 122.044 76.2202C121.584 77.2405 118.676 88.4478 118.676 88.4478L116.668 88.1899L117.672 67.8654L122.999 66.8561Z" fill="#EF9D95"/>
<path d="M112.615 67.2673L107.48 65.5558C107.48 65.5558 104.502 76.6479 104.129 79.9229C103.756 83.1979 103.421 86.994 103.421 86.994L104.908 88.4477L107.475 84.7997L107.14 83.6806C107.14 83.6806 109.675 78.1346 110.569 75.5288C111.468 72.9231 112.615 67.2673 112.615 67.2673Z" fill="#EF9D95"/>
<path d="M110.086 50.8872C110.086 50.8872 108.133 56.0218 107.881 58.1448C107.629 60.2677 107.48 65.5504 107.48 65.5504L112.615 67.262C112.615 67.262 114.14 64.5411 114.958 60.6353C115.775 56.7295 116.856 57.6181 116.856 57.6181L117.377 67.8544C117.377 67.8544 122.402 67.4101 123 66.8505C123.597 66.291 124.025 55.8079 124.025 55.8079L123.126 53.3009L110.086 50.8872Z" fill="#212E48"/>
<path d="M112.302 37.4089L113.339 37.1127C113.339 37.1127 115.22 40.5741 114.853 42.3241C114.48 44.074 115.489 44.9133 115.988 45.8239C116.488 46.7346 116.23 47.53 116.109 48.0566C115.988 48.5832 116.345 51.4138 116.345 51.4138L111.704 46.4219L112.302 37.4089Z" fill="#1C1F26"/>
<path d="M124.097 33.5032L126.686 37.4474L125.676 48.5833L123.449 53.0706L121.919 54.1952L121.365 50.1797L121.469 46.8663L122.078 43.7888L121.661 41.2051L123.449 33.8433L124.305 33.5032H124.097Z" fill="#1C1F26"/>
<path d="M123.449 31.786C123.449 31.786 126.351 29.8441 128.101 33.5744C130.021 37.6612 130.372 38.8626 130.224 40.3877C130.076 41.9127 129.527 41.803 129.637 44.2606C129.747 46.7182 127.212 52.5989 126.466 52.747C125.72 52.8951 123.115 53.8386 122.895 53.0706C122.67 52.3026 123.191 48.2652 123.789 47.1735C124.387 46.0818 124.87 45.7472 124.87 45.7472C124.87 45.7472 124.201 45.248 124.349 41.5122C124.497 37.7765 125.057 36.9262 125.095 36.1801C125.133 35.434 124.612 34.7264 124.278 34.3204C123.943 33.909 123.68 34.3972 123.647 34.9897C123.608 35.5876 123.515 36.811 123.191 37.4857C122.868 38.155 122.33 40.1298 122.336 40.8375C122.341 41.5451 122.012 43.2457 122.012 43.2457C122.012 43.2457 121.074 40.2121 122.017 36.7232C122.791 33.8487 121.99 33.9693 122.341 33.1629C122.67 32.3456 123.449 31.786 123.449 31.786Z" fill="#262B35"/>
<path d="M115.38 33.8432C115.38 33.8432 115.314 31.7312 110.947 33.8432C106.581 35.9552 108.517 37.5954 108.183 40.6509C107.848 43.701 109.686 42.2528 109.313 43.0317C108.94 43.8162 107.255 43.5583 107.255 44.2605C107.255 46.8991 106.542 46.164 107.255 47.0198C107.969 47.8756 108.726 47.7275 109.142 47.8372C109.559 47.9469 109.115 47.4312 109.697 47.157C110.278 46.8827 109.51 49.6968 109.142 48.9892C108.775 48.2815 113.021 47.0198 112.302 45.9775C112.039 45.599 113.29 46.0104 113.065 42.3241C112.84 38.6377 112.538 37.5186 112.538 37.5186L113.065 37.3321C113.065 37.3321 114.941 40.234 114.71 41.984C114.48 43.7339 114.48 44.074 114.48 44.074C114.48 44.074 114.913 44.5897 115.424 45.4454C115.934 46.3012 116.329 47.1679 116.329 47.1679C116.329 47.1679 117.64 45.2205 117.141 41.8358C116.641 38.4512 116.043 35.9168 116.005 34.688C115.967 33.4647 115.38 33.8432 115.38 33.8432Z" fill="#262B35"/>
<path d="M112.845 45.4839C112.675 45.5003 111.26 45.6649 110.448 46.954C109.543 48.3968 110.229 49.9163 110.278 50.0205L109.982 51.4084L116.806 52.4452L115.769 49.7353L113.679 44.4745L112.845 45.4839Z" fill="#1C1F26"/>
<path d="M108.331 37.7654C108.331 37.7654 110.157 40.7112 111.167 41.4573C112.176 42.2089 112.533 42.9769 112.467 43.4761C112.094 46.3232 113.065 46.3232 113.065 46.3232L109.142 44.9517L108.331 37.7654Z" fill="#1C1F26"/>
<path d="M102.966 34.9403C102.966 34.9403 104.118 45.1877 105.347 46.3068C106.575 47.4259 108.792 50.4101 110.042 48.4901C111.293 46.5701 112.604 44.3484 111.666 43.0976C110.728 41.8469 108.945 39.1314 108.1 37.2827C107.261 35.434 107.64 33.9858 105.665 34.4137C103.695 34.8471 102.966 34.9403 102.966 34.9403Z" fill="#262B35"/>
<path d="M115.271 30.0691C114.837 30.4366 114.031 30.8041 114.251 31.1991C114.47 31.5941 115.913 32.011 116.121 32.3785C116.33 32.7461 121.294 32.8064 121.557 32.3785C121.821 31.9506 122.331 30.667 123.362 30.2665C124.394 29.8661 124.306 29.4382 123.362 29.4547C122.419 29.4711 121.53 28.8732 121.53 28.8732L115.271 30.0691Z" fill="#699D31"/>
<path d="M111.924 31.6489C111.924 31.6489 111.507 32.2359 111.82 32.8119C112.133 33.3879 113.021 33.0094 113.948 33.0862C114.875 33.163 115.671 33.8432 115.671 33.8432L114.508 31.989L111.924 31.6489Z" fill="#699D31"/>
<path d="M115.78 31.7641C115.78 31.7641 117.546 32.768 118.759 32.406C119.976 32.0384 120.799 31.4021 120.799 31.4021L121.792 32.0549L121.896 35.4396C121.896 35.4396 121.31 38.901 121.32 38.9449C121.331 38.9888 121.688 41.5342 121.688 41.5342C121.688 41.5342 122.039 43.1524 122.001 43.2457C121.962 43.3389 121.502 46.2244 121.502 46.2244L121.304 49.8175L121.842 53.098L121.699 54.2719L117.398 54.6614L116.471 50.8982L116.312 48.5778C116.312 48.5778 117.398 45.5497 117.475 44.672C117.552 43.7943 116.965 39.4551 116.767 39.0546C116.57 38.6542 115.774 34.0736 115.774 34.0736L115.78 31.7641Z" fill="#8491AE"/>
<path d="M116.405 32.8998C116.356 32.7462 116.526 32.6145 116.663 32.7023C117.157 33.0259 117.936 33.4428 118.638 33.3715C120.986 33.1356 120.196 30.7768 121.567 32.2854C122.006 32.7681 120.711 33.6732 121.2 36.0211C121.699 38.4458 120.07 38.2537 121.265 42.2144C121.567 43.2128 121.386 45.0724 121.189 45.9117C120.432 49.1263 121.128 51.2218 121.244 52.5219C121.584 56.4936 117.634 57.7662 116.866 51.1396C116.575 48.6436 116.811 48.2047 117.365 46.8553C117.914 45.5113 118.358 43.915 117.903 41.781C117.447 39.6361 116.466 38.369 116.701 35.692C116.806 34.4028 116.597 33.4538 116.405 32.8998Z" stroke="#60697F" stroke-miterlimit="10"/>
<path d="M121.205 54.1018H117.322V54.5845H121.205V54.1018Z" fill="#60697F"/>
<path d="M114.266 25.8835L114.14 21.6815C114.14 21.6815 114.612 19.948 115.929 20.6172C117.245 21.2865 117.476 21.5224 117.476 21.5224L117.569 19.8822L119.599 19.767L120.707 20.6172L121.354 21.3139L121.54 23.4369L121.815 24.5285V25.2143C121.815 25.2143 122.182 24.7315 122.276 25.0771C122.369 25.4227 122.116 26.8764 122.276 27.1781C122.435 27.4799 122.16 27.9406 122.089 27.8035C122.018 27.6664 121.491 27.8309 121.491 27.8309L120.959 28.8677L120.707 31.9891C120.707 31.9891 118.562 33.5031 117.64 33.2289C116.719 32.9546 115.748 31.9891 115.748 31.9891L115.654 30.113L114.618 28.4728C114.618 28.4728 114.223 28.8403 114.146 28.566C114.069 28.2917 114.064 27.9406 113.882 27.4579C113.696 26.9752 113.142 26.3279 113.422 25.9603C113.696 25.5928 114.365 26.3772 114.365 26.3772L114.266 25.8835Z" fill="#EF9D95"/>
<path d="M117.168 28.1381L119.9 28.1107C119.9 28.1107 119.368 28.7635 118.6 28.8019C117.832 28.8348 117.157 28.3027 117.157 28.3027" fill="#7E0100"/>
<path d="M119.9 27.9517H117.168V28.1382H119.9V27.9517Z" fill="#FEF3F2"/>
<path d="M113.065 22.3892C113.065 22.3892 114.568 25.7793 114.667 26.6241C114.771 27.4689 114.87 28.4783 115.945 29.0817C117.02 29.6851 117.388 31.1663 117.388 31.1663C117.388 31.1663 114.842 30.4367 114.65 29.7071C114.458 28.9775 114.42 26.5693 114.135 26.2511C113.85 25.9329 113.158 24.9839 113.06 24.3585C112.961 23.7332 113.065 22.3892 113.065 22.3892Z" fill="#B65935"/>
<path d="M121.722 20.6227C121.722 20.6227 121.98 24.8576 121.903 25.3074C121.826 25.7573 121.799 26.1632 121.82 27.6114C121.837 29.0596 121.952 29.0816 121.393 29.6466C120.828 30.2116 120.52 31.029 119.752 31.232C118.99 31.4349 119.165 30.837 119.165 30.837C119.165 30.837 120.575 28.6811 120.921 28.1381C121.266 27.595 121.952 27.957 121.65 25.3678C121.349 22.7895 121.299 22.6249 121.563 21.7966C121.799 21.0341 121.722 20.6227 121.722 20.6227Z" fill="#B65935"/>
<path d="M118.534 27.0738C118.534 27.0738 118.578 26.7776 119.346 26.9586C120.114 27.1396 120.767 27.2932 120.718 27.6772C120.668 28.0612 120.476 28.5879 120.487 28.8951C120.498 29.2023 120.954 30.7218 119.889 31.1936C118.765 31.6928 117.827 31.6708 117.328 31.018C116.828 30.3652 117.509 29.9428 117.509 29.9428C117.509 29.9428 117.75 29.8002 117.777 29.3943C117.805 28.9883 118.326 28.8951 118.787 28.8951C119.248 28.8951 119.824 29.1913 119.796 29.5863C119.769 29.9812 119.988 30.7876 120.016 29.3284C120.043 27.8692 120.411 27.7815 119.906 27.7431C119.401 27.7047 119.094 28.1161 118.825 27.8089C118.556 27.5017 118.518 27.4633 118.353 27.4743C118.189 27.4852 118.096 27.1397 118.096 27.1397L118.534 27.0738Z" fill="#DA6B42"/>
<path d="M117.843 27.0081C118.15 27.0081 118.391 27.2659 118.391 27.2659C118.391 27.2659 118.457 27.7541 118.046 27.8529C117.634 27.9516 117.267 27.7651 117.152 28.0449C117.036 28.3246 116.96 29.3998 117.228 29.6686C117.497 29.9374 117.777 30.3708 117.777 30.3708L118.084 31.4789C118.084 31.4789 116.987 31.5008 116.702 29.6302C116.422 27.7596 116.521 27.8913 116.751 27.6718C116.982 27.4524 117.843 27.0081 117.843 27.0081Z" fill="#DA6B42"/>
<path d="M121.633 24.8851C121.633 24.8851 121.26 22.7841 121.557 21.8021C121.853 20.8147 122.297 18.8069 117.464 18.6424C112.631 18.4778 113.043 22.9432 113.092 23.2394C113.142 23.5356 114.568 26.2017 114.568 26.2017C114.568 26.2017 114.283 21.9941 114.908 21.7802C115.533 21.5608 115.84 23.0364 116.724 22.9212C117.607 22.806 117.876 20.5185 118.786 20.4198C119.697 20.321 121.14 21.846 121.244 22.5592C121.348 23.2778 121.408 24.7096 121.502 24.8522C121.589 24.9948 121.644 25.4556 121.644 25.4556L121.633 24.8851Z" fill="#DA6B42"/>
<path d="M118.819 23.8648C119 24.2542 119.511 24.2159 120.01 24.0129C120.509 23.8099 120.882 24.3914 120.942 24.1665C121.008 23.9361 120.564 23.5302 120.076 23.5302C119.587 23.5302 119.242 23.5795 119.05 23.596C118.858 23.6015 118.819 23.8648 118.819 23.8648Z" fill="#B65935"/>
<path d="M118.924 25.7299C118.924 25.7299 118.962 25.4008 119.099 25.0716C119.253 24.7096 119.527 24.3475 120.004 24.4298C120.926 24.5779 121.145 24.748 121.145 24.748C121.145 24.748 120.74 24.0623 119.966 24.1061C119.198 24.1555 118.891 24.4243 118.924 24.9893C118.957 25.5544 118.924 25.7299 118.924 25.7299Z" fill="#DA9088"/>
<path d="M120.762 24.9838C120.981 24.8686 121.097 24.8192 121.097 24.8192C121.097 24.8192 120.614 24.3694 120.076 24.3694C119.539 24.3694 118.76 25.0222 119.1 25.0661C119.445 25.11 120.043 25.099 120.367 25.0661C120.685 25.0386 120.762 24.9838 120.762 24.9838Z" fill="#E9D3D1"/>
<path d="M119.906 25.1429C120.178 25.1429 120.4 24.971 120.4 24.7589C120.4 24.5468 120.178 24.3749 119.906 24.3749C119.633 24.3749 119.412 24.5468 119.412 24.7589C119.412 24.971 119.633 25.1429 119.906 25.1429Z" fill="#A79E94"/>
<path d="M119.922 25.0277C120.065 25.0277 120.18 24.9319 120.18 24.8138C120.18 24.6956 120.065 24.5999 119.922 24.5999C119.78 24.5999 119.665 24.6956 119.665 24.8138C119.665 24.9319 119.78 25.0277 119.922 25.0277Z" fill="#060603"/>
<path d="M120.043 24.7315C120.098 24.7315 120.142 24.6873 120.142 24.6328C120.142 24.5783 120.098 24.5341 120.043 24.5341C119.989 24.5341 119.944 24.5783 119.944 24.6328C119.944 24.6873 119.989 24.7315 120.043 24.7315Z" fill="white"/>
<path d="M117.64 26.0755C117.64 26.0755 117.602 25.7463 117.465 25.4172C117.311 25.0551 117.037 24.6931 116.559 24.7754C115.638 24.9235 115.418 25.0935 115.418 25.0935C115.418 25.0935 115.824 24.4078 116.598 24.4517C117.366 24.5011 117.673 24.7699 117.64 25.3349C117.613 25.9054 117.64 26.0755 117.64 26.0755Z" fill="#DA9088"/>
<path d="M115.802 25.3349C115.583 25.2197 115.468 25.1703 115.468 25.1703C115.468 25.1703 115.951 24.7205 116.488 24.7205C117.026 24.7205 117.805 25.3733 117.465 25.4171C117.119 25.461 116.521 25.4501 116.197 25.4171C115.879 25.3842 115.802 25.3349 115.802 25.3349Z" fill="#E9D3D1"/>
<path d="M116.477 25.494C116.75 25.494 116.971 25.3221 116.971 25.1101C116.971 24.898 116.75 24.7261 116.477 24.7261C116.204 24.7261 115.983 24.898 115.983 25.1101C115.983 25.3221 116.204 25.494 116.477 25.494Z" fill="#A79E94"/>
<path d="M116.461 25.3788C116.603 25.3788 116.719 25.283 116.719 25.1649C116.719 25.0467 116.603 24.9509 116.461 24.9509C116.319 24.9509 116.203 25.0467 116.203 25.1649C116.203 25.283 116.319 25.3788 116.461 25.3788Z" fill="#060603"/>
<path d="M116.593 25.0825C116.647 25.0825 116.692 25.0383 116.692 24.9838C116.692 24.9292 116.647 24.885 116.593 24.885C116.538 24.885 116.494 24.9292 116.494 24.9838C116.494 25.0383 116.538 25.0825 116.593 25.0825Z" fill="white"/>
<path d="M117.229 24.0513C117.267 24.5395 116.45 24.5669 116.011 24.534C115.578 24.5011 115.369 24.7589 115.281 24.9509C115.194 25.1429 114.897 24.5779 115.676 24.172C116.455 23.7605 116.664 23.8757 116.982 23.9141C117.306 23.947 117.229 24.0513 117.229 24.0513Z" fill="#B65935"/>
<path d="M115.342 30.3543L114.716 29.8496C114.716 29.8496 111.502 31.3637 111.683 32.0055C111.864 32.6473 112.467 32.8832 113.131 32.9326C113.8 32.9874 114.842 32.6583 115.221 33.4318C115.599 34.2053 116.318 38.1879 116.543 39.9378C116.768 41.6877 117.146 42.719 117.026 44.5019C116.911 46.2793 115.824 47.7823 115.994 48.8795C116.164 49.9766 116.345 51.5729 116.751 52.1873C117.157 52.8017 117.207 53.076 117.207 53.076C117.207 53.076 116.345 49.8724 116.516 48.9453C116.686 48.0182 117.744 46.6687 117.733 43.4816C117.722 40.2944 116.516 39.1808 116.477 36.9097C116.439 34.6331 116.713 32.8338 116.164 32.2688C115.616 31.7093 114.321 31.4075 114.48 31.0784C114.639 30.7438 115.342 30.3543 115.342 30.3543Z" fill="#A1EC4C"/>
<path d="M121.842 28.5879C121.842 28.5879 122.901 28.3959 124.157 29.0487C125.413 29.7015 125.622 30.9851 125.1 31.3362C124.579 31.6873 123.389 31.4514 122.775 32.3181C122.16 33.1849 122.264 34.8415 122.16 35.8619C122.056 36.8822 121.348 38.9064 121.573 39.85C121.798 40.7935 121.979 42.8287 122.083 43.7997C122.188 44.7652 121.694 46.7016 121.639 47.3928C121.584 48.084 121.677 50.4373 121.913 51.3535C122.149 52.2696 122.138 53.9262 122.111 54.0579C122.083 54.1896 121.277 54.4748 121.277 54.4748C121.277 54.4748 121.59 51.9898 121.277 51.0243C120.964 50.0588 120.909 49.247 121.145 47.9633C121.381 46.6851 121.76 45.0888 121.749 43.9752C121.738 42.8616 120.975 40.81 121.003 39.636C121.03 38.4621 121.672 36.3666 121.463 35.3901C121.255 34.4137 121.304 33.1574 121.518 32.5266C121.732 31.8957 122.188 30.815 123.191 30.3817C124.195 29.9483 124.59 29.5204 123.608 29.5588C122.626 29.5972 121.82 29.1145 121.82 29.1145L121.842 28.5879Z" fill="#A1EC4C"/>
<path d="M114.464 27.5347C114.524 27.0355 114.272 26.6021 113.893 26.7722C113.52 26.9477 113.559 27.4085 114.069 27.8693C114.579 28.3301 114.705 28.4563 114.722 28.8897C114.744 29.323 115.369 29.5644 115.638 29.7948C115.907 30.0252 115.994 30.6121 115.972 30.7219C115.95 30.8261 117.602 32.4553 118.265 34.7977C118.929 37.1401 118.852 40.8594 118.852 40.8594C118.852 40.8594 120.092 42.9494 120.07 43.498C120.048 44.0465 118.748 47.2831 118.803 47.7274C118.858 48.1717 119.209 49.2799 118.754 49.5212C118.298 49.7626 116.537 50.2069 116.373 50.4538C116.208 50.7061 116.181 51.0682 116.181 51.0682L116.334 51.4028C116.334 51.4028 116.093 50.8926 116.526 50.6513C116.96 50.4099 116.91 50.2837 117.613 50.1521C118.315 50.0149 118.809 49.7187 118.924 49.5925C119.039 49.4664 119.445 49.3731 119.242 48.7423C119.039 48.1114 118.99 47.8755 119.28 46.8442C119.571 45.8129 120.377 43.849 120.339 43.3663C120.301 42.8836 119.066 41.3421 119.088 40.6893C119.11 40.0365 119.011 38.8516 119.165 38.8187C119.319 38.7858 119.319 38.5389 119.291 37.9026C119.264 37.2663 119.291 36.427 119.736 35.8619C120.18 35.2969 121.019 34.3424 121.036 34.101C121.058 33.8597 120.564 31.2869 120.575 30.8371C120.586 30.3818 121.798 27.7541 122.056 27.3701C122.314 26.9861 122.424 26.7448 122.413 26.4156C122.402 26.0865 121.919 25.7628 121.837 26.2401C121.754 26.7173 121.87 26.8929 121.864 27.0136C121.853 27.2714 121.255 28.5825 121.052 29.1146C120.877 29.5754 120.323 30.5902 120.339 30.9413C120.366 31.5063 120.888 33.8651 120.849 34.0352C120.811 34.2107 119.368 35.9058 119.242 36.3447C119.116 36.7835 119.077 37.3376 119.077 37.3376L118.94 37.3266C118.94 37.3266 118.968 36.1307 118.331 34.4357C117.695 32.7406 116.192 30.9303 116.181 30.6121C116.17 30.294 116.044 29.9594 115.649 29.6302C115.243 29.2901 114.82 29.0981 114.831 28.6593C114.842 28.2149 114.612 28.1601 114.458 27.9845C114.382 27.8858 114.464 27.5347 114.464 27.5347Z" fill="#FEF3F2"/>
<path d="M112.95 55.2429C112.763 55.9121 112.911 56.362 113.394 56.7131C113.877 57.0641 114.529 57.2507 114.705 57.1025C114.881 56.9544 115.144 56.6582 115.177 56.8776C115.215 57.1025 114.765 57.7718 115.177 58.2545C115.588 58.7373 116.395 60.394 116.395 60.394C116.395 60.394 115.851 58.8141 115.978 58.1448C116.104 57.4756 116.592 56.7131 116.592 56.7131C116.592 56.7131 119.977 55.978 121.359 55.8134C122.736 55.6488 124.524 55.4623 125.638 55.4623C126.757 55.4623 127.574 55.6488 127.98 56.3565C128.386 57.0641 128.836 56.3565 129.061 56.17C129.286 55.9835 129.445 55.6104 129.626 56.2797C129.807 56.9489 129.374 57.9528 129.626 58.3643C129.878 58.7757 130.773 60.0758 130.773 60.0758C130.773 60.0758 130.016 58.1393 130.246 57.0971C130.476 56.0548 130.246 54.9357 130.246 54.9357L130.773 54.0964L129.878 53.5204C129.878 53.5204 129.84 54.036 129.023 54.3377C128.205 54.6395 121.995 54.3377 121.995 54.3377L115.55 54.4639L112.95 55.2429Z" fill="#3069C1"/>
<path d="M125.918 54.4695C125.918 54.4695 128.513 54.6395 128.809 54.3433C129.105 54.047 129.813 53.3668 129.813 53.3668L130.894 53.7508C130.894 53.7508 130 54.453 130.076 54.5846C130.153 54.7163 130.488 54.7821 130.449 55.8134C130.411 56.8393 130.186 58.8909 130.488 59.1487C130.784 59.4121 130.713 60.0813 130.713 60.0813C130.713 60.0813 129.681 58.5947 129.637 57.7389C129.594 56.8831 129.637 55.8189 129.637 55.8189C129.637 55.8189 128.776 56.9215 128.255 56.9983C127.734 57.0751 127.547 55.583 127.065 55.5117C126.582 55.4349 124.903 55.7037 124.903 55.7037L125.918 54.4695Z" fill="#3069C1"/>
<path d="M116.071 54.6614C116.071 54.6614 115.517 55.0454 115.78 55.8079C116.043 56.5759 116.345 57.5085 116.345 57.5085C116.345 57.5085 117.941 56.6143 118.462 56.3894C118.984 56.1645 119.132 56.2413 119.543 56.351C119.955 56.4607 120.13 55.6872 120.081 55.2374C120.031 54.7876 120.081 54.5791 120.081 54.5791L116.071 54.6614Z" fill="#EF9D95"/>
<path d="M121.918 54.1952L123.043 53.3668L126.11 52.8347C126.11 52.8347 126.433 54.5024 125.961 55.2429C125.495 55.9835 124.425 56.6966 124.063 56.7131C123.707 56.7295 123.422 56.2797 123.175 56.543C122.922 56.8064 122.582 57.5469 122.418 57.0258C122.253 56.5046 122.396 55.2484 122.418 55.018C122.44 54.7931 121.918 54.1952 121.918 54.1952Z" fill="#EF9D95"/>
<path d="M110.267 63.5044L120.07 66.2966C120.07 66.2966 122.105 64.5467 124.02 63.9871C125.934 63.4276 128.096 63.3563 130.032 65.7371C131.969 68.1179 132.747 70.2024 132.638 76.1215C132.528 82.0405 131.036 88.6288 128.694 91.8325C126.351 95.0361 125.419 96.3746 122.215 96.3362C119.011 96.2978 116.499 93.6921 115.747 89.3036C114.996 84.9095 114.771 79.2922 116.373 75.3809C117.974 71.4751 119.461 68.3812 119.461 68.3812L119.165 67.2676L121.458 66.8946C121.458 66.8946 120.542 68.1617 120.542 68.8694C120.542 69.5771 122.588 79.9231 122.588 79.9231C122.588 79.9231 121.249 78.9192 120.915 77.0924C120.58 75.2657 119.576 70.0598 119.576 70.0598C119.576 70.0598 116.784 75.5674 116.598 76.5C116.411 77.4325 116.263 82.6769 116.263 83.6862C116.263 84.6956 117.009 90.1264 117.382 91.0206C117.755 91.9148 119.318 94.2571 120.47 94.707C121.622 95.1513 124.009 94.9045 124.453 94.493C124.897 94.0761 127.618 92.8857 128.995 89.2377C130.372 85.5898 132.012 82.0515 131.897 76.6536C131.787 71.2557 131.201 68.9846 129.632 67.0482C128.063 65.1117 127.876 64.629 126.274 64.8155C124.673 65.002 121.825 66.5654 121.825 66.5654L117.64 67.2731L110.454 64.8155L110.267 63.5044Z" fill="#3069C1"/>
<path d="M117.366 67.6076L112.873 74.7828C112.873 74.7828 112.467 74.2233 112.132 74.2617C111.798 74.3001 111.238 74.525 111.238 74.525L111.836 75.0845C111.836 75.0845 111.946 75.1613 112.357 75.3094C112.768 75.4575 111.946 76.1268 111.946 76.1268C111.946 76.1268 111.682 78.3594 111.759 78.5075C111.836 78.6557 113.323 76.4998 113.399 76.8673C113.476 77.2404 113.728 79.8844 112.873 80.8883C112.017 81.8922 111.276 82.4133 110.454 81.8209C109.636 81.2229 109.077 77.7615 109.077 77.7615L107.14 83.6805L107.475 84.7996C107.475 84.7996 108.44 81.8593 108.665 81.8977C108.89 81.9361 110.454 83.4611 110.859 83.2746C111.271 83.088 112.796 81.9745 113.279 80.9651C113.761 79.9612 113.8 78.919 113.838 77.3556C113.877 75.7921 113.877 76.3901 113.877 76.3901L119.686 67.2729L117.366 67.6076Z" fill="#3069C1"/>
<path d="M107.881 64.3601C107.881 64.3601 108.166 62.5388 107.881 62.5004C107.596 62.462 106.4 60.937 104.315 61.3485C102.231 61.7599 98.6923 64.0639 97.096 69.577C95.4941 75.0846 95.4941 81.1517 95.4941 81.2669C95.4941 81.3766 96.0153 85.3976 96.0153 85.3976L98.9556 90.609L101.753 91.1685L101.973 89.9397C101.973 89.9397 98.8459 91.0259 97.7268 87.6742C96.6077 84.3224 95.7191 81.3053 96.1634 77.6957C96.6077 74.0862 96.498 69.1326 100.409 65.15C104.321 61.1674 104.781 61.6447 106.18 62.2865C107.579 62.9228 107.886 64.5576 107.886 64.5576V64.3601H107.881Z" fill="#3069C1"/>
<path d="M108.369 64.9581C108.369 64.9581 106.882 61.3101 104.683 61.6831C102.483 62.0562 98.4289 65.9894 97.798 68.4196C97.1672 70.8497 95.4885 77.8001 95.9384 80.9653C96.3882 84.1306 97.3646 89.2322 99.4437 89.8082C101.523 90.3842 102.34 89.8082 102.34 89.8082L102.115 89.4517C102.115 89.4517 99.6961 90.5324 98.5441 88.2229C97.3921 85.9134 96.3827 82.0789 96.4979 80.2961C96.6076 78.5077 97.0026 71.6067 99.0268 68.052C101.051 64.4973 102.34 62.7638 103.607 62.5828C104.875 62.4018 105.955 62.5828 106.734 63.5154C107.513 64.4424 107.881 65.6987 107.881 65.6987L108.369 64.9581Z" fill="#183B71"/>
<path d="M107.48 65.7371L101.073 76.3848L107.628 66.9659L107.48 65.7371Z" fill="#183B71"/>
<path d="M123.636 65.7371L125.605 79.6213L122.813 66.5215L123.285 65.8248L123.636 65.7371Z" fill="#183B71"/>
<path d="M117.075 61.8478L117.365 67.6022C117.365 67.6022 122.703 67.5529 122.999 66.8507C123.296 66.1485 123.685 61.8423 123.685 61.8423H117.075V61.8478Z" fill="#212E48"/>
<path d="M107.678 60.7615L107.48 65.5505L112.615 67.2675L114.189 63.5043L107.881 60.7615H107.678Z" fill="#212E48"/>
<path d="M112.615 67.2675L107.48 65.5559C107.48 65.5559 104.502 76.6481 104.129 79.923C103.756 83.198 103.421 86.9941 103.421 86.9941L104.908 88.4479L107.475 84.7999L107.14 83.6808C107.14 83.6808 109.675 78.1347 110.569 75.529C111.468 72.9232 112.615 67.2675 112.615 67.2675Z" fill="#EF9D95"/>
<path d="M103.163 35.0611C103.163 35.0611 102.357 33.3441 102.028 32.4883C101.704 31.6325 101.627 29.3724 101.671 28.0668C101.715 26.7613 102.296 26.4595 102.285 27.2714C102.274 28.0833 102.472 28.2753 102.653 27.4799C102.834 26.6845 103.361 26.9917 103.366 27.3427C103.372 27.6883 103.47 28.0559 103.734 27.5951C104.002 27.1343 103.969 27.2659 104.26 27.5676C104.551 27.8694 104.326 28.8129 104.545 28.4399C104.765 28.0723 104.825 28.6319 104.732 29.2024C104.639 29.7729 104.573 30.2227 104.864 31.0236C105.154 31.8245 105.423 31.9562 105.659 31.7587C105.895 31.5612 105.215 30.6506 105.335 30.0472C105.462 29.4438 105.708 29.3121 106.081 29.3615C106.454 29.4108 106.383 29.8223 106.169 30.6616C105.955 31.5009 106.531 31.5667 106.515 32.6474C106.498 33.7226 106.065 34.4028 106.065 34.4028L103.163 35.0611Z" fill="#F0C6B4"/>
<path d="M259.861 43.9916C259.861 43.9916 250.717 40.2395 250.755 39.1643C250.793 38.0836 252.664 31.5282 253.174 29.6357C253.684 27.7431 254.052 25.313 254.052 25.313C258.067 20.1565 254.732 25.1649 255.275 24.9071C255.873 24.6218 257.217 23.5027 256.553 24.3969C256.136 24.9619 255.253 25.6696 255.593 25.4995C255.934 25.3295 256.466 25.313 255.977 25.708C255.489 26.1029 253.904 27.4963 254.776 27.9132C255.648 28.3301 256.098 26.3498 256.466 26.3827C256.833 26.4156 255.868 28.2314 255.895 28.6867C255.923 29.142 254.54 29.7619 254.343 30.6725C254.145 31.5831 253.328 36.7451 253.608 37.5899C253.887 38.4347 259.741 39.1039 259.741 39.1039C259.741 39.1039 259.949 40.2175 259.982 41.2872C260.015 42.2856 259.861 43.9916 259.861 43.9916Z" fill="#EF9D95"/>
<path d="M260.152 39.1424L259.626 39.0985C259.626 39.0985 259.527 40.245 259.648 41.2708C259.741 42.0498 259.543 43.8491 259.543 43.8491L260.597 44.3154C260.597 44.3154 260.63 42.7191 260.525 41.4354C260.421 40.1682 260.152 39.1424 260.152 39.1424Z" fill="#EF9D95"/>
<path d="M266.56 51.6663C266.56 51.6663 269.429 53.2132 269.144 55.616C268.858 58.0187 268.381 58.6825 268.765 59.7577C269.144 60.8328 269.648 64.0475 269.934 65.8687C270.219 67.69 269.807 71.1075 270.186 71.6451C270.564 72.1827 271.387 72.5009 272.051 75.2163C272.715 77.9372 272.715 78.9466 272.715 78.9466L268.891 80.1809C268.891 80.1809 265.825 73.225 265.413 70.7949C265.002 68.3592 264.431 64.3163 264.431 64.3163L264.02 59.0719L266.56 51.6663Z" fill="#7A65BE"/>
<path d="M257.837 55.221C257.837 55.221 261.55 53.9318 263.311 53.2626C265.072 52.5933 266.674 51.9186 266.674 51.9186C266.674 51.9186 268.885 53.5204 268.347 56.1919C267.81 58.8635 267.272 59.3791 266.482 59.9935C265.692 60.6079 265.303 61.2223 265.303 61.2223C265.303 61.2223 264.551 63.9542 264.266 67.4047C263.981 70.8497 263.558 71.5134 263.558 71.5134C263.558 71.5134 265.434 71.6396 265.687 74.8652C265.939 78.0908 265.879 80.0821 265.879 80.0821C265.879 80.0821 265.023 79.6707 263.728 80.0821C262.434 80.4935 261.199 80.7129 261.199 80.7129C261.199 80.7129 258.144 67.657 257.979 62.8241C257.815 57.9858 257.804 55.4404 257.804 55.4404L257.837 55.221Z" fill="#8A71D5"/>
<path d="M263.789 39.3673C263.789 39.3673 262.774 41.8304 261.583 41.5835C260.393 41.3367 260.53 40.3108 260.53 40.3108C260.53 40.3108 258.385 41.1282 258.341 42.5655C258.303 44.0027 259.614 46.6249 259.323 48.2212C259.038 49.8175 258.259 51.4139 258.051 53.2626C257.842 55.1112 257.804 55.4349 257.804 55.4349C257.804 55.4349 257.924 55.0015 260.344 54.3761C262.763 53.7508 265.467 52.4013 265.961 52.1544C266.455 51.9076 266.872 51.9186 266.872 51.9186C266.872 51.9186 265.379 50.9586 265.303 48.9727C265.226 46.9869 266.082 44.1728 266.082 44.1728L263.953 39.3618L263.789 39.3673Z" fill="#234A70"/>
<path d="M264.727 35.1105C264.727 35.1105 264.721 37.1566 265.275 37.2773C265.829 37.398 266.992 36.8001 267.607 38.9669C268.221 41.1338 268.918 45.0671 269.121 45.7034C269.324 46.3397 267.579 49.1868 265.379 51.1013C263.18 53.0213 262.401 53.6083 261.704 55.2211C261.007 56.8339 260.991 58.4138 260.014 59.3628C259.038 60.3119 258.221 61.3541 258.012 61.2225C257.809 61.0908 259.241 59.5329 259.241 59.5329C259.241 59.5329 258.133 59.7359 257.99 59.5329C257.848 59.3299 259.323 59.0556 259.323 59.0556C259.323 59.0556 258.912 58.6387 258.747 58.5729C258.583 58.5071 260.426 58.2218 260.184 56.8723C259.943 55.5228 259.488 56.5541 259.038 57.1027C258.588 57.6513 258.297 57.6897 258.791 56.79C259.285 55.8904 258.994 55.7039 259.406 55.2211C259.817 54.7384 260.881 54.7109 261.084 54.0911C261.287 53.4712 265.16 47.5301 265.374 46.3397C265.588 45.1493 263.619 39.5375 263.619 39.5375C263.619 39.5375 263.706 41.9128 261.408 41.5452C259.115 41.1777 261.04 39.8501 261.04 39.8501L261.408 36.2735L264.727 35.1105Z" fill="#EF9D95"/>
<path d="M265.024 34.7594L265.303 37.3048C265.303 37.3048 263.855 37.3596 263.784 38.1002C263.712 38.8407 263.482 40.7333 263.482 40.7333L262.155 42.4887L259.735 41.5452V38.6268L260.531 35.116L265.024 34.7594Z" fill="#DD928A"/>
<path d="M263.712 36.1308C265.023 35.6975 266.702 35.5932 266.866 32.9711C267.031 30.3489 264.869 28.6319 264.869 28.6319L262.642 27.7981L260.717 29.2024L260.015 31.6984L260.53 35.3519L262.648 36.0486L263.712 36.1308Z" fill="#EF9D95"/>
<path d="M266.044 34.6003L265.023 35.6975V37.1457L266.543 37.9356L266.044 34.6003Z" fill="#2B170E"/>
<path d="M262.648 26.3883C262.648 26.3883 260.514 26.3224 259.982 27.8036C259.45 29.2847 259 31.1937 259.082 33.6403C259.165 36.0925 258.836 36.7452 257.854 37.4035C256.872 38.0618 257.568 40.2341 258.797 40.5633C260.026 40.8924 260.931 40.8485 261.748 39.4936C262.566 38.1386 262.648 36.0486 262.648 36.0486C262.648 36.0486 261.458 35.8401 261.172 34.7594C260.887 33.6733 260.531 30.3105 260.531 30.3105C260.531 30.3105 261.211 29.4602 261.414 28.9611C261.622 28.4619 262.643 28.3631 262.643 28.3631V26.3883H262.648Z" fill="#2B170E"/>
<path d="M261.94 28.3685C261.94 28.3685 263.838 29.9868 264.82 30.3104C265.802 30.6341 266.499 31.0729 266.499 31.0729C266.499 31.0729 266.482 33.8871 266.038 34.6002C265.594 35.3134 265.413 35.6809 265.687 36.4983C265.961 37.3156 265.511 38.7145 267.437 39.4496C269.362 40.1901 269.653 39.8994 269.077 38.506C268.501 37.1127 267.437 37.5351 267.481 34.5947C267.519 31.6599 267.514 28.2204 265.303 26.9477C263.092 25.675 261.66 26.4814 261.66 26.4814C261.66 26.4814 261.293 27.3482 261.457 27.5786C261.622 27.809 261.94 28.3685 261.94 28.3685Z" fill="#3E2216"/>
<path d="M265.023 36.1309C265.023 36.1309 264.327 36.5423 263.833 36.5423C263.339 36.5423 262.604 36.5423 262.604 36.5423L262.544 37.0086C262.544 37.0086 263.12 36.9811 263.784 37.0086C264.447 37.036 265.023 36.8275 265.023 36.8275V36.1309Z" fill="#1C1F26"/>
<path d="M261.25 40.1463C261.25 40.1463 258.573 40.9581 258.408 42.1869C258.244 43.4157 259.33 47.1789 259.291 48.1718C259.253 49.1647 259.209 49.6584 259.209 49.6584C259.209 49.6584 259.001 47.3215 261.42 46.2957C263.839 45.2699 264.267 44.0466 263.96 42.0333C263.652 40.0201 263.625 39.5319 263.625 39.5319C263.625 39.5319 263.79 42.0992 261.414 41.5396C259.686 41.1337 261.25 40.1463 261.25 40.1463Z" fill="#3D6692"/>
<path d="M264.322 30.6945C264.267 30.4641 264.404 30.2995 265.029 30.316C265.655 30.3269 266.088 30.508 266.088 30.508C266.088 30.508 265.095 30.4696 264.865 30.6012C264.634 30.7384 264.322 30.6945 264.322 30.6945Z" fill="#29140D"/>
<path d="M262.999 30.6999C263.147 30.3928 262.116 29.8936 261.841 29.8936C261.567 29.8936 261.161 30.1953 261.013 30.4531C260.865 30.7109 261.463 30.124 261.682 30.113C261.902 30.102 262.445 30.667 262.609 30.7054C262.774 30.7438 262.999 30.6999 262.999 30.6999Z" fill="#29140D"/>
<path d="M263.421 31.7312C263.421 31.7312 263.366 32.5321 263.218 32.9764C263.07 33.4208 263.163 33.5579 263.586 33.5579C264.008 33.5579 264.008 33.5579 264.008 33.5579" stroke="#D08A82" stroke-width="0.1" stroke-miterlimit="10"/>
<path d="M264.212 31.7313C264.212 31.7313 264.678 31.0895 265.199 31.254C265.72 31.4186 265.874 31.5667 265.874 31.5667C265.874 31.5667 265.561 31.9343 265.04 31.9233C264.519 31.9123 264.212 31.7313 264.212 31.7313Z" fill="white"/>
<path d="M266.187 31.3089C266.187 31.3089 265.896 31.3363 265.391 31.1882C264.936 31.0565 264.7 31.2266 264.552 31.3418C264.404 31.457 264.212 31.7313 264.212 31.7313C264.212 31.7313 264.717 31.3034 264.991 31.3089C265.561 31.3198 265.781 31.5393 265.874 31.5667C265.973 31.5941 266.187 31.3089 266.187 31.3089Z" fill="#351F1C"/>
<path d="M265.078 31.9232C265.254 31.9232 265.397 31.7808 265.397 31.605C265.397 31.4293 265.254 31.2869 265.078 31.2869C264.903 31.2869 264.76 31.4293 264.76 31.605C264.76 31.7808 264.903 31.9232 265.078 31.9232Z" fill="#351F1C"/>
<path d="M264.853 31.5831C264.923 31.5831 264.979 31.5266 264.979 31.457C264.979 31.3873 264.923 31.3308 264.853 31.3308C264.784 31.3308 264.727 31.3873 264.727 31.457C264.727 31.5266 264.784 31.5831 264.853 31.5831Z" fill="white"/>
<path d="M265.354 31.7257C265.396 31.7257 265.43 31.6914 265.43 31.6489C265.43 31.6065 265.396 31.5721 265.354 31.5721C265.311 31.5721 265.277 31.6065 265.277 31.6489C265.277 31.6914 265.311 31.7257 265.354 31.7257Z" fill="white"/>
<path d="M262.878 31.7313C262.878 31.7313 262.412 31.0895 261.891 31.254C261.37 31.4186 261.216 31.5667 261.216 31.5667C261.216 31.5667 261.529 31.9343 262.05 31.9233C262.571 31.9123 262.878 31.7313 262.878 31.7313Z" fill="white"/>
<path d="M260.898 31.3089C260.898 31.3089 261.189 31.3363 261.694 31.1882C262.149 31.0565 262.385 31.2266 262.533 31.3418C262.681 31.457 262.873 31.7313 262.873 31.7313C262.873 31.7313 262.369 31.3034 262.094 31.3089C261.524 31.3198 261.304 31.5393 261.211 31.5667C261.118 31.5941 260.898 31.3089 260.898 31.3089Z" fill="#351F1C"/>
<path d="M262.012 31.9232C262.188 31.9232 262.33 31.7808 262.33 31.605C262.33 31.4293 262.188 31.2869 262.012 31.2869C261.836 31.2869 261.694 31.4293 261.694 31.605C261.694 31.7808 261.836 31.9232 262.012 31.9232Z" fill="#351F1C"/>
<path d="M262.238 31.5831C262.307 31.5831 262.364 31.5266 262.364 31.457C262.364 31.3873 262.307 31.3308 262.238 31.3308C262.168 31.3308 262.111 31.3873 262.111 31.457C262.111 31.5266 262.168 31.5831 262.238 31.5831Z" fill="white"/>
<path d="M261.737 31.7257C261.78 31.7257 261.814 31.6914 261.814 31.6489C261.814 31.6065 261.78 31.5721 261.737 31.5721C261.695 31.5721 261.661 31.6065 261.661 31.6489C261.661 31.6914 261.695 31.7257 261.737 31.7257Z" fill="white"/>
<path d="M262.259 34.0133C262.259 34.0133 262.862 34.2602 263.526 34.2382C264.19 34.2163 264.881 34.0682 264.881 34.0682C264.881 34.0682 264.014 35.083 263.416 35.0172C262.818 34.9569 262.259 34.0133 262.259 34.0133Z" fill="#BA564C"/>
<path d="M262.544 34.1943C262.544 34.1943 262.775 34.3809 263.439 34.3863C264.102 34.3918 264.322 34.2931 264.322 34.2931C264.322 34.2931 263.976 34.7319 263.477 34.7045C262.983 34.6826 262.544 34.1943 262.544 34.1943Z" fill="white"/>
<path d="M239.871 56.905C239.871 56.905 239.229 55.3361 239.597 53.0925C239.959 50.8489 241.188 50.9257 241.056 49.0989C240.919 47.2722 240.941 46.3945 241.725 46.4329C242.51 46.4658 242.982 46.8334 243.02 48.1335C243.053 49.4281 241.298 51.0683 241.714 51.5675C242.131 52.0667 242.74 51.9021 243.645 50.3442C244.551 48.7863 244.567 47.8263 244.594 46.6139C244.622 45.3906 244.957 44.2551 245.275 45.0999C245.593 45.9557 245.478 43.915 246.185 43.3938C246.898 42.8672 246.887 42.5929 247.266 43.6407C247.644 44.6885 247.979 43.9753 248.127 43.2567C248.27 42.5326 249.477 42.0937 249.554 43.8108C249.636 45.5278 250.113 45.1986 250.398 43.509C250.684 41.8195 251.781 42.6588 251.38 45.3906C250.98 48.1225 249.987 52.7853 248.988 54.442C247.996 56.0987 245.67 59.3571 245.67 59.3571L239.871 56.905Z" fill="#F0C6B4"/>
<path d="M225.85 88.9799C222.905 88.4587 219.427 65.9126 219.427 65.9126L219.13 56.9325C219.13 56.9325 224.018 58.2655 226.706 63.4276C229.394 68.5896 231.117 87.1586 231.117 87.1586L230.864 89.8686" fill="#38466D"/>
<path d="M234.002 87.6413L230.694 89.9398C230.694 89.9398 225.044 90.9217 228.73 81.2065C229.58 74.2562 231.056 73.0164 232.449 66.7298C233.42 61.9353 233.365 60.3115 234.77 59.6862C236.18 59.0608 236.245 59.3461 236.169 57.2341C236.092 55.1166 239.334 56.702 239.405 54.7655C239.46 53.2789 239.016 57.5632 243.871 58.4738C248.725 59.3845 244.759 60.7669 244.759 60.7669C244.759 60.7669 245.061 59.7575 245.675 61.9518C247.579 68.754 240.53 79.3085 240.53 79.3085C239.866 80.2959 235.187 87.5261 234.002 87.6413Z" fill="#4A6391"/>
<path d="M218.779 53.0321C218.779 53.0321 218.159 54.5461 219.114 55.2428C220.074 55.934 220.924 58.1283 224.237 62.3468C227.562 66.5708 227.117 66.1977 227.518 75.1065C226.245 81.1353 225.241 84.8875 225 87.175C224.912 88.0253 225.581 94.2625 226.185 96.7256C226.788 99.1942 226.552 102.82 225.493 105.437C224.44 108.054 221.198 103.928 221.094 106.035C220.99 108.141 220.26 109.096 216.184 109.474C212.108 109.853 210.561 113.397 210.561 113.397C210.561 113.397 212.536 116.968 210.726 117.418C208.916 117.867 211.209 120.901 207.594 121.258C203.967 121.609 198.965 120.095 195.931 121.263C193.693 122.13 200.544 103.396 200.544 103.396L195.048 107.253C195.048 107.253 194.417 103.155 190.341 97.9325C188.306 95.3213 189.447 90.4555 188.646 87.4877C187.845 84.5199 190.374 87.0543 190.226 83.2747C190.078 79.5005 192.793 75.1449 193.627 69.6263C194.389 64.6234 198.954 60.8711 201.055 59.0828C203.15 57.289 203.88 55.1715 210.331 54.6449C216.793 54.1292 218.779 53.0321 218.779 53.0321Z" fill="#0078B2"/>
<path d="M209.903 61.14C209.903 61.14 212.805 67.9423 211.972 70.7619C211.143 73.5816 209.821 76.1543 209.903 81.2176C209.986 86.2809 210.896 87.3561 215.29 90.0935C219.69 92.8308 218.275 99.5508 220.809 100.05C223.338 100.549 223.278 100.621 224.172 99.7209C225.06 98.8157 226.706 99.474 226.706 99.474L226.3 103.188C225.96 104.877 225.23 106.468 224.166 107.823C222.685 109.716 220.238 112.036 218.966 112.585C216.876 113.484 212.432 116.403 212.432 116.403C212.432 116.403 191.982 113.331 191.652 113.331C191.323 113.331 187.253 105.448 187.253 105.448L187.999 98.311L192.064 92.9186L200.276 94.8276C200.276 94.8276 199.53 105.481 203.765 106.315C207.994 107.143 213.87 102.59 213.326 99.5508C212.778 96.4624 211.84 92.6443 209.794 90.088C205.838 85.1344 207.144 84.2238 206.974 80.488C206.809 76.7523 206.908 74.4209 208.406 71.2666C209.898 68.1123 209.903 66.0387 209.903 64.212C209.898 62.3853 209.903 61.14 209.903 61.14Z" fill="#4A6391"/>
<path d="M218.895 53.1254C218.895 53.1254 211.994 54.9576 209.547 53.6191C207.089 52.2696 207.501 50.7227 206.305 51.1122C196.178 54.4255 197.989 54.7217 200.753 55.0838C203.518 55.4458 209.223 55.0838 209.223 55.0838H217.178L218.895 53.1254Z" fill="#4A8FBA"/>
<path d="M216.234 51.0958L218.9 53.12C218.9 53.12 214.643 55.8793 204.067 53.4437C199.87 52.4782 201.56 55.5392 205.789 54.8535C210.024 54.1733 210.342 54.645 210.342 54.645C210.342 54.645 204.045 55.3252 201.625 58.8799C199.206 62.4346 195.668 64.7057 195.668 64.7057C195.668 64.7057 194.604 65.2542 195.492 63.2136C196.381 61.1784 198.416 60.2897 195.811 57.3056C193.199 54.3269 194.867 53.9099 196.074 53.6521C197.281 53.3943 206.31 51.0903 206.31 51.0903L216.234 51.0958Z" fill="#4A6391"/>
<path d="M218.301 68.0519C218.301 68.0519 226.223 65.0842 226.645 69.9061C227.068 74.728 225.12 77.4928 221.565 77.1691C218.011 76.8455 217.693 76.7742 217.693 76.7742L217.616 75.2272C217.616 75.2272 221.949 75.6002 222.953 74.6293C223.957 73.6473 224.155 72.5228 223.93 71.1404C223.71 69.758 223.217 69.3082 221.214 69.5715C219.207 69.8238 218.444 69.8951 218.444 69.8951L218.301 68.0519Z" fill="white"/>
<path d="M220.326 38.539C220.326 38.539 223.371 35.2914 222.948 32.6419C222.531 29.9923 219.399 28.5386 218.428 28.1655C217.452 27.787 217.72 26.1413 218.828 25.6037C219.937 25.0661 216.684 23.9306 214.884 24.2762C213.085 24.6273 210.243 26.8874 208.877 27.6005C207.501 28.3082 206.76 27.03 207.495 26.3498C208.23 25.6695 204.928 26.6789 204.478 27.2001C204.028 27.7212 203.682 28.4179 203.99 29.3066C204.297 30.1952 204.154 30.4586 201.505 31.4789C198.855 32.4992 196.014 34.5344 196.897 37.0907C197.78 39.6471 199.091 40.2505 199.091 40.2505C199.091 40.2505 197.133 41.397 199.168 43.9808C201.203 46.5536 203.902 48.9947 204.067 49.9821C204.237 50.9695 205.175 50.4264 205.175 50.4264L205.52 48.3748L220.326 38.539Z" fill="#49476A"/>
<path d="M205.531 55.4296L211.785 56.2744L216.344 55.3253L215.466 53.3175C215.466 53.3175 213.661 52.4014 214.287 51.1946C214.917 49.9932 215.647 48.6875 215.647 48.6875L210.074 45.8185L205.175 46.6194L205.531 55.4296Z" fill="#F0C6B4"/>
<path d="M214.736 53.4491L212.663 56.0603C212.663 56.0603 209.119 55.8738 208.033 52.5769C206.946 49.2745 205.849 48.2267 205.849 48.2267L204.812 48.1719L204.928 45.8789L205.301 43.7504L210.391 43.339L214.259 46.422L214.736 53.4491Z" fill="#EAB19F"/>
<path d="M209.53 31.8684C209.53 31.8684 214.605 30.2172 217.249 33.0533C219.898 35.8894 220.118 37.8313 220.222 40.5193C220.332 43.2018 221.242 43.1689 221.166 44.8146C221.089 46.4658 220.661 47.2557 219.619 51.8473C219.262 53.4162 216.294 53.2132 213.974 52.8895C211.653 52.5659 208.746 52.341 208.175 51.3097C207.616 50.2729 206.085 47.552 206.085 47.552C206.085 47.552 206.349 49.0496 205.301 48.8082C204.259 48.5559 203.118 47.0363 202.525 45.1438C201.933 43.2457 201.839 41.3696 203.567 40.9417C205.29 40.5083 206.382 43.7888 206.382 43.7888L207.457 44.1234C207.457 44.1234 206.009 41.1227 207.545 38.8462C209.07 36.5696 209.092 35.8016 209.146 33.9968C209.201 32.1921 209.53 31.8684 209.53 31.8684Z" fill="#F0C6B4"/>
<path d="M214.347 39.0326C214.413 38.9887 214.451 38.9174 214.457 38.8406C214.484 37.9738 213.755 37.6447 211.835 38.0287C208.916 38.6102 208.576 39.625 208.549 39.7732C208.549 39.7786 208.543 39.7951 208.549 39.8061V39.8335C208.538 40.0036 208.702 40.1352 208.867 40.0694C209.317 39.8884 210.129 39.5811 210.809 39.3891C211.566 39.1752 212.542 39.1533 213.168 39.3288C213.623 39.4605 214.139 39.1752 214.347 39.0326Z" fill="#49476A"/>
<path d="M216.103 37.9794C216.279 38.4512 217.195 38.4348 218.226 38.1166C218.895 37.9026 219.669 37.9026 220.13 37.9246C220.409 37.941 220.612 37.6448 220.481 37.4034C220.437 37.3157 220.355 37.2224 220.239 37.1456C219.784 36.8494 219.142 36.4873 217.502 36.8768C215.856 37.2663 216.103 37.9794 216.103 37.9794Z" fill="#49476A"/>
<path d="M215.636 40.5797C215.636 40.5797 215.504 41.5123 216.272 43.1142C217.046 44.7106 217.786 45.0946 216.382 45.6048C214.977 46.1149 215.756 45.8736 215.756 45.8736" stroke="#EAB19F" stroke-width="0.3" stroke-miterlimit="10"/>
<path d="M219.322 47.2996C219.322 47.2996 217.907 48.7312 216.096 48.6324C214.182 48.5282 213.677 48.2814 213.677 48.2814" fill="#C89A89"/>
<path d="M219.273 47.2502C219.273 47.2502 217.737 48.0511 215.976 48.1938C214.111 48.3474 213.639 48.287 213.639 48.287" fill="#F0C6B4"/>
<path d="M217.951 48.9838C217.951 48.9838 216.673 48.6601 216.025 49.3568L217.951 48.9838Z" fill="#C89A89"/>
<path d="M213.836 41.5012C213.836 41.5012 212.723 40.2778 211.291 40.7112C210.194 41.0458 209.744 42.0333 209.744 42.0333C209.744 42.0333 210.282 42.922 211.51 42.8836C213.167 42.8288 213.836 41.5012 213.836 41.5012Z" fill="#EAB19F"/>
<path d="M213.732 41.6109C213.732 41.6109 213.518 41.0074 212.586 40.7935C211.851 40.6234 210.951 40.8264 210.337 41.3256C209.755 41.792 209.81 42.0663 209.81 42.0663" stroke="#393D45" stroke-width="0.5" stroke-miterlimit="10"/>
<path d="M213.831 41.4902C213.831 41.4902 212.794 40.4863 211.318 40.9032C210.194 41.2159 209.744 42.0552 209.744 42.0552C209.744 42.0552 210.282 42.7519 211.478 42.6751C213.085 42.5764 213.831 41.4902 213.831 41.4902Z" fill="#F9E4D6"/>
<path d="M210.753 41.9839C210.803 42.4119 211.236 42.7301 211.774 42.6533C212.383 42.571 212.778 42.0388 212.613 41.5505C212.465 41.1116 211.927 40.9196 211.445 41.0732C211.006 41.2049 210.699 41.5999 210.753 41.9839Z" fill="#393D45"/>
<path d="M211.625 41.5122C211.658 41.6823 211.839 41.7811 212.031 41.7317C212.267 41.6878 212.272 41.6329 212.311 41.3311C212.256 41.1665 212.064 41.0787 211.883 41.1391C211.708 41.1885 211.592 41.3531 211.625 41.5122Z" fill="white"/>
<path d="M220.217 40.0694C220.217 40.0694 219.082 39.06 217.814 39.5866C216.844 39.9926 216.525 40.9307 216.525 40.9307C216.525 40.9307 217.101 41.6878 218.22 41.5452C219.729 41.3422 220.217 40.0694 220.217 40.0694Z" fill="#EAB19F"/>
<path d="M220.135 40.1737C220.135 40.1737 219.883 39.6416 219.016 39.5429C218.33 39.4551 217.524 39.7239 217.014 40.2451C216.526 40.7223 216.597 40.9692 216.597 40.9692" stroke="#393D45" stroke-width="0.5" stroke-miterlimit="10"/>
<path d="M220.206 40.0585C220.206 40.0585 219.169 39.2357 217.853 39.7568C216.855 40.1518 216.52 40.9527 216.52 40.9527C216.52 40.9527 217.074 41.5396 218.166 41.3531C219.636 41.1227 220.206 40.0585 220.206 40.0585Z" fill="#F9E4D6"/>
<path d="M217.337 40.7882C217.414 41.1777 217.842 41.4245 218.33 41.2983C218.879 41.1667 219.191 40.6456 218.989 40.2123C218.813 39.8228 218.303 39.7021 217.881 39.8831C217.491 40.0477 217.261 40.4317 217.337 40.7882Z" fill="#393D45"/>
<path d="M217.65 40.3712C217.699 40.5193 217.875 40.596 218.051 40.5357C218.232 40.4809 218.659 40.2341 218.594 40.0805C218.533 39.9379 218.018 39.9489 217.859 40.0092C217.699 40.0641 217.612 40.2341 217.65 40.3712Z" fill="white"/>
<path d="M205.1 47.4312C205.358 47.3197 205.227 46.4377 204.806 45.4611C204.385 44.4846 203.834 43.7834 203.575 43.8949C203.317 44.0064 203.448 44.8884 203.869 45.865C204.29 46.8415 204.841 47.5427 205.1 47.4312Z" fill="#EAB19F"/>
<path d="M157.685 5.43827C169.951 4.97198 175.969 11.4561 178.509 21.4071C181.049 31.3581 181.751 38.5334 195.169 44.3153C208.587 50.0972 197.484 57.7333 205.811 69.9993C214.144 82.2653 212.52 83.4173 212.987 92.4412C213.453 101.465 209.284 110.725 203.963 111.652C198.636 112.579 179.672 113.967 179.672 113.967L141.025 131.785C141.025 131.785 136.165 134.56 133.159 129.009C130.153 123.457 137.328 116.973 131.541 112.118C125.759 107.258 102.615 107.028 101.923 90.3676C101.232 73.7076 122.281 73.9435 125.292 67.9257C128.299 61.9079 115.111 62.3742 116.499 53.8056C117.892 45.2369 134.08 45.2479 135.243 40.6125C136.401 35.9771 129.917 32.746 135.008 26.037C140.098 19.328 139.868 21.4126 142.419 16.7772C144.959 12.1527 143.346 11.9169 147.509 8.91071C151.679 5.90455 157.685 5.43827 157.685 5.43827Z" fill="#3B3169"/>
<path d="M157.619 5.8223C169.885 5.35602 175.903 11.8401 178.443 21.7911C180.983 31.7422 181.685 38.9174 195.103 44.6994C208.521 50.4813 197.418 58.1173 205.745 70.3833C214.078 82.6493 212.454 83.8013 212.921 92.8253C213.387 101.849 209.218 111.109 203.897 112.036C198.57 112.963 179.606 114.351 179.606 114.351L140.959 132.169C140.959 132.169 136.099 134.944 133.093 129.393C130.087 123.841 137.262 117.357 131.475 112.502C125.693 107.642 102.549 107.412 101.857 90.7517C101.166 74.0917 122.215 74.3276 125.226 68.3098C128.233 62.292 115.045 62.7582 116.433 54.1896C117.826 45.621 134.015 45.6319 135.178 40.9965C136.335 36.3611 129.851 33.13 134.942 26.4211C140.032 19.7121 139.802 21.7966 142.353 17.1612C144.893 12.5368 143.28 12.3009 147.444 9.29474C151.613 6.28859 157.619 5.8223 157.619 5.8223Z" fill="#3B3169"/>
<path d="M160.06 19.1306C160.06 19.1306 149.989 19.3391 148.2 24.4188C146.412 29.5095 145.49 33.2288 145.49 33.2288L144.618 32.6748L143.658 38.8626C143.658 38.8626 141.453 35.9772 141.316 39.6855C141.179 43.3938 141.59 46.8443 142.83 46.2902C144.064 45.7362 144.064 45.7362 144.064 45.7362C144.064 45.7362 145.759 50.4978 148.326 53.1638C151.069 56.0054 154.657 57.5633 154.657 57.5633C154.657 57.5633 154.931 64.9909 151.355 66.5105C147.778 68.0245 135.808 68.9845 134.426 70.5041C133.049 72.0181 120.311 92.3151 120.311 92.3151C120.311 92.3151 142.545 84.4048 160.016 82.7536C177.488 81.1024 186.979 75.4576 186.979 75.4576C186.979 75.4576 188.63 72.7093 183.813 70.6412C178.997 68.5731 171.158 69.2643 168.13 65.2707C165.102 61.2771 165.381 57.5688 165.381 57.5688C165.381 57.5688 170.752 52.692 171.712 50.1796C172.672 47.6672 173.363 45.8733 173.363 45.8733C173.363 45.8733 177.357 46.8333 177.357 43.125C177.357 39.4057 176.216 38.8462 175.289 38.8626C173.999 38.8901 172.403 41.205 172.403 41.205C172.403 41.205 173.226 34.7374 169.655 31.1607C166.078 27.595 160.06 19.1306 160.06 19.1306Z" fill="#FFCDB5"/>
<path d="M195.395 77.1252C195.395 77.5586 197.177 93.5494 197.177 93.5494L203.02 98.7169C203.02 98.7169 203.864 93.3738 203.864 88.9579C203.864 84.5419 201.407 68.1342 201.407 68.1342L197.682 69.4398C197.682 69.4398 195.4 76.6918 195.395 77.1252Z" fill="#4956A8"/>
<path d="M201.554 76.7631C201.702 72.4568 202.531 67.9695 202.531 67.9695C202.531 67.9695 226.081 65.2815 227.222 61.8859C228.363 58.4903 225.06 37.716 224.276 34.0406C223.492 30.3652 217.913 27.8692 218.028 26.037C218.143 24.2048 214.259 16.8979 215.735 16.7607C217.21 16.6236 219.021 24.6107 222.532 22.9157C226.042 21.2206 219.663 15.6087 217.688 14.0289C215.718 12.449 217.852 12.4984 219.229 13.1896C220.606 13.8808 217.057 11.0282 215.373 8.75713C212.69 5.14207 218.105 9.65678 220.518 10.7978C222.707 11.8346 209.262 -8.33624 225.439 12.4216C225.439 12.4216 226.909 22.1915 228.966 29.8166C231.023 37.4417 238.544 63.8333 238.703 68.1835C238.857 72.5336 202.037 87.6247 202.037 87.6247C202.037 87.6247 201.412 80.7566 201.554 76.7631Z" fill="#FFCDB5"/>
<path d="M199.376 77.3227C198.954 82.4903 199.102 88.914 199.102 88.914L203.337 87.0379C203.337 87.0379 202.541 79.7913 202.914 76.648C203.408 72.5173 203.002 67.9093 203.002 67.9093L200.874 68.0903C200.868 68.0903 199.788 72.243 199.376 77.3227Z" fill="#E79A7E"/>
<path d="M202.476 98.6785C203.524 100.33 186.716 120.868 186.716 120.868C186.716 120.868 169.661 124.033 157.685 125.13C145.721 126.228 132.512 119.903 132.512 119.903C132.512 119.903 129.478 105.179 126.73 99.4026C124.508 94.7453 117.799 92.5839 115.303 91.2783C114.705 90.9656 114.354 90.7078 114.354 90.4664C114.354 89.2322 132.38 72.7806 132.38 72.7806C132.38 72.7806 145.93 82.4957 159.726 82.1666C187.972 81.4919 184.467 70.4163 184.467 70.4163L200.874 68.0903C200.869 68.0903 195.866 88.2612 202.476 98.6785Z" fill="#5D73D4"/>
<path d="M175.849 42.6257C174.466 43.9423 173.133 44.7596 173.556 43.6022C173.989 42.4502 175.119 40.3492 176.194 41.0184C177.269 41.6767 175.849 42.6257 175.849 42.6257Z" fill="#EBB4A1"/>
<path d="M165.387 57.5743C165.437 57.5853 161.756 59.9441 158.903 59.6589C156.44 59.4175 154.657 57.5688 154.657 57.5688C154.657 57.5688 155.979 62.7967 158.031 62.6431C160.077 62.495 161.887 62.3249 163.572 60.4708C165.25 58.6056 165.387 57.5743 165.387 57.5743Z" fill="#EBB4A1"/>
<path d="M170.492 44.3189C170.564 43.5953 169.301 42.8769 167.67 42.7142C166.039 42.5515 164.658 43.0061 164.586 43.7297C164.514 44.4532 165.777 45.1717 167.408 45.3344C169.039 45.4971 170.42 45.0424 170.492 44.3189Z" fill="#E7A69B"/>
<path d="M151.756 43.9393C151.829 43.2158 150.565 42.4973 148.934 42.3346C147.303 42.1719 145.922 42.6266 145.85 43.3501C145.778 44.0736 147.041 44.7921 148.672 44.9547C150.303 45.1174 151.684 44.6628 151.756 43.9393Z" fill="#E7A69B"/>
<path d="M158.371 36.5751C158.327 39.1424 157.186 42.2474 157.186 42.2474C157.186 42.2474 156.073 44.9518 157.74 45.1438C159.403 45.3194 160.066 45.0506 160.066 45.0506" stroke="#EBB4A1" stroke-width="0.5" stroke-miterlimit="10"/>
<path d="M144.328 33.6347C144.942 32.8283 146.824 31.1552 148.606 31.051C151.267 30.8974 154.997 31.04 154.986 32.0384C154.959 33.1794 154.597 33.8432 153.352 33.4208C152.106 32.9984 151.081 32.757 149.144 32.8667C147.197 32.9819 144.328 33.6347 144.328 33.6347Z" fill="#39384E"/>
<path d="M173.325 34.1888C172.755 33.3056 171.362 32.0274 169.661 31.5941C166.989 30.9138 162.519 30.6889 162.475 31.7147C162.414 32.8887 162.733 33.6073 164.049 33.2617C165.366 32.9161 166.446 32.7515 168.432 33.0203C170.429 33.2836 173.325 34.1888 173.325 34.1888Z" fill="#39384E"/>
<path d="M154.943 38.6597C154.943 38.6597 152.721 39.6087 150.878 39.5648C149.046 39.5154 147.23 38.1221 147.46 37.5241C147.696 36.9317 147.652 37.0907 149.364 36.6738C151.075 36.2405 151.767 36.3886 153.089 36.9865C154.416 37.579 154.943 38.6597 154.943 38.6597Z" fill="#F9E6D3"/>
<path d="M155.189 38.8406C155.189 38.8406 154.098 36.6189 151.722 36.1197C149.226 35.6041 148.244 36.9974 146.346 36.4598C144.448 35.9222 144.443 35.9277 144.443 35.9277C144.443 35.9277 147.027 37.557 147.476 37.5295C148.524 37.4637 149.078 36.8109 150.856 36.8713C152.628 36.9152 155.189 38.8406 155.189 38.8406Z" fill="#06070D"/>
<path d="M152.575 38.1647C152.75 37.3285 152.133 36.4915 151.195 36.2954C150.258 36.0992 149.357 36.6181 149.182 37.4543C149.007 38.2906 149.624 39.1275 150.561 39.3237C151.499 39.5199 152.4 39.001 152.575 38.1647Z" fill="#06070D"/>
<path d="M152.01 37.6785C152.073 37.4506 151.919 37.2101 151.668 37.1414C151.417 37.0727 151.162 37.2018 151.1 37.4298C151.038 37.6577 151.191 37.8982 151.442 37.9669C151.694 38.0356 151.948 37.9065 152.01 37.6785Z" fill="#FBF2F7"/>
<path d="M164.636 36.992C165.958 36.3885 166.65 36.2459 168.361 36.6793C170.073 37.0962 170.029 36.9316 170.265 37.5296C170.501 38.1221 168.685 39.521 166.847 39.5704C165.004 39.6197 162.782 38.6652 162.782 38.6652C162.782 38.6652 163.314 37.579 164.636 36.992Z" fill="#F9E6D3"/>
<path d="M166.874 36.8713C168.657 36.8109 169.211 37.4582 170.253 37.5295C170.703 37.557 173.287 35.9277 173.287 35.9277C173.287 35.9277 173.287 35.9277 171.383 36.4598C169.48 36.9919 168.503 35.6041 166.007 36.1197C163.632 36.6189 162.541 38.8406 162.541 38.8406C162.541 38.8406 165.102 36.9151 166.874 36.8713Z" fill="#06070D"/>
<path d="M167.167 39.3444C168.104 39.1482 168.721 38.3113 168.546 37.4751C168.371 36.6388 167.47 36.1199 166.533 36.3161C165.596 36.5122 164.978 37.3492 165.153 38.1854C165.328 39.0217 166.23 39.5406 167.167 39.3444Z" fill="#06070D"/>
<path d="M166.279 37.9599C166.53 37.8912 166.683 37.6507 166.621 37.4228C166.559 37.1948 166.304 37.0657 166.053 37.1344C165.802 37.2031 165.649 37.4436 165.711 37.6715C165.773 37.8995 166.027 38.0286 166.279 37.9599Z" fill="#FBF2F7"/>
<path d="M152.973 50.0479C152.973 50.0479 156.04 50.9365 159.413 50.8432C162.787 50.739 166.32 50.1521 166.32 50.1521C166.32 50.1521 161.871 53.9864 158.826 53.778C155.776 53.564 152.973 50.0479 152.973 50.0479Z" fill="#BA564C"/>
<path opacity="0.94" d="M154.421 50.7117C154.421 50.7117 155.6 51.4028 158.974 51.4028C162.348 51.4028 163.461 51.0298 163.461 51.0298C163.461 51.0298 161.678 52.6864 159.144 52.5986C156.621 52.5163 154.421 50.7117 154.421 50.7117Z" fill="white"/>
</svg>
