<svg width="248" height="234" viewBox="0 0 248 234" fill="none" xmlns="http://www.w3.org/2000/svg">
<path d="M27.6238 53.8242C54.6765 25.295 88.8807 16.59 115.933 15.657C142.986 14.724 142.986 34.2212 142.986 34.2212L136.147 80.0929L126.504 108.252L122.325 144.385L215.747 154.956C215.747 154.956 225.077 147.804 230.671 159.308C236.269 170.812 239.376 184.182 235.643 196.311C231.911 208.436 219.162 229.895 185.583 232.069C151.999 234.248 100.385 232.689 71.7786 232.069C43.1725 231.449 9.58864 228.957 1.8167 194.758C-5.95524 160.559 13.7247 154.782 13.7247 154.782C13.7247 154.782 -3.53613 143.625 3.67793 104.895C9.58864 73.1771 27.6238 53.8242 27.6238 53.8242Z" fill="#EDE4FA"/>
<mask id="mask0" mask-type="alpha" maskUnits="userSpaceOnUse" x="0" y="15" width="238" height="219">
<path d="M27.6238 53.8242C54.6765 25.295 88.8807 16.59 115.933 15.657C142.986 14.724 142.986 34.2212 142.986 34.2212L136.147 80.0929L126.504 108.252L122.325 144.385L215.747 154.956C215.747 154.956 225.077 147.804 230.671 159.308C236.269 170.812 239.376 184.182 235.643 196.311C231.911 208.436 219.162 229.895 185.583 232.069C151.999 234.248 100.385 232.689 71.7786 232.069C43.1725 231.449 9.58864 228.957 1.8167 194.758C-5.95524 160.559 13.7247 154.782 13.7247 154.782C13.7247 154.782 -3.53613 143.625 3.67793 104.895C9.58864 73.1771 27.6238 53.8242 27.6238 53.8242Z" fill="#EDE4FA"/>
</mask>
<g mask="url(#mask0)">
<path d="M240.991 185.178H-5.58496V238.85H240.991V185.178Z" fill="#E1CDF8"/>
</g>
<path d="M22.3914 205.189C22.3914 213.789 25.5848 216.491 30.2547 216.491C34.9246 216.491 41.5567 216.491 41.5567 216.491C41.5567 216.491 38.8057 225.581 46.5681 225.826C54.3304 226.072 138.591 227.548 147.926 224.845C157.261 222.142 152.1 217.723 152.1 217.723L223.587 216.987C223.587 216.987 228.747 212.317 231.94 205.194C235.134 198.072 235.134 198.072 235.134 198.072C235.134 198.072 41.5567 197.336 31.7263 198.072C21.896 198.807 22.3914 205.189 22.3914 205.189Z" fill="#AC9BC0"/>
<path d="M131.79 19.0767C132.723 18.7641 124.018 165.219 124.018 165.219H233.782V21.1351L131.79 19.0767Z" fill="#F6FDFF"/>
<path d="M160.06 21.1351V161.891" stroke="#7581B9" stroke-width="0.5" stroke-miterlimit="10"/>
<path d="M189.714 28.2241V168.985" stroke="#7581B9" stroke-width="0.5" stroke-miterlimit="10"/>
<path d="M222.317 65.7083H147.166" stroke="#7581B9" stroke-width="0.5" stroke-miterlimit="10"/>
<path d="M197.635 112.383H122.484" stroke="#7581B9" stroke-width="0.5" stroke-miterlimit="10"/>
<path d="M147.026 0.416102C153.245 4.45597 153.245 36.8567 151.999 67.6078C150.753 98.3589 150.133 107.689 138.629 137.541C127.125 167.393 107.536 172.491 107.536 172.491C107.536 172.491 99.1392 159.928 99.7645 158.995C100.385 158.062 114.688 115.706 115.934 88.3747C117.179 61.0478 115.934 25.2854 115.313 12.8483C114.693 0.411293 119.978 1.34431 130.549 0.411294C141.115 -0.516914 147.026 0.416102 147.026 0.416102Z" fill="#8A9AE0"/>
<path d="M122.325 5.39392C122.772 8.19297 127.125 38.1024 125.259 67.6127C123.393 97.123 120.594 128.235 119.04 131.024C117.487 133.814 130.237 79.1264 128.991 51.9005C127.745 24.6747 122.325 5.39392 122.325 5.39392Z" fill="#7683C0"/>
<path d="M136.455 2.28226C139.567 2.28226 141.12 31.5473 138.942 51.8957C136.763 72.2442 129.078 111.113 129.078 111.113C129.078 111.113 136.455 68.5794 135.835 46.4707C135.214 24.3621 133.824 12.8581 134.517 8.81338C135.21 4.7687 136.455 2.28226 136.455 2.28226Z" fill="#7683C0"/>
<path d="M131.169 125.498C131.169 125.498 145.16 77.7894 146.406 62.2695C147.651 46.7497 143.606 3.84048 143.606 3.84048C143.606 3.84048 145.136 49.8325 144.227 62.2695C143.318 74.7306 131.169 125.498 131.169 125.498Z" fill="#7683C0"/>
<path fill-rule="evenodd" clip-rule="evenodd" d="M207.112 119.232C207.112 119.232 199.565 119.051 193.423 111.943C192.334 110.682 191.506 109.204 190.871 107.628C187.945 100.299 189.334 90.7871 189.334 90.7871C189.334 90.7871 193.272 94.4148 199.041 99.2217C199.774 99.8359 200.544 100.471 201.339 101.117C208.333 106.829 207.112 119.232 207.112 119.232Z" fill="#006C46"/>
<path fill-rule="evenodd" clip-rule="evenodd" d="M199.04 99.2177C198.671 99.0949 198.294 98.9966 197.905 98.927C197.167 98.796 196.377 98.7673 195.733 98.4029C195.168 98.0836 194.787 97.5513 194.377 97.064C193.283 95.7497 191.89 94.6606 190.317 93.8949C191.104 94.9062 190.087 96.2738 190.03 97.5226C189.985 98.3988 190.436 99.2259 190.608 100.086C190.813 101.093 190.641 102.125 190.563 103.148C190.456 104.643 190.559 106.154 190.866 107.624C187.941 100.295 189.33 90.7831 189.33 90.7831C189.33 90.7831 193.271 94.4108 199.04 99.2177Z" fill="#008C4F"/>
<path fill-rule="evenodd" clip-rule="evenodd" d="M191.234 96.5275C191.234 96.5275 193.934 108.668 206.079 118.163C206.079 118.163 192.394 109.351 191.234 96.5275Z" fill="#093A32"/>
<path fill-rule="evenodd" clip-rule="evenodd" d="M190.625 102.722L194.218 104.97L195.525 99.7622L193.82 104.123L190.625 102.722Z" fill="#093A32"/>
<path fill-rule="evenodd" clip-rule="evenodd" d="M192.694 107.386L197.033 109.454L198.721 102.747L196.639 108.61L192.694 107.386Z" fill="#093A32"/>
<path fill-rule="evenodd" clip-rule="evenodd" d="M196.074 111.735L200.565 113.491L201.716 106.686L200.102 112.676L196.074 111.735Z" fill="#093A32"/>
<path fill-rule="evenodd" clip-rule="evenodd" d="M239.27 97.7805C239.18 97.9607 236.095 103.812 232.526 111.714C231.497 114.003 229.711 115.854 227.683 117.336C222.602 121.066 216.002 122.454 216.002 122.454C216.002 122.454 213.871 115.628 219.161 107.939C219.906 106.854 220.845 105.871 221.906 104.983L221.91 104.979C228.285 99.6435 239.073 97.8092 239.27 97.7805Z" fill="#00936B"/>
<path fill-rule="evenodd" clip-rule="evenodd" d="M239.271 97.7805C239.181 97.9607 236.095 103.812 232.527 111.714C231.498 114.003 229.712 115.854 227.684 117.336C228.63 116.48 229.425 115.497 229.962 114.339C230.634 112.885 230.843 111.272 231.511 109.822C232.334 108.021 233.838 106.535 234.543 104.692C235.182 103.005 235.19 100.966 236.591 99.7622C234.207 100.192 231.744 100.655 229.753 101.965C229.097 102.395 228.503 102.911 227.782 103.234C226.844 103.648 225.783 103.701 224.771 103.906C223.759 104.111 222.792 104.483 221.903 104.987C228.286 99.6435 239.074 97.8092 239.271 97.7805Z" fill="#00A679"/>
<path fill-rule="evenodd" clip-rule="evenodd" d="M236.96 100.122C236.96 100.122 223.611 106.616 216.765 121.197C216.765 121.201 222.247 105.384 236.96 100.122Z" fill="#093A32"/>
<path fill-rule="evenodd" clip-rule="evenodd" d="M229.433 101.556L228.073 105.683L234.681 105.236L228.925 105.036L229.433 101.556Z" fill="#093A32"/>
<path fill-rule="evenodd" clip-rule="evenodd" d="M224.672 105.028L223.791 109.806L232.305 109.233L224.643 109.159L224.672 105.028Z" fill="#093A32"/>
<path fill-rule="evenodd" clip-rule="evenodd" d="M220.759 109.634L220.296 114.457L228.736 113.348L221.091 113.761L220.759 109.634Z" fill="#093A32"/>
<path fill-rule="evenodd" clip-rule="evenodd" d="M210.315 172.243H209.594C209.594 172.243 208.849 155.66 206.64 151.242C204.997 147.946 202.273 142.202 200.986 139.482C199.527 138.844 196.438 137.194 193.734 133.771C192.718 132.485 191.759 130.95 190.956 129.124C187.244 120.652 193.5 107.755 193.5 107.755C193.5 107.755 196.889 113.528 201.842 120.898C202.957 122.56 203.571 124.436 203.854 126.34C204.649 131.761 202.748 137.448 202.068 139.233C203.26 141.686 205.931 147.262 207.898 152.037C210.512 158.367 210.315 172.243 210.315 172.243Z" fill="#00936B"/>
<path fill-rule="evenodd" clip-rule="evenodd" d="M203.855 126.34C203.302 124.382 202.511 122.511 201.175 120.951C200.069 119.661 198.647 118.65 197.455 117.438C195.611 115.559 194.333 113.188 193.817 110.674C192.301 113.999 190.756 117.545 191.358 121.115C191.547 122.233 191.94 123.359 191.703 124.468C191.551 125.181 191.137 125.856 191.19 126.581C191.26 127.593 192.182 128.334 192.727 129.21C193.571 130.561 193.497 132.215 193.739 133.775C192.723 132.49 191.764 130.954 190.961 129.128C187.249 120.656 193.505 107.759 193.505 107.759C193.505 107.759 196.894 113.532 201.847 120.902C202.962 122.556 203.572 124.432 203.855 126.34Z" fill="#00A679"/>
<path fill-rule="evenodd" clip-rule="evenodd" d="M193.857 112.361C193.857 112.361 192.812 125.377 201.801 138.349C201.801 138.349 191.095 125.639 193.857 112.361Z" fill="#207062"/>
<path fill-rule="evenodd" clip-rule="evenodd" d="M191.378 118.449L194.21 121.717L197.069 116.824L194.078 120.755L191.378 118.449Z" fill="#207062"/>
<path fill-rule="evenodd" clip-rule="evenodd" d="M191.985 123.735L195.599 127.031L199.286 120.73L195.472 126.069L191.985 123.735Z" fill="#207062"/>
<path fill-rule="evenodd" clip-rule="evenodd" d="M193.968 129.066L197.823 132.092L201.023 125.541L197.622 131.142L193.968 129.066Z" fill="#207062"/>
<path fill-rule="evenodd" clip-rule="evenodd" d="M222.779 69.1272C222.664 75.1871 210.426 89.0224 211.831 97.068C213.241 105.114 212.593 153.347 212.593 153.347L211.548 150.763C211.548 150.763 211.491 106.117 210.459 97.4079L209.848 95.1109L209.524 93.9112C209.524 93.9112 202.94 78.692 206.882 68.1241C210.696 57.8797 220.378 52.3521 220.98 52.0164L221.009 52C221.013 51.9959 222.894 63.0674 222.779 69.1272Z" fill="#006C46"/>
<path fill-rule="evenodd" clip-rule="evenodd" d="M219.587 55.5335C219.587 55.5335 208.84 71.6166 210.909 94.6154C210.909 94.6154 206.463 70.765 219.587 55.5335Z" fill="#093A32"/>
<path fill-rule="evenodd" clip-rule="evenodd" d="M212.024 61.6712L213.266 67.858L220.456 63.5301L213.799 66.5273L212.024 61.6712Z" fill="#093A32"/>
<path fill-rule="evenodd" clip-rule="evenodd" d="M208.972 68.9226L211.197 75.6908L220.457 70.1141L211.726 74.36L208.972 68.9226Z" fill="#093A32"/>
<path fill-rule="evenodd" clip-rule="evenodd" d="M207.644 77.1851L210.369 83.7732L219.182 77.5332L210.799 82.4056L207.644 77.1851Z" fill="#093A32"/>
<path fill-rule="evenodd" clip-rule="evenodd" d="M207.722 70.5972C205.211 79.3307 210.246 95.1805 210.246 95.1805L209.853 95.1027L209.529 93.903C209.529 93.903 202.945 78.6838 206.886 68.1159C210.701 57.8715 220.383 52.344 220.985 52.0082C215.261 56.3156 210.226 61.8759 207.722 70.5972Z" fill="#008C4F"/>
<path fill-rule="evenodd" clip-rule="evenodd" d="M242.774 65.2989C242.774 65.2989 240.819 76.354 238.668 82.0658C236.521 87.7776 220.247 97.2359 218.866 105.282C217.49 113.331 212.987 157.224 212.987 157.224L212.077 156.688C212.077 156.688 215.502 113.753 217.457 105.187L217.752 101.592C217.752 101.592 217.621 99.5943 217.752 96.6176C217.998 91.0655 219.19 82.1108 223.943 76.3499C231.24 67.5099 242.774 65.2989 242.774 65.2989Z" fill="#006C46"/>
<path fill-rule="evenodd" clip-rule="evenodd" d="M238.844 69.0535C238.844 69.0535 224.693 79.9858 219.592 100.769C219.592 100.769 222.886 78.5363 238.844 69.0535Z" fill="#093A32"/>
<path fill-rule="evenodd" clip-rule="evenodd" d="M230.442 72.2064L229.663 78.0001L237.202 76.3213L230.524 76.9846L230.442 72.2064Z" fill="#093A32"/>
<path fill-rule="evenodd" clip-rule="evenodd" d="M225.619 77.6643L225.517 84.2564L235.227 82.0945L226.377 83.2451L225.619 77.6643Z" fill="#093A32"/>
<path fill-rule="evenodd" clip-rule="evenodd" d="M221.984 84.5184L222.374 91.0982L231.896 88.228L223.156 90.0255L221.984 84.5184Z" fill="#093A32"/>
<path fill-rule="evenodd" clip-rule="evenodd" d="M242.774 65.2989C242.774 65.2989 229.486 71.2318 224.197 78.5937C218.903 85.9596 217.748 101.597 217.748 101.597V96.6217C217.994 91.0696 219.186 82.1149 223.939 76.354C231.24 67.5099 242.774 65.2989 242.774 65.2989Z" fill="#008C4F"/>
<path fill-rule="evenodd" clip-rule="evenodd" d="M234.952 155.419C221.132 155.603 219.894 147.066 219.894 147.066C214.093 154.252 214.093 172.251 214.093 172.251H212.921C213.294 154.166 218.452 146.104 221.14 143.827L221.144 143.823C221.23 143.753 221.312 143.684 221.39 143.626C224 141.661 228.695 141.293 231.559 145.473C232.006 146.124 232.399 146.82 232.739 147.52L232.751 147.549C234.583 151.328 234.952 155.419 234.952 155.419Z" fill="#00936B"/>
<path fill-rule="evenodd" clip-rule="evenodd" d="M221.895 144.654C221.895 144.654 229.376 142.034 233.789 154.235C233.789 154.235 229.819 144.327 221.895 144.654Z" fill="#093A32"/>
<path fill-rule="evenodd" clip-rule="evenodd" d="M225.217 144.896L228.925 144.024L225.918 145.17C225.918 145.17 227.356 148.392 227.421 152.34C227.425 152.335 226.274 147.123 225.217 144.896Z" fill="#093A32"/>
<path fill-rule="evenodd" clip-rule="evenodd" d="M232.269 148.933L230.462 148.573C230.462 148.573 230.909 151.918 230.909 153.15C230.909 153.15 231.085 150.137 230.86 148.916L232.269 148.933Z" fill="#093A32"/>
<path fill-rule="evenodd" clip-rule="evenodd" d="M232.744 147.516C229.015 140.486 221.382 143.721 221.149 143.819C221.235 143.749 221.317 143.68 221.395 143.622C224.004 141.657 228.7 141.288 231.564 145.469C232.006 146.12 232.4 146.812 232.744 147.516Z" fill="#00A679"/>
<path fill-rule="evenodd" clip-rule="evenodd" d="M209.594 172.247H208.603C208.603 172.247 208.603 157.015 203.694 150.939C203.694 150.939 202.645 158.162 190.956 158.006L190.96 157.965C191.009 157.486 191.525 152.933 193.824 149.584C196.245 146.055 200.22 146.362 202.428 148.028C204.632 149.69 209.266 156.446 209.594 172.247Z" fill="#00936B"/>
<path fill-rule="evenodd" clip-rule="evenodd" d="M202.67 148.757C202.67 148.757 195.815 146.357 191.775 157.535C191.775 157.535 195.413 148.458 202.67 148.757Z" fill="#207062"/>
<path fill-rule="evenodd" clip-rule="evenodd" d="M199.626 148.978L196.229 148.18L198.983 149.228C198.983 149.228 197.668 152.18 197.606 155.795C197.606 155.795 198.659 151.021 199.626 148.978Z" fill="#207062"/>
<path fill-rule="evenodd" clip-rule="evenodd" d="M193.169 152.675L194.824 152.344C194.824 152.344 194.415 155.406 194.415 156.54C194.415 156.54 194.255 153.781 194.46 152.663L193.169 152.675Z" fill="#207062"/>
<path fill-rule="evenodd" clip-rule="evenodd" d="M202.429 148.028C202.429 148.028 198.11 146.669 195.033 149.232C192.108 151.672 191.055 157.429 190.961 157.965C191.01 157.486 191.526 152.933 193.825 149.584C196.25 146.055 200.225 146.362 202.429 148.028Z" fill="#00A679"/>
<path fill-rule="evenodd" clip-rule="evenodd" d="M209.238 126.733L208.943 129.124C208.943 129.124 212.918 151.054 211.422 172.247H212.987C212.987 172.247 212.856 143.135 210.021 127.38L209.238 126.733Z" fill="#006C46"/>
<path fill-rule="evenodd" clip-rule="evenodd" d="M218.718 118.626C218.493 120.304 217.989 121.729 217.317 122.929C215.375 126.417 212.072 128.051 210.249 128.719C209.606 128.956 209.151 129.071 208.999 129.103L208.975 129.112L208.946 129.124L208.917 129.03L208.909 129.021C200.342 107.001 198.588 86.3733 198.588 86.3733L198.592 86.3856C198.621 86.4306 198.732 86.6149 198.904 86.9015L198.912 86.9302C199.35 87.6426 200.166 88.9815 201.198 90.6029C203.952 94.9758 208.188 101.437 210.327 103.329C213.633 106.285 219.902 109.966 218.718 118.626Z" fill="#00936B"/>
<path fill-rule="evenodd" clip-rule="evenodd" d="M218.719 118.626C218.493 120.304 217.99 121.729 217.318 122.929C217.563 122.163 217.764 121.389 217.92 120.603C218.153 119.416 218.28 118.2 218.125 117C217.928 115.497 217.301 114.081 216.674 112.693C216.31 111.874 215.933 111.038 215.302 110.379C214.675 109.72 213.814 109.257 213.302 108.512C212.827 107.828 212.696 106.96 212.143 106.33C211.659 105.781 210.938 105.486 210.324 105.077C208.48 103.849 207.706 101.674 206.554 99.8482C206.026 99.0129 205.403 98.2309 204.825 97.4243C203.305 95.3074 202.08 93.0104 201.191 90.5987C203.944 94.9717 208.181 101.433 210.32 103.324C213.634 106.285 219.903 109.966 218.719 118.626Z" fill="#00A679"/>
<path fill-rule="evenodd" clip-rule="evenodd" d="M209.926 124.771C212.958 120.853 215.412 116.537 217.198 111.992C215.842 116.824 213.372 121.373 210.008 125.234C209.959 125.058 209.852 124.866 209.926 124.771Z" fill="#093A32"/>
<path fill-rule="evenodd" clip-rule="evenodd" d="M206.325 115.346C207.944 111.513 208.98 107.464 209.398 103.357C209.181 107.673 208.259 111.956 206.682 116.013C206.551 115.755 206.419 115.501 206.325 115.346Z" fill="#093A32"/>
<path fill-rule="evenodd" clip-rule="evenodd" d="M201.466 101.425C202.298 99.1521 202.945 96.8223 203.408 94.4557C203.195 97.023 202.613 99.5656 201.679 101.985C201.605 101.756 201.528 101.527 201.466 101.425Z" fill="#093A32"/>
<path fill-rule="evenodd" clip-rule="evenodd" d="M210.221 128.542C209.84 128.743 209.435 128.931 209.004 129.107L208.976 129.116L208.947 129.124L208.914 129.03L208.91 129.021C200.339 107.001 198.585 86.3773 198.585 86.3773L198.589 86.3896C198.618 86.4346 198.729 86.6189 198.901 86.9055L198.909 86.9342C199.065 87.5483 203.109 108.377 207.718 114.412C211.196 118.965 217.187 124.878 210.221 128.542Z" fill="#1CAC7F"/>
<path fill-rule="evenodd" clip-rule="evenodd" d="M205.661 119.797C205.694 119.715 205.739 119.633 205.784 119.551C206.337 118.56 207.279 117.77 208.381 117.364C207.247 118.22 206.394 119.399 205.952 120.701" fill="#093A32"/>
<path fill-rule="evenodd" clip-rule="evenodd" d="M202.735 109.454C203.022 108.905 203.383 108.344 203.772 108.041C203.362 108.909 203.129 109.839 203.071 110.785L202.735 109.454Z" fill="#093A32"/>
<path fill-rule="evenodd" clip-rule="evenodd" d="M200.282 98.0875C200.45 97.8254 200.683 97.6125 200.962 97.4692C200.716 97.8787 200.528 98.3209 200.405 98.7795L200.282 98.0875Z" fill="#093A32"/>
<path fill-rule="evenodd" clip-rule="evenodd" d="M247.686 133.333L247.674 133.325C247.293 133.128 240.827 129.824 231.785 131.621C229.324 132.109 227.408 132.063 225.827 132.017C221.419 131.89 219.603 131.762 215.801 143.176C210.635 158.694 215.023 175.502 215.023 175.502L213.863 175.686C208.451 149.76 218.46 133.98 218.46 133.98C216.723 128.649 223.852 126.397 233.305 126.774C242.605 127.142 247.538 133.145 247.686 133.333Z" fill="#00936B"/>
<path fill-rule="evenodd" clip-rule="evenodd" d="M247.686 133.333L247.673 133.325C247.374 133.05 241.446 127.76 232.6 128.076C223.516 128.399 218.735 129.64 218.456 133.98C216.719 128.649 223.848 126.397 233.3 126.774C242.605 127.142 247.538 133.145 247.686 133.333Z" fill="#00A679"/>
<path fill-rule="evenodd" clip-rule="evenodd" d="M229.285 194.046H229.281C229.281 194.045 229.281 194.043 229.281 194.042C229.203 192.597 228.957 191.127 228.58 189.64C228.51 189.359 228.434 189.078 228.354 188.795C228.241 188.391 228.118 187.985 227.986 187.577C228.211 188.269 228.412 188.961 228.584 189.644C228.961 191.131 229.207 192.601 229.285 194.046Z" fill="#EED7B4"/>
<path fill-rule="evenodd" clip-rule="evenodd" d="M227.986 187.577H227.984C227.983 187.575 227.982 187.574 227.982 187.573C226.245 182.21 223.071 176.557 220.15 170.621H220.152C223.074 176.558 226.249 182.213 227.986 187.577Z" fill="#EED7B4"/>
<path d="M108.998 38.1119H74.7026V75.3317H108.998V38.1119Z" fill="#FFDD73"/>
<path d="M101.265 45.6771H82.1812V66.4824H101.265V45.6771Z" fill="white"/>
<path d="M202.469 168.86C205.931 169.192 212.992 169.725 217.786 168.86C222.581 167.994 223.942 167.095 223.942 167.095C223.942 167.095 225.895 178.358 225.895 183.764C225.895 189.17 226.645 201.183 224.77 204.564C222.894 207.945 222.769 210.345 210.702 209.97C198.636 209.595 198.034 206.44 197.361 194.503C196.683 182.566 196.308 171.75 197.361 169.725C198.414 167.696 202.469 168.86 202.469 168.86Z" fill="#AC7F6A"/>
<path d="M219.936 168.422C220.013 169.288 222.62 178.339 221.24 188.554C219.922 198.341 214.155 204.117 209.74 204.867C205.321 205.618 198.842 204.92 198.842 204.92C198.842 204.92 199.992 208.321 202.166 208.922C204.339 209.523 216.709 210.797 220.513 209.22C224.318 207.642 225.693 203.805 226.044 197.73C226.472 190.372 224.991 166.493 224.991 166.493L219.936 168.422Z" fill="#8A6352"/>
<path d="M205.325 174.453C209.683 174.227 209.082 179.031 209.303 184.966C209.529 190.896 210.053 191.978 206.6 191.978C203.147 191.978 204.176 189.396 203.584 183.389C202.993 177.382 202.897 175.881 203.584 175.131C204.272 174.376 205.325 174.453 205.325 174.453Z" fill="#AC7F6A"/>
<path d="M40.6477 61.9087V207.599" stroke="#482B73" stroke-miterlimit="10"/>
<path d="M37.8726 198.245C38.392 198.177 44.649 198.245 44.649 198.245V201.371H46.9286V204.367H51.2907V209.71H28.3596V204.761L36.5692 204.632L35.92 201.506L38.3968 201.308L37.8726 198.245Z" fill="#482B73"/>
<path d="M23.6031 95.7138H59.6349L67.6329 139.417L16.9084 138.695L23.6031 95.7138Z" fill="url(#paint0_linear)"/>
<path d="M27.5614 65.8187H55.3403L59.6351 96.1658H23.6033L27.5614 65.8187Z" fill="url(#paint1_linear)"/>
<path d="M46.5631 163.915C47.448 130.505 58.0094 116.351 64.4011 116.428C70.7879 116.505 96.09 104.957 98.7929 136.892C101.496 168.826 133.43 181.643 133.43 181.643C133.43 181.643 171.996 162.203 174.944 174.357C177.893 186.51 174.944 194.864 168.067 199.779C161.19 204.694 139.326 215.01 105.18 216.482C71.0332 217.954 53.8349 211.822 49.9056 196.836C45.9716 181.85 46.5631 163.915 46.5631 163.915Z" fill="#583D80"/>
<path d="M81.5704 79.9438C86.3413 77.2458 89.3472 80.1074 92.1462 80.7326C94.9453 81.353 97.9415 81.7858 101.573 85.0033C105.204 88.2208 104.79 96.238 106.555 99.5613C108.32 102.885 111.249 103.995 115.606 106.487C119.964 108.978 122.325 118.342 122.325 118.342C122.325 118.342 127.341 127.35 127.649 130.154C127.962 132.953 125.11 133.414 126.605 138.748C131.694 156.918 116.871 152.777 112.37 154.051C107.541 155.417 122.657 156.61 122.344 158.688C122.032 160.76 122.551 166.262 116.429 168.542C110.306 170.822 101.375 167.912 96.9893 169.595C94.5509 170.528 103.145 173.904 81.9937 170.071C76.9246 169.153 69.3739 167.811 70.7205 162.001C72.0671 156.192 68.5226 153.07 61.4673 150.372C54.4119 147.674 49.6939 143.649 49.4823 138.152C49.2755 132.655 52.3102 130.774 58.2258 127.143C64.1413 123.512 66.1564 120.545 62.3185 117.433C58.4807 114.321 57.6438 112.566 64.0788 108.723C70.5089 104.885 70.884 103.798 71.9228 101.826C72.9617 99.8546 69.018 97.3634 69.85 94.2517C70.682 91.14 76.0733 88.442 77.1122 85.3303C78.1462 82.2283 81.5704 79.9438 81.5704 79.9438Z" fill="#3E356A"/>
<path d="M82.3544 106.395C83.3115 107.492 84.2012 106.862 84.2012 106.862C84.2012 106.862 84.5908 109.497 86.3991 110.714C88.2026 111.936 88.9384 112.571 88.9384 112.571C88.9384 112.571 88.8711 114.042 88.7605 115.427C88.6739 116.519 89.0972 117.279 85.0813 120.766C81.3829 123.974 77.5306 124.907 77.2421 126.763C76.9487 128.619 76.9198 131.197 76.9198 131.197C76.9198 131.197 75.0346 134.088 76.7419 133.549C78.4492 133.01 96.3064 131.01 96.3064 131.01L100.606 129.846L102.852 127.768C103.415 127.206 106.334 125.859 104.478 125.638C104.429 125.633 104.814 124.233 103.242 122.271C101.351 119.91 96.9124 119.294 96.2583 117.543C95.609 115.817 95.6187 113.855 95.6187 113.855C95.6187 113.855 97.0663 113.35 99.0333 110.709C100.409 108.863 101.404 106.684 101.501 103.414C101.597 100.143 102.693 97.3441 101.231 95.1463C99.7691 92.9484 99.1343 91.4863 95.9601 90.0243C92.7907 88.5622 92.3002 87.9755 90.8862 89.6347C89.4723 91.2939 87.1301 94.6605 86.5434 96.2716C85.9566 97.8828 83.802 98.8158 83.8982 100.23C83.9944 101.644 84.105 102.759 84.105 102.759C84.105 102.759 83.9223 102.327 82.6478 101.201C82.2101 100.817 80.1902 100.196 80.0796 102.341C79.993 104.01 81.6042 105.539 82.3544 106.395Z" fill="#FFC9B1"/>
<path d="M81.8159 103.885C82.9941 105.256 84.1724 106.145 83.8743 105.025C83.5761 103.904 82.7104 101.817 81.6379 102.341C80.5654 102.86 81.8159 103.885 81.8159 103.885Z" fill="#EBB4A1"/>
<path d="M88.5972 112.335C88.5636 112.335 91.2183 114.485 93.0315 114.485C94.5993 114.485 95.8979 113.566 95.8979 113.566C95.8979 113.566 94.6763 116.644 93.397 116.423C92.1177 116.202 90.9923 115.98 90.0449 114.701C89.0974 113.422 88.5972 112.335 88.5972 112.335Z" fill="#EBB4A1"/>
<path d="M88.496 105.304C89.5319 105.304 90.3717 104.931 90.3717 104.472C90.3717 104.012 89.5319 103.64 88.496 103.64C87.4601 103.64 86.6204 104.012 86.6204 104.472C86.6204 104.931 87.4601 105.304 88.496 105.304Z" fill="#FFA392"/>
<path d="M99.4547 104.419C100.365 104.335 101.068 103.896 101.026 103.438C100.983 102.981 100.212 102.678 99.3018 102.762C98.3919 102.846 97.6885 103.285 97.7307 103.742C97.773 104.2 98.5448 104.503 99.4547 104.419Z" fill="#FFA392"/>
<path d="M94.6279 100.475C94.7193 102.105 95.5176 104.039 95.5176 104.039C95.5176 104.039 96.2871 105.732 95.2387 105.881C94.1902 106.03 93.7622 105.881 93.7622 105.881" stroke="#EEA990" stroke-width="0.2" stroke-miterlimit="10"/>
<path d="M103.145 97.1758C102.655 96.6419 101.207 95.5743 99.9183 95.6175C98.009 95.6801 95.3686 96.0456 95.4552 96.7574C95.5562 97.5702 95.8592 98.0222 96.7153 97.6327C97.5761 97.2479 98.2879 96.9978 99.673 96.9497C101.058 96.9016 103.145 97.1758 103.145 97.1758Z" fill="#2D254D"/>
<path d="M84.5188 97.8539C84.9949 97.2527 86.1059 96.4207 87.3756 96.2283C89.3666 95.9205 92.6322 96.0841 92.5937 96.8391C92.5504 97.7 92.2619 98.2002 91.3289 97.8587C90.3959 97.5172 89.6215 97.3105 88.1595 97.3585C86.6974 97.4066 84.5188 97.8539 84.5188 97.8539Z" fill="#2D254D"/>
<path opacity="0.73" d="M91.045 108.531C91.045 108.531 90.7949 108.492 91.0353 108.843C91.2758 109.194 92.2281 110.902 94.1133 110.825C96.0034 110.753 97.0951 108.863 97.0903 108.473C97.0855 108.242 95.2147 108.733 93.8729 108.67C92.5359 108.603 91.045 108.531 91.045 108.531Z" fill="#FFA896"/>
<path d="M92.4058 109.141C92.4058 109.141 92.2711 109.122 92.401 109.276C92.5308 109.425 93.0502 110.156 94.0746 110.132C95.099 110.108 95.681 109.305 95.681 109.141C95.6762 109.04 94.6662 109.247 93.94 109.214C93.2138 109.18 92.4058 109.141 92.4058 109.141Z" fill="#FFF3E8"/>
<path d="M96.7876 101.052C96.7876 101.052 98.1438 101.74 99.2548 101.692C100.366 101.644 101.453 100.615 101.304 100.182C101.155 99.7489 101.183 99.8691 100.145 99.5661C99.1057 99.2632 98.6825 99.3738 97.8889 99.8114C97.1002 100.259 96.7876 101.052 96.7876 101.052Z" fill="#FFF3E8"/>
<path d="M96.6431 101.182C96.6431 101.182 97.2827 99.5516 98.7303 99.1717C100.236 98.7821 100.842 99.7921 101.991 99.3977C103.141 99.0034 103.141 99.0034 103.141 99.0034C103.141 99.0034 101.582 100.206 101.303 100.186C100.669 100.138 100.327 99.6719 99.2545 99.72C98.1821 99.7681 96.6431 101.182 96.6431 101.182Z" fill="#211614"/>
<path d="M99.1055 101.543C99.6792 101.543 100.144 101.032 100.144 100.403C100.144 99.7735 99.6792 99.2632 99.1055 99.2632C98.5318 99.2632 98.0667 99.7735 98.0667 100.403C98.0667 101.032 98.5318 101.543 99.1055 101.543Z" fill="#211614"/>
<path d="M98.6727 100.629C98.8294 100.629 98.9564 100.489 98.9564 100.316C98.9564 100.144 98.8294 100.004 98.6727 100.004C98.516 100.004 98.3889 100.144 98.3889 100.316C98.3889 100.489 98.516 100.629 98.6727 100.629Z" fill="#FFEFE8"/>
<path d="M91.7809 101.35C91.7809 101.35 90.4391 102.192 89.2848 102.25C88.1306 102.303 86.9042 101.345 87.0148 100.884C87.1254 100.422 87.111 100.552 88.1594 100.134C89.2079 99.7199 89.6551 99.7921 90.5208 100.177C91.3817 100.557 91.7809 101.35 91.7809 101.35Z" fill="#FFF3E8"/>
<path d="M91.9444 101.471C91.9444 101.471 91.1268 99.8402 89.5878 99.5901C87.9911 99.3304 87.5342 100.206 86.2838 100.004C85.3796 99.8546 84.8506 99.845 84.8506 99.845C84.8506 99.845 86.8465 100.884 87.0148 100.884C87.6737 100.879 87.9767 100.259 89.0973 100.206C90.2178 100.153 91.9444 101.471 91.9444 101.471Z" fill="#211614"/>
<path d="M89.43 102.08C90.0251 102.025 90.4589 101.453 90.3988 100.802C90.3388 100.152 89.8077 99.6687 89.2126 99.7236C88.6175 99.7785 88.1837 100.351 88.2437 101.001C88.3038 101.652 88.8349 102.135 89.43 102.08Z" fill="#211614"/>
<path d="M89.7935 101.093C89.9548 101.078 90.0724 100.922 90.056 100.745C90.0397 100.568 89.8956 100.436 89.7343 100.451C89.5729 100.466 89.4554 100.622 89.4717 100.799C89.4881 100.976 89.6322 101.108 89.7935 101.093Z" fill="#FFEFE8"/>
<path d="M199.737 189.333C199.737 189.333 204.07 190.896 205.57 193.06C207.076 195.224 205.45 196.427 207.374 197.754C209.298 199.077 211.221 197.273 214.771 199.077C218.32 200.88 222.35 204.069 224.216 204.252C226.082 204.434 231.195 203.949 231.493 202.809C231.796 201.664 225.476 201.664 222.11 199.139C218.743 196.614 217.055 193.786 212.727 191.502C208.394 189.218 201.959 184.706 201.959 184.706L198.049 185.731L199.737 189.333Z" fill="#FFC9B1"/>
<path d="M194.927 189.992C195.889 191.377 199.92 193.118 202.805 196.249C205.691 199.375 208.759 204.367 213.213 205.214C217.666 206.06 219.47 206.897 217.06 207.498C214.651 208.099 212.852 209.782 210.385 208.162C207.918 206.536 204.31 201.847 201.843 201.303C199.376 200.76 196.909 203.588 195.408 201.727C193.903 199.861 195.105 198.177 194.206 196.494C193.302 194.811 192.46 192.767 192.46 192.767L194.927 189.992Z" fill="#FFC9B1"/>
<path d="M192.46 193.844L196.279 191.204L192.46 186.75L177.614 174.491C177.614 174.491 166.336 166.58 166.042 166.613C165.749 166.647 155.452 169.687 155.452 169.687L150.941 172.63L161.728 177.141L167.514 175.376C167.514 175.376 167.908 177.141 169.572 179.103C171.241 181.066 182.317 189.708 186.045 189.997C189.772 190.28 192.46 193.844 192.46 193.844Z" fill="#8068D1"/>
<path d="M199.737 189.333L202.911 184.702C202.911 184.702 193.398 179.623 180.749 166.618C168.101 153.614 166.138 153.417 160.257 154.59C154.375 155.764 137.364 163.122 128.808 160.866C120.252 158.611 117.112 158.904 116.034 156.552C114.957 154.201 114.173 152.926 114.173 152.926L100.938 156.85L94.4644 160.4C94.4644 160.4 92.0838 161.4 92.0501 164.175C92.0165 166.95 91.6221 174.304 95.5417 179.108C99.4662 183.913 105.151 186.659 116.232 186.659C127.312 186.659 133.194 186.366 144.669 181.364C156.14 176.362 162.517 170.384 165.263 170.086C168.009 169.788 168.303 172.928 172.126 176.458C175.95 179.988 180.264 184.206 185.362 186.265C190.459 188.323 192.715 189.174 195.461 189.338C198.207 189.501 199.737 189.333 199.737 189.333Z" fill="#8E82B4"/>
<path d="M108.575 164.228C105.406 165.858 102.525 167.59 104.925 169.22C107.325 170.851 109.263 169.735 119.137 167.686C127.009 166.051 132.43 167.749 136.085 170.177C139.398 172.38 139.403 179.113 141.034 178.44C142.664 177.766 143.241 175.847 143.914 176.713C144.588 177.579 144.011 179.214 145.833 178.493C147.656 177.771 151.018 172.202 151.018 172.202C151.018 172.202 141.606 164.04 136.902 163.367C132.199 162.694 129.794 160.967 125.668 162.021C121.536 163.079 112.798 162.79 112.798 162.79L108.575 164.228Z" fill="#8068D1"/>
<path d="M75.7705 131.039C75.7705 131.039 89.9966 131.813 94.7579 129.61C99.5192 127.408 103.896 123.002 103.896 123.002L110.297 130.62L110.893 144.909L113.096 149.829L107.084 155.326L91.4875 158.899L85.596 159.318L80.2384 148.545L75.7705 131.039Z" fill="#6073D0"/>
<path d="M99.4037 154.912L91.425 141.283L90.9489 147.357L87.8516 147.597L87.6112 156.466C87.6112 156.466 87.313 160.573 87.9093 160.395C88.5057 160.217 96.4219 158.548 96.4219 158.548L99.4037 154.912Z" fill="#4D599C"/>
<path d="M102.198 100.114C101.895 100.725 104.819 104.688 104.819 104.688C104.819 104.688 103.963 104.385 102.866 103.895C101.77 103.409 100.625 103.712 102.174 104.933C103.722 106.155 104.574 106.823 104.574 106.823C104.574 106.823 102.866 106.03 102.621 106.458C102.376 106.886 104.631 107.8 105.059 108.411C105.488 109.021 106.522 110.238 106.219 111.95C105.916 113.658 105.67 113.84 104.328 112.316C102.987 110.791 102.107 109.146 101.419 109.267C100.731 109.387 100.669 110.06 101.953 111.705C103.237 113.35 103.434 114.509 103.607 115.73C103.78 116.952 108.907 121.526 109.272 122.742C109.638 123.964 110.735 145.447 110.735 145.447C110.735 145.447 113.341 149.694 114.063 149.256C114.789 148.819 119.454 146.135 119.574 145.447C119.694 144.76 116.034 132.929 114.39 129.149C112.745 125.368 112.134 124.084 111.706 122.074C111.278 120.064 108.657 112.013 108.166 109.084C107.676 106.155 107.435 105.544 107.435 105.544C107.435 105.544 106.522 105.058 104.689 102.86C102.866 100.663 102.198 100.114 102.198 100.114Z" fill="#FFC9B1"/>
<path d="M106.603 147.708C106.546 148.78 107.854 148.958 113.211 148.54C118.569 148.121 128.808 147.289 128.808 147.289L131.189 146.097L129.342 145.443C129.342 145.443 111.244 146.9 108.984 147.092C106.724 147.285 106.603 147.708 106.603 147.708Z" fill="#2F2C45"/>
<path d="M129.347 145.443L128.808 147.29L131.189 146.102L129.347 145.443Z" fill="#B3B1D9"/>
<path d="M131.189 146.193L129.991 145.77L129.64 146.967" fill="black"/>
<path d="M89.2221 147.41C89.2221 147.41 89.3423 156.163 89.2221 156.932C89.1018 157.702 93.0936 155.98 99.4035 154.907C105.713 153.835 106.608 153.537 106.608 153.537C106.608 153.537 115.419 148.655 118.155 146.631C120.892 144.606 121.31 144.726 123.455 144.548C125.6 144.37 128.813 143.418 128.813 143.418C128.813 143.418 126.432 144.967 125.182 145.024C123.931 145.082 122.979 145.741 124.287 145.976C125.595 146.217 127.861 146.395 127.144 146.871C126.427 147.347 123.215 147.347 123.215 147.347C123.215 147.347 124.407 148.179 123.749 148.42C123.094 148.66 122.618 148.179 121.368 148.42C120.117 148.66 117.617 149.314 118.987 149.492C120.358 149.67 122.618 148.776 122.796 149.492C122.974 150.209 120.594 149.67 118.449 151.161C116.304 152.647 114.341 154.97 113.509 155.446C112.677 155.922 111.009 155.744 109.013 155.744C107.022 155.744 106.723 155.802 105.829 156.398C104.934 156.995 90.41 165.983 85.591 166.58C80.7672 167.176 80.8874 160.448 79.9352 155.004C78.9829 149.555 78.9829 147.891 78.9829 147.891L89.2221 147.41Z" fill="#FFC9B1"/>
<path d="M75.7704 131.039C75.7704 131.039 72.0816 145.981 73.0916 146.813C74.1016 147.645 77.6028 149.574 81.7821 149.612C86.1298 149.651 92.8773 149.766 93.4737 149.492C94.0701 149.218 92.3195 139.195 92.3195 139.195L76.0686 131.039H75.7704Z" fill="#6073D0"/>
<path d="M107.83 166.676L109.162 165.079L140.759 154.773L141.529 154.287L142.933 156.672L135.012 161.366L107.83 168.369V166.676Z" fill="#FF5251"/>
<path d="M107.83 166.479L134.243 158.842L141.529 154.287L140.759 153.657L134.036 157.86L107.83 164.656V166.479Z" fill="#DEC276"/>
<path d="M107.83 164.656L119.391 158.842L140.759 153.657L134.223 157.745L107.83 164.656Z" fill="#FFE9A9"/>
<path d="M135.012 160.068C134.801 161.083 136.974 164.444 138.658 168.09C140.341 171.735 143.14 178.041 143.14 178.041C143.14 178.041 151.758 169.388 151.826 169.057C151.893 168.725 143.409 156.042 143.409 156.042L135.012 160.068Z" fill="#DEC276"/>
<path d="M154.702 166.479L146.084 177.617C146.084 177.617 144.545 172.433 141.529 168.648C138.518 164.863 134.522 161.116 135.012 160.068C135.503 159.015 140.899 156.182 142.371 155.898C143.842 155.619 145.872 156.038 148.257 158.563C150.638 161.083 154.702 166.479 154.702 166.479Z" fill="#FFE9A9"/>
<path d="M139.394 154.253C139.706 153.878 140.168 153.662 140.658 153.662C141.563 153.662 142.308 154.407 142.308 155.311C142.308 155.821 142.072 156.302 141.668 156.615" stroke="#3E1919" stroke-width="0.5" stroke-miterlimit="10"/>
<path d="M136.888 155.427C137.249 154.994 137.782 154.744 138.345 154.744C139.389 154.744 140.245 155.6 140.245 156.644C140.245 157.23 139.971 157.788 139.509 158.144" stroke="#3E1919" stroke-width="0.5" stroke-miterlimit="10"/>
<path d="M134.454 157.033C134.858 156.552 135.455 156.273 136.08 156.273C137.244 156.273 138.201 157.23 138.201 158.394C138.201 159.048 137.898 159.669 137.378 160.073" stroke="#3E1919" stroke-width="0.5" stroke-miterlimit="10"/>
<path d="M181.581 183.518C181.581 183.518 182.399 184.788 184.852 179.791C187.175 175.059 189.575 168.523 184.852 165.709C180.177 162.92 177.758 161.078 184.53 163.617C191.301 166.161 190.758 173.068 190.214 176.429C189.671 179.791 187.67 184.788 187.487 187.515C187.305 190.242 184.034 189.694 184.034 189.694L181.581 183.518Z" fill="#7A5A49"/>
<path d="M153.235 190.694C153.235 190.694 153.143 194.147 154.779 196.874C156.414 199.601 156.231 201.419 156.322 203.78C156.414 206.142 156.322 208.868 156.322 208.868H157.866L160.862 203.597L161.589 196.6C161.589 196.6 161.589 192.873 160.862 192.964C160.141 193.055 153.235 190.694 153.235 190.694Z" fill="#7A5A49"/>
<path d="M170.318 196.234C169.952 198.052 169.135 200.048 170.318 201.048C171.501 202.049 172.771 203.049 171.501 204.954C170.231 206.863 169.313 208.315 169.313 208.315C169.313 208.315 166.778 207.406 166.23 208.859C165.687 210.311 170.953 210.311 170.953 210.311C170.953 210.311 175.498 206.858 176.402 205.589C177.311 204.319 175.858 202.501 177.037 200.226C178.22 197.956 179.129 195.321 179.129 195.321L170.318 196.234Z" fill="#7A5A49"/>
<path d="M184.217 185.153C184.217 185.153 187.761 185.788 188.031 189.742C188.305 193.695 189.079 198.783 190.507 200.327C191.936 201.871 191.936 201.327 191.57 204.141C191.205 206.954 192.792 209.046 191.772 209.681C190.753 210.316 190.204 211.134 189.844 211.225C189.478 211.316 185.419 211.499 185.419 211.499C185.419 211.499 184.082 209.864 185.419 209.681C186.756 209.499 188.843 208.864 188.666 207.503C188.483 206.142 189.392 205.05 187.665 204.232C185.939 203.415 183.034 202.688 181.033 200.053C179.032 197.417 178.763 197.057 178.763 197.057C178.763 197.057 175.584 197.6 172.405 197.6C169.226 197.6 167.225 197.326 167.225 197.326C167.225 197.326 167.317 200.414 164.498 204.958C161.68 209.503 159.954 210.047 159.954 210.047V211.499C159.954 211.499 158.318 211.682 156.14 211.499C153.961 211.316 153.143 211.047 153.143 211.047C153.143 211.047 152.869 209.046 154.596 208.686C156.322 208.325 157.049 208.234 157.049 208.234C157.049 208.234 159.319 204.963 159.593 203.602C159.867 202.241 159.776 197.331 159.776 197.331C159.776 197.331 155.962 197.057 153.778 193.334C151.6 189.607 151.6 183.975 151.686 183.34C151.778 182.706 151.657 182.249 151.657 182.249C151.657 182.249 149.96 181.522 148.325 180.339C146.689 179.156 146.146 177.521 146.689 176.525C147.233 175.525 153.504 173.707 153.504 173.707C153.504 173.707 150.508 167.893 151.595 167.436C152.687 166.984 154.23 166.253 155.866 166.344C157.501 166.435 157.958 167.796 157.958 168.071C157.958 168.345 159.049 170.706 159.049 170.706L163.772 171.341C163.772 171.341 165.499 172.885 164.955 175.068C164.412 177.247 162.503 179.065 162.503 179.065L169.308 181.7L176.493 182.97L184.217 185.153Z" fill="white"/>
<path d="M146.146 177.704L146.781 174.708C146.781 174.708 145.146 171.711 145.42 169.167C145.694 166.623 147.69 162.809 147.69 162.809L151.778 168.258C151.778 168.258 152.687 167.258 154.322 169.441C155.957 171.62 157.231 172.077 156.592 173.895C155.957 175.713 154.182 175.804 151.071 176.439C147.964 177.064 146.146 177.704 146.146 177.704Z" fill="#7A5A49"/>
<path d="M157.414 169.797C158.415 171.976 159.776 174.159 161.411 173.342C163.046 172.524 163.864 171.658 163.864 171.658L162.32 169.797L160.641 166.07L160.141 162.8C160.141 162.8 158.958 163.252 158.141 164.435C157.323 165.618 156.765 166.161 156.765 166.161L157.414 169.797Z" fill="#EC9042"/>
<path d="M162.137 179.339L163.229 178.069C163.229 178.069 170.77 178.887 174.314 179.339C177.859 179.791 181.038 179.704 183.943 182.609C186.852 185.519 187.756 187.063 187.848 188.698C187.939 190.333 188.213 191.786 186.121 191.968C184.029 192.151 184.577 189.968 182.216 188.063C179.855 186.159 176.493 185.346 172.131 185.024C167.769 184.701 165.316 183.701 163.864 182.157C162.411 180.609 162.137 179.339 162.137 179.339Z" fill="#EC9042"/>
<path d="M157.611 174.28C157.611 174.28 157.525 173.601 158.078 173.428C158.631 173.26 159.737 173.13 159.694 173.683C159.651 174.236 159.054 174.534 159.271 175.044C159.482 175.554 159.824 175.939 160.29 176.275C160.757 176.617 160.887 177.848 160.459 178.786C160.03 179.724 159.694 180.277 158.415 179.382C157.14 178.488 157.352 178.021 157.991 177.257C158.631 176.492 159.266 175.213 158.756 174.919C158.246 174.626 157.611 174.28 157.611 174.28Z" fill="#FBA498"/>
<path d="M148.171 173.895C148.171 173.895 148.339 172.192 150.085 170.576C151.83 168.96 152.638 168.831 151.956 168.023C151.273 167.215 149.022 163.3 148.339 163.343C147.656 163.386 147.353 164.44 146.935 165.81C146.425 167.479 146.535 169.297 146.805 170.87C147.084 172.471 148.171 173.895 148.171 173.895Z" fill="#FFCEC2"/>
<path d="M159.91 162.583C159.91 163.136 159.867 164.752 159.357 165.69C158.848 166.628 157.953 167.349 158.549 167.647C159.146 167.946 160.805 167.902 161.401 168.624C161.998 169.345 162.209 169.6 162.209 169.6C162.209 169.6 162.931 167.772 161.998 165.43C161.06 163.093 160.834 162.367 160.415 162.367C159.992 162.367 159.91 162.583 159.91 162.583Z" fill="#FFCEC2"/>
<path d="M160.718 175.131L170.539 171.937" stroke="#5F5D59" stroke-width="0.2" stroke-miterlimit="10"/>
<path d="M161.526 176.559L166.841 176.232" stroke="#5F5D59" stroke-width="0.2" stroke-miterlimit="10"/>
<path d="M156.803 177.555L144.895 181.253" stroke="#5F5D59" stroke-width="0.2" stroke-miterlimit="10"/>
<path d="M156.803 176.021L143.789 176.747" stroke="#5F5D59" stroke-width="0.2" stroke-miterlimit="10"/>
<path d="M159.983 171.504C159.983 171.504 160.93 172.168 161.594 171.889C162.257 171.61 162.469 171.048 162.469 171.048" stroke="#311700" stroke-width="0.2" stroke-miterlimit="10"/>
<path d="M152.49 174.554C152.49 174.554 153.61 174.659 154.173 174.169C154.735 173.678 154.803 173.082 154.803 173.082" stroke="#311700" stroke-width="0.2" stroke-miterlimit="10"/>
<path d="M157.486 188.789C157.486 188.789 156.842 190.141 157.486 191.973C158.131 193.806 159.069 194.936 159.362 195.628C159.655 196.321 159.578 197.302 159.578 197.302" stroke="#C2BEC9" stroke-width="0.3" stroke-miterlimit="10"/>
<path d="M165.629 188.299C166.249 189.381 167.283 191.3 167.23 193.022C167.177 194.743 167.399 197.345 167.399 197.345" stroke="#C2BEC9" stroke-width="0.3" stroke-miterlimit="10"/>
<path d="M177.32 191.204C177.32 191.204 176.796 193.272 177.205 194.508C177.604 195.705 178.768 197.057 178.518 197.033" stroke="#C2BEC9" stroke-width="0.3" stroke-miterlimit="10"/>
<path d="M154.495 211.316C154.495 211.316 154.365 210.042 155.385 209.845" stroke="#C2BEC9" stroke-width="0.5" stroke-miterlimit="10"/>
<path d="M185.621 211.581C185.621 211.581 185.669 210.547 186.838 210.321" stroke="#C2BEC9" stroke-width="0.5" stroke-miterlimit="10"/>
<path d="M46.5631 224.119L50.8771 197.98L45.3367 197.87L44.7788 192.589L109.878 191.632C109.878 191.632 110.715 192.95 110.6 194.508C110.48 196.066 110.359 197.865 109.282 197.865C108.205 197.865 104.006 197.865 104.006 197.865L108.561 224.119L105.564 223.162L96.9316 197.865H57.6102L49.0976 223.042L46.5631 224.119Z" fill="#FFC0C0"/>
<path d="M50.8724 197.98L57.6055 197.86L56.6484 200.688H50.4299L50.8724 197.98Z" fill="#7C4B67"/>
<path d="M96.927 197.86H104.002L104.492 200.688H97.8937L96.927 197.86Z" fill="#7C4B67"/>
<path d="M66.2815 172.726L66.7817 180.363L69.7923 183.542L72.9713 181.2C72.9713 181.2 75.4241 178.137 75.3664 177.632C75.3087 177.132 75.3664 175.068 75.3664 173.063C75.3664 171.057 75.6982 170.442 73.6927 172.726C71.6872 175.011 70.5618 178.19 70.5618 178.19C70.5618 178.19 69.7346 175.905 68.1764 174.4C66.6133 172.89 66.2815 172.726 66.2815 172.726Z" fill="#648F4B"/>
<path d="M73.861 182.811C73.9187 182.643 75.6068 181.138 76.6264 179.022C77.6508 176.906 77.9826 176.627 77.9826 176.627H81.2722C81.2722 176.627 78.5982 174.674 77.0929 175.121C75.5875 175.569 72.8558 180.08 72.8558 180.08C72.8558 180.08 73.9139 178.445 71.9661 175.054C70.0135 171.663 69.345 169.047 69.6239 173C69.9029 176.958 69.6816 181.465 69.6816 181.465C69.6816 181.465 69.1238 177.964 67.0605 177.348C64.9973 176.737 64.9973 177.127 64.829 175.285C64.6607 173.448 63.8815 174.227 63.9922 177.237C64.1028 180.248 64.55 179.743 65.9977 180.695C67.4453 181.643 67.8348 183.259 67.8348 183.259H74.0197L73.861 182.811Z" fill="#8DBC5A"/>
<path d="M68.2293 183.09C68.2293 183.09 67.8398 181.922 67.8927 180.416C67.9504 178.911 67.9937 177.685 67.8879 177.016C67.782 176.348 68.2293 176.126 68.8401 178.132C69.4509 180.137 70.5571 183.09 70.5571 183.09C70.5571 183.09 70.6244 180.859 71.1775 179.022C71.7354 177.184 72.3461 176.237 72.904 175.29C73.4619 174.342 72.5674 175.4 72.904 176.516C73.2407 177.632 71.2881 178.748 72.0143 180.806C72.7405 182.864 73.0964 184.932 73.0964 184.932L69.5086 184.596L68.2293 183.09Z" fill="#A4CA7B"/>
<path d="M64.4971 182.369C64.4971 182.369 68.2869 182.59 71.7448 182.369C75.2027 182.148 76.5397 180.642 76.5926 182.09C76.6503 183.538 76.761 189.222 75.8664 190.896C74.9767 192.57 73.3607 193.128 71.0186 193.012C68.6764 192.901 65.3916 191.228 64.9972 187.828C64.6029 184.427 64.4971 182.369 64.4971 182.369Z" fill="#ED5251"/>
<path d="M71.24 186.216V187.308L67.4069 187.347L64.8772 192.358L71.24 192.372V193.464C71.24 193.464 51.9544 193.464 50.4395 193.464C48.9245 193.464 48.761 192.002 48.761 189.338C48.761 186.673 49.6219 186.356 52.243 186.216C54.8689 186.082 71.24 186.216 71.24 186.216Z" fill="#FFDF78"/>
<path d="M70.5429 187.313C70.5429 187.313 69.7878 188.405 69.7878 189.501C69.7878 190.593 70.5429 192.373 70.5429 192.373C70.5429 192.373 52.1903 192.373 50.7908 192.373C49.3913 192.373 49.045 187.313 51.6661 187.313C54.2872 187.313 70.5429 187.313 70.5429 187.313Z" fill="#FFE9A9"/>
<path d="M71.9085 183.648V184.096L68.2389 184.11L65.8198 186.154L71.9085 186.159V186.606C71.9085 186.606 53.4597 186.606 52.0121 186.606C50.5645 186.606 50.4058 186.01 50.4058 184.923C50.4058 183.836 51.2282 183.706 53.7387 183.653C56.2491 183.591 71.9085 183.648 71.9085 183.648Z" fill="#9C998B"/>
<path d="M71.24 184.095C71.24 184.095 70.5138 184.543 70.5138 184.985C70.5138 185.428 71.24 186.154 71.24 186.154C71.24 186.154 53.6858 186.154 52.344 186.154C51.007 186.154 50.6704 184.091 53.1809 184.091C55.6914 184.095 71.24 184.095 71.24 184.095Z" fill="#FCFBDB"/>
<path d="M97.5809 187.116C97.5809 187.116 100.702 186.486 100.375 188.953C100.048 191.42 98.158 192.036 96.9653 192.156C95.7725 192.281 93.5554 192.281 93.5554 192.281L94.373 190.675C94.373 190.675 96.3689 190.776 97.4125 190.636C98.6486 190.473 99.5912 188.563 98.5235 188.193C97.4558 187.823 96.7633 188.256 96.7633 188.256L97.5809 187.116Z" fill="#EAC545"/>
<path d="M89.3185 185.99C96.3835 185.947 97.9513 184.803 97.9513 185.481C97.9513 186.837 96.8788 193.142 90.6747 193.344C84.4707 193.551 81.9265 187.534 81.8544 185.481C81.8207 184.423 89.3185 185.99 89.3185 185.99Z" fill="#FFDF76"/>
<path d="M89.905 187.116C94.3487 187.116 97.951 186.384 97.951 185.481C97.951 184.578 94.3487 183.845 89.905 183.845C85.4612 183.845 81.8589 184.578 81.8589 185.481C81.8589 186.384 85.4612 187.116 89.905 187.116Z" fill="#FFDF76"/>
<path d="M90.0545 186.548C94.1157 186.548 97.408 186.088 97.408 185.519C97.408 184.951 94.1157 184.49 90.0545 184.49C85.9932 184.49 82.7009 184.951 82.7009 185.519C82.7009 186.088 85.9932 186.548 90.0545 186.548Z" fill="#5D3E22"/>
<path d="M88.3086 186.361C91.4534 186.361 94.0028 185.939 94.0028 185.418C94.0028 184.898 91.4534 184.475 88.3086 184.475C85.1637 184.475 82.6143 184.898 82.6143 185.418C82.6143 185.939 85.1637 186.361 88.3086 186.361Z" fill="#8B623C"/>
<path d="M90.3139 184.533C90.4293 182.499 92.6897 181.022 92.6897 179.786C92.6897 178.55 87.9669 179.416 87.7168 177.444C87.4667 175.472 102.222 176.785 102.222 172.39C102.222 167.994 89.3232 167.994 89.0731 164.829C88.8278 161.665 89.1981 157.928 89.1981 157.928C89.1981 157.928 86.4856 161.092 86.7309 164.459C86.9762 167.825 93.3053 168.773 93.1803 170.99C93.0552 173.207 82.1716 171.606 82.1716 176.453C82.1716 181.301 88.1401 178.122 89.2366 181.22C90.3331 184.317 90.3139 184.533 90.3139 184.533Z" fill="url(#paint2_linear)"/>
<path d="M90.3139 184.533C90.4293 182.499 92.6897 181.022 92.6897 179.786C92.6897 178.55 87.9669 179.416 87.7168 177.444C87.4667 175.472 102.222 176.785 102.222 172.39C102.222 167.994 89.3232 167.994 89.0731 164.829C88.8278 161.665 89.1981 157.928 89.1981 157.928C89.1981 157.928 86.4856 161.092 86.7309 164.459C86.9762 167.825 93.3053 168.773 93.1803 170.99C93.0552 173.207 82.1716 171.606 82.1716 176.453C82.1716 181.301 88.1401 178.122 89.2366 181.22C90.3331 184.317 90.3139 184.533 90.3139 184.533Z" fill="url(#paint3_linear)"/>
<path d="M93.1804 170.995C93.3054 168.778 86.9763 167.83 86.731 164.464C86.4857 161.097 89.1982 157.933 89.1982 157.933C89.1982 157.933 88.8279 161.669 89.0732 164.834C89.0732 164.834 88.8279 166.109 92.4926 167.191C96.1574 168.273 93.1804 170.995 93.1804 170.995Z" fill="url(#paint4_linear)"/>
<defs>
<linearGradient id="paint0_linear" x1="42.2714" y1="139.509" x2="42.1137" y2="95.6494" gradientUnits="userSpaceOnUse">
<stop stop-color="white" stop-opacity="0"/>
<stop offset="0.9997" stop-color="#FFF9EA" stop-opacity="0.44"/>
<stop offset="0.9998" stop-color="#FFF9E7" stop-opacity="0.42"/>
</linearGradient>
<linearGradient id="paint1_linear" x1="41.6179" y1="95.3016" x2="41.5104" y2="65.4142" gradientUnits="userSpaceOnUse">
<stop stop-color="white"/>
<stop offset="1" stop-color="#FFFCF5"/>
</linearGradient>
<linearGradient id="paint2_linear" x1="93.5194" y1="171.214" x2="82.1874" y2="171.272" gradientUnits="userSpaceOnUse">
<stop offset="0.0789973" stop-color="white" stop-opacity="0"/>
<stop offset="1" stop-color="#FEFAF0"/>
</linearGradient>
<linearGradient id="paint3_linear" x1="103.425" y1="171.483" x2="74.2549" y2="170.949" gradientUnits="userSpaceOnUse">
<stop offset="0.0298769" stop-color="#FEFAF0"/>
<stop offset="0.1152" stop-color="#FEFBF3" stop-opacity="0.9121"/>
<stop offset="0.4677" stop-color="#FFFEFC" stop-opacity="0.5487"/>
<stop offset="1" stop-color="white" stop-opacity="0"/>
</linearGradient>
<linearGradient id="paint4_linear" x1="95.5048" y1="163.694" x2="84.4407" y2="165.671" gradientUnits="userSpaceOnUse">
<stop offset="0.3569" stop-color="white" stop-opacity="0"/>
<stop offset="0.7233" stop-color="#FFFEFD" stop-opacity="0.5975"/>
<stop offset="0.9042" stop-color="#FEFCF5" stop-opacity="0.8926"/>
<stop offset="0.9701" stop-color="#FEFAF0"/>
</linearGradient>
</defs>
</svg>
