<svg width="23" height="23" viewBox="0 0 23 23" fill="none" xmlns="http://www.w3.org/2000/svg">
<path d="M18.0585 7.54688C17.9269 9.37385 16.5716 10.7812 15.0937 10.7812C13.6158 10.7812 12.2582 9.3743 12.1289 7.54688C11.9941 5.64623 13.3134 4.3125 15.0937 4.3125C16.8739 4.3125 18.1933 5.68082 18.0585 7.54688Z" stroke="#6A67FB" stroke-width="2" stroke-linecap="round" stroke-linejoin="round"/>
<path d="M15.0938 13.6562C12.1663 13.6562 9.351 15.1104 8.64573 17.9422C8.55229 18.3169 8.78723 18.6875 9.17221 18.6875H21.0159C21.4008 18.6875 21.6344 18.3169 21.5423 17.9422C20.8371 15.065 18.0218 13.6562 15.0938 13.6562Z" stroke="#6A67FB" stroke-width="2" stroke-miterlimit="10"/>
<path d="M8.98425 8.35277C8.87913 9.81184 7.78394 10.9609 6.60339 10.9609C5.42285 10.9609 4.32586 9.81229 4.22254 8.35277C4.11517 6.83486 5.18117 5.75 6.60339 5.75C8.02562 5.75 9.09161 6.86272 8.98425 8.35277Z" stroke="#6A67FB" stroke-width="2" stroke-linecap="round" stroke-linejoin="round"/>
<path d="M9.25386 13.746C8.44302 13.3745 7.54997 13.2317 6.60347 13.2317C4.26753 13.2317 2.01694 14.3929 1.45317 16.6547C1.37905 16.9539 1.56683 17.25 1.87409 17.25H6.91792" stroke="#6A67FB" stroke-width="2" stroke-miterlimit="10" stroke-linecap="round"/>
</svg>
