<svg width="40" height="40" viewBox="0 0 40 40" fill="none" xmlns="http://www.w3.org/2000/svg">
<circle cx="20" cy="20" r="20" fill="#F2F4FF"/>
<circle cx="20" cy="20" r="20" fill="#F2F4FF"/>
<path d="M25.9523 22.9766H22.9761V25.9528H25.9523V22.9766Z" fill="#6A67FB"/>
<path d="M22.9762 20.5955H20.5952V22.9764H22.9762V20.5955Z" fill="#6A67FB"/>
<path d="M28.3331 25.9521H25.9521V28.3331H28.3331V25.9521Z" fill="#6A67FB"/>
<path d="M28.3331 20.5955H26.5474V22.3812H28.3331V20.5955Z" fill="#6A67FB"/>
<path d="M22.3809 26.5466H20.5952V28.3323H22.3809V26.5466Z" fill="#6A67FB"/>
<path d="M25.9523 14.0481H22.9761V17.0243H25.9523V14.0481Z" fill="#6A67FB"/>
<path d="M28.3333 18.4051C28.3333 18.9574 27.8856 19.4051 27.3333 19.4051H21.5952C21.0429 19.4051 20.5952 18.9574 20.5952 18.4051V12.667C20.5952 12.1147 21.0429 11.667 21.5952 11.667H27.3333C27.8856 11.667 28.3333 12.1147 28.3333 12.667V18.4051ZM22.2321 17.7682H26.6964V13.3039H22.2321V17.7682Z" fill="#6A67FB"/>
<path d="M17.0236 14.0481H14.0474V17.0243H17.0236V14.0481Z" fill="#6A67FB"/>
<path d="M19.4056 18.4055C19.4056 18.9577 18.9579 19.4055 18.4056 19.4055H12.6675C12.1152 19.4055 11.6675 18.9577 11.6675 18.4055V12.6674C11.6675 12.1151 12.1152 11.6674 12.6675 11.6674H18.4056C18.9579 11.6674 19.4056 12.1151 19.4056 12.6674V18.4055ZM13.3044 17.7685H17.7687V13.3043H13.3044V17.7685Z" fill="#6A67FB"/>
<path d="M17.0236 22.9766H14.0474V25.9528H17.0236V22.9766Z" fill="#6A67FB"/>
<path d="M19.4046 27.3336C19.4046 27.8858 18.9569 28.3336 18.4046 28.3336H12.6665C12.1142 28.3336 11.6665 27.8858 11.6665 27.3336V21.5955C11.6665 21.0432 12.1142 20.5955 12.6665 20.5955H18.4046C18.9569 20.5955 19.4046 21.0432 19.4046 21.5955V27.3336ZM13.3034 26.6966H17.7677V22.2324H13.3034V26.6966Z" fill="#6A67FB"/>
</svg>
