<svg width="28" height="28" viewBox="0 0 28 28" fill="none" xmlns="http://www.w3.org/2000/svg">
<circle cx="14" cy="14" r="14" fill="url(#paint0_linear)"/>
<path d="M19.2496 19.0313C19.1831 19.0313 19.1175 19.0161 19.0578 18.987C18.998 18.9578 18.9457 18.9155 18.9048 18.8631C18.2797 18.0627 17.6997 17.445 16.8999 17.0311C16.1597 16.6491 15.23 16.4497 13.9996 16.4125V18.5938C13.9993 18.6792 13.9741 18.7626 13.9269 18.8338C13.8798 18.905 13.8129 18.9609 13.7344 18.9946C13.6559 19.0282 13.5693 19.0381 13.4852 19.0231C13.4011 19.0081 13.3233 18.9688 13.2613 18.9101L8.44879 14.3164C8.40602 14.2755 8.37198 14.2264 8.34872 14.172C8.32547 14.1177 8.31348 14.0591 8.31348 14C8.31348 13.9409 8.32547 13.8823 8.34872 13.828C8.37198 13.7736 8.40602 13.7245 8.44879 13.6836L13.2613 9.08989C13.3233 9.03118 13.4011 8.9919 13.4852 8.9769C13.5693 8.96189 13.6559 8.97182 13.7344 9.00546C13.8129 9.0391 13.8798 9.09497 13.9269 9.16619C13.9741 9.23741 13.9993 9.32086 13.9996 9.40626V11.6036C16.0268 11.6968 17.5373 12.4488 18.4935 13.8422C19.2857 14.9964 19.6871 16.5949 19.6871 18.5938C19.6871 18.7098 19.641 18.8211 19.5589 18.9031C19.4769 18.9852 19.3656 19.0313 19.2496 19.0313Z" fill="#6C69FC"/>
<defs>
<linearGradient id="paint0_linear" x1="14" y1="0" x2="14" y2="28" gradientUnits="userSpaceOnUse">
<stop stop-color="#F3F3FF"/>
<stop offset="1" stop-color="#E9F0FF"/>
</linearGradient>
</defs>
</svg>
