<svg width="23" height="23" viewBox="0 0 23 23" fill="none" xmlns="http://www.w3.org/2000/svg">
<circle cx="11.5" cy="11.5" r="11.25" fill="white" stroke="#818C99" stroke-width="0.5"/>
<path d="M13.4958 6.8999H9.11142L8.74807 8.8611L12.7044 8.8657C14.6529 8.8657 15.2291 9.54878 15.2127 10.6828C15.2042 11.2638 14.9434 12.2458 14.8308 12.5641C14.5305 13.4128 13.9138 14.3813 11.6011 14.3774L7.75526 14.3759L7.39111 16.3378H11.7657C13.3087 16.3378 13.9654 16.1646 14.6598 15.8544C16.2004 15.1675 17.1172 13.6992 17.4842 11.7831C18.0313 8.92969 17.3501 6.8999 13.4958 6.8999Z" fill="#68717B"/>
<path d="M7.37525 10.5929C6.21642 10.5929 6.05034 11.3483 5.94069 11.8047C5.79707 12.4025 5.75 12.6446 5.75 12.6446H10.2799C11.4388 12.6446 11.6048 11.8892 11.7145 11.4328C11.8581 10.835 11.9052 10.5929 11.9052 10.5929H7.37525Z" fill="#68717B"/>
</svg>
