<svg width="28" height="28" viewBox="0 0 28 28" fill="none" xmlns="http://www.w3.org/2000/svg">
<circle cx="14" cy="14" r="14" fill="url(#paint0_linear)"/>
<path fill-rule="evenodd" clip-rule="evenodd" d="M19.2609 14.7526C19.4768 14.8673 19.6433 15.0483 19.7604 15.2293C19.9886 15.6034 19.9701 16.062 19.7481 16.4663L19.3164 17.1904C19.0883 17.5766 18.6628 17.8179 18.225 17.8179C18.0091 17.8179 17.7686 17.7576 17.5713 17.6369C17.411 17.5343 17.226 17.4981 17.0286 17.4981C16.4181 17.4981 15.9063 17.999 15.8878 18.5963C15.8878 19.2903 15.3205 19.8333 14.6113 19.8333H13.7727C13.0574 19.8333 12.49 19.2903 12.49 18.5963C12.4777 17.999 11.9659 17.4981 11.3554 17.4981C11.1519 17.4981 10.9669 17.5343 10.8127 17.6369C10.6154 17.7576 10.3687 17.8179 10.1591 17.8179C9.71506 17.8179 9.28957 17.5766 9.06141 17.1904L8.63591 16.4663C8.40775 16.0741 8.39541 15.6034 8.62358 15.2293C8.72224 15.0483 8.90724 14.8673 9.1169 14.7526C9.28957 14.6681 9.40057 14.5294 9.5054 14.3664C9.81373 13.8475 9.62873 13.1657 9.10457 12.8579C8.49408 12.514 8.29675 11.7476 8.64824 11.1503L9.06141 10.4382C9.41907 9.84087 10.1837 9.62967 10.8004 9.97965C11.3369 10.2693 12.0337 10.0762 12.3482 9.5633C12.4469 9.39434 12.5024 9.21332 12.49 9.0323C12.4777 8.79697 12.5455 8.57371 12.6627 8.39268C12.8909 8.01857 13.304 7.7772 13.7542 7.76514H14.6237C15.08 7.76514 15.4932 8.01857 15.7213 8.39268C15.8323 8.57371 15.9063 8.79697 15.8878 9.0323C15.8755 9.21332 15.931 9.39434 16.0297 9.5633C16.3442 10.0762 17.041 10.2693 17.5836 9.97965C18.1941 9.62967 18.965 9.84087 19.3164 10.4382L19.7296 11.1503C20.0873 11.7476 19.8899 12.514 19.2733 12.8579C18.7491 13.1657 18.5641 13.8475 18.8786 14.3664C18.9773 14.5294 19.0883 14.6681 19.2609 14.7526ZM12.4468 13.8053C12.4468 14.7526 13.23 15.5069 14.1981 15.5069C15.1663 15.5069 15.9309 14.7526 15.9309 13.8053C15.9309 12.8579 15.1663 12.0976 14.1981 12.0976C13.23 12.0976 12.4468 12.8579 12.4468 13.8053Z" fill="#6C69FC"/>
<defs>
<linearGradient id="paint0_linear" x1="14" y1="0" x2="14" y2="28" gradientUnits="userSpaceOnUse">
<stop stop-color="#F3F3FF"/>
<stop offset="1" stop-color="#E9F0FF"/>
</linearGradient>
</defs>
</svg>
