<svg width="322" height="184" viewBox="0 0 322 184" fill="none" xmlns="http://www.w3.org/2000/svg">
<path d="M74.4427 99.4713C74.4427 99.4713 69.5635 96.6571 70.1069 91.5605C70.6503 86.464 77.48 88.0885 77.48 88.0885C77.48 88.0885 73.579 83.5354 77.48 79.9546C81.3811 76.3739 91.3625 77.2433 91.3625 77.2433C91.3625 77.2433 90.2757 72.0381 92.8783 70.0876C95.4809 68.1371 104.261 68.2458 104.261 68.2458C104.261 68.2458 108.38 59.7859 115.861 60.5466C123.343 61.3074 123.995 65.5345 123.995 65.5345C123.995 65.5345 131.368 62.0624 138.089 69.0065C144.81 75.9449 134.726 78.3473 134.726 78.3473L121.387 90.5881L95.9156 99.4713H74.4427Z" fill="#49698D"/>
<path d="M55.3245 99.4878C55.3245 99.4878 44.8111 98.6184 39.0797 98.6184C33.3482 98.6184 35.5161 91.4398 39.6002 91.5542C43.6843 91.6686 43.6843 91.6686 43.6843 91.6686C43.6843 91.6686 41.9454 86.4576 48.1116 86.8066C54.2778 87.1555 53.6714 87.7618 53.6714 87.7618C53.6714 87.7618 49.9363 82.202 53.2367 76.1216C56.5372 70.0412 66.5243 65.265 66.5243 65.265L79.9892 54.3227L89.4558 61.4441L111.781 68.8286L113.343 49.7181L139.838 46.5034L160.252 51.2796L176.812 56.3132L177.681 72.3636L164.994 80.0627C164.994 80.0627 133.98 83.2087 132.139 84.6158C130.297 86.0229 111.609 99.688 106.639 100.123C101.668 100.557 66.5357 103.16 65.775 103.16C65.0142 103.154 55.3245 99.4878 55.3245 99.4878Z" fill="#4D789F"/>
<path d="M126.391 81.4702C126.391 81.4702 133.003 73.9884 142.224 73.9884C151.439 73.9884 153.287 77.3518 153.824 76.0476C154.362 74.7435 149.489 73.119 150.032 66.398C150.575 59.6769 148.625 48.1797 160.334 48.7231C172.043 49.2665 186.36 45.3597 186.36 45.3597L192 47.6363V78.9763L126.391 81.4702Z" fill="#425179"/>
<path d="M0.755141 110.597C-7.75624 125.56 57.8981 126.659 86.235 141.428C114.572 156.197 245.337 134.409 245.337 134.409L306.221 146.559C306.221 146.559 255.588 134.112 284.525 132.905C313.463 131.698 304.299 118.37 300.038 116.054C297.126 114.469 285.131 113.302 285.131 107.88C285.131 102.451 314.67 107.577 314.069 100.347C313.468 93.1164 306.536 98.8422 301.708 95.8277C296.886 92.8132 290.857 94.5178 289.65 91.5548C288.443 88.5919 286.333 89.4499 284.222 92.6359C282.111 95.822 275.482 91.5548 275.482 91.5548L252.876 94.9239L199.514 87.6881C199.514 87.6881 237.192 78.0441 191.375 78.3416C145.557 78.6447 104.865 80.1491 86.7785 79.5485C68.6918 78.9479 94.3117 88.1857 95.8218 91.5548C97.3262 94.9239 94.0143 96.4283 71.7062 97.6352C49.3982 98.8421 31.1513 99.4485 15.9418 103.361C0.732261 107.279 0.755141 110.597 0.755141 110.597Z" fill="#80C2BE"/>
<path d="M267.354 132.001C295.388 135.919 319.503 141.044 320.704 154.309C321.911 167.574 328.226 180.529 219.128 182.806C144.105 184.368 138.442 184.23 127.385 183.349C116.563 182.491 88.6434 183.407 89.8732 171.046C90.3994 165.772 97.9498 163.049 77.7525 162.448C57.5551 161.848 45.0397 154.309 45.0397 148.886C45.0397 143.464 41.2817 128.992 106.387 129.896C171.492 130.8 148.589 123.564 193.2 125.377C237.816 127.179 267.354 132.001 267.354 132.001Z" fill="#D3F6F2"/>
<path d="M122.284 78.6554C122.284 78.6554 103.242 80.6402 100.17 83.3229C97.1384 85.9713 96.7838 94.5284 121.031 96.845C145.284 99.1616 190.037 103.263 179.341 106.117C168.644 108.971 185.404 113.782 185.404 113.782L188.613 91.5597C188.613 91.5597 169.205 90.0725 142.075 90.0668C112.989 90.0611 106.731 88.0705 106.056 85.2506C104.78 79.9138 131.201 78.6554 131.201 78.6554H122.284Z" fill="#97CCCB"/>
<path d="M192.499 25.1911C189.828 25.8603 189.897 17.3432 183.101 17.6807C176.306 18.0124 179.309 20.8782 177.804 21.4502C176.3 22.0222 175.133 19.1851 173.8 20.3519C172.468 21.5188 174.47 24.356 172.296 23.8583C170.128 23.355 168.12 18.1612 162.95 17.6692C157.773 17.1773 156.886 19.6827 152.825 19.5168C148.764 19.3509 151.767 22.354 148.095 24.356C144.422 26.358 143.753 22.3539 142.083 23.1891C140.413 24.0242 141.751 27.1931 139.578 27.0272C137.404 26.8613 140.247 21.0155 136.237 18.8476C132.227 16.6797 132.061 18.3671 129.39 17.6063C126.719 16.8456 128.887 14.672 125.386 15.0094C121.88 15.3412 125.054 16.3422 120.044 17.6807C115.033 19.0135 115.205 16.0104 112.865 17.6807C110.526 19.3509 111.361 22.8573 109.862 24.356C108.358 25.8603 105.189 23.8526 105.189 25.357C105.189 26.8613 120.215 28.5316 120.215 28.5316L133.068 35.7102L141.751 37.8552L149.599 33.039L155.273 33.3707L164.62 32.8674L171.798 32.5356L178.645 28.0282L183.107 31.7005L192.505 32.3697V25.1911H192.499Z" fill="#52A984"/>
<path d="M105.35 26.3637C105.184 23.6925 107.855 23.8584 112.196 24.8594C116.538 25.8604 114.702 21.6848 119.707 21.8564C124.717 22.0222 127.555 22.8516 127.886 24.11C128.218 25.3684 127.051 27.8681 132.062 28.5373C137.073 29.2066 138.074 31.712 138.571 34.0457C139.075 36.3852 141.912 36.2136 141.912 32.713C141.912 29.2123 142.415 26.7527 145.916 28.7318C149.422 30.711 149.868 25.8661 152.82 26.032C155.766 26.1979 155.411 31.2601 159.009 28.7318C162.613 26.2036 165.45 23.3607 167.286 26.8671C169.122 30.3735 170.46 27.9196 172.462 28.7318C174.464 29.5384 176.638 32.5471 173.795 33.5481C170.958 34.5491 163.276 37.861 163.276 37.861L148.587 43.5638C148.587 43.5638 141.574 42.8946 139.572 42.0595C137.57 41.2244 132.394 43.5638 132.394 43.5638C132.394 43.5638 126.05 39.8916 125.381 39.8916C124.712 39.8916 118.202 38.3357 117.533 37.861C116.864 37.3862 111.687 30.3735 111.687 30.3735C111.687 30.3735 109.519 29.2066 107.512 28.2056C105.504 27.2046 105.35 26.3637 105.35 26.3637Z" fill="#51986B"/>
<path d="M104.68 34.0403C106.013 29.3671 113.529 28.8637 117.87 30.6998C122.212 32.5359 119.203 35.2072 125.884 36.8774C132.559 38.5477 128.389 41.5507 138.908 40.2179C149.427 38.8852 147.757 43.7243 147.757 43.7243L136.906 51.0688L129.058 54.0718L121.045 46.8932C121.045 46.8932 116.371 49.8962 115.868 49.8962C115.365 49.8962 104.68 45.8922 104.68 45.8922L98.8339 44.7253L93.6573 45.7263L88.1489 48.5634L83.6415 47.5624C83.6415 47.5624 84.4766 42.0655 88.6523 41.8939C92.8279 41.7223 90.6543 37.049 95.1616 37.049C99.669 37.049 98.3363 40.7213 101.339 39.5544C104.342 38.3875 104.68 34.0403 104.68 34.0403Z" fill="#497C61"/>
<path d="M192.499 25.1908C192.499 25.1908 186.144 33.1873 184.588 29.6238C183.027 26.0602 187.957 20.8721 177.501 22.6225C167.045 24.3785 159.998 21.8159 157.195 24.2756C154.392 26.7352 163.207 28.7486 159.197 34.869C155.187 40.9895 141.831 36.8768 140.252 40.0685C138.674 43.2603 138.611 43.552 138.611 43.552C138.611 43.552 136.523 41.9333 136.717 46.4978C136.912 51.0624 135.745 52.7784 133.52 52.3608C131.295 51.9433 131.581 47.3101 127.64 43.552C123.699 39.794 118.854 40.2459 117.155 43.552C115.462 46.8582 126.398 56.5308 126.398 56.5308L131.781 61.9304C131.781 61.9304 134.046 58.8645 136.231 61.2498C138.416 63.6293 136.386 66.1976 141.665 65.3796C146.945 64.5617 152.27 60.163 151.149 63.2804C150.034 66.3921 140.801 72.9758 144.628 75.7786C148.461 78.5814 154.535 74.2628 158.156 73.5593C161.777 72.8557 165.123 74.7433 165.947 74.8234C166.77 74.9035 184.577 63.9668 184.577 63.9668L189.839 64.4415L192.493 65.923V25.1908H192.499Z" fill="#4EB1AB"/>
<path d="M192.139 37.7633C192.139 37.7633 186.356 42.5052 181.133 41.3269C175.911 40.1486 183.856 31.8374 178.777 29.6238C173.697 27.4101 172.027 35.8529 167.531 38.6328C163.035 41.4127 156.206 41.4642 160.393 43.3175C164.58 45.1708 166.799 42.7512 169.488 43.3175C172.176 43.8838 165.501 48.8144 171.078 47.5903C176.655 46.3605 179.52 42.6425 179.995 46.126C180.47 49.6095 186.596 58.7444 189.296 58.5613C191.996 58.3783 192.39 53.0701 192.39 53.0701V38.6328L192.139 37.7633Z" fill="#50A797"/>
<path d="M127.631 48.7117C127.631 48.7117 130.812 54.9122 134.375 54.0714C137.945 53.2305 133.151 43.415 137.241 42.7171C141.331 42.0136 141.434 49.7184 147.846 49.3752C154.258 49.0377 156.094 48.3628 156.832 52.2581C157.57 56.1535 155.711 48.7117 160.327 48.7174C164.943 48.7231 168.507 51.0741 171.824 49.3752C175.142 47.6764 177.504 50.0959 180.273 50.4334C183.041 50.7766 182.017 46.8927 186.679 46.4981C191.341 46.1034 191.993 46.1263 191.993 46.1263L192.519 73.6796C192.519 73.6796 164.039 73.6796 160.396 73.6796C156.752 73.6796 155.002 73.3707 152.491 77.7923C149.979 82.2138 142.984 81.4988 141.663 77.7923C140.336 74.0857 146.376 68.7947 148.532 66.0376C150.683 63.2806 149.345 61.0155 146.799 62.7887C144.254 64.5619 138.065 69.2694 137.361 65.9232C136.658 62.577 137.029 59.2995 133.163 60.9983C129.302 62.6971 120.825 68.3828 121.208 58.8762C121.585 49.381 127.631 48.7117 127.631 48.7117Z" fill="#50A797"/>
<path d="M36.5658 57.0805C36.3999 52.4073 38.5678 51.5721 43.7444 52.9049C48.921 54.2377 49.0869 59.7518 51.4264 55.742C53.7658 51.738 51.0946 48.8952 56.9347 48.3975C62.7806 47.8942 62.9465 48.7293 64.1133 45.0571C65.2802 41.3848 60.7729 36.9918 64.1133 37.8556C67.4538 38.7136 67.9515 38.05 72.293 37.049C76.6345 36.048 76.6345 38.7193 77.6355 40.3895C78.6365 42.0598 78.4706 41.8939 80.6385 40.0578C82.8064 38.2216 84.8141 36.5514 84.1448 40.3895C83.4756 44.2277 82.4746 47.734 86.982 46.0638C91.4893 44.3935 91.1576 41.7223 100.504 42.0598C109.851 42.3973 107.351 46.7845 111.858 47.0076C116.366 47.2364 115.365 41.0588 121.708 41.3905C128.052 41.7223 129.556 44.2276 129.888 48.9009C130.22 53.5741 134.063 52.0755 134.063 54.5752C134.063 57.0805 127.72 58.5792 126.216 63.9216C124.711 69.2641 119.369 58.745 117.367 63.9216C115.365 69.0983 120.701 70.9859 116.532 75.2759C112.362 79.5659 111.692 73.108 107.185 74.2749C102.678 75.4417 101.173 76.7802 99.6747 72.4387C98.1703 68.0973 96.1683 69.2641 91.9927 69.9334C87.8171 70.6026 85.981 69.43 82.978 68.6006C79.9749 67.7655 80.9759 64.7625 77.1321 63.2581C73.294 61.7538 70.4568 62.9264 71.2862 66.4327C72.1214 69.9391 73.2882 73.7772 70.4511 74.7782C67.614 75.7792 66.613 72.4387 63.6043 72.4387C60.5955 72.4387 61.7681 76.111 58.4276 75.7792C55.0872 75.4475 57.0949 71.106 58.4276 68.6006C59.7604 66.0953 60.933 64.2591 57.4266 65.5976C53.9203 66.9304 52.7534 67.102 51.9183 64.7625C51.0832 62.423 49.247 63.5956 48.246 65.0943C47.245 66.5986 46.4271 63.9274 45.0028 63.5899C43.5728 63.2581 42.5718 61.0845 40.7356 60.5869C38.8995 60.0835 36.5658 57.0805 36.5658 57.0805Z" fill="#4EB1AB"/>
<path d="M38.4462 59.2547C38.2804 54.5815 41.0088 50.6232 45.6477 53.2773C49.646 55.5653 50.6642 63.5676 51.3906 55.8628C52.3459 45.7155 53.7072 55.5882 59.5531 55.0848C65.399 54.5815 60.9545 63.5218 62.1214 59.8439C63.2883 56.1659 64.3064 54.5071 67.6469 55.3708C70.9874 56.2346 70.0265 53.1343 73.9332 55.2736C78.7895 57.9391 74.6482 57.2241 75.6492 58.8944C76.6502 60.5646 77.6684 61.1137 79.842 59.2776C82.0099 57.4415 75.1401 57.3042 75.8437 53.4661C76.7017 48.7985 78.3834 48.4725 82.8908 46.8023C87.3981 45.132 83.6687 43.1929 89.9378 50.137C91.5795 51.956 95.2689 48.9015 98.0316 50.423C99.5989 51.2867 99.3472 47.0025 101.08 47.0883C105.588 47.3171 106.268 59.6265 110.507 54.8961C114.603 50.3258 116.885 49.279 123.457 53.8493C127.547 56.6921 129.703 46.745 129.869 49.0159C130.201 53.6891 134.045 52.1905 134.045 54.6902C134.045 57.1898 127.701 58.6942 126.197 64.0366C124.693 69.3791 119.35 58.86 117.348 64.0366C115.346 69.2133 120.683 71.1009 116.513 75.3909C112.343 79.6809 111.674 73.223 107.167 74.3899C102.659 75.5568 101.155 76.8952 99.6561 72.5537C98.1518 68.2123 96.1498 69.3791 91.9741 70.0484C87.7985 70.7176 85.9624 69.545 82.9594 68.7156C79.9564 67.8805 80.9574 64.8775 77.1135 63.3731C73.2697 61.8688 70.4383 63.0414 71.2677 66.5477C72.1028 70.0541 73.2697 73.8922 70.4326 74.8932C67.5954 75.8942 66.5944 72.5537 63.5857 72.5537C60.577 72.5537 61.7496 76.226 58.4091 75.8942C55.0686 75.5625 57.0763 71.221 58.4091 68.7156C59.7419 66.2103 60.9145 64.3741 57.4081 65.7126C53.9017 67.0454 52.7348 67.217 51.8997 64.8775C51.0646 62.538 49.2285 63.7106 48.2275 65.2093C47.2265 66.7079 46.4085 64.0424 44.9842 63.7049C43.5542 63.3731 42.5532 61.1995 40.7171 60.7019C38.8638 60.1985 38.4462 59.2547 38.4462 59.2547Z" fill="#50A797"/>
<path d="M65.839 50.8913C65.9363 48.9865 70.0318 45.749 70.0318 45.749C71.3646 42.6087 75.6489 39.8459 75.7461 43.3694C75.8433 46.893 74.1273 49.7473 76.6041 50.0333C79.0809 50.3193 80.6024 53.368 77.9369 52.8876C75.2713 52.4071 74.3904 53.2708 72.5886 53.7456C70.7868 54.2203 70.0318 55.2671 70.2206 52.3156C70.4093 49.364 67.7438 51.6463 66.7943 51.8408C65.839 52.0353 65.839 50.8913 65.839 50.8913Z" fill="#50A797"/>
<path d="M63.6433 46.1322C63.6433 46.1322 64.976 46.7042 64.5928 48.9865C64.2096 51.2745 64.69 51.2745 62.8768 50.222C61.0693 49.1752 59.7365 48.8892 57.9233 49.65C56.1157 50.4108 54.6857 52.0467 54.3997 50.897C54.1137 49.7472 56.6877 48.9121 57.4485 48.7119C58.215 48.5117 63.6433 46.1322 63.6433 46.1322Z" fill="#50A797"/>
<path d="M79.3264 66.3187C79.4465 64.414 82.112 63.6532 82.112 63.6532C82.112 63.6532 79.9212 60.2269 83.6335 59.0829C87.3458 57.9389 86.9683 59.9409 90.2058 58.6082C93.4434 57.2754 94.8734 55.5594 94.7761 58.6082C94.6789 61.6569 92.0134 63.3672 96.7781 63.3672C101.543 63.3672 103.728 63.842 101.732 64.986C99.7297 66.13 95.5426 69.5563 101.257 70.1283C106.971 70.7003 109.825 70.1283 109.065 72.2218C108.304 74.3153 111.919 76.3173 108.018 75.4593C104.111 74.6013 104.592 75.3392 103.236 75.3506C101.88 75.3621 100.685 75.8426 100.21 73.463C99.7354 71.0835 97.1614 69.745 93.2603 69.9395C89.3593 70.134 84.8805 71.6555 81.4542 69.7507C78.0279 67.846 79.3264 66.3187 79.3264 66.3187Z" fill="#4E8B7F"/>
<path d="M48.8815 64.9857C48.8815 64.9857 49.3563 63.0809 47.074 62.5089C44.786 61.9369 46.8852 57.4639 42.6009 57.5554C38.3166 57.6469 36.6006 57.0806 36.6006 59.0769C36.6006 61.0789 36.6979 61.1704 38.1221 60.7929C39.5521 60.4097 40.7877 62.5089 41.1709 63.2697C41.5541 64.0304 41.8402 63.7444 44.5972 64.2192C47.36 64.694 45.7412 66.4328 47.7375 66.2784C49.7338 66.1297 48.8815 64.9857 48.8815 64.9857Z" fill="#4E8B7F"/>
<path d="M69.4554 76.2761L64.9481 101.65H67.9511L69.4554 97.7547L70.4564 99.9798C70.4564 99.9798 73.631 95.8042 73.631 96.3076C73.631 96.8109 76.3023 98.647 76.3023 98.647L72.63 87.1269V72.2664L69.4554 76.2761Z" fill="#513735"/>
<path d="M89.4885 65.9285L88.4874 89.4663C88.4874 89.4663 91.7021 91.2052 92.9948 90.6332C94.2876 90.0612 95.9978 87.7961 95.9978 87.7961L92.2398 65.9227H89.4885V65.9285Z" fill="#513735"/>
<path d="M120.203 61.2554L118.87 81.1211H120.203L121.21 61.2554H120.203Z" fill="#513735"/>
<path d="M161.774 54.7403L162.941 84.124L165.949 66.5979V54.7403L161.774 53.0701V54.7403Z" fill="#513735"/>
<path d="M127.634 79.188H122.286V97.555L114.084 103.264C114.084 103.264 111.407 104.688 110.52 107.01C109.628 109.327 109.273 110.219 112.659 115.928C116.046 121.636 116.938 121.991 116.938 123.593C116.938 125.2 114.799 146.953 114.799 146.953H118.774L122.824 123.593L123.539 131.618L127.64 130.725V79.188H127.634Z" fill="#56493E"/>
<path d="M122.641 101.656V113.422L119.078 116.986C119.078 116.986 114.439 110.745 115.692 108.069C116.933 105.403 122.641 101.656 122.641 101.656Z" fill="#97CCCD"/>
<path d="M124.953 81.6876H204.124L204.839 95.5929H124.953V81.6876Z" fill="#E18E44"/>
<path d="M202.316 82.2195H125.851V93.2018H202.316V82.2195Z" fill="#F1C169"/>
<path d="M124.953 97.1375H204.124L204.839 111.043H124.953V97.1375Z" fill="#E18E44"/>
<path d="M202.316 97.67H125.851V108.653H202.316V97.67Z" fill="#F1C169"/>
<path d="M124.96 112.965L119.823 118.376V122.609H194.246L194.561 112.965H124.96Z" fill="#E18E44"/>
<path d="M125.857 114.137L121.858 118.375H191.814L191.345 113.748L125.857 114.137Z" fill="#F1C169"/>
<path d="M301.495 91.555C301.667 89.164 301.839 89.3356 297.217 88.9924C292.595 88.6492 289.18 89.5072 289.18 85.2286C289.18 80.95 285.588 81.1216 283.878 81.1216C282.168 81.1216 281.996 82.8719 281.996 82.8719H280.8V81.1216H277.38L276.693 78.559H273.273V80.2693L267.799 79.5829L266.26 75.6475H259.934V77.701H258.733L248.471 75.6475L246.417 71.369H241.458V74.6179L236.499 74.7895L235.641 77.8669L231.706 78.2101V67.9541H227.942L227.084 76.3339L222.977 77.1919L221.095 70.3508H212.543L211.685 74.1146V85.057L246.578 89.3356L286.091 94.4664L301.495 91.555Z" fill="#C4CBDE"/>
<path d="M274.752 90.285C297.009 95.9192 304.759 98.1729 284.894 100.713C265.028 103.252 247.422 104.797 242.348 106.067C237.274 107.336 237.137 105.5 237.137 105.5C237.137 105.5 280.243 98.6191 284.751 98.396C289.258 98.1729 286.444 95.0727 280.523 94.0888C274.609 93.0993 274.752 90.285 274.752 90.285Z" fill="#83C4CB"/>
<path d="M215.437 83.3182C215.437 83.3182 219.384 80.4239 223.468 81.831C227.552 83.2382 227.415 81.688 228.398 80.5612C229.382 79.4343 226.848 75.6305 230.229 75.4875C233.609 75.3445 238.54 74.3607 238.82 75.4875C239.101 76.6144 240.37 76.4714 241.217 76.4714C242.064 76.4714 242.344 80.3839 243.751 79.1312C245.158 77.8785 243.185 75.7678 243.751 73.7944C244.317 71.821 245.301 73.5141 246.988 72.8106C248.682 72.107 247.132 69.8533 249.385 69.1498C251.639 68.4462 252.909 65.7692 253.332 66.8961C253.755 68.0229 253.612 70.6999 256.713 70.6999C259.813 70.6999 259.246 70.9802 259.246 73.0966C259.246 75.2072 261.861 80.0006 259.287 77.8842C256.713 75.7735 255.443 78.5878 256.289 79.5773C257.136 80.5669 258.966 79.8576 258.12 81.831C257.273 83.8044 260.23 85.6348 261.22 85.4918C262.209 85.3488 262.204 82.975 263.617 83.3182C265.029 83.6614 262.347 87.042 264.32 87.4652C266.294 87.8885 266.151 86.4814 268.404 86.3384C270.658 86.1954 271.928 89.2956 273.055 88.4491C274.181 87.6025 276.155 85.5033 276.292 88.5978C276.435 91.6923 275.726 92.8192 273.615 94.3693C271.504 95.9194 269.954 95.2158 268.828 95.2158C267.701 95.2158 265.727 93.5628 265.727 95.376C265.727 97.1892 262.627 96.766 262.627 96.766C262.627 96.766 260.23 98.8766 261.643 99.2999C263.05 99.7232 263.754 99.2999 261.923 101.13C260.093 102.961 258.12 104.654 257.559 103.241C256.993 101.834 255.729 100.707 254.322 101.268C252.914 101.834 255.448 103.721 253.618 103.762C251.788 103.802 248.968 103.098 249.671 99.8605C250.375 96.623 248.401 99.4372 249.248 96.7602C250.094 94.0833 245.038 92.3959 245.873 94.9298C246.708 97.4638 247.835 97.4638 244.878 97.8871C241.921 98.3104 241.217 98.5906 241.074 99.4372C240.931 100.284 240.508 100.284 238.963 100.284C237.419 100.284 239.106 97.4638 236.853 98.1731C234.599 98.8766 234.599 98.1731 231.499 101.13C228.398 104.088 216.426 106.827 218.114 103.767C219.807 100.707 220.791 100.85 221.214 98.0301C221.637 95.2101 220.934 93.5227 219.944 95.0728C218.96 96.623 219.378 96.9032 216.283 96.623C213.183 96.3427 214.173 108.034 211.353 95.9194C208.539 83.8044 215.437 83.3182 215.437 83.3182Z" fill="#50AE9F"/>
<path d="M256.717 78.4507C256.717 78.4507 251.22 80.5614 252.633 81.8313C254.04 83.1011 256.157 84.7885 253.48 84.6513C250.803 84.514 248.972 81.551 247.279 84.085C245.586 86.6189 238.968 89.1586 244.042 88.5924C249.115 88.0261 254.606 88.5924 255.31 87.0422C256.014 85.4921 256.437 85.086 257.283 83.3185C258.13 81.551 258.13 81.265 257.283 80.4242C256.431 79.5776 256.717 78.4507 256.717 78.4507Z" fill="#50A796"/>
<path d="M236.283 89.8618C237.69 89.1583 239.103 92.5502 240.367 91.5607C241.637 90.5654 240.276 87.8427 242.152 90.7542C244.028 93.6656 239.663 93.1051 244.028 93.6656C248.392 94.2319 249.525 92.5388 248.392 94.2319C247.265 95.925 247.408 95.639 246.139 96.6286C244.869 97.6124 243.164 95.3587 242.541 97.1948C241.911 99.0252 243.038 99.7288 241.071 99.0252C239.097 98.3217 238.96 96.9146 236.283 98.3217C233.606 99.7288 235.013 99.0252 235.156 96.7716C235.299 94.5179 232.622 95.3587 232.759 94.3749C232.902 93.3911 234.87 93.9573 235.717 93.3911C236.563 92.8248 235.436 89.4557 235.436 89.4557L236.283 89.8618Z" fill="#50A796"/>
<path d="M250.039 98.1728C250.096 97.6065 248.689 98.1727 250.943 96.0621C253.197 93.9514 250.8 94.8609 250.943 92.6415C251.086 90.4221 251.927 89.1752 253.196 89.4497C254.466 89.7243 255.17 88.0483 255.593 89.4497C256.016 90.8511 253.197 91.8521 256.159 91.5604C259.117 91.2744 257.99 93.3851 259.117 91.2744C260.244 89.1637 257.286 89.3182 260.244 88.6775C263.201 88.0369 263.481 88.5975 263.344 90.1476C263.201 91.6977 264.471 93.877 267.291 92.6472C270.111 91.4174 269.121 92.0809 268.698 93.2993C268.274 94.5177 268.274 94.5177 268.274 94.5177C268.274 94.5177 269.121 91.978 267.005 94.3747C264.888 96.7713 265.031 97.8982 263.767 96.7714C262.497 95.6445 264.19 94.3747 262.497 95.6445C260.804 96.9144 261.651 98.7448 260.804 96.9144C259.958 95.0839 260.661 95.0839 259.958 95.0839C259.254 95.0839 262.492 98.8878 261.931 99.8716C261.365 100.855 258.768 100.152 259.431 102.125C260.095 104.099 258.688 106.209 257.916 104.099C257.143 101.988 257 99.4483 255.45 100.861C253.9 102.268 251.503 103.258 251.503 103.258C251.503 103.258 251.223 103.115 251.08 101.565C250.937 100.015 251.36 99.5684 251.503 99.2996C251.646 99.0193 250.039 98.1728 250.039 98.1728Z" fill="#50AF9C"/>
<path d="M271.512 93.3796V97.0461L269.962 97.6066L271.512 93.3796Z" fill="#81948C"/>
<path d="M259.548 102.572L261.132 111.129C261.132 111.129 260.486 112.181 259.256 112.181C258.026 112.181 258.141 110.831 258.141 110.831L258.432 102.566H259.548V102.572Z" fill="#81948C"/>
<path d="M255.393 99.9917C255.393 99.9917 254.69 102.451 255.044 105.328C255.393 108.2 256.451 110.076 256.451 110.076C256.451 110.076 254.867 110.019 254.695 110.894C254.518 111.775 254.873 111.363 253.935 110.894C252.996 110.425 253.351 110.076 253.351 110.076C253.351 110.076 254.466 107.085 254.346 105.094C254.232 103.103 253.935 101.519 253.935 101.519L255.393 99.9917Z" fill="#81948C"/>
<path d="M240.852 98.2308C240.852 98.2308 239.971 98.3452 240.268 99.9869C240.56 101.629 240.852 103.796 240.852 103.796H238.798C238.798 103.796 239.267 101.039 239.147 98.7571C239.038 96.4748 240.852 98.2308 240.852 98.2308Z" fill="#81948C"/>
<path d="M246.633 58.3789H311.801C311.801 58.3789 313.46 55.8106 306.218 53.9401C298.976 52.0697 302.248 50.1993 302.014 47.8655C301.779 45.526 293.136 45.7605 293.371 44.3591C293.605 42.9577 299.68 36.9631 289.167 37.8612C278.653 38.7535 279.729 39.2225 279.305 42.0253C278.882 44.8282 277.715 50.388 274.678 48.0771C271.641 45.7662 266.967 44.8282 267.202 49.7359C267.436 54.6437 265.8 55.5761 263.461 52.7733C261.121 49.9705 255.516 53.0078 255.516 54.1747C255.516 55.3415 253.411 55.107 250.374 55.5761C247.336 56.0451 246.633 58.3789 246.633 58.3789Z" fill="#E9F2FA"/>
<path d="M260.592 37.6553H193.639C193.015 37.6553 192.518 37.1348 192.552 36.5113C192.586 35.8935 192.603 35.0641 192.569 34.1089C192.518 32.6331 192.489 30.3794 192.569 28.5319C192.678 26.0722 201.996 27.8226 201.675 26.7301C201.355 25.6375 193.032 20.9643 207.435 21.6621C221.838 22.36 220.368 22.7203 220.94 24.9111C221.518 27.0961 223.12 31.4319 227.278 29.6301C231.437 27.8283 237.843 27.0961 237.523 30.9228C237.202 34.7495 239.445 35.4817 242.642 33.2909C245.845 31.1059 253.527 33.4739 253.527 34.3834C253.527 35.2929 256.41 35.1099 260.569 35.476C260.609 35.4817 260.649 35.4817 260.695 35.4874C262.073 35.6132 261.982 37.6553 260.592 37.6553Z" fill="#E9F2FA"/>
<path d="M190.084 113.554C190.278 141.068 191.84 143.018 208.428 146.336C225.016 149.653 247.65 151.409 252.724 146.336C257.798 141.262 257.992 135.799 254.091 135.016C250.19 134.232 243.36 133.454 243.36 133.454L226.578 131.532L207.65 129.553L190.084 113.554Z" fill="#88C6C7"/>
<path d="M221.327 38.9646C221.327 38.9646 222.231 36.465 223.478 35.8358C224.731 35.2123 227.505 35.8358 227.505 35.8358C227.505 35.8358 227.505 34.5145 229.518 33.2675C231.532 32.0148 235.004 33.2675 235.004 33.2675L234.615 33.5764C234.615 33.5764 231.663 32.5239 230.148 33.3705C228.626 34.217 227.928 36.2648 227.928 36.2648C227.928 36.2648 225.125 35.5155 223.753 36.2076C222.38 36.8997 221.322 39.8284 221.322 39.8284V38.9646H221.327Z" fill="#BAA790"/>
<path d="M277.924 64.7734C277.924 64.7734 278.828 62.2738 280.075 61.6446C281.328 61.0211 284.102 61.6446 284.102 61.6446C284.102 61.6446 284.102 60.3233 286.115 59.0763C288.129 57.8293 291.601 59.0763 291.601 59.0763L291.212 59.3852C291.212 59.3852 288.26 58.3327 286.745 59.1793C285.223 60.0258 284.525 62.0736 284.525 62.0736C284.525 62.0736 281.722 61.3243 280.35 62.0164C278.977 62.7085 277.919 65.6371 277.919 65.6371V64.7734H277.924Z" fill="#BAA790"/>
<path d="M190.318 115.156C190.318 101.314 214.154 108.498 214.154 108.498L233.607 115.86C233.607 115.86 250.43 122.872 250.258 128.827C250.081 134.787 255.343 137.59 242.021 139.695C228.7 141.8 231.153 145.827 211.002 142.326C190.85 138.825 191.897 135.839 192.074 131.109C192.252 126.379 190.496 131.504 190.324 125.172C190.147 118.84 190.318 115.156 190.318 115.156Z" fill="#A79FA4"/>
<path opacity="0.53" d="M194.529 113.755L192.252 128.478C192.252 128.478 189.798 126.728 190.324 119.892C190.851 113.057 190.25 104.643 190.25 104.643L194.529 113.755Z" fill="#8B8487"/>
<path opacity="0.53" d="M217.361 114.985C217.481 121.643 219.586 133.912 219.586 133.912C219.586 133.912 216.955 133.735 216.08 137.419C215.205 141.097 214.329 132.688 209.771 132.334C205.212 131.985 204.337 134.61 201.007 134.61C197.678 134.61 197.358 139.009 197.358 139.009C197.358 139.009 200.721 140.313 208.295 141.829C215.702 143.31 225.192 143.699 225.192 143.699C225.192 143.699 221.863 139.867 223.79 134.084C225.718 128.301 231.919 125.973 230.277 124.972C224.168 121.248 223.115 129.931 223.115 129.931C223.115 129.931 223.11 128.038 224.385 124.268C225.712 120.35 231.072 121.357 231.072 121.357L231.324 116.386L217.361 114.985Z" fill="#8B8487"/>
<path opacity="0.53" d="M232.908 124.794C232.908 124.794 227.828 122.964 225.895 126.373C219.906 136.943 225.191 143.699 225.191 143.699L227.468 143.418L246.945 139.632C249.69 138.882 251.132 136.846 251.132 133.997L250.033 127.511L243.244 130.577L237.438 126.899L232.908 124.794Z" fill="#73676D"/>
<path opacity="0.53" d="M207.32 112.702C207.32 112.702 209.247 131.452 211.701 130.4C214.155 129.347 212.576 108.143 212.576 108.143L207.32 112.702Z" fill="#C0B9BE"/>
<path opacity="0.53" d="M231.881 121.128C231.881 121.128 226.098 118.851 224.348 122.003C222.598 125.155 223.124 129.931 223.124 129.931C223.124 129.931 224.348 124.457 228.381 124.28C232.408 124.108 231.881 121.128 231.881 121.128Z" fill="#C0B9BE"/>
<path opacity="0.53" d="M200.306 116.386C196.8 118.662 196.102 114.984 194.7 116.386C193.299 117.787 191.898 123.398 192.424 127.774C192.95 132.156 193.648 133.157 195.404 125.646C197.154 118.136 202.417 116.054 202.417 116.054L200.306 116.386Z" fill="#A7A3A7"/>
<path d="M129.796 136.439H171.489C176.328 136.439 180.286 140.398 180.286 145.237C180.286 150.076 176.328 154.034 171.489 154.034H129.796C124.957 154.034 120.999 150.076 120.999 145.237C120.999 140.398 124.957 136.439 129.796 136.439Z" fill="white"/>
<path d="M187.986 149.561H229.679C234.518 149.561 238.476 153.519 238.476 158.359C238.476 163.198 234.518 167.156 229.679 167.156H187.986C183.147 167.156 179.188 163.198 179.188 158.359C179.188 153.519 183.147 149.561 187.986 149.561Z" fill="white"/>
<path d="M131.11 151.38C134.49 151.38 137.23 148.64 137.23 145.259C137.23 141.879 134.49 139.139 131.11 139.139C127.73 139.139 124.989 141.879 124.989 145.259C124.989 148.64 127.73 151.38 131.11 151.38Z" fill="#E29044"/>
<path d="M144.81 151.38C148.19 151.38 150.931 148.64 150.931 145.259C150.931 141.879 148.19 139.139 144.81 139.139C141.43 139.139 138.69 141.879 138.69 145.259C138.69 148.64 141.43 151.38 144.81 151.38Z" fill="#E29044"/>
<path d="M159.033 151.294C162.413 151.294 165.153 148.554 165.153 145.173C165.153 141.793 162.413 139.053 159.033 139.053C155.653 139.053 152.913 141.793 152.913 145.173C152.913 148.554 155.653 151.294 159.033 151.294Z" fill="#E29044"/>
<path d="M195.419 164.393C198.799 164.393 201.539 161.653 201.539 158.273C201.539 154.892 198.799 152.152 195.419 152.152C192.038 152.152 189.298 154.892 189.298 158.273C189.298 161.653 192.038 164.393 195.419 164.393Z" fill="#F4C84E"/>
<path d="M210.472 164.136C213.852 164.136 216.592 161.396 216.592 158.015C216.592 154.635 213.852 151.895 210.472 151.895C207.092 151.895 204.352 154.635 204.352 158.015C204.352 161.396 207.092 164.136 210.472 164.136Z" fill="#4889CA"/>
<path d="M171.956 148.211H168.895V149.933H171.956V148.211Z" fill="#E29044"/>
<path d="M168.9 147.354C168.9 147.354 168.511 145.06 169.85 144.585C171.188 144.11 171.617 142.818 170.153 142.863C168.689 142.909 169.249 144.025 169.249 144.025L167.396 143.979C167.396 143.979 166.343 140.615 171.068 140.747C175.793 140.878 174.414 144.408 173.339 145.014C172.264 145.62 171.96 145.66 171.96 146.049C171.96 146.438 171.96 146.61 171.96 146.61L168.9 146.782V147.354Z" fill="#E29044"/>
<path d="M130.849 141.016L130.728 141.599C130.711 141.679 130.637 141.736 130.557 141.731L129.367 141.622C129.276 141.616 129.195 141.685 129.19 141.782L129.173 142.428C129.173 142.509 129.224 142.577 129.298 142.594L129.71 142.686C129.802 142.703 129.859 142.8 129.83 142.892L128.978 145.963C128.955 146.044 128.875 146.095 128.789 146.078L128.223 145.963C128.137 145.946 128.051 145.998 128.034 146.089L127.908 146.65C127.891 146.73 127.931 146.81 128.006 146.839L128.915 147.193C128.995 147.228 129.041 147.313 129.012 147.399L128.761 148.114C128.732 148.2 128.778 148.292 128.864 148.32L129.39 148.497C129.47 148.526 129.556 148.486 129.59 148.406L129.865 147.754C129.899 147.674 129.985 147.639 130.065 147.662L130.345 147.754C130.437 147.782 130.482 147.891 130.442 147.977L130.202 148.486C130.156 148.583 130.214 148.698 130.317 148.715L130.654 148.783C130.734 148.801 130.808 148.755 130.837 148.68L131.072 148.063C131.1 147.994 131.169 147.948 131.243 147.96C131.609 148.011 132.685 148.103 133.337 147.451C134.132 146.656 134.017 145.752 133.663 145.397C133.583 145.317 133.514 145.248 133.463 145.191C133.377 145.1 133.417 144.951 133.537 144.922C133.743 144.871 133.989 144.694 134.103 144.162C134.321 143.155 133.811 142.732 133.308 142.623C133.039 142.566 132.828 142.52 132.69 142.486C132.593 142.463 132.536 142.36 132.576 142.263L132.856 141.576C132.896 141.479 132.833 141.37 132.73 141.353L132.21 141.267C132.13 141.256 132.05 141.302 132.027 141.382L131.821 142.108C131.798 142.182 131.735 142.228 131.661 142.228C131.564 142.228 131.489 142.137 131.506 142.039L131.638 141.147C131.649 141.056 131.586 140.97 131.495 140.958L131.02 140.901C130.946 140.878 130.866 140.936 130.849 141.016Z" fill="#F2F9FB"/>
<path d="M131.085 143.406L130.896 144.236C130.879 144.322 130.931 144.413 131.016 144.43C131.377 144.51 132.252 144.653 132.355 144.196C132.458 143.744 131.657 143.412 131.291 143.286C131.205 143.258 131.108 143.309 131.085 143.406Z" fill="#E29044"/>
<path d="M130.713 145.209L130.478 146.25C130.461 146.336 130.513 146.427 130.598 146.444C131.005 146.536 132.08 146.73 132.2 146.175C132.326 145.632 131.325 145.232 130.919 145.089C130.833 145.06 130.736 145.111 130.713 145.209Z" fill="#E29044"/>
<path d="M143.908 141.576L146.196 141.634C146.328 141.639 146.402 141.788 146.322 141.891L144.978 143.761C144.903 143.87 144.972 144.019 145.104 144.019L146.288 144.047C146.414 144.053 146.488 144.19 146.419 144.299L143.754 148.469C143.651 148.629 143.405 148.515 143.462 148.332L144.343 145.483C144.377 145.369 144.286 145.26 144.171 145.272L142.53 145.46C142.409 145.472 142.318 145.352 142.358 145.237L143.754 141.674C143.777 141.616 143.839 141.576 143.908 141.576Z" fill="#F2F9FB"/>
<path d="M190.454 158.885C190.454 158.885 186.891 161.076 189.082 162.008C191.272 162.94 190.454 158.885 190.454 158.885Z" fill="#4889CA"/>
<path d="M200.147 158.885C200.147 158.885 203.711 161.076 201.52 162.008C199.329 162.94 200.147 158.885 200.147 158.885Z" fill="#4889CA"/>
<path d="M192.765 159.611H197.816C197.816 159.611 198.051 162.386 195.288 162.471C192.531 162.563 192.765 159.611 192.765 159.611Z" fill="#2D4655"/>
<path d="M193.471 161.693C193.465 161.688 193.465 161.682 193.471 161.676C193.516 161.608 193.888 161.127 195.25 161.127C196.611 161.127 196.983 161.608 197.029 161.676C197.034 161.682 197.034 161.688 197.029 161.693C196.989 161.773 196.577 162.488 195.25 162.477C194.003 162.466 193.522 161.773 193.471 161.693Z" fill="#D34C4A"/>
<path d="M193.116 160.515H197.321V159.611H193.174V160.589" fill="#F2F9FB"/>
<path d="M191.165 158.181C191.044 158.181 190.947 158.084 190.942 157.964C190.924 157.437 190.993 156.133 192.126 156.133C193.527 156.133 193.601 157.38 193.567 157.924C193.556 158.067 193.435 158.181 193.292 158.181H193.235C193.132 158.181 193.052 158.084 193.075 157.981C193.109 157.815 193.149 157.569 193.115 157.34C193.075 157.06 192.961 156.883 192.818 156.757C192.703 156.659 192.595 156.528 192.188 156.545C191.782 156.557 191.697 156.7 191.605 156.791C191.456 156.945 191.428 157.134 191.416 157.5C191.411 157.689 191.433 157.832 191.462 157.941C191.496 158.061 191.405 158.181 191.285 158.175L191.165 158.181Z" fill="black"/>
<path d="M197.413 158.181C197.293 158.181 197.196 158.084 197.19 157.964C197.173 157.437 197.241 156.133 198.374 156.133C199.775 156.133 199.85 157.38 199.815 157.924C199.804 158.067 199.684 158.181 199.541 158.181H199.484C199.381 158.181 199.301 158.084 199.323 157.981C199.358 157.815 199.398 157.569 199.363 157.34C199.323 157.06 199.209 156.883 199.066 156.757C198.952 156.659 198.843 156.528 198.437 156.545C198.031 156.557 197.945 156.7 197.853 156.791C197.705 156.945 197.676 157.134 197.665 157.5C197.659 157.689 197.682 157.832 197.71 157.941C197.745 158.061 197.653 158.181 197.533 158.175L197.413 158.181Z" fill="black"/>
<path d="M208.508 154.767V156.345C208.508 156.345 210.613 156.317 211.808 156.345C213.004 156.374 212.832 158.096 212.775 158.422C212.718 158.742 212.661 159.875 211.082 159.903C209.503 159.932 207.564 159.903 207.564 159.903L207.272 161.528C207.272 161.528 209.938 161.471 211.694 161.528C213.444 161.585 214.554 159.411 214.554 157.632C214.554 155.853 214.085 154.772 213.181 154.772C212.277 154.767 208.508 154.767 208.508 154.767Z" fill="white"/>
<path d="M206.956 157.392L206.024 158.765H209.937L210.909 157.392H206.956Z" fill="white"/>
<path d="M180.228 47.7962C182.711 46.7265 184.581 47.8762 185.948 48.2881C187.315 48.6999 188.94 49.7295 190.61 51.4055C192.28 53.0814 191.697 56.2332 192.44 57.8748C193.184 59.5164 195.215 61.221 197.274 62.5824C199.339 63.9437 199.505 66.8209 199.505 66.8209C199.505 66.8209 200.694 69.2919 200.735 70.6247C200.775 71.9574 201.392 76.848 202.914 79.0502C204.435 81.2524 203.103 84.0495 200.837 85.0334C198.572 86.0229 197.508 85.7312 197.268 86.6979C197.028 87.6646 197.062 90.2786 193.928 91.0909C190.793 91.9031 182.287 91.2167 179.948 91.2625C177.609 91.3082 171.271 97.9777 168.783 97.3657C166.294 96.7537 156.124 86.8981 157.028 84.2154C157.937 81.5327 165.162 81.1495 161.77 79.5765C158.378 78.0035 160.26 76.4419 160.38 73.8393C160.5 71.2367 163.623 70.5217 166.712 69.0631C169.795 67.6045 170.35 66.615 168.571 64.9848C166.792 63.3488 165.854 62.1877 169.206 60.649C172.558 59.116 173.953 58.5955 174.548 57.7089C175.143 56.8223 173.29 55.4781 173.828 54.0481C174.365 52.6181 177.157 51.5771 177.797 50.1528C178.438 48.7285 180.228 47.7962 180.228 47.7962Z" fill="#3E356A"/>
<path d="M130.768 126.183C130.768 126.183 128.823 126.915 128.045 127.699C127.267 128.476 127.01 129.329 127.01 129.329L124.865 128.602L124.036 127.235L124.053 126.291C124.053 126.291 125.694 125.84 126.427 125.176C127.159 124.518 128.537 123.5 128.537 123.5L130.768 126.183Z" fill="#FFC9B1"/>
<path d="M127.764 128.414C127.764 128.414 128.096 129.587 127.747 130.273C127.398 130.959 125.047 132.807 123.297 131.703C121.547 130.599 120.906 127.19 120.906 127.19C120.906 127.19 120.666 126.732 122.308 126.446C123.949 126.16 123.949 126.16 123.949 126.16C123.949 126.16 124.413 127.356 125.196 127.968C125.98 128.586 127.764 128.414 127.764 128.414Z" fill="white"/>
<path d="M126.476 135.489C127.013 135.952 126.167 137.691 125.269 137.297C124.371 136.896 110.282 129.363 109.447 128.888C108.612 128.413 109.51 126.566 110.242 127.006C110.974 127.458 126.476 135.489 126.476 135.489Z" fill="white"/>
<path d="M122.337 125.559C122.337 125.559 122.983 128.591 124.487 129.626C125.992 130.662 127.954 129.169 128.251 129.34C128.554 129.512 128.446 131.531 128.022 133.001C127.599 134.477 126.724 135.81 126.724 135.81C126.724 135.81 114.735 129.455 112.304 128.242C109.873 127.029 109.306 126.915 110.593 126.189C111.749 125.536 115.015 127.441 117.183 127.127C119.356 126.818 122.337 125.559 122.337 125.559Z" fill="#49476A"/>
<path d="M187.129 94.7118L177.491 95.1808L178.572 97.9836L187.364 96.9884L187.129 94.7118Z" fill="#EBB3A0"/>
<path d="M188.594 62.1588C188.022 62.8166 187.485 62.439 187.485 62.439C187.485 62.439 187.25 64.0235 186.163 64.7557C185.077 65.4878 184.636 65.8711 184.636 65.8711C184.636 65.8711 184.453 66.7691 184.516 67.5985C184.568 68.2563 184.396 69.3317 186.947 70.796C190.305 72.7179 190.127 73.2156 190.099 74.1193C190.059 75.3434 189.544 75.1146 189.544 75.1146C189.544 75.1146 187.073 75.3205 184.842 75.5207C184.179 75.5837 181.988 75.9154 179.906 75.7266C178.424 75.5894 177.006 75.0517 175.81 74.1651L174.998 73.4787L173.539 71.9286C173.539 71.9286 172.962 70.2526 174.752 69.9323C176.542 69.612 180.117 69.978 180.238 68.8626C180.358 67.7472 180.443 66.6604 180.443 66.6604C180.443 66.6604 179.105 65.974 178.287 64.8643C177.463 63.7489 176.325 62.3818 176.663 60.4427C176.966 58.6753 175.667 57.0222 177.252 55.3977C178.361 54.2651 178.51 53.2012 180.421 52.3203C182.325 51.4394 182.617 51.0905 183.469 52.0858C184.322 53.0811 185.729 55.106 186.078 56.0727C186.432 57.0393 187.777 56.8963 187.719 57.7429C187.662 58.5952 187.542 59.9737 187.542 59.9737C187.542 59.9737 187.651 59.7163 188.417 59.0413C188.68 58.8125 189.893 58.435 189.962 59.7277C190.013 60.723 189.046 61.644 188.594 62.1588Z" fill="#FFC9B1"/>
<path d="M164.754 86.1256C164.754 86.1256 161.459 85.4621 161.248 84.7814C161.036 84.1007 157.358 76.4817 156.363 75.0002C155.367 73.5187 152.833 68.8683 151.752 67.6786C150.671 66.4945 149.951 61.0148 150.219 60.8374C150.488 60.6601 151.403 63.8805 151.403 63.8805C151.403 63.8805 152.158 61.3808 152.427 61.6554C152.696 61.93 152.147 63.9606 152.336 64.6756C152.525 65.3906 152.908 63.5487 153.32 63.7604C153.731 63.972 152.891 65.6708 153.651 67.0494C154.406 68.4279 154.652 69.6749 155.059 69.0399C155.465 68.405 155.768 67.8559 155.533 66.5117C155.299 65.1675 155.716 63.8977 156.157 65.0703C156.597 66.2486 156.677 67.4383 157.318 68.1476C157.959 68.8569 158.227 69.6749 158.136 70.7559C158.039 71.837 157.878 72.8781 158.685 73.7875C159.492 74.7027 163.679 80.6115 165.223 82.236C166.63 83.7175 169.73 72.8209 171.418 74.9544C173.403 77.4655 172.098 80.8518 172.098 80.8518L169.427 86.5203L164.754 86.1256Z" fill="#FFC9B1"/>
<path d="M177.84 97.4569C177.84 97.4569 181.93 97.2796 184.384 96.9306C186.838 96.5817 187.685 96.3929 187.685 96.3929C187.685 96.3929 187.582 99.1557 188.88 100.551C190.184 101.947 192.501 105.339 192.501 105.339C192.501 105.339 192.792 112.992 190.63 114.571C188.468 116.15 184.207 117.431 184.207 117.431C184.207 117.431 175.209 118.89 167.968 117.431C160.726 115.973 150.853 112.872 150.853 112.872C150.853 112.872 137.943 122.162 134.849 124.438C131.754 126.715 129.066 128.236 129.066 128.236L125.794 124.616C125.794 124.616 140.574 107.267 143.726 103.818C146.878 100.368 148.411 99.9622 152.815 100.837C157.22 101.713 170.542 103.697 170.542 103.697L177.84 97.4569Z" fill="#5954A2"/>
<path d="M154.258 107.599C154.161 105.774 152.565 108.909 152.37 110.653C152.233 111.894 152.187 113.107 152.187 113.107L149.848 113.776L147.915 113.33L146.799 112.661C146.799 112.661 147.84 110.281 148.469 108.76C149.099 107.238 149.819 104.807 149.819 104.807L154.258 107.599Z" fill="#FFC9B1"/>
<path d="M152.134 112.644C152.134 112.644 152.483 113.593 152.488 114.394C152.494 115.195 151.196 118.055 149.033 117.866C146.871 117.677 144.635 114.812 144.635 114.812C144.635 114.812 144.189 114.503 145.584 113.45C146.974 112.398 146.974 112.398 146.974 112.398C146.974 112.398 147.981 113.29 149.005 113.485C150.034 113.679 152.134 112.644 152.134 112.644Z" fill="white"/>
<path d="M154.225 120.28C154.951 120.451 154.997 122.482 153.968 122.545C152.938 122.608 136.184 122.368 135.177 122.328C134.171 122.288 134.113 120.131 135.011 120.194C135.909 120.251 154.225 120.28 154.225 120.28Z" fill="#D2D8EE"/>
<path d="M145.587 113.015C145.587 113.015 147.652 115.526 149.551 115.766C151.45 116.007 152.56 113.673 152.92 113.69C153.286 113.707 154.155 115.635 154.47 117.214C154.785 118.792 154.613 120.457 154.613 120.457C154.613 120.457 140.382 120.308 137.533 120.348C134.685 120.388 134.101 120.548 134.953 119.261C135.72 118.1 139.678 118.3 141.543 116.962C143.419 115.623 145.587 113.015 145.587 113.015Z" fill="#49476A"/>
<path d="M157.631 87.7618C160.199 83.5576 160.554 82.854 161.898 82.5623C163.242 82.2706 166.571 83.3231 168.207 85.1592C169.843 87.0011 178.023 94.6544 180.591 98.5097C183.159 102.365 188.244 109.023 188.124 111.889C188.01 114.749 187.364 117.672 183.857 117.906C180.351 118.141 176.73 119.13 173.281 113.41C169.832 107.685 164.283 94.5972 164.283 94.5972C164.283 94.5972 163.934 97.3428 161.944 99.9111C159.959 102.479 152.306 112.003 152.306 112.003C152.306 112.003 150.727 110.482 149.325 109.961C147.924 109.435 146.929 108.852 146.929 108.852L157.631 87.7618Z" fill="#8E82B4"/>
<path d="M190.122 74.9659C190.122 74.9659 188.886 84.8386 188.886 85.9483C188.886 87.058 186.958 87.3497 187.016 89.5691C187.073 91.7885 187.307 95.7639 187.307 95.7639C187.307 95.7639 184.51 94.8887 181.793 95.7639C179.076 96.639 172.59 91.5597 172.59 91.5597V85.4164L175.627 81.7441L179.717 76.3673L183.807 76.659L190.122 74.9659Z" fill="#4D599C"/>
<path d="M190.12 74.9659C190.12 74.9659 180.339 75.864 177.279 74.0908C173.063 71.6483 173.446 70.756 173.446 70.756C172.262 71.1278 169.122 75.6409 168.899 78.152C168.744 79.8794 167.886 79.8394 168.882 82.2647C169.98 84.9359 170.769 84.547 171.198 86.1314C171.742 88.1448 170.512 90.0153 170.512 90.0153C170.512 90.0153 173.755 91.0621 177.325 90.9591C180.894 90.8561 174.991 90.45 176.14 87.7559C177.193 85.302 178.852 83.2657 178.011 83.3172C177.17 83.3686 181.071 78.6439 181.071 78.6439L178.674 82.8481L182.284 84.6556C182.284 84.6556 183.01 85.3821 184.555 85.5708C186.013 85.7482 186.774 84.3124 187.3 82.8481C187.752 81.5897 189.686 77.6257 189.64 77.1796C189.588 76.7391 190.12 74.9659 190.12 74.9659Z" fill="#6073D0"/>
<path d="M180.083 84.5412C180.083 84.5412 183.961 85.4163 185.579 86.915C187.198 88.4136 187.055 88.9513 187.055 88.9513C187.055 88.9513 185.757 89.3002 184.109 88.3221C182.462 87.344 181.793 86.9951 181.793 86.9951L179.539 85.8854L178.572 84.2151L180.083 84.5412Z" fill="#485079"/>
<path d="M178.192 97.6116C177.637 98.4238 176.607 98.7956 175.675 98.4696C175.16 98.2923 174.708 97.9147 174.439 97.3656C173.57 95.5695 172.603 93.5447 172.489 93.1729C172.277 92.4922 168.599 84.8731 167.604 83.3916C166.609 81.9102 164.075 77.2598 162.994 76.07C161.913 74.886 161.192 69.4062 161.461 69.2289C161.724 69.0516 162.645 72.272 162.645 72.272C162.645 72.272 163.4 69.7723 163.669 70.0469C163.937 70.3214 163.388 72.352 163.577 73.067C163.766 73.782 164.149 71.9402 164.561 72.1518C164.973 72.3635 164.132 74.0623 164.893 75.4408C165.648 76.8194 165.894 78.0663 166.3 77.4314C166.706 76.7965 167.009 76.2474 166.775 74.9032C166.54 73.559 166.958 72.2891 167.398 73.4617C167.838 74.64 167.919 75.8298 168.559 76.5391C169.2 77.2484 169.469 78.0663 169.377 79.1474C169.28 80.2285 169.12 81.2695 169.926 82.179C170.733 83.0942 174.416 88.2308 175.864 89.941C176.573 90.7819 177.774 86.4576 178.689 83.895C179.296 82.1962 185.588 85.937 185.588 85.937L180.091 94.8145L178.192 97.6116Z" fill="#FFC9B1"/>
<path d="M181.078 78.6446L178.682 82.8488C178.682 82.8488 177.778 84.1015 181.17 84.8337C184.562 85.5658 185.957 87.2876 185.957 87.2876L189.641 77.1803L181.078 78.6446Z" fill="#6474B5"/>
<path d="M188.947 60.7343C188.283 61.5065 187.62 62.0098 187.785 61.3749C187.951 60.74 188.443 59.5674 189.044 59.8648C189.65 60.1566 188.947 60.7343 188.947 60.7343Z" fill="#EBB4A1"/>
<path d="M184.561 65.9682C184.578 65.9682 183.085 67.1808 182.061 67.1808C181.18 67.1808 180.448 66.666 180.448 66.666C180.448 66.666 181.135 68.3992 181.855 68.2734C182.576 68.1475 183.211 68.0217 183.743 67.3067C184.275 66.5802 184.561 65.9682 184.561 65.9682Z" fill="#EBB4A1"/>
<path d="M184.575 61.9353C185.16 61.9353 185.633 61.7253 185.633 61.4662C185.633 61.2072 185.16 60.9972 184.575 60.9972C183.991 60.9972 183.517 61.2072 183.517 61.4662C183.517 61.7253 183.991 61.9353 184.575 61.9353Z" fill="#E7A69B"/>
<path d="M177.681 61.4718C178.266 61.4718 178.74 61.2618 178.74 61.0028C178.74 60.7437 178.266 60.5338 177.681 60.5338C177.097 60.5338 176.623 60.7437 176.623 61.0028C176.623 61.2618 177.097 61.4718 177.681 61.4718Z" fill="#E7A69B"/>
<path d="M180.65 59.0522C180.599 59.9674 180.147 61.06 180.147 61.06C180.147 61.06 179.712 62.0095 180.301 62.101C180.891 62.1868 181.131 62.101 181.131 62.101V62.0037C181.131 62.0037 180.782 62.0438 180.33 61.9751C179.861 61.9065 180.227 61.1972 180.387 60.7396C180.547 60.2878 180.696 59.6643 180.73 59.3211C180.765 58.9836 180.65 59.0522 180.65 59.0522Z" fill="#EBB4A1"/>
<path d="M175.48 57.2394C175.748 56.9019 176.566 56.2098 177.327 56.1812C178.46 56.1412 180.044 56.2441 180.027 56.6674C180.004 57.1536 179.844 57.4339 179.318 57.2394C178.791 57.0449 178.357 56.9305 177.533 56.9591C176.704 56.9877 175.48 57.2394 175.48 57.2394Z" fill="#39384E"/>
<path d="M186.847 57.2454C186.578 56.9079 185.954 56.4389 185.239 56.3302C184.118 56.1586 182.276 56.2501 182.299 56.6734C182.322 57.1596 182.482 57.4399 183.008 57.2454C183.535 57.0509 183.969 56.9365 184.793 56.9651C185.622 56.9937 186.847 57.2454 186.847 57.2454Z" fill="#39384E"/>
<path d="M179.42 59.4762C179.42 59.4762 178.625 59.8995 177.967 59.8709C177.315 59.8423 176.674 59.2074 176.76 58.9385C176.846 58.6697 176.829 58.7441 177.441 58.561C178.053 58.3723 178.299 58.4409 178.768 58.7155C179.237 58.9843 179.42 59.4762 179.42 59.4762Z" fill="#F9E6D3"/>
<path d="M179.504 59.5562C179.504 59.5562 179.127 58.5495 178.28 58.315C177.394 58.0747 177.039 58.6982 176.364 58.4522C175.689 58.2063 175.689 58.2063 175.689 58.2063C175.689 58.2063 176.604 58.9499 176.765 58.9384C177.136 58.9098 177.337 58.6181 177.971 58.6524C178.601 58.681 179.504 59.5562 179.504 59.5562Z" fill="#06070D"/>
<path d="M177.8 59.7719C178.133 59.7173 178.353 59.3621 178.29 58.9787C178.227 58.5953 177.906 58.3287 177.572 58.3833C177.239 58.438 177.019 58.7931 177.082 59.1765C177.145 59.56 177.466 59.8265 177.8 59.7719Z" fill="#06070D"/>
<path d="M177.951 59.149C178.042 59.1342 178.101 59.0363 178.084 58.9303C178.066 58.8243 177.979 58.7504 177.888 58.7652C177.798 58.78 177.739 58.8779 177.756 58.9839C177.774 59.0899 177.861 59.1638 177.951 59.149Z" fill="#FBF2F7"/>
<path d="M182.582 59.453C182.582 59.453 183.337 59.9564 183.989 59.985C184.641 60.0193 185.333 59.4473 185.27 59.1728C185.207 58.8982 185.219 58.9726 184.624 58.7266C184.029 58.4806 183.777 58.5264 183.291 58.7495C182.805 58.9783 182.582 59.453 182.582 59.453Z" fill="#F9E6D3"/>
<path d="M182.49 59.5216C182.49 59.5216 182.953 58.5549 183.817 58.4005C184.721 58.246 184.978 58.7666 185.682 58.6464C186.191 58.5606 186.494 58.5549 186.494 58.5549C186.494 58.5549 185.367 59.1727 185.27 59.1727C184.898 59.1727 184.726 58.8009 184.097 58.7666C183.462 58.738 182.49 59.5216 182.49 59.5216Z" fill="#06070D"/>
<path d="M184.333 59.2984C184.405 58.9164 184.193 58.5565 183.861 58.4945C183.528 58.4324 183.201 58.6917 183.13 59.0737C183.059 59.4556 183.27 59.8155 183.602 59.8776C183.935 59.9396 184.262 59.6803 184.333 59.2984Z" fill="#06070D"/>
<path d="M183.663 59.0868C183.683 58.9813 183.626 58.882 183.536 58.8652C183.446 58.8484 183.357 58.9203 183.337 59.0259C183.317 59.1315 183.374 59.2307 183.464 59.2476C183.554 59.2644 183.643 59.1924 183.663 59.0868Z" fill="#FBF2F7"/>
<path d="M178.776 63.0511C178.776 63.0511 179.828 63.5145 180.995 63.5145C182.162 63.5145 183.392 63.2857 183.392 63.2857C183.392 63.2857 181.813 65.0302 180.761 64.8872C179.708 64.7442 178.776 63.0511 178.776 63.0511Z" fill="#BA564C"/>
<path d="M179.274 63.3825C179.274 63.3825 179.674 63.7257 180.841 63.7715C182.008 63.8172 182.397 63.6571 182.397 63.6571C182.397 63.6571 181.762 64.4121 180.887 64.3378C180.017 64.2634 179.274 63.3825 179.274 63.3825Z" fill="white"/>
<path d="M153.414 66.4204C153.414 66.4204 155.428 73.0213 155.954 72.3807C156.48 71.74 155.954 69.2233 155.954 69.2233L151.647 58.4468C151.584 58.298 151.367 58.3152 151.338 58.4754L150.795 61.158C150.732 61.4726 150.772 61.8044 150.915 62.0904L151.567 63.4174C151.567 63.4174 152.087 61.8044 152.333 61.6671C152.574 61.5299 152.539 62.2734 152.368 63.5147C152.196 64.7559 152.288 65.2707 152.722 64.4814C153.157 63.692 153.283 63.5833 153.443 63.9723C153.609 64.3612 153.249 64.3498 153.334 65.3851C153.414 66.4205 153.414 66.4204 153.414 66.4204Z" fill="#0D0E0F"/>
<path d="M224.698 142.44C224.698 142.44 223.12 143.607 226.334 148.108C229.549 152.604 236.676 161.951 237.843 162.946C239.01 163.941 240.183 163.707 240.589 162.946C240.995 162.185 231.768 147.29 229.492 144.779C227.215 142.268 224.996 142.44 224.996 142.44H224.698Z" fill="#A7B6A6"/>
<path d="M234.448 139.168L231.703 142.788L235.913 148.686L241.93 142.376L239.064 149.858L239.242 151.494L247.29 149.349L244.967 145.768L242.222 138.698L234.448 139.168Z" fill="#F0C6B4"/>
<path d="M232.468 139.402C231.244 142.034 231.473 145.008 231.473 145.008L233.692 147.17H239.887L238.72 153.01L243.685 156.339C243.685 156.339 249.062 154.12 248.999 153.771C248.941 153.422 247.712 149.973 247.712 149.973L246.951 148.921C246.951 148.921 246.836 149.853 243.622 150.03C240.407 150.208 239.824 149.681 239.824 149.681L240.991 146.175L235.906 142.028L232.468 139.402Z" fill="white"/>
<path d="M233.229 139.339C233.229 139.339 231.828 142.788 232.703 144.069C233.578 145.356 235.74 146.231 237.788 146.231C239.836 146.231 240.419 146.792 240.127 149.343C239.836 151.9 240.07 152.89 243.222 153.65C246.374 154.411 246.728 154.119 247.02 152.947C247.312 151.774 246.145 151.545 246.437 150.727C246.728 149.909 248.833 147.69 249.766 148.977C250.698 150.264 250.406 153.536 253.856 154.583C257.305 155.629 260.634 155.515 261.915 156.802C263.202 158.089 262.847 158.324 262.847 158.324C262.847 158.324 258.878 159.49 255.371 159.668C251.865 159.845 249.994 160.251 245.968 159.199C241.935 158.146 237.965 156.922 237.965 156.922C237.965 156.922 231.713 145.825 229.906 143.955C228.098 142.084 226.051 141.913 226.051 141.913L231.307 139.345H233.229V139.339Z" fill="#49476A"/>
<path d="M224.991 141.913C226.919 141.565 227.737 140.689 230.425 144.951C233.114 149.218 237.667 156.751 237.667 156.751C237.667 156.751 238.776 156.637 240.355 157.335C241.934 158.038 245.555 159.377 249.295 159.731C253.036 160.08 258.059 159.262 260.684 158.679C263.315 158.095 263.721 158.095 263.664 158.736C263.607 159.377 264.19 160.721 262.44 161.133C260.69 161.539 256.657 163.238 253.563 163.295C250.468 163.352 241.705 161.836 241.705 161.836C241.705 161.836 241.299 162.654 240.71 163.003C240.121 163.352 240.595 163.003 240.595 162.362C240.595 161.722 240.481 161.367 240.481 161.367C240.481 161.367 237.329 161.773 237.095 161.075C236.86 160.372 237.152 157.512 237.152 157.512C237.152 157.512 228.269 144.67 226.873 143.492C225.203 142.085 224.476 142.789 224.476 142.789L224.991 141.913Z" fill="white"/>
<path d="M212.839 99.0936C212.839 99.0936 231.126 101.078 237.435 101.605C243.744 102.131 244.854 105.054 244.562 110.482C244.271 115.911 244.797 119.125 244.271 122.283C243.744 125.44 242.635 135.37 242.635 135.37L237.201 142.789C237.201 142.789 236.268 125.091 236.383 124.914C236.497 124.737 234.804 107.565 234.804 107.565L212.136 108.383L212.839 99.0936Z" fill="#2B4A79"/>
<path d="M189.98 107.324C189.768 112.701 189.471 116.207 191.982 115.973C194.493 115.738 192.857 117.317 193.967 117.494C195.076 117.671 195.254 116.968 195.66 117.494C196.066 118.02 196.363 117.729 197.296 118.198C198.228 118.667 199.572 118.667 201.5 118.198C203.427 117.729 207.923 118.14 210.44 118.547C212.951 118.953 213.477 117.614 215.817 118.14C218.156 118.667 220.782 118.14 224.58 118.375C228.378 118.609 229.019 117.969 228.492 119.485C227.966 121.006 227.348 121.761 228.653 123.517C229.951 125.268 228.493 137.245 230.306 139.173C232.119 141.101 237.49 145.368 237.49 145.368C237.49 145.368 236.907 147.879 238.365 149.046C239.824 150.213 246.837 147.759 247.008 146.706C247.18 145.654 247.534 145.07 247.008 143.669C246.482 142.267 244.148 139.699 243.21 131.285C242.278 122.871 241.689 113.702 240.464 111.013C239.24 108.325 239.355 105.522 236.14 104.881C232.926 104.241 214.29 101.907 214.29 101.907L189.98 107.324Z" fill="#355F8D"/>
<path d="M220.693 71.8548C220.693 71.8548 220.601 70.6365 221.351 69.1779C222.1 67.7193 222.924 68.0453 223.238 66.764C223.553 65.4827 223.759 64.8821 224.291 65.0823C224.823 65.2825 225.063 65.6372 224.8 66.5352C224.537 67.4333 222.964 68.1654 223.141 68.6001C223.318 69.0349 223.77 69.0577 224.737 68.1883C225.704 67.3189 225.927 66.6668 226.219 65.8374C226.51 65.008 226.991 64.2987 227.019 64.9508C227.048 65.6086 227.42 64.1843 228.026 63.9841C228.632 63.7839 228.684 63.5894 228.712 64.3959C228.741 65.2025 229.13 64.7849 229.387 64.3216C229.645 63.8582 230.571 63.8239 230.245 65.0194C229.919 66.2149 230.32 66.0948 230.892 65.0022C231.464 63.9097 232.03 64.7277 231.149 66.5123C230.268 68.297 228.547 71.2771 227.494 72.1923C226.442 73.1075 224.125 74.8292 224.125 74.8292L220.693 71.8548Z" fill="#F0C6B4"/>
<path d="M213.215 79.9708C213.215 79.9708 216.441 74.7084 218.043 74.348C219.644 73.9876 220.033 73.4614 220.033 73.4614C220.033 73.4614 218.626 70.4412 221.458 72.6091C224.289 74.777 225.547 73.3641 225.61 74.4395C225.673 75.5149 226.794 77.1108 225.622 78.0889C224.449 79.067 224.758 78.9698 225.101 80.028C225.444 81.0862 225.542 81.6353 223.437 84.4667C221.332 87.3038 222.201 91.0333 221.097 92.6349C215.755 100.431 211.951 90.3526 211.951 90.3526L212.866 80.1252L213.215 79.9708Z" fill="#005D9C"/>
<path d="M208.49 64.4468C208.49 64.4468 208.044 65.5394 208.731 66.0427C209.423 66.5404 210.035 68.1248 212.426 71.1679C214.822 74.2166 214.502 73.9478 214.794 80.3714C215.085 86.7949 214.88 87.4241 214.708 89.0772C214.645 89.6892 213.398 94.1909 213.833 95.9698C214.268 97.7487 215.732 100.128 214.971 102.016C214.21 103.903 212.414 104.613 212.34 106.134C212.266 107.656 211.888 108.52 208.948 108.794C206.008 109.069 207.083 110.344 207.083 110.344C207.083 110.344 206.46 112.558 205.156 112.884C203.851 113.21 203.033 113.416 200.425 113.673C197.811 113.925 194.202 112.832 192.011 113.679C190.398 114.302 195.34 100.792 195.34 100.792L195.952 96.9365C195.952 96.9365 190.918 100.614 187.978 96.8507C186.508 94.9688 187.332 91.4567 186.754 89.3174C186.177 87.1782 188.001 89.0028 187.893 86.2801C187.784 83.5574 189.746 80.4171 190.346 76.436C190.896 72.8267 194.19 70.1211 195.706 68.8284C197.216 67.5356 197.742 66.0084 202.398 65.6252C207.06 65.2362 208.49 64.4468 208.49 64.4468Z" fill="#0096CA"/>
<path d="M208.572 64.5155C208.572 64.5155 203.596 65.8368 201.828 64.8701C200.055 63.8977 200.352 62.7823 199.489 63.0626C192.184 65.4536 193.488 65.6652 195.485 65.9283C197.481 66.1915 201.594 65.9283 201.594 65.9283H207.331L208.572 64.5155Z" fill="#0096CA"/>
<path d="M206.654 63.051L208.576 64.5096C208.576 64.5096 205.504 66.5002 197.873 64.7441C194.848 64.0463 196.066 66.2542 199.115 65.7623C202.169 65.2704 202.398 65.6136 202.398 65.6136C202.398 65.6136 197.856 66.1055 196.112 68.6681C194.367 71.2307 191.816 72.8723 191.816 72.8723C191.816 72.8723 191.049 73.267 191.69 71.7969C192.331 70.3269 193.801 69.6862 191.919 67.5355C190.037 65.3848 191.238 65.0874 192.108 64.8986C192.977 64.7098 199.492 63.051 199.492 63.051H206.654Z" fill="#005D9C"/>
<path d="M202.14 71.2533C202.14 71.2533 202.821 76.0753 201.665 77.2993C200.51 78.5234 201.414 78.3518 201.442 78.7866C201.471 79.227 199.629 84.8326 199.629 84.8326L193.326 86.1482C193.326 86.1482 200.281 87.3723 201.665 86.5887C203.05 85.7993 204.405 85.1872 204.954 85.3646C205.503 85.5419 205.681 86.8575 205.681 86.8575L207.031 90.7128C207.031 90.7128 203.427 91.4164 203.015 92.6404C202.603 93.8645 203.393 95.2659 201.025 95.6148C198.657 95.9638 198.222 94.7397 195.156 96.3184C192.09 97.8971 192.262 98.4234 191.301 98.1603C190.34 97.8971 190.334 97.8971 190.334 97.8971L189.722 113.667C189.722 113.667 193.36 116.121 198.376 114.983C203.393 113.845 206.968 115.069 210.394 109.898C213.82 104.727 215.399 103.937 215.485 102.536C215.571 101.135 214.432 98.2403 214.432 98.2403C214.432 98.2403 215.124 101.655 213.42 103.411C211.715 105.162 211.023 107.53 206.241 109.635C201.465 111.74 192.965 112.266 192.965 112.266C192.965 112.266 199.623 111.299 200.59 108.496C201.557 105.694 195.825 104.727 199.217 100.872C202.609 97.0162 202.563 101.838 204.949 98.3319C207.334 94.8255 203.553 93.7787 205.887 92.6404C208.22 91.5022 211.035 90.8844 211.509 90.0092C211.984 89.1341 211.95 87.7327 211.95 87.7327C211.95 87.7327 204.971 85.3074 203.484 83.3225C201.997 81.3377 205.355 79.5874 204.377 76.693C203.399 73.7987 202.14 71.2533 202.14 71.2533Z" fill="#005D9C"/>
<path d="M207.438 76.6589C207.438 76.6589 212.746 73.6502 213.592 77.0365C214.439 80.4227 213.364 82.6135 210.795 82.7851C208.227 82.9567 207.992 82.9395 207.992 82.9395L207.764 81.847C207.764 81.847 210.893 81.6239 211.499 80.8174C212.105 80.0052 212.117 79.1815 211.802 78.2205C211.487 77.2595 211.087 76.9964 209.691 77.4083C208.29 77.8144 207.752 77.9517 207.752 77.9517L207.438 76.6589Z" fill="white"/>
<path d="M206.717 79.4334L206.62 80.5088L209.428 80.0798L209.634 78.9644L206.717 79.4334Z" fill="white"/>
<path d="M205.169 86.0971C205.169 86.0971 205.678 84.9931 207.045 84.0836C208.412 83.1741 208.972 83.8606 209.876 82.8996C210.78 81.9386 211.249 81.5096 211.621 81.9443C211.993 82.3791 212.027 82.8081 211.358 83.4602C210.688 84.118 208.955 83.9864 208.904 84.4554C208.852 84.9245 209.23 85.1647 210.5 84.873C211.77 84.587 212.284 84.1294 212.942 83.546C213.6 82.9625 214.372 82.5793 214.069 83.1627C213.766 83.7461 214.795 82.6879 215.419 82.8081C216.042 82.9282 216.185 82.7852 215.814 83.5002C215.448 84.2209 215.991 84.0436 216.443 83.7633C216.895 83.483 217.718 83.9063 216.855 84.7929C215.991 85.6795 216.397 85.771 217.432 85.0904C218.468 84.4154 218.559 85.405 216.923 86.5318C215.287 87.6586 212.324 89.4204 210.963 89.7064C209.596 89.9867 206.736 90.3642 206.736 90.3642L205.169 86.0971Z" fill="#F0C6B4"/>
<path d="M208.776 85.2162C208.776 85.2162 207.22 78.7984 208.238 78.2378C209.262 77.6773 212.614 76.0757 213.661 76.5847C214.708 77.0938 214.393 79.5534 214.393 80.6688C214.393 81.7842 214.319 82.4706 214.319 82.4706C214.319 82.4706 212.145 84.078 211.167 84.7072C210.189 85.3421 209.68 85.6052 209.285 85.4851C208.896 85.365 208.776 85.2162 208.776 85.2162Z" fill="#0D0E0F"/>
<path d="M211.556 81.4523C211.979 81.4523 212.322 81.0324 212.322 80.5143C212.322 79.9962 211.979 79.5762 211.556 79.5762C211.132 79.5762 210.789 79.9962 210.789 80.5143C210.789 81.0324 211.132 81.4523 211.556 81.4523Z" fill="white"/>
<path d="M210.162 51.0623C210.162 51.0623 211.541 48.1622 210.671 46.4348C209.802 44.7074 207.331 44.3928 206.582 44.3527C205.827 44.307 205.649 43.1172 206.296 42.5051C206.942 41.8931 204.454 41.8245 203.293 42.4594C202.131 43.0943 200.679 45.2736 199.895 46.063C199.106 46.8524 198.316 46.1374 198.671 45.5082C199.025 44.879 196.978 46.2975 196.783 46.7551C196.589 47.2127 196.503 47.7676 196.909 48.311C197.315 48.8544 197.275 49.066 195.679 50.3473C194.083 51.6286 192.579 53.6535 193.746 55.215C194.913 56.7766 195.948 56.9024 195.948 56.9024C195.948 56.9024 194.856 58.1208 196.818 59.4478C198.779 60.7692 201.17 61.856 201.502 62.4966C201.834 63.1373 202.36 62.5595 202.36 62.5595L202.149 61.0723L210.162 51.0623Z" fill="#49476A"/>
<path d="M202.125 58.3895L202.228 65.2077L208.08 67.3985L208.801 64.9389C208.801 64.9389 207.977 63.9379 208.503 63.2286C209.029 62.5251 209.624 61.77 209.624 61.77L207.09 58.6526L204.047 55.8956L202.125 58.3895Z" fill="#F0C6B4"/>
<path d="M209.596 62.5369L208.743 64.7848C208.743 64.7848 206.266 65.4369 204.796 63.4063C203.326 61.3757 202.343 60.8952 202.343 60.8952L201.616 61.084L201.193 59.4824L200.981 57.938L204.39 56.5366L207.725 57.8064L209.596 62.5369Z" fill="#EAB19F"/>
<path d="M201.277 48.9114C201.277 48.9114 204.4 46.6634 206.842 48.0305C209.285 49.3976 209.862 50.6846 210.526 52.5093C211.19 54.3283 211.807 54.1052 212.116 55.2549C212.425 56.4046 212.305 57.0453 212.597 60.4258C212.694 61.5812 210.612 62.0961 208.947 62.3821C207.283 62.6681 205.235 63.1542 204.617 62.5708C204.005 61.9816 202.358 60.4487 202.358 60.4487C202.358 60.4487 202.867 61.4211 202.095 61.484C201.322 61.5412 200.207 60.7461 199.383 59.5735C198.56 58.4009 198.085 57.1311 199.177 56.4561C200.264 55.7811 201.734 57.7946 201.734 57.7946L202.547 57.7889C202.547 57.7889 200.893 56.0443 201.448 54.1452C201.997 52.2462 201.843 51.7142 201.483 50.4615C201.105 49.2031 201.277 48.9114 201.277 48.9114Z" fill="#F0C6B4"/>
<path d="M206.163 52.7147C206.197 52.6689 206.209 52.6117 206.197 52.5602C206.025 51.9596 205.453 51.891 204.218 52.5774C202.342 53.6184 202.33 54.3906 202.342 54.4993C202.342 54.505 202.342 54.5165 202.348 54.5222L202.353 54.5393C202.382 54.6595 202.525 54.7109 202.622 54.6309C202.891 54.4078 203.383 54.0188 203.806 53.7385C204.281 53.424 204.944 53.1951 205.413 53.178C205.757 53.1665 206.048 52.8577 206.163 52.7147Z" fill="#49476A"/>
<path d="M207.141 51.6051C207.364 51.8911 207.993 51.6795 208.628 51.2333C209.04 50.9416 209.572 50.77 209.892 50.6842C210.087 50.6327 210.161 50.3867 210.018 50.2494C209.967 50.198 209.892 50.1522 209.795 50.1236C209.418 50.0206 208.897 49.912 207.856 50.5412C206.815 51.1704 207.141 51.6051 207.141 51.6051Z" fill="#49476A"/>
<path d="M207.39 53.4931C207.39 53.4931 207.504 54.1623 208.385 55.0947C209.266 56.0213 209.861 56.1243 209.008 56.7821C208.705 57.0166 208.637 57.1024 208.637 57.1024C208.637 57.1024 208.316 57.2283 208.677 56.908C209.037 56.5876 209.232 56.376 209.254 56.2902C209.277 56.2044 209.134 55.947 208.774 55.6152C208.419 55.2777 207.905 54.803 207.63 54.3454C207.355 53.8878 207.241 53.4473 207.241 53.4473L207.39 53.4931Z" fill="#EAB19F"/>
<path d="M211.4 57.3022C211.4 57.3022 210.742 58.5949 209.478 58.9267C208.139 59.2756 207.739 59.2184 207.739 59.2184" fill="#C89A89"/>
<path d="M211.352 57.2792C211.352 57.2792 210.471 58.1658 209.292 58.652C208.046 59.1668 207.708 59.2297 207.708 59.2297" fill="#F0C6B4"/>
<path d="M210.825 58.761C210.825 58.761 209.876 58.8182 209.584 59.4417L210.825 58.761Z" fill="#C89A89"/>
<path d="M206.351 54.5227C206.351 54.5227 205.316 53.9279 204.429 54.5399C203.749 55.009 203.657 55.7869 203.657 55.7869C203.657 55.7869 204.223 56.2788 205.058 55.9814C206.185 55.581 206.351 54.5227 206.351 54.5227Z" fill="#EAB19F"/>
<path d="M206.354 54.5228C206.016 54.374 205.873 54.231 205.078 54.3855C204.586 54.4827 204.272 54.763 203.911 55.2149C203.608 55.6039 203.768 55.8556 203.768 55.8556L203.625 55.8098C203.625 55.8098 203.683 55.2149 203.992 54.8317C204.295 54.4484 204.689 54.2482 205.393 54.1967C206.045 54.1567 206.354 54.5228 206.354 54.5228Z" fill="#393D45"/>
<path d="M206.351 54.5175C206.351 54.5175 205.418 54.0541 204.497 54.6662C203.794 55.1295 203.668 55.8045 203.668 55.8045C203.668 55.8045 204.189 56.1648 204.995 55.8502C206.076 55.4269 206.351 54.5175 206.351 54.5175Z" fill="#F9E4D6"/>
<path d="M204.579 55.2373C204.694 55.5233 205.06 55.6606 205.42 55.5005C205.826 55.3231 205.998 54.877 205.786 54.5681C205.598 54.2935 205.186 54.2649 204.883 54.4651C204.602 54.6482 204.471 54.9799 204.579 55.2373Z" fill="#393D45"/>
<path d="M205.097 54.7914C205.154 54.9001 205.297 54.9344 205.423 54.8658C205.555 54.7971 205.606 54.6427 205.538 54.534C205.469 54.431 205.32 54.4081 205.2 54.4825C205.092 54.5511 205.046 54.6884 205.097 54.7914Z" fill="white"/>
<path d="M210.423 52.1376C210.423 52.1376 209.422 51.6915 208.667 52.3321C208.09 52.824 208.078 53.539 208.078 53.539C208.078 53.539 208.639 53.9337 209.377 53.5905C210.366 53.1215 210.423 52.1376 210.423 52.1376Z" fill="#EAB19F"/>
<path d="M210.423 52.137C210.423 52.137 210.142 51.9654 209.524 52.0855C209.033 52.177 208.604 52.4516 208.358 52.9149C208.129 53.3496 208.163 53.4526 208.163 53.4526L208.072 53.5098C208.072 53.5098 208.129 52.9149 208.438 52.5317C208.741 52.1484 208.895 51.9825 209.559 51.8738C210.205 51.7652 210.423 52.137 210.423 52.137Z" fill="#393D45"/>
<path d="M210.412 52.1311C210.412 52.1311 209.519 51.7937 208.73 52.44C208.13 52.932 208.078 53.5555 208.078 53.5555C208.078 53.5555 208.587 53.8357 209.296 53.4697C210.252 52.9892 210.412 52.1311 210.412 52.1311Z" fill="#F9E4D6"/>
<path d="M208.82 52.9949C208.952 53.2466 209.295 53.3381 209.609 53.1551C209.964 52.9549 210.078 52.5316 209.855 52.2685C209.655 52.034 209.278 52.0511 209.02 52.257C208.786 52.4515 208.7 52.7661 208.82 52.9949Z" fill="#393D45"/>
<path d="M209.294 52.4977C209.357 52.5892 209.494 52.6064 209.603 52.532C209.717 52.4576 209.752 52.3146 209.677 52.2174C209.609 52.1316 209.466 52.1259 209.369 52.2002C209.266 52.2803 209.237 52.4119 209.294 52.4977Z" fill="white"/>
<path d="M201.668 60.5169C201.82 60.3841 201.535 59.8071 201.031 59.2281C200.527 58.6491 199.995 58.2873 199.843 58.42C199.69 58.5527 199.975 59.1297 200.479 59.7088C200.983 60.2878 201.515 60.6496 201.668 60.5169Z" fill="#EAB19F"/>
<path d="M154.905 148.749L155.157 147.371L154.67 146.375V145.517L154.916 144.545L155.334 143.63L155.843 143.395L157.204 142.303L157.553 142.537L157.473 143.721L158.612 142.852L159.635 143.555L161.855 144.848L162.364 145.529L162.833 147.388L163.142 148.635C163.142 148.635 162.833 149.121 162.404 149.396C161.975 149.67 160.042 150.717 158.612 150.465C157.182 150.213 156.169 149.687 155.546 149.258C154.922 148.829 154.922 148.829 154.922 148.829L154.905 148.749Z" fill="white"/>
<path d="M155.003 147.885C155.003 147.885 155.221 148.125 155.455 148.222C155.69 148.319 155.867 148.628 155.455 148.651C155.043 148.668 154.849 148.829 154.849 148.829L155.003 147.885Z" fill="#D3A859"/>
<path d="M155.28 143.721C155.28 143.721 155.623 143.521 155.703 143.721C155.783 143.921 155.531 144.333 155.594 144.545C155.657 144.756 155.806 144.796 156.023 144.545C156.24 144.293 155.966 143.784 156.023 143.532C156.08 143.281 156.607 143.143 156.607 143.143C156.607 143.143 156.452 142.932 156.818 142.714C157.184 142.497 157.327 142.754 157.327 142.892C157.327 143.029 157.384 143.223 157.327 143.475C157.27 143.727 156.784 143.904 156.784 143.904C156.784 143.904 156.864 144.179 156.412 144.51C155.966 144.842 155.966 144.997 155.966 144.997L156.006 145.426L155.709 147.159C155.709 147.159 156.24 147.508 156.807 147.468C157.373 147.428 158.014 147.061 158.054 146.884C158.094 146.707 157.842 145.986 157.842 145.986C157.842 145.986 157.705 145.517 157.842 145.403C157.979 145.288 158.506 145.42 158.992 145.345C159.478 145.265 159.501 145.151 159.421 144.848C159.341 144.545 158.895 144.447 158.895 144.447C158.895 144.447 159.118 144.173 159.455 144.35C159.793 144.528 160.49 144.545 161.234 144.739C161.972 144.934 162.035 145.46 161.898 145.774C161.76 146.083 161.388 146.758 161.177 147.027C160.965 147.296 160.748 147.428 160.748 148.114C160.748 148.795 160.593 149.144 161.451 148.835C162.309 148.526 162.309 148.097 162.658 148.097C163.007 148.097 162.91 148.949 162.91 148.949L163.396 148.463C163.396 148.463 163.356 147.937 162.733 145.929C162.109 143.921 162.012 143.395 162.149 142.48C162.287 141.565 161.623 140.707 161.623 140.707L160.845 141.25L160.416 142.245L158.992 142.108L157.939 141.931L157.43 141.347C157.43 141.347 157.156 140.335 157.041 140.22C156.927 140.106 156.767 140.123 156.71 140.609C156.652 141.096 156.727 141.736 156.595 142.051C156.458 142.36 156.052 142.731 155.857 142.869C155.663 143.006 155.485 143.046 155.451 143.298C155.417 143.549 155.28 143.721 155.28 143.721Z" fill="#D3A859"/>
<path d="M156.897 140.146C156.897 140.146 157.131 140.129 157.091 140.809C157.051 141.49 156.994 142.074 156.994 142.074C156.994 142.074 157.383 141.725 157.675 141.936C157.966 142.148 157.755 142.52 157.675 142.754C157.595 142.989 157.56 143.435 157.56 143.435C157.56 143.435 157.64 142.811 158.144 142.56C158.647 142.308 159.488 142.188 159.74 142.365C159.991 142.543 160.283 142.909 160.283 142.909C160.283 142.909 159.974 142.382 160.712 141.662C161.45 140.941 161.49 140.729 161.707 141.37C161.919 142.011 161.959 142.48 161.707 143.023C161.456 143.566 161.456 143.589 161.69 143.881C161.925 144.173 161.65 144.447 161.65 144.447C161.65 144.447 162.159 144.545 161.982 143.841C161.804 143.137 161.804 143.258 162.016 142.829C162.233 142.4 162.525 142.165 162.136 141.37C161.747 140.569 161.627 140.455 160.809 141.158C159.991 141.862 160.495 141.976 159.608 141.936C158.721 141.896 157.869 141.645 157.869 141.645C157.869 141.645 157.772 141.41 157.48 140.809C157.188 140.203 156.897 140.146 156.897 140.146Z" fill="#C08149"/>
<path d="M161.74 142.051C161.74 142.051 160.767 141.971 160.745 142.165C160.727 142.36 161.174 142.497 161.242 142.474C161.311 142.457 160.802 142.686 160.745 142.943C160.687 143.2 160.882 143.138 160.882 143.138L161.019 143.527C161.019 143.527 161.059 143.218 161.351 143.04C161.643 142.863 161.563 142.291 161.563 142.291L161.74 142.051Z" fill="#966744"/>
<path d="M162.462 147.119C162.462 147.119 161.936 147.039 161.741 147.353C161.547 147.668 161.238 148.017 161.238 148.017H161.49L161.238 148.229C161.238 148.229 161.799 148.44 161.953 148.229C162.107 148.017 162.462 147.468 162.462 147.468L162.13 147.485L162.462 147.119Z" fill="#C08049"/>
<path d="M158.065 144.31C158.065 144.31 158.26 144.27 158.437 144.076C158.614 143.881 159.078 143.898 159.238 144.076C159.392 144.253 159.472 144.447 159.238 144.619C159.003 144.796 158.832 144.773 158.437 144.733C158.048 144.693 158.065 144.442 158.065 144.442V144.31Z" fill="#141616"/>
<path d="M156.509 144.196C156.721 143.961 156.743 143.67 156.623 143.532C156.509 143.395 156.154 143.395 156.057 143.532C155.96 143.67 155.765 144.002 155.88 144.196C155.994 144.391 156.166 144.373 156.269 144.35C156.372 144.333 156.509 144.196 156.509 144.196Z" fill="#141616"/>
<path d="M158.752 144.075C158.752 144.075 158.449 144.293 158.472 144.436C158.489 144.579 158.517 144.693 158.775 144.693C159.032 144.693 159.25 144.384 159.25 144.384C159.25 144.384 159.118 144.739 158.946 144.739C158.775 144.739 158.455 144.785 158.392 144.584C158.329 144.384 158.363 144.287 158.472 144.178C158.58 144.07 158.752 144.075 158.752 144.075Z" fill="#F1F3CA"/>
<path d="M158.885 144.288C158.92 144.288 158.948 144.259 158.948 144.224C158.948 144.19 158.92 144.161 158.885 144.161C158.85 144.161 158.822 144.19 158.822 144.224C158.822 144.259 158.85 144.288 158.885 144.288Z" fill="#F1F3CA"/>
<path d="M156.523 143.853C156.561 143.853 156.592 143.817 156.592 143.773C156.592 143.728 156.561 143.692 156.523 143.692C156.485 143.692 156.454 143.728 156.454 143.773C156.454 143.817 156.485 143.853 156.523 143.853Z" fill="#F1F3CA"/>
<path d="M156.303 143.796C156.331 143.796 156.354 143.773 156.354 143.744C156.354 143.716 156.331 143.692 156.303 143.692C156.274 143.692 156.251 143.716 156.251 143.744C156.251 143.773 156.274 143.796 156.303 143.796Z" fill="#F1F3CA"/>
<path d="M156.165 143.641C156.165 143.641 155.959 143.772 155.982 143.95C155.999 144.127 156.154 144.196 156.154 144.196C156.154 144.196 156.062 144.07 156.073 143.921C156.091 143.767 156.165 143.641 156.165 143.641Z" fill="#F1F3CA"/>
<path d="M156.074 144.933C156.074 144.933 155.422 144.836 155.273 145.082C155.125 145.328 154.999 145.511 155.027 145.883C155.056 146.255 155.125 146.478 155.125 146.478C155.125 146.478 154.93 145.906 155.022 145.563C155.113 145.219 155.222 145.008 155.336 144.939C155.456 144.865 156.074 144.933 156.074 144.933Z" fill="#C7B478"/>
<path d="M156.735 145.632C156.735 145.632 156.849 145.792 156.775 145.941C156.701 146.089 156.432 146.164 156.466 146.381C156.501 146.598 156.695 146.833 157.038 146.913C157.381 146.993 156.655 147.251 156.203 147.193C155.751 147.136 155.454 147.005 155.414 146.621C155.374 146.244 155.431 146.204 155.431 146.204C155.431 146.204 155.254 146.169 155.299 145.958C155.351 145.746 155.608 145.729 155.608 145.729L156.735 145.632Z" fill="#5A5B5D"/>
<path d="M156.177 144.933C156.177 144.933 156.846 145.087 156.84 145.322C156.829 145.557 156.772 145.78 156.354 146.014C155.937 146.249 155.908 146.363 155.908 146.363C155.908 146.363 155.925 146.157 155.685 145.985C155.439 145.808 155.41 145.688 155.41 145.688C155.41 145.688 155.576 145.665 155.702 145.597C155.828 145.528 155.788 145.516 155.788 145.516C155.788 145.516 155.679 145.631 155.542 145.557C155.405 145.476 155.376 145.305 155.445 145.168C155.513 145.03 155.662 145.07 155.954 145.15C156.669 145.345 156.177 144.933 156.177 144.933Z" fill="#121414"/>
<path d="M156.449 145.821C156.449 145.821 156.334 145.804 156.185 145.643C156.122 145.574 156.156 145.775 156.242 145.798C156.334 145.821 156.449 145.821 156.449 145.821Z" fill="#5A5B5D"/>
<path d="M155.849 146.41C155.849 146.41 156.038 146.432 156.587 146.713C157.136 146.993 157.285 146.907 157.583 146.844C157.88 146.781 158.092 146.758 158.092 146.758C158.092 146.758 157.537 147.17 157.033 147.13C156.53 147.084 156.238 146.701 155.981 146.673C155.724 146.644 155.581 146.753 155.506 146.753C155.426 146.753 155.357 146.587 155.563 146.547C155.769 146.507 155.746 146.524 155.804 146.495C155.849 146.467 155.849 146.41 155.849 146.41Z" fill="#151618"/>
<path d="M156.999 145.964C157.021 145.964 157.039 145.946 157.039 145.923C157.039 145.901 157.021 145.883 156.999 145.883C156.977 145.883 156.959 145.901 156.959 145.923C156.959 145.946 156.977 145.964 156.999 145.964Z" fill="#48492E"/>
<path d="M157.183 145.964C157.205 145.964 157.223 145.946 157.223 145.923C157.223 145.901 157.205 145.883 157.183 145.883C157.161 145.883 157.143 145.901 157.143 145.923C157.143 145.946 157.161 145.964 157.183 145.964Z" fill="#48492E"/>
<path d="M157.343 145.924C157.365 145.924 157.383 145.906 157.383 145.883C157.383 145.861 157.365 145.843 157.343 145.843C157.321 145.843 157.303 145.861 157.303 145.883C157.303 145.906 157.321 145.924 157.343 145.924Z" fill="#48492E"/>
<path d="M157.491 145.924C157.513 145.924 157.531 145.906 157.531 145.883C157.531 145.861 157.513 145.843 157.491 145.843C157.468 145.843 157.45 145.861 157.45 145.883C157.45 145.906 157.468 145.924 157.491 145.924Z" fill="#48492E"/>
<path d="M157.305 146.244C157.328 146.244 157.346 146.226 157.346 146.203C157.346 146.181 157.328 146.163 157.305 146.163C157.283 146.163 157.265 146.181 157.265 146.203C157.265 146.226 157.283 146.244 157.305 146.244Z" fill="#48492E"/>
<path d="M157.386 146.536C157.408 146.536 157.426 146.518 157.426 146.495C157.426 146.473 157.408 146.455 157.386 146.455C157.363 146.455 157.345 146.473 157.345 146.495C157.345 146.518 157.363 146.536 157.386 146.536Z" fill="#48492E"/>
<path d="M157.06 146.278C157.082 146.278 157.1 146.26 157.1 146.238C157.1 146.216 157.082 146.197 157.06 146.197C157.038 146.197 157.02 146.216 157.02 146.238C157.02 146.26 157.038 146.278 157.06 146.278Z" fill="#48492E"/>
<path d="M156.87 146.335C156.892 146.335 156.91 146.317 156.91 146.295C156.91 146.272 156.892 146.254 156.87 146.254C156.847 146.254 156.829 146.272 156.829 146.295C156.829 146.317 156.847 146.335 156.87 146.335Z" fill="#48492E"/>
<path d="M156.962 146.57C156.984 146.57 157.002 146.551 157.002 146.529C157.002 146.507 156.984 146.489 156.962 146.489C156.94 146.489 156.922 146.507 156.922 146.529C156.922 146.551 156.94 146.57 156.962 146.57Z" fill="#48492E"/>
<path d="M156.796 146.536C156.818 146.536 156.836 146.518 156.836 146.495C156.836 146.473 156.818 146.455 156.796 146.455C156.774 146.455 156.756 146.473 156.756 146.495C156.756 146.518 156.774 146.536 156.796 146.536Z" fill="#48492E"/>
<path d="M156.685 146.335C156.707 146.335 156.725 146.317 156.725 146.295C156.725 146.272 156.707 146.254 156.685 146.254C156.662 146.254 156.644 146.272 156.644 146.295C156.644 146.317 156.662 146.335 156.685 146.335Z" fill="#48492E"/>
<path d="M156.796 146.124C156.818 146.124 156.836 146.106 156.836 146.083C156.836 146.061 156.818 146.043 156.796 146.043C156.774 146.043 156.756 146.061 156.756 146.083C156.756 146.106 156.774 146.124 156.796 146.124Z" fill="#48492E"/>
<path d="M155.253 146.255C155.275 146.255 155.293 146.237 155.293 146.215C155.293 146.192 155.275 146.174 155.253 146.174C155.231 146.174 155.212 146.192 155.212 146.215C155.212 146.237 155.231 146.255 155.253 146.255Z" fill="#48492E"/>
<path d="M155.253 146.015C155.275 146.015 155.293 145.997 155.293 145.975C155.293 145.953 155.275 145.935 155.253 145.935C155.231 145.935 155.212 145.953 155.212 145.975C155.212 145.997 155.231 146.015 155.253 146.015Z" fill="#48492E"/>
<path d="M155.159 145.855C155.182 145.855 155.2 145.837 155.2 145.815C155.2 145.793 155.182 145.775 155.159 145.775C155.137 145.775 155.119 145.793 155.119 145.815C155.119 145.837 155.137 145.855 155.159 145.855Z" fill="#48492E"/>
<path d="M155.296 145.775C155.318 145.775 155.336 145.757 155.336 145.734C155.336 145.712 155.318 145.694 155.296 145.694C155.273 145.694 155.255 145.712 155.255 145.734C155.255 145.757 155.273 145.775 155.296 145.775Z" fill="#48492E"/>
<path d="M155.327 145.575C155.349 145.575 155.367 145.557 155.367 145.535C155.367 145.512 155.349 145.494 155.327 145.494C155.304 145.494 155.286 145.512 155.286 145.535C155.286 145.557 155.304 145.575 155.327 145.575Z" fill="#48492E"/>
<path d="M154.831 144.739C154.831 144.739 154.551 145.333 154.683 146.237C154.814 147.141 155.152 146.941 155.157 147.267C155.163 147.587 155.032 147.936 155.032 147.936C155.032 147.936 154.98 147.324 154.694 146.66C154.431 146.043 154.534 145.734 154.597 145.362C154.677 144.95 154.831 144.739 154.831 144.739Z" fill="#E1D7AA"/>
</svg>
