<svg width="23" height="23" viewBox="0 0 23 23" fill="none" xmlns="http://www.w3.org/2000/svg">
<circle cx="11.5" cy="11.5" r="11.5" fill="#F5F5F7"/>
<path d="M13.4958 6.90002H9.11142L8.74807 8.86122L12.7044 8.86582C14.6529 8.86582 15.2291 9.5489 15.2127 10.6829C15.2042 11.2639 14.9434 12.2459 14.8308 12.5643C14.5305 13.4129 13.9138 14.3814 11.6011 14.3775L7.75526 14.376L7.39111 16.338H11.7657C13.3087 16.338 13.9654 16.1647 14.6598 15.8545C16.2004 15.1676 17.1172 13.6993 17.4842 11.7832C18.0313 8.92981 17.3501 6.90002 13.4958 6.90002Z" fill="#818C99"/>
<path d="M7.37525 10.5931C6.21642 10.5931 6.05034 11.3486 5.94069 11.8049C5.79707 12.4028 5.75 12.6449 5.75 12.6449H10.2799C11.4388 12.6449 11.6048 11.8894 11.7145 11.4331C11.8581 10.8352 11.9052 10.5931 11.9052 10.5931H7.37525Z" fill="#818C99"/>
</svg>
