<svg width="48" height="62" viewBox="0 0 48 62" fill="none" xmlns="http://www.w3.org/2000/svg">
<path fill-rule="evenodd" clip-rule="evenodd" d="M40 23H36.577V12.0161C36.577 7.22201 30.3836 3.32172 24 3.32172C17.6164 3.32172 11.423 7.22201 11.423 12.0161V23H8V12.0161C8 5.3904 15.1776 0 24 0C32.8224 0 40 5.3904 40 12.0161V23Z" fill="#CFCEFF"/>
<rect y="23" width="48" height="39" rx="6" fill="#ECEBFF"/>
<path d="M26.4904 36H19.9867L19.4477 38.9092L25.3165 38.916C28.2068 38.916 29.0615 39.9293 29.0371 41.6115C29.0245 42.4732 28.6377 43.9299 28.4706 44.4022C28.0252 45.6611 27.1103 47.0976 23.6798 47.092L17.975 47.0897L17.4348 50H23.924C26.2128 50 27.187 49.743 28.217 49.2829C30.5023 48.2639 31.8622 46.0859 32.4067 43.2435C33.2181 39.0109 32.2078 36 26.4904 36Z" fill="#CFCEFF"/>
<path d="M17.4108 41.4783C15.6919 41.4783 15.4455 42.5988 15.2829 43.2758C15.0698 44.1626 15 44.5217 15 44.5217H21.7196C23.4386 44.5217 23.6849 43.4012 23.8476 42.7242C24.0606 41.8374 24.1304 41.4783 24.1304 41.4783H17.4108Z" fill="#CFCEFF"/>
</svg>
