<svg width="36" height="36" viewBox="0 0 36 36" fill="none" xmlns="http://www.w3.org/2000/svg">
<rect width="36" height="36" rx="18" transform="matrix(1 0 0 -1 0 36)" fill="#E3E3E5"/>
<path d="M20.3324 12H15.0502L14.6124 14.3628L19.379 14.3684C21.7265 14.3684 22.4207 15.1914 22.4009 16.5576C22.3907 17.2576 22.0765 18.4407 21.9408 18.8243C21.579 19.8467 20.836 21.0135 18.0497 21.0089L13.4163 21.007L12.9775 23.3708H18.248C20.107 23.3708 20.8983 23.162 21.7348 22.7883C23.591 21.9607 24.6955 20.1918 25.1377 17.8832C25.7967 14.4455 24.9761 12 20.3324 12Z" fill="white"/>
<path d="M12.9581 16.4495C11.5619 16.4495 11.3618 17.3596 11.2297 17.9094C11.0567 18.6297 11 18.9214 11 18.9214H16.4576C17.8538 18.9214 18.0539 18.0112 18.186 17.4614C18.359 16.7411 18.4157 16.4495 18.4157 16.4495H12.9581Z" fill="white"/>
</svg>
