<svg width="328" height="72" viewBox="0 0 328 72" fill="none" xmlns="http://www.w3.org/2000/svg">
<rect width="328" height="72" rx="8" transform="matrix(-1 0 0 1 328 0)" fill="url(#paint0_linear)"/>
<path d="M16.2884 15.8182L20.0021 22.4006V26H22.1399V22.4006L25.8537 15.8182H23.4425L21.1207 20.2031H21.0213L18.6996 15.8182H16.2884ZM28.854 26.1491C31.1708 26.1491 32.6126 24.5632 32.6126 22.2116C32.6126 19.8452 31.1708 18.2642 28.854 18.2642C26.5373 18.2642 25.0955 19.8452 25.0955 22.2116C25.0955 24.5632 26.5373 26.1491 28.854 26.1491ZM28.864 24.5085C27.7951 24.5085 27.2482 23.5291 27.2482 22.1967C27.2482 20.8643 27.7951 19.88 28.864 19.88C29.913 19.88 30.4599 20.8643 30.4599 22.1967C30.4599 23.5291 29.913 24.5085 28.864 24.5085ZM38.8867 22.7486C38.8917 23.7727 38.1907 24.3097 37.43 24.3097C36.6296 24.3097 36.1126 23.7479 36.1076 22.848V18.3636H33.9897V23.2259C33.9947 25.0107 35.0387 26.0994 36.5749 26.0994C37.7234 26.0994 38.5487 25.5078 38.8917 24.6129H38.9712V26H41.0046V18.3636H38.8867V22.7486ZM42.6987 26H44.8166V21.6797C44.8166 20.7401 45.5027 20.0938 46.4373 20.0938C46.7306 20.0938 47.1333 20.1435 47.3322 20.2081V18.3288C47.1433 18.2841 46.8798 18.2543 46.666 18.2543C45.8109 18.2543 45.1099 18.7514 44.8315 19.696H44.752V18.3636H42.6987V26ZM51.6674 28.8636H53.7853V24.777H53.85C54.1433 25.4134 54.7846 26.1243 56.0176 26.1243C57.7576 26.1243 59.1149 24.7472 59.1149 22.1918C59.1149 19.5668 57.698 18.2642 56.0225 18.2642C54.7449 18.2642 54.1333 19.0249 53.85 19.6463H53.7555V18.3636H51.6674V28.8636ZM53.7406 22.1818C53.7406 20.8196 54.3173 19.9496 55.3464 19.9496C56.3954 19.9496 56.9522 20.8594 56.9522 22.1818C56.9522 23.5142 56.3855 24.4389 55.3464 24.4389C54.3272 24.4389 53.7406 23.544 53.7406 22.1818ZM60.5268 26H62.6447V21.6797C62.6447 20.7401 63.3308 20.0938 64.2654 20.0938C64.5588 20.0938 64.9615 20.1435 65.1603 20.2081V18.3288C64.9714 18.2841 64.7079 18.2543 64.4941 18.2543C63.639 18.2543 62.938 18.7514 62.6596 19.696H62.5801V18.3636H60.5268V26ZM69.3501 26.1491C71.6669 26.1491 73.1087 24.5632 73.1087 22.2116C73.1087 19.8452 71.6669 18.2642 69.3501 18.2642C67.0334 18.2642 65.5916 19.8452 65.5916 22.2116C65.5916 24.5632 67.0334 26.1491 69.3501 26.1491ZM69.3601 24.5085C68.2912 24.5085 67.7443 23.5291 67.7443 22.1967C67.7443 20.8643 68.2912 19.88 69.3601 19.88C70.4091 19.88 70.956 20.8643 70.956 22.1967C70.956 23.5291 70.4091 24.5085 69.3601 24.5085ZM78.5923 18.3636H77.076V17.8516C77.076 17.3345 77.2848 17.0312 77.9062 17.0312C78.1598 17.0312 78.4183 17.0859 78.5874 17.1406L78.9602 15.5497C78.6967 15.4702 78.1151 15.3409 77.4638 15.3409C76.027 15.3409 74.9581 16.1513 74.9581 17.8118V18.3636H73.8793V19.9545H74.9581V26H77.076V19.9545H78.5923V18.3636ZM79.8862 26H82.0041V18.3636H79.8862V26ZM80.9501 17.3793C81.5815 17.3793 82.0985 16.897 82.0985 16.3054C82.0985 15.7188 81.5815 15.2365 80.9501 15.2365C80.3237 15.2365 79.8066 15.7188 79.8066 16.3054C79.8066 16.897 80.3237 17.3793 80.9501 17.3793ZM85.8185 15.8182H83.7006V26H85.8185V15.8182ZM90.9952 26.1491C92.8844 26.1491 94.1571 25.2294 94.4554 23.8125L92.4966 23.6832C92.2828 24.2649 91.736 24.5682 91.03 24.5682C89.9711 24.5682 89.2999 23.8672 89.2999 22.7287V22.7237H94.5002V22.142C94.5002 19.5469 92.9292 18.2642 90.9107 18.2642C88.6635 18.2642 87.2069 19.8601 87.2069 22.2166C87.2069 24.6378 88.6436 26.1491 90.9952 26.1491ZM89.2999 21.4112C89.3446 20.5412 90.0059 19.8452 90.9455 19.8452C91.8652 19.8452 92.5016 20.5014 92.5066 21.4112H89.2999ZM99.1225 26H101.24V18.3636H99.1225V26ZM100.186 17.3793C100.818 17.3793 101.335 16.897 101.335 16.3054C101.335 15.7188 100.818 15.2365 100.186 15.2365C99.56 15.2365 99.043 15.7188 99.043 16.3054C99.043 16.897 99.56 17.3793 100.186 17.3793ZM109.291 20.5412C109.102 19.1342 107.968 18.2642 106.039 18.2642C104.085 18.2642 102.798 19.169 102.803 20.6406C102.798 21.7841 103.519 22.5249 105.01 22.8232L106.333 23.0866C106.999 23.2209 107.302 23.4645 107.312 23.8473C107.302 24.2997 106.81 24.6229 106.069 24.6229C105.313 24.6229 104.811 24.2997 104.682 23.6783L102.599 23.7876C102.798 25.2493 104.041 26.1491 106.064 26.1491C108.043 26.1491 109.46 25.1399 109.465 23.6335C109.46 22.5298 108.739 21.8686 107.257 21.5653L105.875 21.2869C105.164 21.1328 104.901 20.8892 104.906 20.5213C104.901 20.0639 105.418 19.7656 106.074 19.7656C106.81 19.7656 107.247 20.1683 107.352 20.6605L109.291 20.5412ZM114.421 26H116.644L120.869 17.603V15.8182H113.725V17.5781H118.642V17.6477L114.421 26ZM126.118 26.2237C128.679 26.2237 130.225 24.2749 130.23 20.919C130.235 17.5881 128.669 15.679 126.118 15.679C123.563 15.679 122.012 17.5831 122.007 20.919C121.997 24.2649 123.553 26.2188 126.118 26.2237ZM126.118 24.4389C124.95 24.4389 124.194 23.2656 124.199 20.919C124.204 18.6072 124.955 17.4439 126.118 17.4439C127.277 17.4439 128.032 18.6072 128.032 20.919C128.037 23.2656 127.282 24.4389 126.118 24.4389ZM137.338 24.0909C137.343 25.3139 138.123 26.353 139.58 26.353C141.022 26.353 141.827 25.3139 141.822 24.0909V23.554C141.827 22.321 141.042 21.2919 139.58 21.2919C138.143 21.2919 137.343 22.331 137.338 23.554V24.0909ZM132.113 18.2642C132.118 19.4872 132.898 20.5163 134.35 20.5163C135.797 20.5163 136.602 19.4972 136.597 18.2642V17.7273C136.602 16.4943 135.817 15.4652 134.35 15.4652C132.928 15.4652 132.118 16.4943 132.113 17.7273V18.2642ZM132.6 26H133.898L140.898 15.8182H139.6L132.6 26ZM138.785 23.554C138.79 23.0668 138.983 22.5646 139.58 22.5646C140.206 22.5646 140.371 23.0668 140.366 23.554V24.0909C140.371 24.5781 140.187 25.0703 139.58 25.0703C138.974 25.0703 138.79 24.5632 138.785 24.0909V23.554ZM133.569 17.7273C133.574 17.255 133.758 16.7379 134.35 16.7379C134.976 16.7379 135.145 17.2401 135.14 17.7273V18.2642C135.145 18.7514 134.956 19.2436 134.35 19.2436C133.763 19.2436 133.574 18.7514 133.569 18.2642V17.7273ZM20.2955 44.1491C22.3288 44.1491 23.6065 42.956 23.706 41.201H21.7074C21.5831 42.0163 21.0462 42.4737 20.3203 42.4737C19.331 42.4737 18.6896 41.6435 18.6896 40.1818C18.6896 38.7401 19.3359 37.9148 20.3203 37.9148C21.0959 37.9148 21.593 38.4268 21.7074 39.1875H23.706C23.6165 37.4226 22.2791 36.2642 20.2855 36.2642C17.9688 36.2642 16.5369 37.87 16.5369 40.2116C16.5369 42.5334 17.9439 44.1491 20.2955 44.1491ZM28.5123 44.1491C30.829 44.1491 32.2708 42.5632 32.2708 40.2116C32.2708 37.8452 30.829 36.2642 28.5123 36.2642C26.1955 36.2642 24.7537 37.8452 24.7537 40.2116C24.7537 42.5632 26.1955 44.1491 28.5123 44.1491ZM28.5222 42.5085C27.4533 42.5085 26.9064 41.5291 26.9064 40.1967C26.9064 38.8643 27.4533 37.88 28.5222 37.88C29.5712 37.88 30.1181 38.8643 30.1181 40.1967C30.1181 41.5291 29.5712 42.5085 28.5222 42.5085ZM33.6479 44H35.7658V39.4162C35.7658 38.571 36.3027 38.0092 37.0087 38.0092C37.7047 38.0092 38.1721 38.4865 38.1721 39.2372V44H40.2253V39.3366C40.2253 38.5462 40.6777 38.0092 41.4483 38.0092C42.1245 38.0092 42.6316 38.4318 42.6316 39.282V44H44.7445V38.8643C44.7445 37.2088 43.7601 36.2642 42.3382 36.2642C41.2196 36.2642 40.3496 36.8359 40.0364 37.7109H39.9569C39.7132 36.826 38.9327 36.2642 37.8837 36.2642C36.8546 36.2642 36.074 36.8111 35.7559 37.7109H35.6664V36.3636H33.6479V44ZM46.4174 46.8636H48.5353V42.777H48.6C48.8933 43.4134 49.5346 44.1243 50.7676 44.1243C52.5076 44.1243 53.8649 42.7472 53.8649 40.1918C53.8649 37.5668 52.448 36.2642 50.7725 36.2642C49.4949 36.2642 48.8833 37.0249 48.6 37.6463H48.5055V36.3636H46.4174V46.8636ZM48.4906 40.1818C48.4906 38.8196 49.0673 37.9496 50.0964 37.9496C51.1454 37.9496 51.7022 38.8594 51.7022 40.1818C51.7022 41.5142 51.1355 42.4389 50.0964 42.4389C49.0772 42.4389 48.4906 41.544 48.4906 40.1818ZM57.3947 33.8182H55.2768V44H57.3947V33.8182ZM62.5714 44.1491C64.4606 44.1491 65.7333 43.2294 66.0316 41.8125L64.0728 41.6832C63.859 42.2649 63.3121 42.5682 62.6062 42.5682C61.5472 42.5682 60.8761 41.8672 60.8761 40.7287V40.7237H66.0763V40.142C66.0763 37.5469 64.5053 36.2642 62.4869 36.2642C60.2397 36.2642 58.783 37.8601 58.783 40.2166C58.783 42.6378 60.2198 44.1491 62.5714 44.1491ZM60.8761 39.4112C60.9208 38.5412 61.582 37.8452 62.5217 37.8452C63.4414 37.8452 64.0778 38.5014 64.0827 39.4112H60.8761ZM71.5202 36.3636H70.0835V34.5341H67.9656V36.3636H66.9215V37.9545H67.9656V41.9318C67.9556 43.4283 68.9748 44.169 70.511 44.1044C71.0579 44.0845 71.4457 43.9751 71.6594 43.9055L71.3263 42.3295C71.2219 42.3494 70.9982 42.3991 70.7994 42.3991C70.3768 42.3991 70.0835 42.2401 70.0835 41.6534V37.9545H71.5202V36.3636ZM76.2979 44.1491C78.1871 44.1491 79.4599 43.2294 79.7582 41.8125L77.7994 41.6832C77.5856 42.2649 77.0387 42.5682 76.3327 42.5682C75.2738 42.5682 74.6026 41.8672 74.6026 40.7287V40.7237H79.8029V40.142C79.8029 37.5469 78.2319 36.2642 76.2134 36.2642C73.9663 36.2642 72.5096 37.8601 72.5096 40.2166C72.5096 42.6378 73.9464 44.1491 76.2979 44.1491ZM74.6026 39.4112C74.6474 38.5412 75.3086 37.8452 76.2482 37.8452C77.168 37.8452 77.8043 38.5014 77.8093 39.4112H74.6026Z" fill="black"/>
<mask id="mask0" mask-type="alpha" maskUnits="userSpaceOnUse" x="0" y="0" width="328" height="72">
<rect width="328" height="72" rx="8" fill="url(#paint1_linear)"/>
</mask>
<g mask="url(#mask0)">
<path fill-rule="evenodd" clip-rule="evenodd" d="M296 59.7134L255.745 70L242 14.4211L282.421 4L296 59.7134Z" fill="black" fill-opacity="0.04"/>
<path fill-rule="evenodd" clip-rule="evenodd" d="M298 57.1355L257 67.5L243 11.5L284.17 1L298 57.1355Z" fill="white"/>
<path fill-rule="evenodd" clip-rule="evenodd" d="M240.428 35C240.428 35 243.97 37.051 245.032 38.7602C246.095 40.4693 247.158 42.3494 246.981 43.3749C246.803 44.4004 243.616 47.8187 242.73 47.9896C241.845 48.1605 238.943 46.1786 238.235 44.9822C237.526 43.7858 236 41.6657 236 41.6657L240.428 35Z" fill="#E3AA92"/>
<path fill-rule="evenodd" clip-rule="evenodd" d="M244.948 45C244.902 44.9186 244.782 44.7047 244.612 44.4056C244.394 44.0197 244.094 43.4927 243.767 42.9284C243.622 42.6778 243.472 42.4198 243.321 42.1635L243.387 42.1028C244.108 43.3295 244.822 44.5987 245 44.9159C244.983 44.944 244.965 44.972 244.948 45ZM241.937 39.9308C241.937 39.9297 241.936 39.9284 241.935 39.9273C241.21 38.8991 239.504 38.2556 239.091 38.1142C239.032 38.0938 239 38.0837 239 38.0837L239.013 38.0402C239.019 38.0268 239.025 38.0135 239.032 38C239.165 38.044 241.167 38.6993 242.002 39.8706L241.937 39.9308Z" fill="#956550"/>
<path fill-rule="evenodd" clip-rule="evenodd" d="M243.265 46.1146L243.117 46.0882C242.61 45.5775 242.078 44.751 241.603 43.9385C241.508 43.775 241.414 43.6122 241.325 43.4524L241.389 43.395C241.482 43.5593 241.577 43.7272 241.676 43.8959C242.176 44.754 242.746 45.628 243.265 46.1146ZM239.997 41.3256C239.814 41.1802 239.583 41.0343 239.341 40.8997C238.926 40.6681 238.48 40.4668 238.19 40.343C237.996 40.2606 237.872 40.2127 237.872 40.2127L237.903 40.1338C237.903 40.1341 238.403 40.3275 238.96 40.6043C239.349 40.7979 239.764 41.0291 240.061 41.2684L239.997 41.3256Z" fill="#956550"/>
<path fill-rule="evenodd" clip-rule="evenodd" d="M250.418 38.1941C250.413 38.2463 250.408 38.302 250.403 38.3579C250.401 38.3899 250.398 38.4236 250.394 38.4574C250.388 38.5251 250.383 38.5942 250.376 38.667C250.362 38.8139 250.349 38.9708 250.334 39.1347C250.327 39.2024 250.322 39.2698 250.315 39.339C250.31 39.388 250.307 39.4386 250.301 39.4895C250.29 39.6161 250.278 39.7477 250.264 39.8811C250.234 40.1919 250.202 40.5212 250.165 40.8608C250.155 40.9586 250.143 41.0566 250.133 41.1564C250.102 41.4197 250.072 41.6882 250.038 41.9603C250.03 42.0378 250.02 42.1157 250.009 42.1934C249.964 42.5478 249.915 42.9076 249.861 43.2656C249.824 43.5122 249.785 43.7588 249.742 44.002C249.736 44.0476 249.727 44.0948 249.719 44.1406C249.705 44.2215 249.692 44.3027 249.677 44.382C249.64 44.5848 249.602 44.7839 249.562 44.9798C249.545 45.0659 249.526 45.1504 249.508 45.2348C249.381 45.8259 249.239 46.3784 249.077 46.8629C248.253 49.3356 248.716 52.4532 246.226 55.2701C246.164 55.3393 246.101 55.407 246.037 55.4761C245.316 56.2412 244.705 56.9709 244.178 57.7005C242.729 59.705 241.928 61.703 241.308 64.4271C240.464 68.1426 240.971 77.6002 240.971 77.6002L240.14 77.6391L226.784 78.2758C226.784 78.2758 228.642 71.3514 229.486 65.6093C229.802 63.4526 230.025 61.796 230.152 60.4179C230.175 60.161 230.196 59.9144 230.212 59.6763C230.348 57.7782 230.273 56.3932 229.993 54.8006C229.486 51.9295 229.149 48.3829 227.966 44.6674C227.627 43.6034 227.4 42.8147 227.299 42.1729C227.264 41.95 227.245 41.7439 227.242 41.5516C227.218 40.3626 227.803 39.6346 229.149 38.0808C231.344 35.5475 236.917 30.4809 238.268 30.312C239.088 30.209 243.252 30.7275 246.446 31.376C248.265 31.746 249.77 32.1596 250.161 32.5246C250.217 32.5751 250.251 32.6275 250.259 32.6764C250.369 33.3369 249.405 34.1407 247.831 34.6186C246.988 34.877 245.973 35.0408 244.855 35.0408C241.646 35.0408 240.464 34.872 240.464 34.872C240.464 34.872 237.931 39.9385 237.593 40.6141C237.338 41.1241 238.24 43.563 238.696 44.725C238.843 45.1014 238.944 45.3429 238.944 45.3429L239.476 45.4375L243.636 46.1808L243.673 46.1873C243.673 46.1873 245.531 43.8229 245.699 42.303C245.868 40.783 246.206 36.3919 248.401 35.3786C248.456 35.3533 248.508 35.3315 248.559 35.3095C248.656 35.2688 248.751 35.2335 248.841 35.2048C248.874 35.1928 248.908 35.1829 248.94 35.1743C248.993 35.1591 249.043 35.1474 249.092 35.1354C249.118 35.1304 249.145 35.1253 249.17 35.1204C249.221 35.1119 249.27 35.1052 249.317 35.1C249.341 35.0984 249.364 35.0966 249.386 35.0949C249.57 35.0849 249.727 35.1136 249.857 35.1726C249.954 35.2148 250.036 35.2758 250.106 35.3518C250.57 35.8431 250.53 36.9611 250.428 38.0808C250.425 38.1181 250.422 38.1551 250.418 38.1941Z" fill="#EEBAA4"/>
<path fill-rule="evenodd" clip-rule="evenodd" d="M250.5 32.5C250.339 32.6647 249.605 32.9716 249.396 32.987C248.765 33.0308 248.128 32.9641 247.508 32.7865C247.132 32.6781 246.303 32.3372 246 32C246 32 244.994 31.4067 245 31C247.5 31 250.079 31.9438 250.5 32.5Z" fill="#F7DFD5"/>
<path fill-rule="evenodd" clip-rule="evenodd" d="M253 32.8002L225.019 57.6932C224.52 58.1373 223.754 58.0942 223.308 57.597C222.862 57.1 222.905 56.3371 223.404 55.8928L251.385 31L255.5 29L253 32.8002Z" fill="#B09191"/>
<path fill-rule="evenodd" clip-rule="evenodd" d="M225.5 54L227 56L229 54L227.401 52.3175L225.5 54Z" fill="#615757"/>
<path fill-rule="evenodd" clip-rule="evenodd" d="M250.933 37.9617C250.906 38.253 250.875 38.6064 250.837 39.0063C250.639 41.1323 250.28 44.5524 249.554 46.6667C248.713 49.1176 248.541 52.2079 246 55L244 45.9905L244.038 45.9971C244.038 45.9971 245.934 43.6534 246.107 42.1468C246.279 40.6401 246.624 36.2877 248.865 35.2832C249.025 35.2113 249.173 35.1543 249.313 35.111C251.104 34.5435 251.094 36.2525 250.933 37.9617Z" fill="#EEBAA4"/>
<path fill-rule="evenodd" clip-rule="evenodd" d="M250.915 37.9094C250.88 38.1956 250.841 38.5427 250.792 38.9356C250.744 38.9471 250.696 38.9522 250.648 38.957C250.19 39.0081 249.724 39.013 249.263 38.9751C249.005 38.9538 248.738 38.9142 248.528 38.7991C248.217 38.6299 248.087 38.329 248.037 38.0426C247.877 37.1661 248.267 36.3013 248.679 35.4922C248.735 35.3802 248.786 35.2405 248.856 35.1091C251.132 34.5514 251.119 36.2304 250.915 37.9094Z" fill="#F7DFD5"/>
<path fill-rule="evenodd" clip-rule="evenodd" d="M244.058 46L244.035 45.9958L244.026 45.9943L244 45.9896C244.187 45.7088 244.38 45.4323 244.569 45.1541C244.711 44.9434 244.856 44.7339 244.995 44.5213C245.006 44.5406 245.012 44.5507 245.012 44.5509L245.05 44.5285C244.576 45.3399 244.058 46 244.058 46ZM245.067 44.5C245.061 44.4896 245.052 44.4738 245.039 44.4529C245.19 44.2199 245.332 43.9827 245.455 43.7361C245.577 43.4876 245.675 43.2266 245.718 42.9539C245.76 42.6809 245.784 42.3994 245.818 42.1218C245.861 41.7471 245.911 41.3727 245.97 41C245.98 41.0196 245.99 41.0392 246 41.0586C245.904 41.7012 245.851 42.2675 245.81 42.6374C245.748 43.1972 245.421 43.8895 245.067 44.5Z" fill="#956550"/>
<path fill-rule="evenodd" clip-rule="evenodd" d="M242.074 51C242.065 51 242.055 50.9974 242.045 50.992C242.007 50.9705 241.99 50.9118 242.006 50.8612L242.006 50.8602C242.023 50.8087 242.04 50.7575 242.057 50.7062C242.213 50.5307 242.307 50.256 242.391 49.9993C242.845 48.6237 243.374 47.2915 243.971 46.0207L244 46.1548C243.888 46.3856 243.779 46.6181 243.674 46.8541C243.095 48.1649 242.591 49.5386 242.144 50.9374L242.143 50.9396C242.131 50.9775 242.103 51 242.074 51ZM243.968 46.0064L243.942 46L243.968 46.0064Z" fill="#875D4B"/>
<mask id="mask1" mask-type="alpha" maskUnits="userSpaceOnUse" x="277" y="50" width="33" height="27">
<path d="M277.5 50.5H309.707L309.5 77H277.442L277.5 50.5Z" fill="white"/>
</mask>
<g mask="url(#mask1)">
<path fill-rule="evenodd" clip-rule="evenodd" d="M310 78.2033L286.313 80.4112C286.313 80.4112 284.641 76.6947 282.889 74.7454C282.786 74.6309 282.681 74.513 282.578 74.3949C281.011 72.6039 279.493 70.4981 280.13 69.7864C280.163 69.7462 280.201 69.7126 280.246 69.6835C280.447 69.553 280.747 69.4312 281.134 69.3596C282.599 69.0901 285.27 69.5626 288.065 73.1322C288.103 73.1835 288.143 73.2347 288.184 73.2877C288.184 73.2877 287.488 70.9988 285.186 68.3174C283.148 65.941 277.699 60.0437 277.795 57.4349C277.806 57.0986 277.909 56.8179 278.122 56.6066C278.655 56.0767 279.337 56.1035 280.104 56.4822C282.037 57.431 284.524 60.6091 286.599 62.7553C289.528 65.7822 294.292 70.8466 294.292 70.8466C294.292 70.8466 291.486 64.0491 289.081 60.8952C286.981 58.1417 282.724 53.9357 282.659 51.8557C282.648 51.5536 282.729 51.2943 282.918 51.0925C283.288 50.6946 283.789 50.6301 284.332 50.7568C285.923 51.1278 287.871 53.1458 287.94 53.2173C287.92 53.1713 287.581 52.4303 287.686 51.7469C287.743 51.3906 287.919 51.0499 288.324 50.8297C288.703 50.624 289.52 50.9611 290.463 51.52C292.518 52.741 295.169 55.0178 295.169 55.0178C295.169 55.0178 295.007 54.6163 295.083 54.1927C295.138 53.8952 295.312 53.5848 295.742 53.3956C295.936 53.3103 296.159 53.3054 296.406 53.3709C297.489 53.6547 299.041 55.2594 300.743 57.2133C302.837 59.6128 304.271 63.3412 305.306 66.0202C305.488 66.4922 305.752 67.1784 306.064 67.9877C307.517 71.7585 310 78.2033 310 78.2033Z" fill="#EEBAA4"/>
</g>
<path fill-rule="evenodd" clip-rule="evenodd" d="M282.999 73.5768C283.007 73.7238 282.966 73.8775 282.869 74C281.138 72.4455 279.461 70.6177 280.165 70C280.222 70.0021 280.288 70.0186 280.363 70.0517C280.931 70.3008 281.379 70.9081 281.708 71.3285C282.117 71.8493 282.475 72.3936 282.779 72.9559C282.886 73.1558 282.989 73.3605 282.999 73.5768Z" fill="#F7DFD5"/>
<path fill-rule="evenodd" clip-rule="evenodd" d="M280.992 58.7951C281.021 59.1015 280.974 59.4338 280.823 59.6686C280.613 59.9931 280.242 60.0652 279.932 59.946C279.623 59.8245 279.364 59.543 279.129 59.2507C278.873 58.9329 278.302 58.0908 278 57.3057C278.009 56.9494 278.091 56.652 278.261 56.4281C278.688 55.8665 279.232 55.8949 279.845 56.2962L279.86 56.3112C280.25 56.7418 280.531 57.3211 280.761 57.9221C280.866 58.1982 280.962 58.4869 280.992 58.7951Z" fill="#F7DFD5"/>
<path fill-rule="evenodd" clip-rule="evenodd" d="M286.229 53.991C285.834 54.0412 285.45 53.8733 285.118 53.691C284.332 53.2591 283.5 52.6632 283.001 51.9784C282.99 51.723 283.072 51.5038 283.262 51.3332C283.637 50.9968 284.144 50.9424 284.694 51.0495L284.725 51.0605C285.116 51.2219 285.447 51.4687 285.757 51.7247C286.077 51.9876 286.382 52.2634 286.655 52.5612C286.796 52.7166 286.929 52.8816 286.981 53.0724C287.089 53.4788 286.72 53.9287 286.229 53.991Z" fill="#F7DFD5"/>
<path fill-rule="evenodd" clip-rule="evenodd" d="M291.985 53.4565C291.909 53.7825 291.522 53.9914 291.154 53.9998C290.786 54.0065 290.437 53.8565 290.119 53.6893C289.51 53.3673 288.954 52.9626 288.475 52.4942C288.291 52.3158 288.116 52.1202 288 51.9C288.058 51.5721 288.236 51.2586 288.647 51.056C289.032 50.8667 289.861 51.1769 290.818 51.6911C290.934 51.8021 291.045 51.9199 291.152 52.0364C291.321 52.2195 291.482 52.4064 291.64 52.5968C291.847 52.8484 292.058 53.1486 291.985 53.4565Z" fill="#F7DFD5"/>
<path fill-rule="evenodd" clip-rule="evenodd" d="M297.996 55.2633C298.017 55.491 297.95 55.742 297.785 55.8811C297.518 56.1077 297.132 55.9705 296.834 55.801C296.554 55.643 296.283 55.4627 296.038 55.2465C295.813 55.0513 295.611 54.8266 295.409 54.6036C295.266 54.4452 295.104 54.2124 295 53.9617C295.055 53.6314 295.228 53.2869 295.657 53.0772C295.85 52.9824 296.072 52.9769 296.318 53.0497C296.632 53.263 296.918 53.5696 297.134 53.8166C297.358 54.0726 297.581 54.3328 297.76 54.6289C297.876 54.8212 297.974 55.0335 297.996 55.2633Z" fill="#F7DFD5"/>
<path fill-rule="evenodd" clip-rule="evenodd" d="M302.908 65C302.877 65 302.847 64.9854 302.83 64.9588C302.534 64.5056 302.273 64.0569 301.998 63.6043L301.183 62.2488C300.639 61.346 300.098 60.4408 299.536 59.5487C299.391 59.3289 299.261 59.0976 299.087 58.905C298.909 58.7093 298.722 58.5185 298.531 58.3307C298.151 57.9545 297.762 57.5846 297.371 57.2174C296.588 56.4828 295.797 55.7558 295.001 55.0338L295 55.0026C295.012 55.0121 295.018 55.0169 295.018 55.0169C295.018 55.0169 295.015 55.0112 295.011 55.0005L295.035 55C295.839 55.7149 296.638 56.4346 297.43 57.1623C297.825 57.5262 298.218 57.8926 298.604 58.2663C298.797 58.453 298.987 58.6423 299.17 58.8405C299.357 59.0433 299.488 59.2736 299.637 59.4928C300.209 60.3819 300.76 61.2815 301.314 62.1795C301.869 63.0736 302.414 63.9875 302.981 64.8617L302.987 64.8699C303.013 64.9106 302.999 64.9631 302.956 64.9875C302.941 64.9961 302.924 65 302.908 65Z" fill="#956550"/>
<path fill-rule="evenodd" clip-rule="evenodd" d="M295.83 62.9588C295.847 62.9854 295.903 62.8205 295.83 62.9588C295.534 62.5056 295.273 62.0569 294.998 61.6043L294.183 60.2488C293.639 59.346 293.098 58.4408 292.536 57.5487C292.391 57.3289 292.261 57.0976 292.087 56.905C291.909 56.7093 291.722 56.5185 291.531 56.3307C291.151 55.9545 290.762 55.5846 290.371 55.2174C289.588 54.4828 288.797 53.7558 288.001 53.0338L288 53.0026C288.012 53.0121 288.018 53.0169 288.018 53.0169C288.018 53.0169 288.015 53.0112 288.011 53.0005L288.035 53C288.839 53.7149 289.638 54.4346 290.43 55.1623C290.825 55.5262 291.218 55.8926 291.604 56.2663C291.797 56.453 291.987 56.6423 292.17 56.8405C292.357 57.0433 292.488 57.2736 292.637 57.4928C293.209 58.3819 293.76 59.2815 294.314 60.1795C294.869 61.0736 295.414 61.9875 295.981 62.8617L295.987 62.8699C296.013 62.9106 298.543 66.4756 298.5 66.5C298.485 66.5085 295.83 62.9588 295.83 62.9588Z" fill="#956550"/>
<path d="M252.388 20.4842L254.064 21.588L255.864 18" stroke="#34BBA8" stroke-width="1.2" stroke-linecap="round" stroke-linejoin="round"/>
<path d="M254.388 27.4842L256.064 28.588L257.864 25" stroke="#34BBA8" stroke-width="1.2" stroke-linecap="round" stroke-linejoin="round"/>
<rect x="260" y="17.5443" width="21.4216" height="0.856866" rx="0.428433" transform="rotate(-15 260 17.5443)" fill="#B4B4B4" fill-opacity="0.28"/>
<rect x="261.552" y="24.338" width="21.4216" height="0.856866" rx="0.428433" transform="rotate(-15 261.552 24.338)" fill="#B4B4B4" fill-opacity="0.28"/>
<rect x="263.105" y="31.1317" width="21.4216" height="0.856866" rx="0.428433" transform="rotate(-15 263.105 31.1317)" fill="#B4B4B4" fill-opacity="0.28"/>
<rect x="265" y="37.6289" width="21.4216" height="0.856866" rx="0.428433" transform="rotate(-15 265 37.6289)" fill="#B4B4B4" fill-opacity="0.28"/>
</g>
<rect x="17" y="56" width="161" height="2" rx="1" fill="white"/>
<path d="M17 57C17 56.4477 17.4477 56 18 56H146V58H18C17.4477 58 17 57.5523 17 57Z" fill="#34B3BB"/>
<defs>
<linearGradient id="paint0_linear" x1="0" y1="0" x2="330.5" y2="67.5" gradientUnits="userSpaceOnUse">
<stop stop-color="#ECFBFB"/>
<stop offset="1" stop-color="#E2FCFF"/>
</linearGradient>
<linearGradient id="paint1_linear" x1="328" y1="-3.4661e-05" x2="9.47471" y2="82.921" gradientUnits="userSpaceOnUse">
<stop stop-color="#FDF5F2"/>
<stop offset="1" stop-color="#FFF7EB"/>
</linearGradient>
</defs>
</svg>
