<svg width="344" height="72" viewBox="0 0 344 72" fill="none" xmlns="http://www.w3.org/2000/svg">
<rect width="344" height="72" rx="8" transform="matrix(-1 0 0 1 344 0)" fill="url(#paint0_linear_1_53)"/>
<path d="M17.0688 15.8182H19.4801L21.8018 20.2031H21.9012L24.223 15.8182H26.6342L22.9204 22.4006V26H20.7826V22.4006L17.0688 15.8182ZM29.6209 26.1491C28.8486 26.1491 28.1808 25.9851 27.6173 25.657C27.0572 25.3255 26.6247 24.8648 26.3197 24.2749C26.0148 23.6816 25.8623 22.9938 25.8623 22.2116C25.8623 21.4228 26.0148 20.7334 26.3197 20.1435C26.6247 19.5502 27.0572 19.0895 27.6173 18.7614C28.1808 18.4299 28.8486 18.2642 29.6209 18.2642C30.3931 18.2642 31.0593 18.4299 31.6194 18.7614C32.1829 19.0895 32.6171 19.5502 32.922 20.1435C33.2269 20.7334 33.3794 21.4228 33.3794 22.2116C33.3794 22.9938 33.2269 23.6816 32.922 24.2749C32.6171 24.8648 32.1829 25.3255 31.6194 25.657C31.0593 25.9851 30.3931 26.1491 29.6209 26.1491ZM29.6308 24.5085C29.9821 24.5085 30.2755 24.4091 30.5108 24.2102C30.7461 24.008 30.9234 23.733 31.0427 23.3849C31.1654 23.0369 31.2267 22.6409 31.2267 22.1967C31.2267 21.7526 31.1654 21.3565 31.0427 21.0085C30.9234 20.6605 30.7461 20.3854 30.5108 20.1832C30.2755 19.9811 29.9821 19.88 29.6308 19.88C29.2762 19.88 28.9779 19.9811 28.7359 20.1832C28.4973 20.3854 28.3166 20.6605 28.194 21.0085C28.0747 21.3565 28.015 21.7526 28.015 22.1967C28.015 22.6409 28.0747 23.0369 28.194 23.3849C28.3166 23.733 28.4973 24.008 28.7359 24.2102C28.9779 24.4091 29.2762 24.5085 29.6308 24.5085ZM39.6535 22.7486V18.3636H41.7714V26H39.7381V24.6129H39.6585C39.4862 25.0604 39.1995 25.42 38.7984 25.6918C38.4007 25.9635 37.9151 26.0994 37.3417 26.0994C36.8313 26.0994 36.3822 25.9834 35.9944 25.7514C35.6067 25.5194 35.3034 25.1896 35.0846 24.7621C34.8692 24.3345 34.7598 23.8224 34.7565 23.2259V18.3636H36.8744V22.848C36.8777 23.2988 36.9987 23.6551 37.2373 23.9169C37.476 24.1787 37.7958 24.3097 38.1969 24.3097C38.4521 24.3097 38.6907 24.2517 38.9128 24.1357C39.1348 24.0163 39.3138 23.8407 39.4497 23.6087C39.5889 23.3767 39.6568 23.09 39.6535 22.7486ZM43.4655 26V18.3636H45.5188V19.696H45.5983C45.7375 19.2221 45.9712 18.8641 46.2993 18.6222C46.6274 18.3769 47.0053 18.2543 47.4328 18.2543C47.5389 18.2543 47.6532 18.2609 47.7759 18.2741C47.8985 18.2874 48.0062 18.3056 48.099 18.3288V20.2081C47.9996 20.1783 47.862 20.1518 47.6864 20.1286C47.5107 20.1054 47.35 20.0938 47.2041 20.0938C46.8926 20.0938 46.6142 20.1617 46.3689 20.2976C46.127 20.4302 45.9347 20.6158 45.7922 20.8544C45.653 21.093 45.5834 21.3681 45.5834 21.6797V26H43.4655ZM52.4343 28.8636V18.3636H54.5223V19.6463H54.6168C54.7096 19.4408 54.8438 19.232 55.0195 19.0199C55.1985 18.8045 55.4305 18.6255 55.7155 18.483C56.0039 18.3371 56.3618 18.2642 56.7894 18.2642C57.3462 18.2642 57.8599 18.41 58.3306 18.7017C58.8012 18.9901 59.1774 19.4259 59.4591 20.0092C59.7408 20.5893 59.8817 21.3168 59.8817 22.1918C59.8817 23.0436 59.7441 23.7628 59.4691 24.3494C59.1973 24.9328 58.8261 25.3752 58.3554 25.6768C57.8881 25.9751 57.3644 26.1243 56.7844 26.1243C56.3734 26.1243 56.0237 26.0563 55.7354 25.9205C55.4503 25.7846 55.2167 25.6139 55.0344 25.4084C54.8521 25.1996 54.7129 24.9891 54.6168 24.777H54.5521V28.8636H52.4343ZM54.5074 22.1818C54.5074 22.6359 54.5704 23.032 54.6963 23.37C54.8223 23.7081 55.0046 23.9716 55.2432 24.1605C55.4818 24.3461 55.7718 24.4389 56.1132 24.4389C56.4579 24.4389 56.7496 24.3445 56.9882 24.1555C57.2269 23.9633 57.4075 23.6982 57.5301 23.3601C57.6561 23.0187 57.7191 22.6259 57.7191 22.1818C57.7191 21.741 57.6577 21.3532 57.5351 21.0185C57.4125 20.6837 57.2318 20.4219 56.9932 20.233C56.7546 20.044 56.4612 19.9496 56.1132 19.9496C55.7685 19.9496 55.4769 20.0407 55.2382 20.223C55.0029 20.4053 54.8223 20.6638 54.6963 20.9986C54.5704 21.3333 54.5074 21.7277 54.5074 22.1818ZM61.2936 26V18.3636H63.3469V19.696H63.4264C63.5656 19.2221 63.7993 18.8641 64.1274 18.6222C64.4556 18.3769 64.8334 18.2543 65.261 18.2543C65.367 18.2543 65.4814 18.2609 65.604 18.2741C65.7266 18.2874 65.8343 18.3056 65.9271 18.3288V20.2081C65.8277 20.1783 65.6902 20.1518 65.5145 20.1286C65.3388 20.1054 65.1781 20.0938 65.0323 20.0938C64.7207 20.0938 64.4423 20.1617 64.197 20.2976C63.9551 20.4302 63.7628 20.6158 63.6203 20.8544C63.4811 21.093 63.4115 21.3681 63.4115 21.6797V26H61.2936ZM70.117 26.1491C69.3447 26.1491 68.6769 25.9851 68.1134 25.657C67.5533 25.3255 67.1207 24.8648 66.8158 24.2749C66.5109 23.6816 66.3584 22.9938 66.3584 22.2116C66.3584 21.4228 66.5109 20.7334 66.8158 20.1435C67.1207 19.5502 67.5533 19.0895 68.1134 18.7614C68.6769 18.4299 69.3447 18.2642 70.117 18.2642C70.8892 18.2642 71.5554 18.4299 72.1155 18.7614C72.679 19.0895 73.1132 19.5502 73.4181 20.1435C73.723 20.7334 73.8755 21.4228 73.8755 22.2116C73.8755 22.9938 73.723 23.6816 73.4181 24.2749C73.1132 24.8648 72.679 25.3255 72.1155 25.657C71.5554 25.9851 70.8892 26.1491 70.117 26.1491ZM70.1269 24.5085C70.4782 24.5085 70.7716 24.4091 71.0069 24.2102C71.2422 24.008 71.4195 23.733 71.5388 23.3849C71.6615 23.0369 71.7228 22.6409 71.7228 22.1967C71.7228 21.7526 71.6615 21.3565 71.5388 21.0085C71.4195 20.6605 71.2422 20.3854 71.0069 20.1832C70.7716 19.9811 70.4782 19.88 70.1269 19.88C69.7723 19.88 69.474 19.9811 69.232 20.1832C68.9934 20.3854 68.8127 20.6605 68.6901 21.0085C68.5708 21.3565 68.5111 21.7526 68.5111 22.1967C68.5111 22.6409 68.5708 23.0369 68.6901 23.3849C68.8127 23.733 68.9934 24.008 69.232 24.2102C69.474 24.4091 69.7723 24.5085 70.1269 24.5085ZM79.3591 18.3636V19.9545H74.6461V18.3636H79.3591ZM75.7249 26V17.8118C75.7249 17.2583 75.8326 16.7992 76.0481 16.4347C76.2668 16.0701 76.5651 15.7966 76.943 15.6143C77.3208 15.4321 77.75 15.3409 78.2306 15.3409C78.5554 15.3409 78.852 15.3658 79.1205 15.4155C79.3923 15.4652 79.5945 15.5099 79.727 15.5497L79.3492 17.1406C79.2663 17.1141 79.1636 17.0893 79.041 17.0661C78.9216 17.0429 78.799 17.0312 78.6731 17.0312C78.3615 17.0312 78.1444 17.1042 78.0218 17.25C77.8992 17.3925 77.8378 17.593 77.8378 17.8516V26H75.7249ZM80.653 26V18.3636H82.7709V26H80.653ZM81.7169 17.3793C81.4021 17.3793 81.1319 17.2749 80.9066 17.0661C80.6845 16.8539 80.5735 16.6004 80.5735 16.3054C80.5735 16.0137 80.6845 15.7635 80.9066 15.5547C81.1319 15.3426 81.4021 15.2365 81.7169 15.2365C82.0318 15.2365 82.3003 15.3426 82.5223 15.5547C82.7477 15.7635 82.8604 16.0137 82.8604 16.3054C82.8604 16.6004 82.7477 16.8539 82.5223 17.0661C82.3003 17.2749 82.0318 17.3793 81.7169 17.3793ZM86.5854 15.8182V26H84.4675V15.8182H86.5854ZM91.762 26.1491C90.9765 26.1491 90.3004 25.9901 89.7336 25.6719C89.1702 25.3504 88.736 24.8963 88.4311 24.3097C88.1261 23.7197 87.9737 23.022 87.9737 22.2166C87.9737 21.4311 88.1261 20.7417 88.4311 20.1484C88.736 19.5552 89.1652 19.0928 89.7187 18.7614C90.2755 18.4299 90.9285 18.2642 91.6775 18.2642C92.1813 18.2642 92.6503 18.3454 93.0845 18.5078C93.522 18.6669 93.9031 18.9072 94.2279 19.2287C94.5561 19.5502 94.8113 19.9545 94.9936 20.4418C95.1758 20.9257 95.267 21.4924 95.267 22.142V22.7237H88.8188V21.4112H93.2734C93.2734 21.1063 93.2071 20.8362 93.0745 20.6009C92.9419 20.3655 92.758 20.1816 92.5227 20.049C92.2907 19.9131 92.0205 19.8452 91.7123 19.8452C91.3908 19.8452 91.1058 19.9197 90.8572 20.0689C90.6119 20.2147 90.4197 20.4119 90.2805 20.6605C90.1413 20.9058 90.07 21.1792 90.0667 21.4808V22.7287C90.0667 23.1065 90.1363 23.433 90.2755 23.7081C90.418 23.9832 90.6186 24.1953 90.8771 24.3445C91.1356 24.4936 91.4422 24.5682 91.7968 24.5682C92.0321 24.5682 92.2476 24.535 92.4431 24.4688C92.6387 24.4025 92.8061 24.303 92.9453 24.1705C93.0845 24.0379 93.1905 23.8755 93.2634 23.6832L95.2222 23.8125C95.1228 24.2831 94.919 24.6941 94.6107 25.0455C94.3058 25.3935 93.9114 25.6652 93.4275 25.8608C92.9469 26.053 92.3918 26.1491 91.762 26.1491ZM99.8893 26V18.3636H102.007V26H99.8893ZM100.953 17.3793C100.638 17.3793 100.368 17.2749 100.143 17.0661C99.9208 16.8539 99.8098 16.6004 99.8098 16.3054C99.8098 16.0137 99.9208 15.7635 100.143 15.5547C100.368 15.3426 100.638 15.2365 100.953 15.2365C101.268 15.2365 101.537 15.3426 101.759 15.5547C101.984 15.7635 102.097 16.0137 102.097 16.3054C102.097 16.6004 101.984 16.8539 101.759 17.0661C101.537 17.2749 101.268 17.3793 100.953 17.3793ZM110.057 20.5412L108.119 20.6605C108.085 20.4948 108.014 20.3456 107.905 20.2131C107.795 20.0772 107.651 19.9695 107.472 19.8899C107.297 19.8071 107.086 19.7656 106.841 19.7656C106.513 19.7656 106.236 19.8352 106.011 19.9744C105.785 20.1103 105.673 20.2926 105.673 20.5213C105.673 20.7036 105.745 20.8577 105.891 20.9837C106.037 21.1096 106.287 21.2107 106.642 21.2869L108.024 21.5653C108.767 21.7178 109.32 21.9631 109.685 22.3011C110.049 22.6392 110.231 23.0833 110.231 23.6335C110.231 24.134 110.084 24.5732 109.789 24.951C109.497 25.3288 109.096 25.6238 108.586 25.8359C108.079 26.0447 107.494 26.1491 106.831 26.1491C105.82 26.1491 105.015 25.9387 104.415 25.5178C103.818 25.0935 103.468 24.5168 103.366 23.7876L105.449 23.6783C105.512 23.9865 105.664 24.2218 105.906 24.3842C106.148 24.5433 106.458 24.6229 106.836 24.6229C107.207 24.6229 107.505 24.5516 107.731 24.4091C107.959 24.2633 108.075 24.076 108.079 23.8473C108.075 23.6551 107.994 23.4976 107.835 23.375C107.676 23.2491 107.431 23.1529 107.099 23.0866L105.777 22.8232C105.031 22.674 104.476 22.4155 104.111 22.0476C103.75 21.6797 103.57 21.2107 103.57 20.6406C103.57 20.1501 103.702 19.7275 103.967 19.3729C104.236 19.0182 104.612 18.7448 105.096 18.5526C105.583 18.3603 106.153 18.2642 106.806 18.2642C107.771 18.2642 108.53 18.468 109.083 18.8757C109.64 19.2834 109.965 19.8385 110.057 20.5412ZM50.2381 44.1491C49.4559 44.1491 48.783 43.9834 48.2196 43.652C47.6595 43.3172 47.2286 42.8532 46.927 42.2599C46.6287 41.6667 46.4795 40.9839 46.4795 40.2116C46.4795 39.4295 46.6303 38.7434 46.9319 38.1534C47.2369 37.5601 47.6694 37.0978 48.2295 36.7663C48.7897 36.4316 49.4559 36.2642 50.2281 36.2642C50.8943 36.2642 51.4776 36.3852 51.9781 36.6271C52.4786 36.8691 52.8747 37.2088 53.1663 37.6463C53.458 38.0838 53.6187 38.5975 53.6486 39.1875H51.65C51.5936 38.8063 51.4445 38.4998 51.2025 38.2678C50.9639 38.0324 50.6507 37.9148 50.2629 37.9148C49.9348 37.9148 49.6481 38.0043 49.4028 38.1832C49.1609 38.3589 48.972 38.6158 48.8361 38.9538C48.7002 39.2919 48.6322 39.7012 48.6322 40.1818C48.6322 40.669 48.6985 41.0833 48.8311 41.4247C48.967 41.7661 49.1576 42.0263 49.4028 42.2053C49.6481 42.3842 49.9348 42.4737 50.2629 42.4737C50.5049 42.4737 50.722 42.424 50.9142 42.3246C51.1097 42.2251 51.2705 42.081 51.3964 41.892C51.5257 41.6998 51.6102 41.4695 51.65 41.201H53.6486C53.6154 41.7843 53.4563 42.2981 53.1713 42.7422C52.8896 43.183 52.5001 43.5277 52.003 43.7763C51.5058 44.0249 50.9175 44.1491 50.2381 44.1491ZM58.4548 44.1491C57.6826 44.1491 57.0147 43.9851 56.4513 43.657C55.8912 43.3255 55.4586 42.8648 55.1537 42.2749C54.8488 41.6816 54.6963 40.9938 54.6963 40.2116C54.6963 39.4228 54.8488 38.7334 55.1537 38.1435C55.4586 37.5502 55.8912 37.0895 56.4513 36.7614C57.0147 36.4299 57.6826 36.2642 58.4548 36.2642C59.2271 36.2642 59.8933 36.4299 60.4534 36.7614C61.0169 37.0895 61.4511 37.5502 61.756 38.1435C62.0609 38.7334 62.2134 39.4228 62.2134 40.2116C62.2134 40.9938 62.0609 41.6816 61.756 42.2749C61.4511 42.8648 61.0169 43.3255 60.4534 43.657C59.8933 43.9851 59.2271 44.1491 58.4548 44.1491ZM58.4648 42.5085C58.8161 42.5085 59.1094 42.4091 59.3448 42.2102C59.5801 42.008 59.7574 41.733 59.8767 41.3849C59.9994 41.0369 60.0607 40.6409 60.0607 40.1967C60.0607 39.7526 59.9994 39.3565 59.8767 39.0085C59.7574 38.6605 59.5801 38.3854 59.3448 38.1832C59.1094 37.9811 58.8161 37.88 58.4648 37.88C58.1102 37.88 57.8119 37.9811 57.5699 38.1832C57.3313 38.3854 57.1506 38.6605 57.028 39.0085C56.9087 39.3565 56.849 39.7526 56.849 40.1967C56.849 40.6409 56.9087 41.0369 57.028 41.3849C57.1506 41.733 57.3313 42.008 57.5699 42.2102C57.8119 42.4091 58.1102 42.5085 58.4648 42.5085ZM63.5905 44V36.3636H65.609V37.7109H65.6985C65.8575 37.2635 66.1227 36.9105 66.4939 36.652C66.8651 36.3935 67.3093 36.2642 67.8263 36.2642C68.35 36.2642 68.7958 36.3951 69.1637 36.657C69.5316 36.9155 69.7768 37.2668 69.8995 37.7109H69.979C70.1348 37.2734 70.4165 36.9238 70.8242 36.6619C71.2352 36.3968 71.7207 36.2642 72.2808 36.2642C72.9934 36.2642 73.5718 36.4912 74.0159 36.9453C74.4634 37.3961 74.6871 38.0357 74.6871 38.8643V44H72.5742V39.282C72.5742 38.8577 72.4615 38.5395 72.2361 38.3274C72.0107 38.1153 71.729 38.0092 71.3909 38.0092C71.0065 38.0092 70.7065 38.1319 70.4911 38.3771C70.2756 38.6191 70.1679 38.9389 70.1679 39.3366V44H68.1146V39.2372C68.1146 38.8627 68.0069 38.5644 67.7915 38.3423C67.5794 38.1203 67.2993 38.0092 66.9513 38.0092C66.716 38.0092 66.5039 38.0689 66.3149 38.1882C66.1293 38.3042 65.9818 38.4683 65.8725 38.6804C65.7631 38.8892 65.7084 39.1345 65.7084 39.4162V44H63.5905ZM76.36 46.8636V36.3636H78.4481V37.6463H78.5426C78.6354 37.4408 78.7696 37.232 78.9453 37.0199C79.1242 36.8045 79.3562 36.6255 79.6413 36.483C79.9296 36.3371 80.2876 36.2642 80.7151 36.2642C81.272 36.2642 81.7857 36.41 82.2563 36.7017C82.727 36.9901 83.1032 37.4259 83.3849 38.0092C83.6666 38.5893 83.8075 39.3168 83.8075 40.1918C83.8075 41.0436 83.6699 41.7628 83.3948 42.3494C83.1231 42.9328 82.7518 43.3752 82.2812 43.6768C81.8139 43.9751 81.2902 44.1243 80.7102 44.1243C80.2992 44.1243 79.9495 44.0563 79.6612 43.9205C79.3761 43.7846 79.1425 43.6139 78.9602 43.4084C78.7779 43.1996 78.6387 42.9891 78.5426 42.777H78.4779V46.8636H76.36ZM78.4332 40.1818C78.4332 40.6359 78.4962 41.032 78.6221 41.37C78.7481 41.7081 78.9303 41.9716 79.169 42.1605C79.4076 42.3461 79.6976 42.4389 80.039 42.4389C80.3837 42.4389 80.6754 42.3445 80.914 42.1555C81.1526 41.9633 81.3333 41.6982 81.4559 41.3601C81.5819 41.0187 81.6448 40.6259 81.6448 40.1818C81.6448 39.741 81.5835 39.3532 81.4609 39.0185C81.3383 38.6837 81.1576 38.4219 80.919 38.233C80.6803 38.044 80.387 37.9496 80.039 37.9496C79.6943 37.9496 79.4026 38.0407 79.164 38.223C78.9287 38.4053 78.7481 38.6638 78.6221 38.9986C78.4962 39.3333 78.4332 39.7277 78.4332 40.1818ZM87.3373 33.8182V44H85.2194V33.8182H87.3373ZM92.514 44.1491C91.7285 44.1491 91.0523 43.9901 90.4856 43.6719C89.9221 43.3504 89.4879 42.8963 89.183 42.3097C88.8781 41.7197 88.7256 41.022 88.7256 40.2166C88.7256 39.4311 88.8781 38.7417 89.183 38.1484C89.4879 37.5552 89.9171 37.0928 90.4707 36.7614C91.0275 36.4299 91.6804 36.2642 92.4295 36.2642C92.9332 36.2642 93.4022 36.3454 93.8364 36.5078C94.2739 36.6669 94.6551 36.9072 94.9799 37.2287C95.308 37.5502 95.5632 37.9545 95.7455 38.4418C95.9278 38.9257 96.0189 39.4924 96.0189 40.142V40.7237H89.5708V39.4112H94.0253C94.0253 39.1063 93.9591 38.8362 93.8265 38.6009C93.6939 38.3655 93.5099 38.1816 93.2746 38.049C93.0426 37.9131 92.7725 37.8452 92.4643 37.8452C92.1428 37.8452 91.8577 37.9197 91.6091 38.0689C91.3639 38.2147 91.1716 38.4119 91.0324 38.6605C90.8932 38.9058 90.822 39.1792 90.8187 39.4808V40.7287C90.8187 41.1065 90.8883 41.433 91.0275 41.7081C91.17 41.9832 91.3705 42.1953 91.629 42.3445C91.8876 42.4936 92.1941 42.5682 92.5488 42.5682C92.7841 42.5682 92.9995 42.535 93.1951 42.4688C93.3906 42.4025 93.558 42.303 93.6972 42.1705C93.8364 42.0379 93.9425 41.8755 94.0154 41.6832L95.9742 41.8125C95.8748 42.2831 95.6709 42.6941 95.3627 43.0455C95.0578 43.3935 94.6634 43.6652 94.1795 43.8608C93.6989 44.053 93.1437 44.1491 92.514 44.1491ZM101.463 36.3636V37.9545H96.8641V36.3636H101.463ZM97.9082 34.5341H100.026V41.6534C100.026 41.849 100.056 42.0014 100.116 42.1108C100.175 42.2169 100.258 42.2914 100.364 42.3345C100.473 42.3776 100.599 42.3991 100.742 42.3991C100.841 42.3991 100.941 42.3909 101.04 42.3743C101.14 42.3544 101.216 42.3395 101.269 42.3295L101.602 43.9055C101.496 43.9387 101.347 43.9768 101.155 44.0199C100.962 44.0663 100.729 44.0945 100.454 44.1044C99.9432 44.1243 99.4957 44.0563 99.1113 43.9006C98.7301 43.7448 98.4335 43.5028 98.2214 43.1747C98.0092 42.8466 97.9048 42.4323 97.9082 41.9318V34.5341ZM106.241 44.1491C105.455 44.1491 104.779 43.9901 104.212 43.6719C103.649 43.3504 103.214 42.8963 102.91 42.3097C102.605 41.7197 102.452 41.022 102.452 40.2166C102.452 39.4311 102.605 38.7417 102.91 38.1484C103.214 37.5552 103.644 37.0928 104.197 36.7614C104.754 36.4299 105.407 36.2642 106.156 36.2642C106.66 36.2642 107.129 36.3454 107.563 36.5078C108 36.6669 108.382 36.9072 108.706 37.2287C109.035 37.5502 109.29 37.9545 109.472 38.4418C109.654 38.9257 109.746 39.4924 109.746 40.142V40.7237H103.297V39.4112H107.752C107.752 39.1063 107.686 38.8362 107.553 38.6009C107.42 38.3655 107.237 38.1816 107.001 38.049C106.769 37.9131 106.499 37.8452 106.191 37.8452C105.869 37.8452 105.584 37.9197 105.336 38.0689C105.09 38.2147 104.898 38.4119 104.759 38.6605C104.62 38.9058 104.549 39.1792 104.545 39.4808V40.7287C104.545 41.1065 104.615 41.433 104.754 41.7081C104.897 41.9832 105.097 42.1953 105.356 42.3445C105.614 42.4936 105.921 42.5682 106.275 42.5682C106.511 42.5682 106.726 42.535 106.922 42.4688C107.117 42.4025 107.285 42.303 107.424 42.1705C107.563 42.0379 107.669 41.8755 107.742 41.6832L109.701 41.8125C109.601 42.2831 109.397 42.6941 109.089 43.0455C108.784 43.3935 108.39 43.6652 107.906 43.8608C107.425 44.053 106.87 44.1491 106.241 44.1491Z" fill="black"/>
<mask id="mask0_1_53" style="mask-type:alpha" maskUnits="userSpaceOnUse" x="0" y="0" width="344" height="72">
<rect width="344" height="72" rx="8" fill="url(#paint1_linear_1_53)"/>
</mask>
<g mask="url(#mask0_1_53)">
<path fill-rule="evenodd" clip-rule="evenodd" d="M310.439 59.7134L268.221 70L253.805 14.4211L296.198 4L310.439 59.7134Z" fill="black" fill-opacity="0.04"/>
<path fill-rule="evenodd" clip-rule="evenodd" d="M312.537 57.1355L269.537 67.5L254.854 11.5L298.032 1L312.537 57.1355Z" fill="white"/>
<path fill-rule="evenodd" clip-rule="evenodd" d="M252.156 35C252.156 35 255.871 37.051 256.985 38.7602C258.1 40.4693 259.214 42.3494 259.028 43.3749C258.843 44.4004 255.499 47.8187 254.571 47.9896C253.642 48.1605 250.599 46.1786 249.856 44.9822C249.113 43.7858 247.512 41.6657 247.512 41.6657L252.156 35Z" fill="#E3AA92"/>
<path fill-rule="evenodd" clip-rule="evenodd" d="M256.896 45C256.848 44.9186 256.722 44.7047 256.545 44.4056C256.316 44.0197 256.001 43.4927 255.658 42.9284C255.506 42.6778 255.349 42.4198 255.191 42.1635L255.259 42.1028C256.016 43.3295 256.765 44.5987 256.951 44.9159C256.933 44.944 256.915 44.972 256.896 45ZM253.739 39.9308C253.738 39.9297 253.738 39.9284 253.737 39.9273C252.976 38.8991 251.187 38.2556 250.754 38.1142C250.692 38.0938 250.659 38.0837 250.659 38.0837L250.672 38.0402C250.678 38.0268 250.685 38.0135 250.692 38C250.831 38.044 252.931 38.6993 253.807 39.8706L253.739 39.9308Z" fill="#956550"/>
<path fill-rule="evenodd" clip-rule="evenodd" d="M255.131 46.1146L254.976 46.0882C254.445 45.5775 253.887 44.751 253.389 43.9385C253.288 43.775 253.191 43.6122 253.097 43.4524L253.164 43.395C253.261 43.5593 253.362 43.7272 253.465 43.8959C253.99 44.754 254.588 45.628 255.131 46.1146ZM251.705 41.3256C251.513 41.1802 251.27 41.0343 251.017 40.8997C250.581 40.6681 250.113 40.4668 249.809 40.343C249.606 40.2606 249.476 40.2127 249.476 40.2127L249.508 40.1338C249.508 40.1341 250.032 40.3275 250.617 40.6043C251.024 40.7978 251.46 41.029 251.772 41.2684L251.705 41.3256Z" fill="#956550"/>
<path fill-rule="evenodd" clip-rule="evenodd" d="M262.634 38.1941C262.628 38.2463 262.623 38.302 262.618 38.3579C262.616 38.3899 262.612 38.4236 262.609 38.4574C262.601 38.5251 262.596 38.5942 262.589 38.667C262.575 38.8139 262.561 38.9708 262.545 39.1346C262.538 39.2024 262.533 39.2698 262.526 39.339C262.52 39.388 262.517 39.4386 262.511 39.4895C262.499 39.6161 262.486 39.7477 262.472 39.8811C262.44 40.1919 262.407 40.5212 262.368 40.8608C262.357 40.9586 262.345 41.0566 262.334 41.1564C262.302 41.4197 262.27 41.6882 262.235 41.9603C262.226 42.0378 262.216 42.1157 262.205 42.1934C262.157 42.5478 262.106 42.9076 262.049 43.2656C262.01 43.5122 261.969 43.7588 261.925 44.002C261.918 44.0476 261.909 44.0948 261.9 44.1406C261.886 44.2215 261.872 44.3027 261.856 44.382C261.817 44.5848 261.778 44.7839 261.736 44.9798C261.718 45.0659 261.698 45.1504 261.679 45.2348C261.546 45.8259 261.397 46.3784 261.227 46.8629C260.363 49.3356 260.848 52.4532 258.237 55.2701C258.172 55.3393 258.106 55.407 258.039 55.4761C257.282 56.2412 256.641 56.9709 256.089 57.7005C254.569 59.705 253.729 61.7029 253.079 64.4271C252.194 68.1426 252.725 77.6002 252.725 77.6002L251.854 77.6391L237.847 78.2758C237.847 78.2758 239.795 71.3514 240.681 65.6093C241.012 63.4526 241.246 61.796 241.379 60.4179C241.403 60.161 241.425 59.9144 241.442 59.6763C241.584 57.7782 241.506 56.3932 241.212 54.8006C240.681 51.9295 240.326 48.3829 239.086 44.6674C238.73 43.6034 238.493 42.8147 238.387 42.1729C238.35 41.95 238.33 41.7439 238.327 41.5516C238.302 40.3626 238.915 39.6346 240.326 38.0808C242.629 35.5475 248.474 30.4809 249.891 30.312C250.75 30.209 255.118 30.7275 258.467 31.376C260.375 31.746 261.953 32.1596 262.364 32.5246C262.423 32.5751 262.458 32.6275 262.467 32.6764C262.582 33.3369 261.571 34.1407 259.92 34.6186C259.036 34.877 257.972 35.0408 256.799 35.0408C253.434 35.0408 252.194 34.872 252.194 34.872C252.194 34.872 249.537 39.9385 249.183 40.6141C248.915 41.1241 249.861 43.563 250.339 44.725C250.493 45.1014 250.6 45.3429 250.6 45.3429L251.157 45.4375L255.52 46.1808L255.559 46.1873C255.559 46.1873 257.508 43.8229 257.685 42.303C257.862 40.783 258.216 36.3919 260.519 35.3786C260.575 35.3533 260.63 35.3315 260.683 35.3095C260.786 35.2688 260.885 35.2335 260.979 35.2048C261.014 35.1928 261.05 35.1829 261.084 35.1743C261.139 35.1591 261.192 35.1474 261.243 35.1354C261.27 35.1304 261.298 35.1253 261.324 35.1204C261.378 35.1119 261.429 35.1052 261.479 35.1C261.503 35.0984 261.528 35.0966 261.551 35.0949C261.744 35.0849 261.909 35.1136 262.045 35.1726C262.146 35.2148 262.233 35.2758 262.306 35.3518C262.793 35.8431 262.75 36.9611 262.644 38.0808C262.64 38.1181 262.637 38.1551 262.634 38.1941Z" fill="#EEBAA4"/>
<path fill-rule="evenodd" clip-rule="evenodd" d="M262.72 32.5C262.55 32.6647 261.78 32.9716 261.562 32.987C260.899 33.0308 260.232 32.9641 259.581 32.7865C259.187 32.6781 258.318 32.3372 258 32C258 32 256.945 31.4067 256.951 31C259.573 31 262.278 31.9438 262.72 32.5Z" fill="#F7DFD5"/>
<path fill-rule="evenodd" clip-rule="evenodd" d="M265.341 32.8002L235.996 57.6932C235.472 58.1373 234.669 58.0942 234.201 57.597C233.733 57.1 233.779 56.3371 234.302 55.8928L263.648 31L267.963 29L265.341 32.8002Z" fill="#B09191"/>
<path fill-rule="evenodd" clip-rule="evenodd" d="M236.5 54L238.073 56L240.171 54L238.494 52.3175L236.5 54Z" fill="#615757"/>
<path fill-rule="evenodd" clip-rule="evenodd" d="M263.174 37.9617C263.145 38.253 263.113 38.6064 263.073 39.0063C262.865 41.1323 262.489 44.5524 261.728 46.6667C260.845 49.1176 260.665 52.2079 258 55L255.902 45.9905L255.942 45.9971C255.942 45.9971 257.931 43.6534 258.112 42.1468C258.293 40.6401 258.654 36.2877 261.004 35.2832C261.173 35.2113 261.328 35.1543 261.475 35.111C263.353 34.5435 263.342 36.2525 263.174 37.9617Z" fill="#EEBAA4"/>
<path fill-rule="evenodd" clip-rule="evenodd" d="M263.155 37.9094C263.118 38.1956 263.077 38.5427 263.026 38.9356C262.976 38.9471 262.925 38.9522 262.875 38.957C262.394 39.0081 261.905 39.013 261.423 38.9751C261.152 38.9538 260.871 38.9142 260.651 38.7991C260.325 38.6299 260.189 38.329 260.136 38.0426C259.968 37.1661 260.377 36.3013 260.809 35.4922C260.869 35.3802 260.922 35.2405 260.995 35.1091C263.382 34.5514 263.369 36.2304 263.155 37.9094Z" fill="#F7DFD5"/>
<path fill-rule="evenodd" clip-rule="evenodd" d="M255.964 46L255.939 45.9958L255.93 45.9943L255.902 45.9896C256.099 45.7088 256.301 45.4323 256.499 45.1541C256.648 44.9434 256.8 44.7339 256.946 44.5213C256.958 44.5406 256.964 44.5507 256.964 44.5509L257.004 44.5285C256.507 45.3399 255.964 46 255.964 46ZM257.021 44.5C257.015 44.4896 257.005 44.4738 256.992 44.4529C257.15 44.2199 257.299 43.9827 257.428 43.7361C257.556 43.4876 257.659 43.2266 257.705 42.9539C257.748 42.6809 257.773 42.3994 257.809 42.1218C257.855 41.7471 257.906 41.3727 257.969 41C257.979 41.0196 257.99 41.0392 258 41.0586C257.899 41.7012 257.844 42.2675 257.801 42.6374C257.735 43.1972 257.393 43.8895 257.021 44.5Z" fill="#956550"/>
<path fill-rule="evenodd" clip-rule="evenodd" d="M253.883 51C253.873 51 253.862 50.9974 253.852 50.992C253.813 50.9705 253.794 50.9118 253.811 50.8612L253.811 50.8602C253.829 50.8087 253.847 50.7575 253.865 50.7062C254.028 50.5307 254.127 50.256 254.215 49.9993C254.691 48.6237 255.246 47.2915 255.872 46.0207L255.902 46.1548C255.785 46.3856 255.67 46.6181 255.56 46.8541C254.953 48.1649 254.424 49.5386 253.955 50.9374L253.955 50.9396C253.942 50.9775 253.913 51 253.883 51ZM255.869 46.0064L255.841 46L255.869 46.0064Z" fill="#875D4B"/>
<mask id="mask1_1_53" style="mask-type:alpha" maskUnits="userSpaceOnUse" x="290" y="50" width="35" height="27">
<path d="M291.037 50.5H324.814L324.598 77H290.976L291.037 50.5Z" fill="white"/>
</mask>
<g mask="url(#mask1_1_53)">
<path fill-rule="evenodd" clip-rule="evenodd" d="M325.122 78.2033L300.28 80.4112C300.28 80.4112 298.526 76.6947 296.688 74.7454C296.581 74.6309 296.471 74.513 296.362 74.395C294.719 72.6039 293.126 70.4981 293.795 69.7864C293.83 69.7462 293.869 69.7126 293.917 69.6835C294.127 69.553 294.442 69.4312 294.848 69.3596C296.385 69.0901 299.186 69.5626 302.116 73.1322C302.157 73.1835 302.199 73.2347 302.241 73.2877C302.241 73.2877 301.512 70.9988 299.097 68.3174C296.96 65.941 291.246 60.0437 291.346 57.4349C291.357 57.0986 291.466 56.8179 291.688 56.6066C292.248 56.0767 292.963 56.1035 293.767 56.4822C295.795 57.431 298.403 60.6091 300.58 62.7553C303.651 65.7822 308.648 70.8466 308.648 70.8466C308.648 70.8466 305.705 64.0491 303.182 60.8952C300.98 58.1417 296.515 53.9357 296.447 51.8557C296.436 51.5536 296.521 51.2943 296.718 51.0925C297.107 50.6946 297.632 50.6301 298.202 50.7568C299.871 51.1278 301.914 53.1458 301.986 53.2173C301.964 53.1713 301.609 52.4303 301.719 51.7469C301.779 51.3906 301.963 51.0499 302.388 50.8297C302.786 50.624 303.642 50.9611 304.632 51.52C306.787 52.741 309.567 55.0178 309.567 55.0178C309.567 55.0178 309.398 54.6163 309.477 54.1928C309.535 53.8952 309.717 53.5848 310.169 53.3956C310.372 53.3103 310.606 53.3054 310.865 53.3709C312.001 53.6547 313.628 55.2594 315.414 57.2133C317.609 59.6128 319.113 63.3412 320.199 66.0202C320.39 66.4922 320.667 67.1784 320.993 67.9877C322.518 71.7585 325.122 78.2033 325.122 78.2033Z" fill="#EEBAA4"/>
</g>
<path fill-rule="evenodd" clip-rule="evenodd" d="M296.804 73.5768C296.812 73.7238 296.769 73.8775 296.668 74C294.852 72.4455 293.093 70.6177 293.831 70C293.891 70.0021 293.961 70.0186 294.039 70.0517C294.635 70.3008 295.104 70.9081 295.45 71.3285C295.878 71.8493 296.254 72.3936 296.573 72.9559C296.686 73.1558 296.793 73.3605 296.804 73.5768Z" fill="#F7DFD5"/>
<path fill-rule="evenodd" clip-rule="evenodd" d="M294.699 58.7951C294.729 59.1015 294.681 59.4338 294.521 59.6686C294.301 59.9931 293.912 60.0652 293.587 59.946C293.263 59.8245 292.991 59.543 292.745 59.2507C292.477 58.9329 291.877 58.0908 291.561 57.3057C291.57 56.9494 291.657 56.652 291.835 56.4281C292.282 55.8665 292.853 55.8949 293.496 56.2962L293.512 56.3112C293.921 56.7418 294.216 57.3211 294.456 57.9221C294.567 58.1982 294.667 58.4869 294.699 58.7951Z" fill="#F7DFD5"/>
<path fill-rule="evenodd" clip-rule="evenodd" d="M300.191 53.991C299.777 54.0412 299.374 53.8733 299.026 53.691C298.202 53.2591 297.33 52.6632 296.806 51.9784C296.795 51.723 296.88 51.5038 297.08 51.3332C297.473 50.9968 298.005 50.9424 298.581 51.0495L298.614 51.0605C299.024 51.2219 299.371 51.4687 299.696 51.7247C300.032 51.9876 300.352 52.2634 300.638 52.5612C300.786 52.7166 300.926 52.8816 300.98 53.0724C301.094 53.4788 300.706 53.9287 300.191 53.991Z" fill="#F7DFD5"/>
<path fill-rule="evenodd" clip-rule="evenodd" d="M306.229 53.4565C306.149 53.7825 305.743 53.9914 305.357 53.9998C304.971 54.0065 304.604 53.8565 304.271 53.6893C303.633 53.3673 303.05 52.9626 302.547 52.4942C302.354 52.3158 302.17 52.1202 302.049 51.9C302.109 51.5721 302.297 51.2586 302.727 51.056C303.131 50.8667 304 51.1769 305.005 51.6911C305.126 51.8021 305.242 51.9199 305.355 52.0364C305.531 52.2195 305.7 52.4064 305.866 52.5968C306.084 52.8484 306.305 53.1486 306.229 53.4565Z" fill="#F7DFD5"/>
<path fill-rule="evenodd" clip-rule="evenodd" d="M312.533 55.2633C312.555 55.491 312.484 55.742 312.311 55.8811C312.031 56.1077 311.627 55.9705 311.314 55.801C311.021 55.643 310.736 55.4627 310.478 55.2465C310.243 55.0513 310.031 54.8266 309.819 54.6036C309.67 54.4452 309.499 54.2124 309.39 53.9617C309.448 53.6314 309.629 53.2869 310.079 53.0772C310.282 52.9824 310.514 52.9769 310.773 53.0497C311.102 53.263 311.401 53.5696 311.628 53.8166C311.864 54.0726 312.098 54.3328 312.285 54.6289C312.407 54.8212 312.509 55.0335 312.533 55.2633Z" fill="#F7DFD5"/>
<path fill-rule="evenodd" clip-rule="evenodd" d="M317.684 65C317.652 65 317.62 64.9854 317.602 64.9588C317.292 64.5056 317.018 64.0569 316.729 63.6043L315.875 62.2488C315.304 61.346 314.737 60.4408 314.148 59.5487C313.996 59.3289 313.859 59.0976 313.676 58.905C313.49 58.7093 313.294 58.5185 313.094 58.3307C312.695 57.9545 312.287 57.5846 311.877 57.2174C311.056 56.4828 310.226 55.7558 309.391 55.0338L309.39 55.0026C309.403 55.0121 309.409 55.0169 309.409 55.0169C309.409 55.0169 309.406 55.0112 309.402 55.0005L309.427 55C310.271 55.7149 311.109 56.4346 311.938 57.1623C312.353 57.5262 312.765 57.8926 313.17 58.2663C313.373 58.453 313.572 58.6423 313.764 58.8405C313.96 59.0433 314.098 59.2736 314.253 59.4928C314.854 60.3819 315.431 61.2815 316.012 62.1795C316.594 63.0736 317.165 63.9875 317.761 64.8617L317.767 64.8699C317.794 64.9106 317.78 64.9631 317.734 64.9875C317.719 64.9961 317.701 65 317.684 65Z" fill="#956550"/>
<path fill-rule="evenodd" clip-rule="evenodd" d="M310.261 62.9588C310.279 62.9854 310.337 62.8205 310.261 62.9588C309.95 62.5056 309.677 62.0569 309.388 61.6043L308.533 60.2488C307.963 59.346 307.395 58.4408 306.806 57.5487C306.654 57.3289 306.518 57.0976 306.335 56.905C306.149 56.7093 305.952 56.5185 305.752 56.3307C305.353 55.9545 304.946 55.5846 304.535 55.2174C303.714 54.4828 302.884 53.7558 302.049 53.0338L302.049 53.0026C302.061 53.0121 302.067 53.0169 302.067 53.0169C302.067 53.0169 302.065 53.0112 302.061 53.0005L302.086 53C302.929 53.7149 303.767 54.4346 304.597 55.1623C305.012 55.5262 305.424 55.8926 305.829 56.2663C306.031 56.453 306.231 56.6423 306.423 56.8405C306.618 57.0433 306.756 57.2736 306.912 57.4928C307.512 58.3819 308.09 59.2815 308.671 60.1795C309.253 61.0736 309.824 61.9875 310.419 62.8617L310.425 62.8699C310.453 62.9106 313.106 66.4756 313.061 66.5C313.046 66.5085 310.261 62.9588 310.261 62.9588Z" fill="#956550"/>
<path d="M264.7 20.4842L266.458 21.588L268.345 18" stroke="#34BBA8" stroke-width="1.2" stroke-linecap="round" stroke-linejoin="round"/>
<path d="M266.797 27.4842L268.555 28.588L270.442 25" stroke="#34BBA8" stroke-width="1.2" stroke-linecap="round" stroke-linejoin="round"/>
<rect width="22.3981" height="0.859729" rx="0.429865" transform="matrix(0.968879 -0.247535 0.27054 0.962709 272.683 17.5443)" fill="#B4B4B4" fill-opacity="0.28"/>
<rect width="22.3981" height="0.859729" rx="0.429865" transform="matrix(0.968879 -0.247536 0.27054 0.962709 274.311 24.338)" fill="#B4B4B4" fill-opacity="0.28"/>
<rect width="22.3982" height="0.85973" rx="0.429865" transform="matrix(0.968879 -0.247535 0.270541 0.962709 275.939 31.1317)" fill="#B4B4B4" fill-opacity="0.28"/>
<rect width="22.3981" height="0.859729" rx="0.429865" transform="matrix(0.968879 -0.247536 0.27054 0.962709 277.927 37.6289)" fill="#B4B4B4" fill-opacity="0.28"/>
</g>
<defs>
<linearGradient id="paint0_linear_1_53" x1="0" y1="0" x2="345.24" y2="73.9501" gradientUnits="userSpaceOnUse">
<stop stop-color="#ECFBFB"/>
<stop offset="1" stop-color="#E2FCFF"/>
</linearGradient>
<linearGradient id="paint1_linear_1_53" x1="344" y1="-3.4661e-05" x2="12.0426" y2="90.6333" gradientUnits="userSpaceOnUse">
<stop stop-color="#FDF5F2"/>
<stop offset="1" stop-color="#FFF7EB"/>
</linearGradient>
</defs>
</svg>
