<svg width="328" height="72" viewBox="0 0 328 72" fill="none" xmlns="http://www.w3.org/2000/svg">
<rect width="328" height="72" rx="8" transform="matrix(-1 0 0 1 328 0)" fill="url(#paint0_linear)"/>
<path d="M20.0376 15.8182H17.8849V26H20.0376V15.8182ZM23.8869 21.5852C23.8919 20.6009 24.4785 20.0241 25.3336 20.0241C26.1838 20.0241 26.6958 20.581 26.6909 21.5156V26H28.8088V21.1378C28.8088 19.358 27.7647 18.2642 26.1738 18.2642C25.0403 18.2642 24.22 18.821 23.877 19.7109H23.7875V18.3636H21.769V26H23.8869V21.5852ZM37.3239 18.3636H35.0817L33.5007 23.8274H33.4212L31.8352 18.3636H29.598L32.2678 26H34.6541L37.3239 18.3636ZM38.4077 26H40.5256V18.3636H38.4077V26ZM39.4716 17.3793C40.103 17.3793 40.62 16.897 40.62 16.3054C40.62 15.7188 40.103 15.2365 39.4716 15.2365C38.8452 15.2365 38.3281 15.7188 38.3281 16.3054C38.3281 16.897 38.8452 17.3793 39.4716 17.3793ZM46.2839 18.3636H44.8471V16.5341H42.7292V18.3636H41.6852V19.9545H42.7292V23.9318C42.7193 25.4283 43.7385 26.169 45.2747 26.1044C45.8216 26.0845 46.2093 25.9751 46.4231 25.9055L46.09 24.3295C45.9856 24.3494 45.7619 24.3991 45.563 24.3991C45.1404 24.3991 44.8471 24.2401 44.8471 23.6534V19.9545H46.2839V18.3636ZM51.0616 26.1491C52.9508 26.1491 54.2235 25.2294 54.5218 23.8125L52.563 23.6832C52.3493 24.2649 51.8024 24.5682 51.0964 24.5682C50.0375 24.5682 49.3663 23.8672 49.3663 22.7287V22.7237H54.5666V22.142C54.5666 19.5469 52.9956 18.2642 50.9771 18.2642C48.7299 18.2642 47.2733 19.8601 47.2733 22.2166C47.2733 24.6378 48.71 26.1491 51.0616 26.1491ZM49.3663 21.4112C49.411 20.5412 50.0723 19.8452 51.0119 19.8452C51.9316 19.8452 52.568 20.5014 52.573 21.4112H49.3663ZM63.2955 18.3636H61.7791V17.8516C61.7791 17.3345 61.9879 17.0312 62.6094 17.0312C62.8629 17.0312 63.1214 17.0859 63.2905 17.1406L63.6634 15.5497C63.3999 15.4702 62.8182 15.3409 62.1669 15.3409C60.7301 15.3409 59.6612 16.1513 59.6612 17.8118V18.3636H58.5824V19.9545H59.6612V26H61.7791V19.9545H63.2955V18.3636ZM64.5893 26H66.7072V21.6797C66.7072 20.7401 67.3933 20.0938 68.3279 20.0938C68.6213 20.0938 69.024 20.1435 69.2228 20.2081V18.3288C69.0339 18.2841 68.7704 18.2543 68.5566 18.2543C67.7015 18.2543 67.0005 18.7514 66.7221 19.696H66.6426V18.3636H64.5893V26ZM70.3178 26H72.4357V18.3636H70.3178V26ZM71.3817 17.3793C72.0131 17.3793 72.5302 16.897 72.5302 16.3054C72.5302 15.7188 72.0131 15.2365 71.3817 15.2365C70.7553 15.2365 70.2383 15.7188 70.2383 16.3054C70.2383 16.897 70.7553 17.3793 71.3817 17.3793ZM77.6124 26.1491C79.5016 26.1491 80.7743 25.2294 81.0726 23.8125L79.1138 23.6832C78.9 24.2649 78.3532 24.5682 77.6472 24.5682C76.5882 24.5682 75.9171 23.8672 75.9171 22.7287V22.7237H81.1174V22.142C81.1174 19.5469 79.5463 18.2642 77.5279 18.2642C75.2807 18.2642 73.824 19.8601 73.824 22.2166C73.824 24.6378 75.2608 26.1491 77.6124 26.1491ZM75.9171 21.4112C75.9618 20.5412 76.623 19.8452 77.5627 19.8452C78.4824 19.8452 79.1188 20.5014 79.1238 21.4112H75.9171ZM84.6174 21.5852C84.6223 20.6009 85.209 20.0241 86.0641 20.0241C86.9142 20.0241 87.4263 20.581 87.4213 21.5156V26H89.5392V21.1378C89.5392 19.358 88.4952 18.2642 86.9043 18.2642C85.7708 18.2642 84.9505 18.821 84.6074 19.7109H84.5179V18.3636H82.4995V26H84.6174V21.5852ZM94.0224 26.1243C95.2553 26.1243 95.8967 25.4134 96.19 24.777H96.2795V26H98.3675V15.8182H96.2546V19.6463H96.19C95.9066 19.0249 95.2951 18.2642 94.0174 18.2642C92.342 18.2642 90.9251 19.5668 90.9251 22.1918C90.9251 24.7472 92.2823 26.1243 94.0224 26.1243ZM94.6935 24.4389C93.6545 24.4389 93.0877 23.5142 93.0877 22.1818C93.0877 20.8594 93.6445 19.9496 94.6935 19.9496C95.7227 19.9496 96.2994 20.8196 96.2994 22.1818C96.2994 23.544 95.7127 24.4389 94.6935 24.4389ZM106.463 20.5412C106.274 19.1342 105.14 18.2642 103.211 18.2642C101.257 18.2642 99.9696 19.169 99.9746 20.6406C99.9696 21.7841 100.691 22.5249 102.182 22.8232L103.504 23.0866C104.171 23.2209 104.474 23.4645 104.484 23.8473C104.474 24.2997 103.982 24.6229 103.241 24.6229C102.485 24.6229 101.983 24.2997 101.854 23.6783L99.7708 23.7876C99.9696 25.2493 101.213 26.1491 103.236 26.1491C105.215 26.1491 106.632 25.1399 106.637 23.6335C106.632 22.5298 105.911 21.8686 104.429 21.5653L103.047 21.2869C102.336 21.1328 102.073 20.8892 102.078 20.5213C102.073 20.0639 102.59 19.7656 103.246 19.7656C103.982 19.7656 104.419 20.1683 104.524 20.6605L106.463 20.5412ZM114.333 26.1491C115.222 26.1491 116.187 25.9006 116.938 25.3139L117.554 26H119.762L118.23 24.245C118.797 23.4943 119.155 22.4155 119.155 21.0334H117.4C117.4 21.6996 117.236 22.2912 116.968 22.7933L115.287 20.8643L115.884 20.4368C116.739 19.8203 117.236 19.0447 117.236 18.0852C117.236 16.7827 116.227 15.6839 114.591 15.6839C112.921 15.6839 111.812 16.8224 111.812 18.299C111.812 19.2038 112.249 19.9595 112.781 20.6357C111.673 21.3963 110.927 22.1172 110.927 23.2955C110.927 24.9013 112.215 26.1491 114.333 26.1491ZM115.794 24.0412C115.367 24.3047 114.899 24.4489 114.437 24.4489C113.552 24.4489 112.98 23.902 112.98 23.1761C112.98 22.7884 113.244 22.3409 113.806 21.9332L113.865 21.8935L115.794 24.0412ZM114.268 19.6562C113.89 19.179 113.627 18.7564 113.627 18.3338C113.627 17.8217 114.014 17.3942 114.606 17.3892C115.203 17.3842 115.541 17.8018 115.541 18.2045C115.541 18.6321 115.307 18.9851 114.8 19.3082L114.268 19.6562ZM127.325 29.0227C129.507 29.0227 131.058 28.0284 131.058 26.0746V18.3636H128.955V19.6463H128.876C128.592 19.0249 127.971 18.2642 126.693 18.2642C125.018 18.2642 123.601 19.5668 123.601 22.1669C123.601 24.7074 124.978 25.8906 126.698 25.8906C127.916 25.8906 128.597 25.2791 128.876 24.6477H128.965V26.0447C128.965 27.0938 128.294 27.5014 127.374 27.5014C126.44 27.5014 125.967 27.0938 125.793 26.6314L123.835 26.8949C124.088 28.098 125.266 29.0227 127.325 29.0227ZM127.369 24.2997C126.33 24.2997 125.763 23.4744 125.763 22.157C125.763 20.8594 126.32 19.9496 127.369 19.9496C128.398 19.9496 128.975 20.8196 128.975 22.157C128.975 23.5043 128.388 24.2997 127.369 24.2997ZM136.224 26.1491C138.113 26.1491 139.386 25.2294 139.684 23.8125L137.725 23.6832C137.511 24.2649 136.964 24.5682 136.259 24.5682C135.2 24.5682 134.528 23.8672 134.528 22.7287V22.7237H139.729V22.142C139.729 19.5469 138.158 18.2642 136.139 18.2642C133.892 18.2642 132.435 19.8601 132.435 22.2166C132.435 24.6378 133.872 26.1491 136.224 26.1491ZM134.528 21.4112C134.573 20.5412 135.234 19.8452 136.174 19.8452C137.094 19.8452 137.73 20.5014 137.735 21.4112H134.528ZM145.173 18.3636H143.736V16.5341H141.618V18.3636H140.574V19.9545H141.618V23.9318C141.608 25.4283 142.627 26.169 144.163 26.1044C144.71 26.0845 145.098 25.9751 145.312 25.9055L144.979 24.3295C144.874 24.3494 144.651 24.3991 144.452 24.3991C144.029 24.3991 143.736 24.2401 143.736 23.6534V19.9545H145.173V18.3636ZM149.832 26H151.92V24.777H152.015C152.308 25.4134 152.949 26.1243 154.182 26.1243C155.922 26.1243 157.28 24.7472 157.28 22.1918C157.28 19.5668 155.863 18.2642 154.187 18.2642C152.91 18.2642 152.298 19.0249 152.015 19.6463H151.95V15.8182H149.832V26ZM151.905 22.1818C151.905 20.8196 152.482 19.9496 153.511 19.9496C154.56 19.9496 155.117 20.8594 155.117 22.1818C155.117 23.5142 154.55 24.4389 153.511 24.4389C152.492 24.4389 151.905 23.544 151.905 22.1818ZM162.143 26.1491C164.46 26.1491 165.902 24.5632 165.902 22.2116C165.902 19.8452 164.46 18.2642 162.143 18.2642C159.826 18.2642 158.385 19.8452 158.385 22.2116C158.385 24.5632 159.826 26.1491 162.143 26.1491ZM162.153 24.5085C161.084 24.5085 160.537 23.5291 160.537 22.1967C160.537 20.8643 161.084 19.88 162.153 19.88C163.202 19.88 163.749 20.8643 163.749 22.1967C163.749 23.5291 163.202 24.5085 162.153 24.5085ZM169.397 21.5852C169.402 20.6009 169.988 20.0241 170.843 20.0241C171.694 20.0241 172.206 20.581 172.201 21.5156V26H174.319V21.1378C174.319 19.358 173.275 18.2642 171.684 18.2642C170.55 18.2642 169.73 18.821 169.387 19.7109H169.297V18.3636H167.279V26H169.397V21.5852ZM180.885 22.7486C180.89 23.7727 180.189 24.3097 179.428 24.3097C178.628 24.3097 178.111 23.7479 178.106 22.848V18.3636H175.988V23.2259C175.993 25.0107 177.037 26.0994 178.573 26.0994C179.721 26.0994 180.547 25.5078 180.89 24.6129H180.969V26H183.003V18.3636H180.885V22.7486ZM191.05 20.5412C190.862 19.1342 189.728 18.2642 187.799 18.2642C185.845 18.2642 184.558 19.169 184.562 20.6406C184.558 21.7841 185.278 22.5249 186.77 22.8232L188.092 23.0866C188.759 23.2209 189.062 23.4645 189.072 23.8473C189.062 24.2997 188.57 24.6229 187.829 24.6229C187.073 24.6229 186.571 24.2997 186.442 23.6783L184.359 23.7876C184.558 25.2493 185.8 26.1491 187.824 26.1491C189.803 26.1491 191.219 25.1399 191.224 23.6335C191.219 22.5298 190.499 21.8686 189.017 21.5653L187.635 21.2869C186.924 21.1328 186.661 20.8892 186.665 20.5213C186.661 20.0639 187.178 19.7656 187.834 19.7656C188.57 19.7656 189.007 20.1683 189.112 20.6605L191.05 20.5412ZM196.038 26.1491C197.927 26.1491 199.2 25.2294 199.498 23.8125L197.54 23.6832C197.326 24.2649 196.779 24.5682 196.073 24.5682C195.014 24.5682 194.343 23.8672 194.343 22.7287V22.7237H199.543V22.142C199.543 19.5469 197.972 18.2642 195.954 18.2642C193.706 18.2642 192.25 19.8601 192.25 22.2166C192.25 24.6378 193.687 26.1491 196.038 26.1491ZM194.343 21.4112C194.388 20.5412 195.049 19.8452 195.988 19.8452C196.908 19.8452 197.545 20.5014 197.55 21.4112H194.343ZM207.279 20.5412C207.09 19.1342 205.956 18.2642 204.028 18.2642C202.074 18.2642 200.786 19.169 200.791 20.6406C200.786 21.7841 201.507 22.5249 202.998 22.8232L204.321 23.0866C204.987 23.2209 205.29 23.4645 205.3 23.8473C205.29 24.2997 204.798 24.6229 204.057 24.6229C203.302 24.6229 202.8 24.2997 202.67 23.6783L200.587 23.7876C200.786 25.2493 202.029 26.1491 204.052 26.1491C206.031 26.1491 207.448 25.1399 207.453 23.6335C207.448 22.5298 206.727 21.8686 205.246 21.5653L203.863 21.2869C203.153 21.1328 202.889 20.8892 202.894 20.5213C202.889 20.0639 203.406 19.7656 204.062 19.7656C204.798 19.7656 205.236 20.1683 205.34 20.6605L207.279 20.5412ZM21.9517 36.3636H20.4354V35.8516C20.4354 35.3345 20.6442 35.0312 21.2656 35.0312C21.5192 35.0312 21.7777 35.0859 21.9467 35.1406L22.3196 33.5497C22.0561 33.4702 21.4744 33.3409 20.8232 33.3409C19.3864 33.3409 18.3175 34.1513 18.3175 35.8118V36.3636H17.2386V37.9545H18.3175V44H20.4354V37.9545H21.9517V36.3636ZM23.2456 44H25.3635V39.6797C25.3635 38.7401 26.0495 38.0938 26.9842 38.0938C27.2775 38.0938 27.6802 38.1435 27.8791 38.2081V36.3288C27.6902 36.2841 27.4267 36.2543 27.2129 36.2543C26.3578 36.2543 25.6568 36.7514 25.3784 37.696H25.2988V36.3636H23.2456V44ZM32.0689 44.1491C34.3857 44.1491 35.8274 42.5632 35.8274 40.2116C35.8274 37.8452 34.3857 36.2642 32.0689 36.2642C29.7521 36.2642 28.3104 37.8452 28.3104 40.2116C28.3104 42.5632 29.7521 44.1491 32.0689 44.1491ZM32.0788 42.5085C31.0099 42.5085 30.4631 41.5291 30.4631 40.1967C30.4631 38.8643 31.0099 37.88 32.0788 37.88C33.1278 37.88 33.6747 38.8643 33.6747 40.1967C33.6747 41.5291 33.1278 42.5085 32.0788 42.5085ZM37.2045 44H39.3224V39.4162C39.3224 38.571 39.8594 38.0092 40.5653 38.0092C41.2614 38.0092 41.7287 38.4865 41.7287 39.2372V44H43.782V39.3366C43.782 38.5462 44.2344 38.0092 45.005 38.0092C45.6811 38.0092 46.1882 38.4318 46.1882 39.282V44H48.3011V38.8643C48.3011 37.2088 47.3168 36.2642 45.8949 36.2642C44.7763 36.2642 43.9062 36.8359 43.593 37.7109H43.5135C43.2699 36.826 42.4893 36.2642 41.4403 36.2642C40.4112 36.2642 39.6307 36.8111 39.3125 37.7109H39.223V36.3636H37.2045V44ZM57.2761 36.3636H55.8393V34.5341H53.7214V36.3636H52.6774V37.9545H53.7214V41.9318C53.7115 43.4283 54.7306 44.169 56.2669 44.1044C56.8137 44.0845 57.2015 43.9751 57.4153 43.9055L57.0822 42.3295C56.9778 42.3494 56.7541 42.3991 56.5552 42.3991C56.1326 42.3991 55.8393 42.2401 55.8393 41.6534V37.9545H57.2761V36.3636ZM60.9377 39.5852C60.9426 38.6009 61.5442 38.0241 62.4093 38.0241C63.2694 38.0241 63.7765 38.576 63.7715 39.5156V44H65.8894V39.1378C65.8944 37.348 64.8404 36.2642 63.2495 36.2642C62.0911 36.2642 61.3155 36.8111 60.9675 37.7109H60.878V33.8182H58.8198V44H60.9377V39.5852ZM71.0362 44.1491C72.9254 44.1491 74.1982 43.2294 74.4964 41.8125L72.5376 41.6832C72.3239 42.2649 71.777 42.5682 71.071 42.5682C70.0121 42.5682 69.3409 41.8672 69.3409 40.7287V40.7237H74.5412V40.142C74.5412 37.5469 72.9702 36.2642 70.9517 36.2642C68.7045 36.2642 67.2479 37.8601 67.2479 40.2166C67.2479 42.6378 68.6847 44.1491 71.0362 44.1491ZM69.3409 39.4112C69.3857 38.5412 70.0469 37.8452 70.9865 37.8452C71.9062 37.8452 72.5426 38.5014 72.5476 39.4112H69.3409ZM82.6138 44.1491C84.6472 44.1491 85.9249 42.956 86.0243 41.201H84.0257C83.9015 42.0163 83.3645 42.4737 82.6387 42.4737C81.6493 42.4737 81.008 41.6435 81.008 40.1818C81.008 38.7401 81.6543 37.9148 82.6387 37.9148C83.4142 37.9148 83.9114 38.4268 84.0257 39.1875H86.0243C85.9348 37.4226 84.5975 36.2642 82.6039 36.2642C80.2871 36.2642 78.8553 37.87 78.8553 40.2116C78.8553 42.5334 80.2623 44.1491 82.6138 44.1491ZM90.8306 44.1491C93.1474 44.1491 94.5891 42.5632 94.5891 40.2116C94.5891 37.8452 93.1474 36.2642 90.8306 36.2642C88.5138 36.2642 87.0721 37.8452 87.0721 40.2116C87.0721 42.5632 88.5138 44.1491 90.8306 44.1491ZM90.8406 42.5085C89.7717 42.5085 89.2248 41.5291 89.2248 40.1967C89.2248 38.8643 89.7717 37.88 90.8406 37.88C91.8896 37.88 92.4364 38.8643 92.4364 40.1967C92.4364 41.5291 91.8896 42.5085 90.8406 42.5085ZM95.9663 44H98.0842V39.4162C98.0842 38.571 98.6211 38.0092 99.3271 38.0092C100.023 38.0092 100.49 38.4865 100.49 39.2372V44H102.544V39.3366C102.544 38.5462 102.996 38.0092 103.767 38.0092C104.443 38.0092 104.95 38.4318 104.95 39.282V44H107.063V38.8643C107.063 37.2088 106.078 36.2642 104.657 36.2642C103.538 36.2642 102.668 36.8359 102.355 37.7109H102.275C102.032 36.826 101.251 36.2642 100.202 36.2642C99.1729 36.2642 98.3924 36.8111 98.0742 37.7109H97.9847V36.3636H95.9663V44ZM108.736 44H110.854V39.4162C110.854 38.571 111.391 38.0092 112.097 38.0092C112.793 38.0092 113.26 38.4865 113.26 39.2372V44H115.313V39.3366C115.313 38.5462 115.766 38.0092 116.536 38.0092C117.212 38.0092 117.719 38.4318 117.719 39.282V44H119.832V38.8643C119.832 37.2088 118.848 36.2642 117.426 36.2642C116.308 36.2642 115.438 36.8359 115.124 37.7109H115.045C114.801 36.826 114.021 36.2642 112.972 36.2642C111.942 36.2642 111.162 36.8111 110.844 37.7109H110.754V36.3636H108.736V44ZM126.402 40.7486C126.407 41.7727 125.706 42.3097 124.946 42.3097C124.145 42.3097 123.628 41.7479 123.623 40.848V36.3636H121.505V41.2259C121.51 43.0107 122.554 44.0994 124.091 44.0994C125.239 44.0994 126.064 43.5078 126.407 42.6129H126.487V44H128.52V36.3636H126.402V40.7486ZM132.332 39.5852C132.337 38.6009 132.924 38.0241 133.779 38.0241C134.629 38.0241 135.141 38.581 135.136 39.5156V44H137.254V39.1378C137.254 37.358 136.21 36.2642 134.619 36.2642C133.486 36.2642 132.665 36.821 132.322 37.7109H132.233V36.3636H130.214V44H132.332V39.5852ZM138.923 44H141.041V36.3636H138.923V44ZM139.987 35.3793C140.619 35.3793 141.136 34.897 141.136 34.3054C141.136 33.7188 140.619 33.2365 139.987 33.2365C139.361 33.2365 138.844 33.7188 138.844 34.3054C138.844 34.897 139.361 35.3793 139.987 35.3793ZM146.8 36.3636H145.363V34.5341H143.245V36.3636H142.201V37.9545H143.245V41.9318C143.235 43.4283 144.254 44.169 145.79 44.1044C146.337 44.0845 146.725 43.9751 146.939 43.9055L146.606 42.3295C146.501 42.3494 146.278 42.3991 146.079 42.3991C145.656 42.3991 145.363 42.2401 145.363 41.6534V37.9545H146.8V36.3636ZM149.487 46.8636C151.063 46.8636 151.898 46.0582 152.33 44.8253L155.298 36.3736L153.056 36.3636L151.46 41.9716H151.381L149.8 36.3636H147.573L150.312 44.2188L150.188 44.5419C149.909 45.2578 149.377 45.2926 148.632 45.0639L148.154 46.6449C148.458 46.7741 148.95 46.8636 149.487 46.8636ZM158.913 33.8182H156.7L156.899 40.9474H158.719L158.913 33.8182ZM157.809 44.1293C158.445 44.1293 158.997 43.5973 159.002 42.9361C158.997 42.2848 158.445 41.7528 157.809 41.7528C157.153 41.7528 156.611 42.2848 156.616 42.9361C156.611 43.5973 157.153 44.1293 157.809 44.1293Z" fill="black"/>
<path opacity="0.4" d="M23.733 55C23.4631 53.5085 22.2699 52.6278 20.8068 52.6278C18.946 52.6278 17.5966 54.0625 17.5966 56.3636C17.5966 58.6648 18.946 60.0994 20.8068 60.0994C22.2699 60.0994 23.4631 59.2188 23.733 57.7273H22.8523C22.6392 58.7358 21.7727 59.2756 20.8068 59.2756C19.4858 59.2756 18.4489 58.2528 18.4489 56.3636C18.4489 54.4744 19.4858 53.4517 20.8068 53.4517C21.7727 53.4517 22.6392 53.9915 22.8523 55H23.733ZM25.8805 52.7273H25.0424V60H25.8805V52.7273ZM27.4155 60H28.2536V54.5455H27.4155V60ZM27.8416 53.6364C28.1683 53.6364 28.4382 53.3807 28.4382 53.0682C28.4382 52.7557 28.1683 52.5 27.8416 52.5C27.5149 52.5 27.245 52.7557 27.245 53.0682C27.245 53.3807 27.5149 53.6364 27.8416 53.6364ZM32.0044 60.1136C33.2118 60.1136 34.0073 59.375 34.1493 58.4091H33.3113C33.155 59.0057 32.6578 59.3608 32.0044 59.3608C31.0101 59.3608 30.3709 58.5369 30.3709 57.2727C30.3709 56.0369 31.0243 55.2273 32.0044 55.2273C32.7431 55.2273 33.1834 55.6818 33.3113 56.179H34.1493C34.0073 55.1562 33.1408 54.4744 31.9902 54.4744C30.513 54.4744 29.5328 55.6392 29.5328 57.3011C29.5328 58.9347 30.4703 60.1136 32.0044 60.1136ZM35.3745 60H36.2125V57.9581L36.7985 57.4148L38.8404 60H39.9057L37.4306 56.875L39.7353 54.5455H38.6983L36.312 56.9744H36.2125V52.7273H35.3745V60ZM45.9986 54.5455H44.8338V53.2386H43.9957V54.5455H43.1719V55.2557H43.9957V58.6648C43.9957 59.6165 44.7628 60.071 45.473 60.071C45.7855 60.071 45.9844 60.0142 46.098 59.9716L45.9276 59.2188C45.8565 59.233 45.7429 59.2614 45.5582 59.2614C45.1889 59.2614 44.8338 59.1477 44.8338 58.4375V55.2557H45.9986V54.5455ZM49.4165 60.1136C50.8938 60.1136 51.8881 58.9915 51.8881 57.3011C51.8881 55.5966 50.8938 54.4744 49.4165 54.4744C47.9393 54.4744 46.945 55.5966 46.945 57.3011C46.945 58.9915 47.9393 60.1136 49.4165 60.1136ZM49.4165 59.3608C48.2944 59.3608 47.783 58.3949 47.783 57.3011C47.783 56.2074 48.2944 55.2273 49.4165 55.2273C50.5387 55.2273 51.0501 56.2074 51.0501 57.3011C51.0501 58.3949 50.5387 59.3608 49.4165 59.3608ZM55.9799 60H56.818V54.5455H55.9799V60ZM56.4061 53.6364C56.7328 53.6364 57.0027 53.3807 57.0027 53.0682C57.0027 52.7557 56.7328 52.5 56.4061 52.5C56.0794 52.5 55.8095 52.7557 55.8095 53.0682C55.8095 53.3807 56.0794 53.6364 56.4061 53.6364ZM59.1911 56.7188C59.1911 55.767 59.7805 55.2273 60.5831 55.2273C61.3608 55.2273 61.8331 55.7351 61.8331 56.5909V60H62.6712V56.5341C62.6712 55.142 61.929 54.4744 60.8246 54.4744C60.0007 54.4744 59.4893 54.8438 59.2337 55.3977H59.1626V54.5455H58.353V60H59.1911V56.7188ZM68.4675 54.5455H67.5584L66.0527 58.892H65.9959L64.4902 54.5455H63.5811L65.5982 60H66.4505L68.4675 54.5455ZM69.5737 60H70.4118V54.5455H69.5737V60ZM69.9998 53.6364C70.3265 53.6364 70.5964 53.3807 70.5964 53.0682C70.5964 52.7557 70.3265 52.5 69.9998 52.5C69.6731 52.5 69.4032 52.7557 69.4032 53.0682C69.4032 53.3807 69.6731 53.6364 69.9998 53.6364ZM74.3189 54.5455H73.1541V53.2386H72.3161V54.5455H71.4922V55.2557H72.3161V58.6648C72.3161 59.6165 73.0831 60.071 73.7933 60.071C74.1058 60.071 74.3047 60.0142 74.4183 59.9716L74.2479 59.2188C74.1768 59.233 74.0632 59.2614 73.8786 59.2614C73.5092 59.2614 73.1541 59.1477 73.1541 58.4375V55.2557H74.3189V54.5455ZM77.8079 60.1136C78.9158 60.1136 79.7255 59.5597 79.9812 58.7358L79.1715 58.5085C78.9585 59.0767 78.4648 59.3608 77.8079 59.3608C76.8242 59.3608 76.146 58.7251 76.1069 57.5568H80.0664V57.2017C80.0664 55.1705 78.859 54.4744 77.7227 54.4744C76.2454 54.4744 75.2653 55.6392 75.2653 57.3153C75.2653 58.9915 76.2312 60.1136 77.8079 60.1136ZM76.1069 56.8324C76.1637 55.9837 76.7638 55.2273 77.7227 55.2273C78.6317 55.2273 79.2141 55.9091 79.2141 56.8324H76.1069ZM85.7589 60.1278C86.7106 60.1278 87.2077 59.6165 87.3782 59.2614H87.4208V60H88.2589V56.4062C88.2589 54.6733 86.9379 54.4744 86.2418 54.4744C85.418 54.4744 84.4805 54.7585 84.0543 55.7528L84.8498 56.0369C85.0344 55.6392 85.4712 55.2131 86.2702 55.2131C87.0408 55.2131 87.4208 55.6214 87.4208 56.321V56.3494C87.4208 56.7543 87.0089 56.7188 86.0146 56.8466C85.0025 56.978 83.8981 57.2017 83.8981 58.4517C83.8981 59.517 84.7219 60.1278 85.7589 60.1278ZM85.8867 59.375C85.2191 59.375 84.7362 59.0767 84.7362 58.4943C84.7362 57.8551 85.3185 57.6562 85.9719 57.571C86.3271 57.5284 87.2788 57.429 87.4208 57.2585V58.0256C87.4208 58.7074 86.881 59.375 85.8867 59.375ZM95.03 54.5455H93.8084V53.9915C93.8084 53.4517 94.0357 53.1676 94.5897 53.1676C94.8311 53.1676 94.9732 53.2244 95.0584 53.2528L95.2999 52.5284C95.1721 52.4716 94.9164 52.3864 94.5044 52.3864C93.7232 52.3864 92.9703 52.8551 92.9703 53.7926V54.5455H92.0897V55.2557H92.9703V60H93.8084V55.2557H95.03V54.5455ZM96.2045 60H97.0426V56.5483C97.0426 55.8097 97.625 55.2699 98.4205 55.2699C98.6442 55.2699 98.875 55.3125 98.9318 55.3267V54.4744C98.8359 54.4673 98.6158 54.4602 98.4915 54.4602C97.8381 54.4602 97.2699 54.8295 97.071 55.3693H97.0142V54.5455H96.2045V60ZM99.9252 60H100.763V54.5455H99.9252V60ZM100.351 53.6364C100.678 53.6364 100.948 53.3807 100.948 53.0682C100.948 52.7557 100.678 52.5 100.351 52.5C100.025 52.5 99.7548 52.7557 99.7548 53.0682C99.7548 53.3807 100.025 53.6364 100.351 53.6364ZM104.585 60.1136C105.693 60.1136 106.503 59.5597 106.759 58.7358L105.949 58.5085C105.736 59.0767 105.242 59.3608 104.585 59.3608C103.602 59.3608 102.923 58.7251 102.884 57.5568H106.844V57.2017C106.844 55.1705 105.636 54.4744 104.5 54.4744C103.023 54.4744 102.043 55.6392 102.043 57.3153C102.043 58.9915 103.009 60.1136 104.585 60.1136ZM102.884 56.8324C102.941 55.9837 103.541 55.2273 104.5 55.2273C105.409 55.2273 105.991 55.9091 105.991 56.8324H102.884ZM108.957 56.7188C108.957 55.767 109.546 55.2273 110.349 55.2273C111.126 55.2273 111.599 55.7351 111.599 56.5909V60H112.437V56.5341C112.437 55.142 111.695 54.4744 110.59 54.4744C109.766 54.4744 109.255 54.8438 108.999 55.3977H108.928V54.5455H108.119V60H108.957V56.7188ZM116.028 60.1136C117.079 60.1136 117.434 59.4602 117.619 59.1619H117.718V60H118.528V52.7273H117.69V55.4119H117.619C117.434 55.1278 117.107 54.4744 116.042 54.4744C114.664 54.4744 113.713 55.5682 113.713 57.2869C113.713 59.0199 114.664 60.1136 116.028 60.1136ZM116.142 59.3608C115.09 59.3608 114.551 58.4375 114.551 57.2727C114.551 56.1222 115.076 55.2273 116.142 55.2273C117.164 55.2273 117.704 56.0511 117.704 57.2727C117.704 58.5085 117.15 59.3608 116.142 59.3608Z" fill="black"/>
<mask id="mask0" mask-type="alpha" maskUnits="userSpaceOnUse" x="0" y="0" width="328" height="72">
<rect width="328" height="72" rx="8" transform="matrix(-1 0 0 1 328 0)" fill="url(#paint1_linear)"/>
</mask>
<g mask="url(#mask0)">
<path fill-rule="evenodd" clip-rule="evenodd" d="M223.425 83.4328C225.753 79.6228 228 77.1699 231.233 74.3399C233.768 72.1191 238.576 69.6037 240.386 68.6149C241.949 67.762 245.302 66.2234 247.635 65.2371C248.456 64.8896 249.151 64.6131 249.599 64.4612C251.325 63.8784 252.744 62.6775 254.996 60.0028C257.247 57.3283 258.416 56.7429 259.129 55.9207C259.842 55.0981 259.574 53.5818 259.574 53.5818C261.037 52.6758 261.773 52.8822 261.637 49.5745C261.573 48.0217 261.321 46.8575 261.071 46.0592C260.788 45.1565 260.508 44.7213 260.508 44.7213L260.509 44.7201C260.529 44.6489 261.176 42.3852 261.041 40.9897C260.907 39.6062 259.678 38.4485 259.62 38.3945L259.618 38.392C259.618 38.392 262.727 36.5935 261.923 34.2719C261.887 34.1718 261.849 34.0788 261.804 33.9933C260.84 32.1286 257.841 34.0252 257.841 34.0252L235.617 40.4043C235.617 40.4043 235.783 39.8775 236.02 39.0384C236.837 36.141 238.495 29.5121 237.025 27.9724C236.773 27.7076 236.542 27.5003 236.329 27.3436C234.95 26.3286 234.365 27.4625 233.746 28.9665C233.032 30.7019 231.476 31.6334 230.004 35.6905C228.532 39.7475 227.587 39.6206 226.366 41.731C225.212 43.7246 225.107 45.4802 223.536 48.8894C223.182 49.6577 222.961 50.3593 222.824 51.0072C222.352 53.2344 222.865 54.8178 222.32 56.2311C222.236 56.4481 221.261 59.6259 219.664 61.0064C217.852 62.5713 217.279 63.7719 215.557 65.8004C214.792 66.7011 214.068 67.3214 212.92 68.1972C211.726 69.1085 204.876 72.298 205.5 75C205.949 76.9426 213.501 78.3143 214.642 79.8978C217.369 83.6844 222.473 84.9924 223.425 83.4328Z" fill="#FDC4A8"/>
<path fill-rule="evenodd" clip-rule="evenodd" d="M236.02 39.0388C236.837 36.1411 238.495 29.5123 237.025 27.9729C236.773 27.7078 236.542 27.5005 236.329 27.3438C236.739 28.0953 236.928 29.2765 235.893 31.1228C234.162 34.2097 233.867 34.7993 232.235 34.5047C230.602 34.2104 233.314 35.1553 233.575 35.9356C233.836 36.7156 233.508 38.971 232.388 41.7115C231.658 43.496 234.145 41.119 236.02 39.0388Z" fill="#C99074"/>
<path fill-rule="evenodd" clip-rule="evenodd" d="M222.089 56.8629C222.596 57.0432 223.344 57.1986 224.353 57.8719C225.621 58.7204 226.169 58.1243 225.761 57.9816C225.353 57.8405 224.422 57.2111 223.498 55.8623C222.573 54.5125 223.205 52.5318 222.823 51.0081C222.351 53.2353 222.864 54.818 222.319 56.2314C222.236 56.4481 222.161 56.6575 222.089 56.8629Z" fill="#C99074"/>
<path fill-rule="evenodd" clip-rule="evenodd" d="M244.735 50.6079L249.945 56.1333L252.32 55.6327L254.436 52.788L255.586 52.4375L257.337 48.8657L256.998 48.3064L256.646 38.7142L244.735 50.6079Z" fill="#C99074"/>
<path fill-rule="evenodd" clip-rule="evenodd" d="M223.399 83.474C223.677 83.0343 224.022 82.4726 224.44 81.8491C225.239 80.6596 226.001 79.6971 226.685 78.8737C227.969 77.3273 229.123 76.1874 231.233 74.34C233.783 72.1077 236.683 70.5415 238.838 69.4232C238.861 69.4101 238.884 69.3983 238.907 69.3872C239.119 69.2761 239.324 69.1708 239.521 69.0695C239.832 68.9078 240.122 68.7574 240.386 68.6156C241.956 67.776 245.302 66.2234 247.635 65.2371C247.73 64.3777 248.499 62.6017 249.353 62.2112C249.718 62.0437 250.047 62.7194 250.258 62.9944C250.469 63.2693 250.399 62.4433 250.095 61.7624C249.79 61.0809 249.866 59.9091 250.393 58.2465C250.613 57.5501 251.208 56.9743 251.657 56.9577C252.319 56.9322 253.279 57.9163 253.446 58.3292C253.726 59.0225 254.008 59.7829 254.239 59.7115C254.469 59.6396 254.022 58.1977 253.592 56.9101C253.163 55.6233 254.192 54.6592 254.527 54.9505C254.861 55.2415 256.225 56.023 257.553 56.2482C258.88 56.4727 257.668 55.8439 256.976 55.6417C256.018 55.3616 255.167 54.1825 255.562 54.184C255.957 54.1842 257.115 54.1394 257.973 53.7558C258.825 53.3747 256.525 52.7735 255.586 52.4375L254.665 52.8744C254.665 52.8744 253.535 53.254 252.979 54.1004C252.423 54.9471 252.246 55.254 252.063 55.3833C251.88 55.5126 251.472 55.4433 251.009 55.4769C250.538 55.5103 249.946 55.6452 249.946 55.6452L244.735 50.6079C244.735 50.6079 226.148 57.1731 226.179 59.9914C226.195 61.5657 228.145 62.3794 229.787 63.1149C230.948 63.6359 233.757 65.2652 234.301 66.2182C234.844 67.1714 233.967 69.2235 232.322 70.3535C230.409 71.6675 227.817 73.5378 225.564 75.4823C223.793 77.0098 222.058 78.7559 221.269 79.7012C220.438 80.6952 219.335 81.7454 218.451 83.1337C218.834 83.5442 222.514 84.8718 223.399 83.474Z" fill="#C99074"/>
<path fill-rule="evenodd" clip-rule="evenodd" d="M257.462 35.9354C257.462 35.9354 257.396 36.6919 257.581 36.9206C258.052 37.5008 258.975 38.5104 259.617 38.393C259.617 38.393 261.547 37.2762 261.973 35.6677C260.031 37.9574 258.895 37.2471 257.462 35.9354Z" fill="#C99074"/>
<path fill-rule="evenodd" clip-rule="evenodd" d="M256.325 42.8546L260.502 44.7183L260.508 44.722L260.509 44.7201C260.53 44.6496 261.176 42.3852 261.041 40.9898C260.907 39.6062 259.678 38.4485 259.62 38.3945L259.617 38.393L257.28 36.5303C257.28 36.5303 256.643 36.6119 256.07 37.0219C255.585 37.3682 255.147 37.9481 255.175 38.9101C255.206 39.9453 255.487 40.9177 255.762 41.6375C256.045 42.3803 256.325 42.8546 256.325 42.8546Z" fill="#FDC4A8"/>
<path fill-rule="evenodd" clip-rule="evenodd" d="M256.325 42.8546L258.544 43.9926C258.544 43.9926 260.232 44.697 260.213 44.5403C259.886 43.9473 259.31 43.2832 258.584 43.0499C257.857 42.8161 256.734 42.5553 255.762 41.6375C256.045 42.3803 256.325 42.8546 256.325 42.8546Z" fill="#C99074"/>
<path fill-rule="evenodd" clip-rule="evenodd" d="M258.758 52.2154C259.78 52.6079 260.211 52.0696 259.898 51.9573C259.585 51.8456 258.179 49.8592 258.806 49.6451C259.433 49.4301 260.225 48.509 259.775 48.6769C258.856 49.0184 257.082 48.3182 256.998 48.3064C256.573 48.245 257.735 51.8231 258.758 52.2154Z" fill="#C99074"/>
<path fill-rule="evenodd" clip-rule="evenodd" d="M234.603 69.2929C233.299 66.8058 230.309 66.2398 229.37 65.3379C228.436 64.4417 225.597 61.9238 225.309 61.3932C224.979 60.7859 222.879 59.4332 223.083 59.8894C223.288 60.3462 224.884 61.4892 225.417 62.2893C225.95 63.0901 228.263 65.3131 229.481 66.4687C230.698 67.6238 232.382 68.9507 232.617 69.3776C232.852 69.8044 235.199 70.4291 234.603 69.2929Z" fill="#C99074"/>
<path fill-rule="evenodd" clip-rule="evenodd" d="M258.816 37.5237C259.21 37.8962 259.475 38.1978 259.573 38.3574C259.823 38.7644 259.93 39.3526 259.757 39.668C259.515 40.107 258.678 39.5573 258.034 38.6075C257.39 37.6576 256.943 36.7384 257.28 36.5303C257.618 36.3216 258.421 37.1512 258.816 37.5237Z" fill="#FFE8E4"/>
<rect width="27.722" height="29.5725" rx="13.861" transform="matrix(0.961318 0.275441 -0.311138 0.950365 233.433 27.5738)" fill="#008DE4"/>
<path d="M245.43 40.9341L240.83 39.6661L239.746 41.6497L243.895 42.7988C245.939 43.3623 246.298 44.2564 245.874 45.4594C245.657 46.0757 245.031 47.0461 244.798 47.3526C244.179 48.1696 243.184 49.0226 240.759 48.3497L236.725 47.2359L235.639 49.2201L240.229 50.4852C241.847 50.9314 242.599 50.9368 243.438 50.8073C245.301 50.5213 246.79 49.2227 247.862 47.2881C249.46 44.4075 249.474 42.0487 245.43 40.9341Z" fill="white"/>
<path d="M237.76 43.09C236.554 42.7552 236.115 43.501 235.84 43.9489C235.48 44.5356 235.346 44.7764 235.346 44.7764L240.059 46.0853C241.264 46.4201 241.703 45.6743 241.978 45.2264C242.338 44.6397 242.472 44.3989 242.472 44.3989L237.76 43.09Z" fill="white"/>
<path fill-rule="evenodd" clip-rule="evenodd" d="M254.643 47.1936C255.083 47.7281 255.698 48.0391 256.366 48.1889L256.37 48.1895C257.204 48.4269 258.059 48.315 258.803 48.1277C259.408 47.9749 259.922 47.7364 260.228 47.4673C260.7 47.051 260.992 46.5415 261.071 46.0595C260.787 45.1568 260.508 44.7213 260.508 44.7213L260.509 44.7201C260.509 44.7201 258.587 43.3851 257.409 43.2375C256.22 43.0904 255.273 42.0033 254.519 42.3406C254.194 42.4857 253.809 42.9076 253.633 43.5559C253.581 43.7459 253.546 43.955 253.537 44.1835C253.504 44.9826 253.775 46.0059 254.643 47.1936Z" fill="#FDC4A8"/>
<path fill-rule="evenodd" clip-rule="evenodd" d="M257.409 43.2375C257.409 43.2375 258.855 44.4612 257.823 44.9462C256.791 45.4312 255.642 44.4819 255.642 44.4819C255.642 44.4819 254.341 42.9021 254.629 42.216C254.918 41.5303 257.409 43.2375 257.409 43.2375Z" fill="#FFE8E4"/>
<path fill-rule="evenodd" clip-rule="evenodd" d="M259.573 53.5821C259.573 53.5821 259.178 51.5874 258.624 50.5441C258.07 49.5019 257.425 48.9719 255.638 48.7003C253.852 48.4288 251.315 47.8173 251.855 50.2341C252.527 53.2391 254.837 53.2814 255.864 53.6352C257.135 54.0741 259.271 52.7098 259.573 53.5821Z" fill="#FDC4A8"/>
<path fill-rule="evenodd" clip-rule="evenodd" d="M253.359 48.4269C253.359 48.4269 255.997 48.981 256.061 49.6447C256.124 50.3093 254.521 50.7735 253.748 50.6785C252.975 50.5836 251.726 50.1266 251.859 49.1498C251.954 48.454 252.105 48.3152 253.359 48.4269Z" fill="#FFE8E4"/>
<path fill-rule="evenodd" clip-rule="evenodd" d="M325.21 -2.81635C325.238 -2.51456 328.71 -3.31634 320.052 5.46316C319.998 6.5789 319.615 7.42977 318.98 7.9489C318.7 8.10704 318.414 8.26051 318.134 8.41354C318.129 8.41398 318.124 8.41442 318.124 8.41442C317.929 8.52197 317.737 8.62907 317.541 8.73197C315.237 9.98004 312.912 11.2025 310.572 12.3654C310.479 12.4169 309.654 12.7573 309.65 12.8186C309.618 12.1283 309.029 11.6027 308.478 11.1677C306.16 9.34468 303.793 7.55479 301.181 6.19005C299.836 5.48867 298.422 4.90109 297.181 4.01558C296.935 3.84257 296.575 3.54831 296.702 3.20884C296.913 2.66378 297.515 2.49018 298.024 2.47433C298.575 2.45964 299.119 2.40824 299.657 2.31041C299.884 2.27542 300.113 2.22049 300.337 2.17111C301.844 1.80836 303.283 1.17146 304.609 0.385476C306.54 -0.748576 308.278 -2.17785 310.03 -3.56576C310.165 -3.6727 310.295 -3.77874 310.431 -3.88057C311.309 -4.45084 312.573 -4.46732 314.027 -3.80388C317.033 -2.42543 324.9 -6.08486 325.21 -2.81635Z" fill="#E19973"/>
<path fill-rule="evenodd" clip-rule="evenodd" d="M330.21 -0.816367C329.21 0.183663 325.21 3.18365 321.71 6.18365C320.238 7.44471 318.414 8.26055 318.134 8.41358C318.134 8.18516 318.124 8.41446 318.124 8.41446C317.929 8.522 317.737 8.62911 317.541 8.73201C315.237 9.98008 312.912 11.2025 310.572 12.3655C310.479 12.417 309.654 12.7574 309.65 12.8186C309.618 12.1284 309.029 11.6027 308.478 11.1678C306.16 9.34472 303.793 7.55483 301.181 6.19009C299.836 5.48871 298.422 4.90113 297.181 4.01562C296.936 3.84261 296.575 3.54834 296.702 3.20888C296.913 2.66382 297.515 2.49022 298.024 2.47437C298.575 2.45968 299.119 2.40827 299.657 2.31045C300.003 2.4464 300.352 2.56798 300.687 2.74749C301.708 3.28751 302.541 4.12258 303.575 4.652C304.285 5.02516 305.078 5.24516 305.821 5.56885C307.009 6.09305 308.075 6.91034 308.888 7.92953C309.483 8.6696 310.021 9.4103 311.051 9.50488C311.68 9.56252 312.323 9.43184 312.928 9.24295C313.817 8.98086 314.666 8.60069 315.498 8.18516C315.7 8.08646 317.009 7.28745 317.21 7.18365C318.054 6.74155 322.21 3.68364 326.21 -1.81636C327.586 -2.94123 329.21 -0.316337 330.21 -0.816367Z" fill="#AD633F"/>
<path fill-rule="evenodd" clip-rule="evenodd" d="M310.258 12.7129C310.214 13.712 309.786 14.732 309.362 15.6358C309.054 16.2894 308.674 16.9115 308.285 17.5342C307.26 19.1738 306.243 20.8121 305.218 22.4516C304.771 23.1802 304.371 23.8429 303.782 24.4692C303.214 25.0626 302.592 25.5917 301.929 26.0709C301.899 26.0892 301.879 26.1066 301.85 26.1328C300.754 26.9382 299.738 27.8592 298.668 28.6931C297.64 29.4846 296.556 30.2501 295.299 30.5774C295.201 30.6022 295.111 30.6262 295.013 30.6509C294.642 30.7244 294.26 30.768 293.886 30.8034C293.488 30.8336 293.092 30.8092 292.734 31.0127C292.594 31.0877 292.498 31.2051 292.393 31.3227C292.002 31.7532 291.568 32.1413 291.09 32.4718C290.612 32.7944 290.197 32.9728 289.623 33.0192C289.363 33.0438 289.096 33.0691 288.835 33.0862C288.43 33.1245 288.113 33.3625 287.702 33.4248C287.588 33.4431 287.475 33.4614 287.361 33.4801C287.125 33.5178 286.889 33.5477 286.651 33.5552C285.997 33.5782 285.345 33.4469 284.713 33.2833C284.538 33.2384 284.349 33.1866 284.236 33.0511C282.869 33.6891 281.447 34.0552 280.014 34.484C279.811 34.5415 279.602 34.6078 279.401 34.6807C278.983 34.8358 278.593 35.0344 278.309 35.37C277.948 35.7897 277.81 36.3737 277.432 36.7716C277.088 37.1358 276.56 37.263 276.082 37.1772C276.012 37.1758 275.949 37.1588 275.886 37.1418C275.243 36.9558 274.974 36.4721 274.884 35.8482C274.595 35.8142 274.298 35.7724 274.046 35.6268C273.794 35.4885 273.594 35.2531 273.469 34.9951C273.344 34.7291 273.286 34.4419 273.266 34.1505C273.25 33.9056 273.239 33.6209 273.349 33.3946C273.472 33.1519 273.62 32.922 273.793 32.7127C274.147 32.2937 274.585 31.9515 275.087 31.7264C275.25 31.6491 275.422 31.587 275.593 31.5244C275.899 31.4182 276.197 31.3052 276.495 31.1997C276.734 31.1157 276.922 31.0596 277.072 30.8603C277.244 30.6356 277.409 30.4195 277.574 30.2034C277.902 29.7634 278.223 29.3246 278.551 28.885C279.186 28.015 279.821 27.1375 280.447 26.2609C280.617 26.0209 280.788 25.7887 280.942 25.5507C281.004 25.4675 281.066 25.3849 281.119 25.2951C281.146 25.2541 281.173 25.2127 281.2 25.1717C281.288 25.0476 281.368 24.9164 281.456 24.7928C281.551 24.6448 281.645 24.5047 281.739 24.3571C282.119 23.8045 282.499 23.2598 282.921 22.7491C283.669 21.8455 284.457 20.9689 285.213 20.0725C285.359 19.8966 285.511 19.7201 285.657 19.5447C285.879 19.2843 286.093 19.0177 286.298 18.7434C287.502 17.2031 288.556 15.5454 289.12 13.6876C289.197 13.4414 289.266 13.188 289.295 12.9304C289.322 12.7278 289.397 12.5358 289.354 12.3313C289.34 12.2554 289.309 12.1815 289.265 12.1238C289.238 12.08 289.205 12.0522 289.164 12.0252C288.992 11.9257 288.778 12.0312 288.611 12.1319C287.457 12.8195 286.31 13.4907 285.157 14.1783C285.032 14.244 284.915 14.3169 284.791 14.39C284.645 14.4811 284.491 14.565 284.346 14.6561C284.025 14.8485 283.704 15.0405 283.365 15.2117C282.535 15.6448 281.645 15.937 280.716 16.0712C279.673 16.2163 278.515 16.1174 277.807 15.2359C277.703 15.115 277.621 14.9762 277.545 14.8292C277.498 14.7409 277.466 14.6437 277.434 14.5544C277.237 13.9407 277.372 13.326 277.933 12.8954C278.134 12.7377 278.371 12.6379 278.61 12.554C278.67 12.5324 278.722 12.5125 278.781 12.4909C279.058 12.3955 279.291 12.2502 279.555 12.117C280.026 11.8724 280.51 11.6027 280.961 11.3211C281.18 11.1921 281.39 11.0416 281.601 10.9055C281.695 10.8427 281.79 10.7953 281.894 10.7471C282.033 10.6721 282.174 10.6124 282.306 10.538C282.321 10.5291 282.328 10.5284 282.343 10.5196C282.679 10.3256 283.007 10.125 283.335 9.92396C283.669 9.70732 284.004 9.49063 284.329 9.25941C284.907 8.85009 285.466 8.39621 285.989 7.89936C286.795 7.12884 287.598 6.32025 288.563 5.76655C289.565 5.18556 290.635 4.76058 291.706 4.34307C293.655 3.58806 295.634 2.65278 297.735 2.4539C298.696 2.34004 299.404 2.48107 300.196 3.03101C301.474 3.90456 302.446 5.20854 303.873 5.86799C304.51 6.16229 305.202 6.30477 305.857 6.54353C307.254 7.04374 308.492 7.98339 309.296 9.22597C309.404 9.39328 309.505 9.56078 309.599 9.73697C310.07 10.6489 310.299 11.6835 310.258 12.7129Z" fill="#E19973"/>
<path fill-rule="evenodd" clip-rule="evenodd" d="M289.503 11.8624C289.426 11.9465 289.342 12.0392 289.265 12.1238C289.238 12.08 289.205 12.0522 289.164 12.0252C288.992 11.9257 288.778 12.0312 288.611 12.1318C287.187 12.9758 285.77 13.8116 284.346 14.656C284.025 14.8484 283.704 15.0405 283.365 15.2117C282.535 15.6448 281.645 15.937 280.716 16.0712C279.673 16.2163 278.515 16.1174 277.807 15.2358C277.703 15.115 277.621 14.9762 277.545 14.8292C277.498 14.7409 277.466 14.6437 277.434 14.5544C277.731 14.7498 277.995 15.0255 278.297 15.1895C278.922 15.5239 279.571 15.6166 280.229 15.5622C280.832 15.5051 281.432 15.3247 282.004 15.0935C284.312 14.1425 286.666 13.0949 288.343 11.2545C288.615 10.9594 288.953 10.6108 289.346 10.6972C289.93 10.8271 289.796 11.5414 289.503 11.8624Z" fill="#AD633F"/>
<path fill-rule="evenodd" clip-rule="evenodd" d="M282.514 26.759C282.61 26.7888 282.704 26.8108 282.798 26.8169C282.359 26.828 281.909 26.716 281.545 26.4576C281.272 26.2596 281.059 25.9715 280.959 25.6493C280.949 25.6273 280.946 25.5887 280.942 25.5507C281.004 25.4675 281.066 25.3849 281.119 25.295C281.146 25.2541 281.173 25.2127 281.2 25.1717C281.343 25.3816 281.315 25.654 281.392 25.8937C281.46 26.1261 281.633 26.3257 281.839 26.4683C282.037 26.6041 282.277 26.6966 282.514 26.759Z" fill="#AD633F"/>
<path fill-rule="evenodd" clip-rule="evenodd" d="M289.252 23.9624C288.923 23.824 288.545 23.8288 288.199 23.9155C287.084 24.1985 286.194 24.9765 285.372 25.7484C284.544 26.5285 283.793 27.4015 283.1 28.3079C282.544 29.0234 282.02 29.7593 281.504 30.5023C281.049 31.1622 280.596 31.83 280.239 32.5426C279.903 33.2292 279.648 33.9555 279.401 34.6807C278.983 34.8358 278.593 35.0344 278.309 35.37C277.948 35.7897 277.81 36.3737 277.432 36.7716C277.088 37.1358 276.56 37.263 276.082 37.1772C276.328 37.0841 276.591 37.0207 276.751 36.9208C277.24 36.6202 277.628 36.1591 277.954 35.6889C279.209 33.8813 279.908 31.7331 281.181 29.9389C281.691 29.2198 282.293 28.5694 282.886 27.9193C284.075 26.6268 285.27 25.3187 286.701 24.3041C287.005 24.0903 287.317 23.8906 287.577 23.6271C287.797 23.4139 287.859 23.1766 287.894 22.8955C287.934 22.5061 288.001 22.1527 287.941 21.7574C288.364 21.9104 288.609 22.1415 288.83 22.5216C288.915 22.6832 288.963 22.8641 289.011 23.0446C289.093 23.345 289.169 23.6541 289.252 23.9624Z" fill="#AD633F"/>
<path fill-rule="evenodd" clip-rule="evenodd" d="M291.941 25.7284C291.467 25.449 290.784 26.3775 290.548 26.6546C290.403 26.8379 290.275 27.0351 290.097 27.1905C289.897 27.364 289.707 27.5516 289.533 27.7452C289.072 28.2595 288.621 28.788 288.194 29.3296C288.042 29.5136 287.891 29.7054 287.746 29.8887C287.513 30.196 287.281 30.5108 287.031 30.8121C287.004 30.8456 286.976 30.8792 286.948 30.9123C286.755 31.1544 286.546 31.3902 286.319 31.5968C286.227 31.6902 286.143 31.7754 286.058 31.8528C284.833 32.9248 283.22 33.4016 281.651 33.8508C279.646 34.426 277.642 35.0012 275.637 35.5764C275.133 35.7168 274.561 35.8558 274.111 35.5901C273.94 35.4906 273.804 35.3568 273.696 35.197C273.431 34.8445 273.31 34.3698 273.261 33.935C273.182 33.2716 273.652 32.6876 274.136 32.2637C275.169 31.3641 276.507 30.9137 277.789 30.4453C279.057 29.9858 280.298 29.4908 281.535 28.9573C282.195 28.6784 282.885 28.3976 283.417 27.9078C283.481 27.8475 283.545 27.7876 283.608 27.7198C283.734 27.5847 283.844 27.4431 283.953 27.2936C284.111 27.0936 284.269 26.8862 284.428 26.6861C285.103 25.8357 285.931 25.1325 286.805 24.5101C287.238 24.1993 287.679 23.8799 288.15 23.6428C288.555 23.4424 288.757 23.0527 288.856 22.6348C289.104 23.2129 289.426 23.7684 289.876 24.2041C290.072 24.3936 290.288 24.566 290.512 24.7299C290.803 24.9493 291.094 25.1686 291.39 25.372C291.39 25.372 291.398 25.3712 291.406 25.378C291.473 25.4334 291.538 25.4732 291.605 25.5212C291.712 25.5959 291.826 25.6619 291.941 25.7284Z" fill="#E19973"/>
<path fill-rule="evenodd" clip-rule="evenodd" d="M285.714 28.8139C285.461 28.5361 285.151 28.3088 284.805 28.1541C284.564 28.0457 284.302 27.9703 284.036 27.9341C283.88 27.91 283.577 27.9621 283.417 27.9078C283.481 27.8475 283.545 27.7876 283.608 27.7198C283.734 27.5847 283.844 27.4431 283.953 27.2936C284.346 27.4495 284.674 27.7421 284.98 28.0373C285.241 28.2787 285.489 28.5377 285.714 28.8139Z" fill="#AD633F"/>
<path fill-rule="evenodd" clip-rule="evenodd" d="M285.989 29.1682C285.91 29.0407 285.809 28.9299 285.714 28.8138C285.815 28.9247 285.909 29.0413 285.989 29.1682Z" fill="#AD633F"/>
<path fill-rule="evenodd" clip-rule="evenodd" d="M291.62 25.5198C291.613 25.5205 291.613 25.5205 291.605 25.5212C291.018 25.5997 290.505 25.957 290.108 26.4109C289.719 26.8563 289.438 27.392 289.131 27.9068C288.846 28.3966 288.536 28.8654 288.194 29.3296C287.834 29.842 287.449 30.3407 287.031 30.8121C287.004 30.8456 286.976 30.8792 286.948 30.9123C286.739 31.148 286.529 31.3763 286.319 31.5968C286.227 31.6902 286.143 31.7755 286.058 31.8528C284.833 32.9248 283.22 33.4016 281.651 33.8508C279.646 34.426 277.642 35.0012 275.637 35.5764C275.133 35.7168 274.561 35.8558 274.111 35.5901C273.94 35.4906 273.804 35.3568 273.696 35.197C273.821 35.2086 273.943 35.2819 274.077 35.3076C274.642 35.4083 275.203 35.0624 275.68 34.8088C277.098 34.0582 278.697 33.7678 280.236 33.3214C282.037 32.7964 283.792 32.0288 285.227 30.8212C286.598 29.6577 287.612 28.1429 288.679 26.7083C289.034 26.2268 289.42 25.7434 289.941 25.4553C290.38 25.2127 290.945 25.1517 291.39 25.372C291.39 25.372 291.398 25.3712 291.406 25.378C291.479 25.4174 291.553 25.4643 291.62 25.5198Z" fill="#AD633F"/>
<path fill-rule="evenodd" clip-rule="evenodd" d="M294.525 27.8592C294.537 28.0661 294.52 28.2916 294.462 28.4971C294.332 28.9952 294.01 29.4192 293.702 29.8339C292.838 30.9798 291.903 32.179 290.564 32.6987C289.24 33.2174 287.794 33.4929 286.375 33.4886C285.719 33.4888 285.06 33.2814 284.415 33.1573C283.661 33.0127 282.904 32.8375 282.16 32.6306C281.567 32.4708 280.978 32.2876 280.389 32.0885C279.911 31.9258 279.358 31.7851 278.93 31.5019C278.758 31.3945 278.621 31.2533 278.512 31.0786C278.351 30.847 278.262 30.5626 278.222 30.2188C278.152 29.5547 278.563 28.7602 279.194 28.5075C280.019 28.1825 281.16 28.0132 282.017 28.2638C282.635 28.4367 283.187 28.8932 283.826 28.8792C284.225 28.8722 284.593 28.6754 284.955 28.5179C285.512 28.2802 286.097 28.1091 286.697 28.0135C287.586 27.868 288.317 27.8527 289.038 27.2443C289.432 26.9218 289.774 26.5428 290.177 26.2423C291.273 25.4369 292.785 25.3632 293.811 26.3458C294.227 26.7384 294.487 27.2918 294.525 27.8592Z" fill="#E19973"/>
<path fill-rule="evenodd" clip-rule="evenodd" d="M294.517 27.86C294.538 28.0702 294.522 28.2849 294.462 28.4971C294.332 28.9952 294.01 29.4191 293.702 29.8338C292.838 30.9798 291.903 32.179 290.564 32.6987C289.24 33.2174 287.794 33.4929 286.375 33.4886C285.719 33.4888 285.06 33.2814 284.415 33.1573C283.661 33.0127 282.904 32.8374 282.16 32.6306C281.567 32.4708 280.978 32.2876 280.389 32.0885C279.911 31.9258 279.358 31.7851 278.93 31.5019C278.758 31.3945 278.621 31.2533 278.512 31.0786C278.727 31.1505 278.935 31.2311 279.143 31.3042C279.901 31.5716 280.688 31.744 281.482 31.823C281.692 31.8415 281.903 31.8679 282.122 31.9015C282.942 32.0164 283.752 32.1792 284.581 32.2933C285.166 32.3765 285.765 32.3433 286.347 32.3037C287.613 32.2298 288.923 32.1447 290.057 31.5746C290.514 31.3468 290.872 31.1514 291.033 30.6284C291.128 30.3186 291.14 29.9905 291.15 29.6673C291.157 29.468 291.164 29.2645 291.111 29.0723C290.955 28.5025 290.35 28.1957 289.976 27.7388C289.935 27.6892 289.895 27.634 289.888 27.5701C289.87 27.4284 290.009 27.3206 290.135 27.2516C291.052 26.7432 292.106 26.5461 293.138 26.3566C293.286 26.3294 293.441 26.3021 293.586 26.3456C293.742 26.3926 293.862 26.5147 293.969 26.6382C294.267 26.9847 294.474 27.4125 294.517 27.86Z" fill="#AD633F"/>
<path fill-rule="evenodd" clip-rule="evenodd" d="M281.293 32.188C281.284 32.2586 281.22 32.3106 281.152 32.3246C281.083 32.3311 281.012 32.3148 280.941 32.2986C280.552 32.1813 280.169 32.0474 279.785 31.8988C279.593 31.8242 279.401 31.7501 279.217 31.6748C279.113 31.6387 278.922 31.5869 278.822 31.5041C278.79 31.4843 278.765 31.4632 278.754 31.4338C278.602 31.0546 279.406 31.2329 279.549 31.2733C279.921 31.3772 280.269 31.5523 280.608 31.7206C280.706 31.7732 280.804 31.8258 280.9 31.8705C280.974 31.9095 281.046 31.949 281.12 31.9884C281.202 32.0346 281.3 32.0946 281.293 32.188Z" fill="#FFEAEC"/>
<path fill-rule="evenodd" clip-rule="evenodd" d="M281.293 32.188C281.284 32.2586 281.22 32.3106 281.152 32.3246C281.083 32.3311 281.012 32.3148 280.941 32.2986C280.552 32.1813 280.169 32.0475 279.785 31.8988C279.593 31.8242 279.401 31.7501 279.217 31.6748C279.113 31.6387 278.922 31.5869 278.822 31.5041C279.212 31.5446 279.586 31.6707 279.954 31.8135C280.098 31.8617 280.241 31.9174 280.399 31.949C280.494 31.9709 280.643 32.0026 280.757 31.9844C280.802 31.9721 280.846 31.9525 280.874 31.9189C280.88 31.9033 280.894 31.8866 280.9 31.8706C280.974 31.9095 281.046 31.949 281.12 31.9884C281.202 32.0346 281.3 32.0946 281.293 32.188Z" fill="#FFE3E6"/>
<path fill-rule="evenodd" clip-rule="evenodd" d="M301.85 26.1328C301.86 26.1548 301.853 26.1709 301.848 26.1944C301.802 26.4381 301.603 26.6185 301.409 26.7759C300.587 27.4552 299.756 28.1274 298.925 28.7999C298.143 29.4215 297.339 30.0527 296.391 30.3814C295.943 30.532 295.48 30.6142 295.013 30.6509C294.079 30.7238 293.114 30.6301 292.179 30.6103C291.02 30.5813 289.855 30.6532 288.722 30.9145C287.96 31.0869 287.205 31.3433 286.414 31.3872C285.954 31.4078 285.438 31.333 285.136 30.9989C285.103 30.9716 285.076 30.9353 285.05 30.8994C284.855 30.6325 284.829 30.2804 284.86 29.9533C284.992 28.6531 285.853 27.7313 287.104 27.4199C287.729 27.268 288.379 27.2838 289.024 27.3385C289.452 27.3827 289.882 27.4423 290.307 27.3712C290.83 27.2757 291.296 26.9848 291.817 26.8661C292.316 26.7572 292.853 26.822 293.32 26.6158C294.156 26.2359 294.602 25.2531 295.382 24.7703C296.585 24.0321 298.231 23.83 299.571 24.2198C300.134 24.3825 300.654 24.6649 301.106 25.0386C301.257 25.163 301.393 25.2968 301.522 25.4386C301.703 25.6375 301.872 25.8759 301.85 26.1328Z" fill="#E19973"/>
<path fill-rule="evenodd" clip-rule="evenodd" d="M291.782 27.3993C292.122 27.5713 292.4 27.8669 292.548 28.2187C292.513 27.8023 292.229 27.4497 291.92 27.1688C291.795 27.0551 291.642 26.9422 291.475 26.9655C291.414 26.9741 291.357 27.0006 291.301 27.027C291.16 27.0932 291.014 27.1534 290.88 27.2289C291.197 27.2322 291.493 27.25 291.782 27.3993Z" fill="#AD633F"/>
<path fill-rule="evenodd" clip-rule="evenodd" d="M294.932 26.6001C295.379 26.6894 295.883 26.8538 296.157 27.2293C296.106 26.8187 295.859 26.4416 295.515 26.2109C295.184 25.9878 294.796 25.9206 294.403 25.9277C294.222 25.9313 294.134 25.9804 293.986 26.0956C293.919 26.1473 293.634 26.4868 293.575 26.4853C294.007 26.4968 294.442 26.5082 294.868 26.5878C294.889 26.5914 294.91 26.5955 294.932 26.6001Z" fill="#AD633F"/>
<path fill-rule="evenodd" clip-rule="evenodd" d="M305.218 22.4516C304.968 22.8604 304.703 23.2611 304.423 23.6502C304.171 23.9995 303.947 24.3487 303.659 24.6724C303.306 25.0693 302.954 25.4661 302.601 25.8617C302.396 26.0914 302.166 26.3025 301.947 26.519C301.65 26.8122 301.336 27.0625 301.028 27.34C300.558 27.7615 300.06 28.1501 299.555 28.5295C298.582 29.2619 297.55 29.9798 296.391 30.3814C295.943 30.532 295.48 30.6142 295.013 30.6509C294.079 30.7238 293.114 30.6301 292.179 30.6103C291.02 30.5813 289.855 30.6532 288.722 30.9145C287.96 31.0869 287.205 31.3433 286.414 31.3872C285.954 31.4078 285.438 31.333 285.136 30.9989C286.285 30.8363 287.429 30.5356 288.57 30.281C290.186 29.9276 291.877 30.022 293.489 29.6226C295.056 29.2354 296.446 28.3483 297.797 27.4724C298.937 26.732 300.113 25.9575 301.106 25.0386C301.765 24.4207 302.349 23.7411 302.79 22.9512C303.615 21.4851 303.879 19.7865 304.209 18.1438C304.644 15.9666 305.222 13.7753 306.443 11.9252C307.165 10.831 308.153 9.86624 309.296 9.22596C309.404 9.39327 309.505 9.56077 309.599 9.73695C310.07 10.6489 310.299 11.6835 310.258 12.7129C310.214 13.712 309.786 14.7319 309.362 15.6358C309.054 16.2894 308.674 16.9114 308.285 17.5342C307.26 19.1737 306.243 20.8121 305.218 22.4516Z" fill="#AD633F"/>
<path fill-rule="evenodd" clip-rule="evenodd" d="M288.236 31.0761C288.17 31.1054 288.102 31.1198 288.033 31.1338C287.616 31.2042 287.205 31.266 286.794 31.3203C286.436 31.3697 286.086 31.4183 285.73 31.3981C285.652 31.39 285.581 31.3812 285.516 31.3411L285.508 31.3343C285.351 31.2255 285.52 30.9786 285.636 30.8978C285.765 30.7933 285.947 30.7681 286.106 30.7301C286.445 30.6442 286.786 30.5885 287.131 30.5559C287.322 30.5378 287.514 30.5276 287.7 30.5484L287.701 30.5563C287.872 30.5631 288.045 30.6084 288.199 30.6862C288.369 30.7704 288.434 30.9726 288.236 31.0761Z" fill="#FFEAEC"/>
<path fill-rule="evenodd" clip-rule="evenodd" d="M288.236 31.0762C288.17 31.1054 288.102 31.1198 288.033 31.1338C287.616 31.2042 287.205 31.266 286.794 31.3204C286.436 31.3697 286.086 31.4183 285.73 31.3982C285.652 31.3901 285.581 31.3813 285.516 31.3411C286.084 31.2334 286.672 31.1704 287.218 30.995C287.375 30.9417 287.548 30.8944 287.638 30.7857C287.687 30.7272 287.71 30.6556 287.701 30.5563C287.872 30.5631 288.045 30.6085 288.199 30.6862C288.369 30.7704 288.434 30.9726 288.236 31.0762Z" fill="#FFE3E6"/>
<path fill-rule="evenodd" clip-rule="evenodd" d="M283.724 26.0126C283.365 25.4835 282.785 25.1295 282.173 24.9484C282.031 24.9076 281.681 24.8868 281.456 24.7928C281.551 24.6448 281.645 24.5047 281.739 24.3571C281.834 24.3711 281.913 24.3946 281.961 24.4134C282.714 24.7122 283.347 25.2922 283.724 26.0126Z" fill="#AD633F"/>
<path fill-rule="evenodd" clip-rule="evenodd" d="M288.262 22.1434C287.596 21.7826 286.941 21.3817 286.426 20.8215C286.099 20.4744 285.795 20.0249 285.657 19.5447C285.879 19.2844 286.093 19.0177 286.298 18.7434C286.324 18.7719 286.342 18.8011 286.361 18.8378C286.427 18.9701 286.45 19.13 286.479 19.2739C286.55 19.6912 286.651 20.106 286.834 20.4897C287.158 21.1453 287.722 21.6549 288.262 22.1434Z" fill="#AD633F"/>
<path fill-rule="evenodd" clip-rule="evenodd" d="M283.335 13.5872C282.798 13.2908 282.368 12.8228 282.115 12.2761C281.929 11.8539 281.847 11.3914 281.881 10.9408C281.884 10.8867 281.885 10.8172 281.894 10.747C282.033 10.6721 282.174 10.6123 282.306 10.538C282.328 10.6057 282.335 10.6819 282.333 10.7439C282.315 11.779 282.589 12.8712 283.335 13.5872Z" fill="#AD633F"/>
<path fill-rule="evenodd" clip-rule="evenodd" d="M285.157 14.1783C285.032 14.244 284.915 14.3169 284.791 14.39C284.463 14.2595 284.159 14.0643 283.905 13.8265C283.599 13.5312 283.37 13.1444 283.322 12.7171C283.742 13.3252 284.336 13.8166 285.012 14.1147C285.044 14.1271 285.092 14.146 285.157 14.1783Z" fill="#AD633F"/>
<path fill-rule="evenodd" clip-rule="evenodd" d="M301.333 21.0762C301.784 21.3104 302.222 21.5688 302.679 21.7901C301.931 20.9072 300.871 20.3475 299.794 19.9262C297.244 18.9293 294.35 18.6074 291.764 19.5037C290.74 19.8586 289.648 20.3672 288.758 20.9845C289.396 20.7808 289.995 20.4542 290.635 20.2443C291.486 19.9651 292.365 19.7714 293.253 19.662C295.032 19.4436 296.852 19.5637 298.586 20.0213C299.536 20.2719 300.46 20.6243 301.333 21.0762Z" fill="#AD633F"/>
<path fill-rule="evenodd" clip-rule="evenodd" d="M292.029 15.8262C292.436 15.8832 292.829 15.9299 293.266 15.8286C293.94 15.6721 294.598 15.4481 295.227 15.1605C296.134 14.7459 296.987 14.1925 297.664 13.4604C298.341 12.7284 298.834 11.8099 298.972 10.8225C298.936 11.256 298.653 11.6248 298.369 11.9547C297.476 12.9925 296.449 13.9281 295.268 14.6221C294.051 15.3378 292.697 15.785 291.276 15.7424C291.54 15.7544 291.787 15.7924 292.029 15.8262Z" fill="#AD633F"/>
</g>
<defs>
<linearGradient id="paint0_linear" x1="0" y1="0" x2="330.5" y2="67.5" gradientUnits="userSpaceOnUse">
<stop stop-color="#E7F9F9"/>
<stop offset="1" stop-color="#E3FBFB"/>
</linearGradient>
<linearGradient id="paint1_linear" x1="0" y1="0" x2="330.5" y2="67.5" gradientUnits="userSpaceOnUse">
<stop stop-color="#E7F9F9"/>
<stop offset="1" stop-color="#E3FBFB"/>
</linearGradient>
</defs>
</svg>
