<svg width="328" height="72" viewBox="0 0 328 72" fill="none" xmlns="http://www.w3.org/2000/svg">
<rect width="328" height="72" rx="8" fill="url(#paint0_linear)"/>
<path d="M16.2884 15.8182L20.0021 22.4006V26H22.1399V22.4006L25.8537 15.8182H23.4425L21.1207 20.2031H21.0213L18.6996 15.8182H16.2884ZM28.854 26.1491C31.1708 26.1491 32.6126 24.5632 32.6126 22.2116C32.6126 19.8452 31.1708 18.2642 28.854 18.2642C26.5373 18.2642 25.0955 19.8452 25.0955 22.2116C25.0955 24.5632 26.5373 26.1491 28.854 26.1491ZM28.864 24.5085C27.7951 24.5085 27.2482 23.5291 27.2482 22.1967C27.2482 20.8643 27.7951 19.88 28.864 19.88C29.913 19.88 30.4599 20.8643 30.4599 22.1967C30.4599 23.5291 29.913 24.5085 28.864 24.5085ZM38.8867 22.7486C38.8917 23.7727 38.1907 24.3097 37.43 24.3097C36.6296 24.3097 36.1126 23.7479 36.1076 22.848V18.3636H33.9897V23.2259C33.9947 25.0107 35.0387 26.0994 36.5749 26.0994C37.7234 26.0994 38.5487 25.5078 38.8917 24.6129H38.9712V26H41.0046V18.3636H38.8867V22.7486ZM42.6987 26H44.8166V21.6797C44.8166 20.7401 45.5027 20.0938 46.4373 20.0938C46.7306 20.0938 47.1333 20.1435 47.3322 20.2081V18.3288C47.1433 18.2841 46.8798 18.2543 46.666 18.2543C45.8109 18.2543 45.1099 18.7514 44.8315 19.696H44.752V18.3636H42.6987V26ZM53.1738 26H55.411L56.7235 21.1974H56.818L58.1305 26H60.3727L62.4458 18.3636H60.3081L59.1447 23.4645H59.0801L57.8272 18.3636H55.7243L54.4913 23.4943H54.4217L53.2385 18.3636H51.0957L53.1738 26ZM65.7532 26.1442C66.8817 26.1442 67.6126 25.652 67.9854 24.9411H68.0451V26H70.0536V20.8494C70.0536 19.0298 68.5124 18.2642 66.8121 18.2642C64.9826 18.2642 63.7795 19.1392 63.4862 20.5312L65.445 20.6903C65.5891 20.1832 66.0415 19.8104 66.8022 19.8104C67.5231 19.8104 67.9357 20.1733 67.9357 20.7997V20.8295C67.9357 21.3217 67.4137 21.3864 66.0863 21.5156C64.5749 21.6548 63.2177 22.1619 63.2177 23.8672C63.2177 25.3786 64.2965 26.1442 65.7532 26.1442ZM66.3597 24.6825C65.7085 24.6825 65.2411 24.3793 65.2411 23.7976C65.2411 23.201 65.7333 22.9077 66.479 22.8033C66.9414 22.7386 67.6971 22.6293 67.9506 22.4602V23.2706C67.9506 24.071 67.2894 24.6825 66.3597 24.6825ZM73.8146 15.8182H71.6967V26H73.8146V15.8182ZM77.6291 15.8182H75.5112V26H77.6291V15.8182ZM82.8058 26.1491C84.695 26.1491 85.9677 25.2294 86.266 23.8125L84.3072 23.6832C84.0934 24.2649 83.5465 24.5682 82.8406 24.5682C81.7816 24.5682 81.1104 23.8672 81.1104 22.7287V22.7237H86.3107V22.142C86.3107 19.5469 84.7397 18.2642 82.7212 18.2642C80.4741 18.2642 79.0174 19.8601 79.0174 22.2166C79.0174 24.6378 80.4542 26.1491 82.8058 26.1491ZM81.1104 21.4112C81.1552 20.5412 81.8164 19.8452 82.756 19.8452C83.6758 19.8452 84.3121 20.5014 84.3171 21.4112H81.1104ZM91.7546 18.3636H90.3178V16.5341H88.1999V18.3636H87.1559V19.9545H88.1999V23.9318C88.19 25.4283 89.2092 26.169 90.7454 26.1044C91.2923 26.0845 91.68 25.9751 91.8938 25.9055L91.5607 24.3295C91.4563 24.3494 91.2326 24.3991 91.0337 24.3991C90.6112 24.3991 90.3178 24.2401 90.3178 23.6534V19.9545H91.7546V18.3636ZM97.8809 26H100.118L101.431 21.1974H101.525L102.838 26H105.08L107.153 18.3636H105.015L103.852 23.4645H103.787L102.534 18.3636H100.431L99.1983 23.4943H99.1287L97.9455 18.3636H95.8027L97.8809 26ZM108.283 26H110.401V18.3636H108.283V26ZM109.347 17.3793C109.978 17.3793 110.495 16.897 110.495 16.3054C110.495 15.7188 109.978 15.2365 109.347 15.2365C108.72 15.2365 108.203 15.7188 108.203 16.3054C108.203 16.897 108.72 17.3793 109.347 17.3793ZM114.215 15.8182H112.097V26H114.215V15.8182ZM118.029 15.8182H115.912V26H118.029V15.8182ZM122.966 26H125.084V21.6797C125.084 20.7401 125.77 20.0938 126.705 20.0938C126.998 20.0938 127.401 20.1435 127.6 20.2081V18.3288C127.411 18.2841 127.147 18.2543 126.934 18.2543C126.078 18.2543 125.377 18.7514 125.099 19.696H125.02V18.3636H122.966V26ZM131.819 26.1491C133.709 26.1491 134.981 25.2294 135.28 23.8125L133.321 23.6832C133.107 24.2649 132.56 24.5682 131.854 24.5682C130.795 24.5682 130.124 23.8672 130.124 22.7287V22.7237H135.324V22.142C135.324 19.5469 133.753 18.2642 131.735 18.2642C129.488 18.2642 128.031 19.8601 128.031 22.2166C128.031 24.6378 129.468 26.1491 131.819 26.1491ZM130.124 21.4112C130.169 20.5412 130.83 19.8452 131.77 19.8452C132.689 19.8452 133.326 20.5014 133.331 21.4112H130.124ZM140.157 26.1491C142.19 26.1491 143.468 24.956 143.567 23.201H141.569C141.444 24.0163 140.907 24.4737 140.182 24.4737C139.192 24.4737 138.551 23.6435 138.551 22.1818C138.551 20.7401 139.197 19.9148 140.182 19.9148C140.957 19.9148 141.454 20.4268 141.569 21.1875H143.567C143.478 19.4226 142.14 18.2642 140.147 18.2642C137.83 18.2642 136.398 19.87 136.398 22.2116C136.398 24.5334 137.805 26.1491 140.157 26.1491ZM148.374 26.1491C150.69 26.1491 152.132 24.5632 152.132 22.2116C152.132 19.8452 150.69 18.2642 148.374 18.2642C146.057 18.2642 144.615 19.8452 144.615 22.2116C144.615 24.5632 146.057 26.1491 148.374 26.1491ZM148.384 24.5085C147.315 24.5085 146.768 23.5291 146.768 22.1967C146.768 20.8643 147.315 19.88 148.384 19.88C149.433 19.88 149.979 20.8643 149.979 22.1967C149.979 23.5291 149.433 24.5085 148.384 24.5085ZM160.369 18.3636H158.127L156.546 23.8274H156.466L154.88 18.3636H152.643L155.313 26H157.699L160.369 18.3636ZM164.673 26.1491C166.562 26.1491 167.835 25.2294 168.133 23.8125L166.174 23.6832C165.961 24.2649 165.414 24.5682 164.708 24.5682C163.649 24.5682 162.978 23.8672 162.978 22.7287V22.7237H168.178V22.142C168.178 19.5469 166.607 18.2642 164.588 18.2642C162.341 18.2642 160.885 19.8601 160.885 22.2166C160.885 24.6378 162.321 26.1491 164.673 26.1491ZM162.978 21.4112C163.022 20.5412 163.684 19.8452 164.623 19.8452C165.543 19.8452 166.179 20.5014 166.184 21.4112H162.978ZM169.56 26H171.678V21.6797C171.678 20.7401 172.364 20.0938 173.299 20.0938C173.592 20.0938 173.995 20.1435 174.194 20.2081V18.3288C174.005 18.2841 173.741 18.2543 173.527 18.2543C172.672 18.2543 171.971 18.7514 171.693 19.696H171.613V18.3636H169.56V26ZM184.882 20.5412C184.694 19.1342 183.56 18.2642 181.631 18.2642C179.677 18.2642 178.39 19.169 178.395 20.6406C178.39 21.7841 179.11 22.5249 180.602 22.8232L181.924 23.0866C182.591 23.2209 182.894 23.4645 182.904 23.8473C182.894 24.2997 182.402 24.6229 181.661 24.6229C180.905 24.6229 180.403 24.2997 180.274 23.6783L178.191 23.7876C178.39 25.2493 179.632 26.1491 181.656 26.1491C183.635 26.1491 185.051 25.1399 185.056 23.6335C185.051 22.5298 184.331 21.8686 182.849 21.5653L181.467 21.2869C180.756 21.1328 180.493 20.8892 180.498 20.5213C180.493 20.0639 181.01 19.7656 181.666 19.7656C182.402 19.7656 182.839 20.1683 182.944 20.6605L184.882 20.5412ZM189.84 26.1491C192.157 26.1491 193.599 24.5632 193.599 22.2116C193.599 19.8452 192.157 18.2642 189.84 18.2642C187.524 18.2642 186.082 19.8452 186.082 22.2116C186.082 24.5632 187.524 26.1491 189.84 26.1491ZM189.85 24.5085C188.781 24.5085 188.235 23.5291 188.235 22.1967C188.235 20.8643 188.781 19.88 189.85 19.88C190.899 19.88 191.446 20.8643 191.446 22.1967C191.446 23.5291 190.899 24.5085 189.85 24.5085ZM198.426 26.1491C200.743 26.1491 202.185 24.5632 202.185 22.2116C202.185 19.8452 200.743 18.2642 198.426 18.2642C196.11 18.2642 194.668 19.8452 194.668 22.2116C194.668 24.5632 196.11 26.1491 198.426 26.1491ZM198.436 24.5085C197.367 24.5085 196.82 23.5291 196.82 22.1967C196.82 20.8643 197.367 19.88 198.436 19.88C199.485 19.88 200.032 20.8643 200.032 22.1967C200.032 23.5291 199.485 24.5085 198.436 24.5085ZM205.68 21.5852C205.685 20.6009 206.271 20.0241 207.127 20.0241C207.977 20.0241 208.489 20.581 208.484 21.5156V26H210.602V21.1378C210.602 19.358 209.558 18.2642 207.967 18.2642C206.833 18.2642 206.013 18.821 205.67 19.7109H205.58V18.3636H203.562V26H205.68V21.5852ZM214.801 15.8182H212.589L212.788 22.9474H214.608L214.801 15.8182ZM213.698 26.1293C214.334 26.1293 214.886 25.5973 214.891 24.9361C214.886 24.2848 214.334 23.7528 213.698 23.7528C213.042 23.7528 212.5 24.2848 212.505 24.9361C212.5 25.5973 213.042 26.1293 213.698 26.1293Z" fill="black"/>
<rect x="16" y="56" width="161" height="2" rx="1" fill="white"/>
<path opacity="0.6" d="M17.8379 33H16.8691V41H17.8379V33ZM22.2646 35H20.9834V33.5625H20.0615V35H19.1553V35.7812H20.0615V39.5312C20.0615 40.5781 20.9053 41.0781 21.6865 41.0781C22.0303 41.0781 22.249 41.0156 22.374 40.9687L22.1865 40.1406C22.1084 40.1562 21.9834 40.1875 21.7803 40.1875C21.374 40.1875 20.9834 40.0625 20.9834 39.2812V35.7812H22.2646V35ZM26.7451 41H27.667V37.25C27.667 36.3711 28.3076 35.75 29.0264 35.75C29.7256 35.75 30.2139 36.207 30.2139 36.8906V41H31.1514V37.0937C31.1514 36.3203 31.6357 35.75 32.4795 35.75C33.1357 35.75 33.6982 36.0977 33.6982 36.9844V41H34.6201V36.9844C34.6201 35.5742 33.8623 34.9219 32.792 34.9219C31.9326 34.9219 31.3037 35.3164 30.9951 35.9375H30.9326C30.6357 35.2969 30.1123 34.9219 29.3232 34.9219C28.542 34.9219 27.9639 35.2969 27.7139 35.9375H27.6357V35H26.7451V41ZM38.0713 41.1406C39.1182 41.1406 39.665 40.5781 39.8525 40.1875H39.8994V41H40.8213V37.0469C40.8213 35.1406 39.3682 34.9219 38.6025 34.9219C37.6963 34.9219 36.665 35.2344 36.1963 36.3281L37.0713 36.6406C37.2744 36.2031 37.7549 35.7344 38.6338 35.7344C39.4814 35.7344 39.8994 36.1836 39.8994 36.9531V36.9844C39.8994 37.4297 39.4463 37.3906 38.3525 37.5313C37.2393 37.6758 36.0244 37.9219 36.0244 39.2969C36.0244 40.4687 36.9307 41.1406 38.0713 41.1406ZM38.2119 40.3125C37.4775 40.3125 36.9463 39.9844 36.9463 39.3437C36.9463 38.6406 37.5869 38.4219 38.3057 38.3281C38.6963 38.2812 39.7432 38.1719 39.8994 37.9844V38.8281C39.8994 39.5781 39.3057 40.3125 38.2119 40.3125ZM42.8828 43.25C43.7148 43.25 44.3008 42.8086 44.6484 41.875L47.2031 35.0156L46.1953 35L44.5391 39.7812H44.4766L42.8203 35H41.8203L44.0391 41.0313L43.8672 41.5C43.5313 42.4141 43.1172 42.5 42.4453 42.3281L42.2109 43.1406C42.3047 43.1875 42.5703 43.25 42.8828 43.25ZM54.126 35H52.8447V33.5625H51.9229V35H51.0166V35.7812H51.9229V39.5312C51.9229 40.5781 52.7666 41.0781 53.5479 41.0781C53.8916 41.0781 54.1104 41.0156 54.2354 40.9687L54.0479 40.1406C53.9697 40.1562 53.8447 40.1875 53.6416 40.1875C53.2354 40.1875 52.8447 40.0625 52.8447 39.2812V35.7812H54.126V35ZM57.2783 41.1406C58.3252 41.1406 58.8721 40.5781 59.0596 40.1875H59.1064V41H60.0283V37.0469C60.0283 35.1406 58.5752 34.9219 57.8096 34.9219C56.9033 34.9219 55.8721 35.2344 55.4033 36.3281L56.2783 36.6406C56.4814 36.2031 56.9619 35.7344 57.8408 35.7344C58.6885 35.7344 59.1064 36.1836 59.1064 36.9531V36.9844C59.1064 37.4297 58.6533 37.3906 57.5596 37.5313C56.4463 37.6758 55.2314 37.9219 55.2314 39.2969C55.2314 40.4687 56.1377 41.1406 57.2783 41.1406ZM57.4189 40.3125C56.6846 40.3125 56.1533 39.9844 56.1533 39.3437C56.1533 38.6406 56.7939 38.4219 57.5127 38.3281C57.9033 38.2812 58.9502 38.1719 59.1064 37.9844V38.8281C59.1064 39.5781 58.5127 40.3125 57.4189 40.3125ZM61.7109 41H62.6328V38.7539L63.2773 38.1562L65.5234 41H66.6953L63.9727 37.5625L66.5078 35H65.3672L62.7422 37.6719H62.6328V33H61.7109V41ZM69.9629 41.125C71.1816 41.125 72.0723 40.5156 72.3535 39.6094L71.4629 39.3594C71.2285 39.9844 70.6855 40.2969 69.9629 40.2969C68.8809 40.2969 68.1348 39.5977 68.0918 38.3125H72.4473V37.9219C72.4473 35.6875 71.1191 34.9219 69.8691 34.9219C68.2441 34.9219 67.166 36.2031 67.166 38.0469C67.166 39.8906 68.2285 41.125 69.9629 41.125ZM68.0918 37.5156C68.1543 36.582 68.8145 35.75 69.8691 35.75C70.8691 35.75 71.5098 36.5 71.5098 37.5156H68.0918ZM78.709 41.1406C79.7559 41.1406 80.3027 40.5781 80.4902 40.1875H80.5371V41H81.459V37.0469C81.459 35.1406 80.0059 34.9219 79.2402 34.9219C78.334 34.9219 77.3027 35.2344 76.834 36.3281L77.709 36.6406C77.9121 36.2031 78.3926 35.7344 79.2715 35.7344C80.1191 35.7344 80.5371 36.1836 80.5371 36.9531V36.9844C80.5371 37.4297 80.084 37.3906 78.9902 37.5313C77.877 37.6758 76.6621 37.9219 76.6621 39.2969C76.6621 40.4687 77.5684 41.1406 78.709 41.1406ZM78.8496 40.3125C78.1152 40.3125 77.584 39.9844 77.584 39.3437C77.584 38.6406 78.2246 38.4219 78.9434 38.3281C79.334 38.2812 80.3809 38.1719 80.5371 37.9844V38.8281C80.5371 39.5781 79.9434 40.3125 78.8496 40.3125ZM88.6729 41.125C90.001 41.125 90.876 40.3125 91.0322 39.25H90.1104C89.9385 39.9062 89.3916 40.2969 88.6729 40.2969C87.5791 40.2969 86.876 39.3906 86.876 38C86.876 36.6406 87.5947 35.75 88.6729 35.75C89.4854 35.75 89.9697 36.25 90.1104 36.7969H91.0322C90.876 35.6719 89.9229 34.9219 88.6572 34.9219C87.0322 34.9219 85.9541 36.2031 85.9541 38.0312C85.9541 39.8281 86.9854 41.125 88.6729 41.125ZM94.8174 41.125C96.4424 41.125 97.5361 39.8906 97.5361 38.0312C97.5361 36.1562 96.4424 34.9219 94.8174 34.9219C93.1924 34.9219 92.0986 36.1562 92.0986 38.0312C92.0986 39.8906 93.1924 41.125 94.8174 41.125ZM94.8174 40.2969C93.583 40.2969 93.0205 39.2344 93.0205 38.0312C93.0205 36.8281 93.583 35.75 94.8174 35.75C96.0518 35.75 96.6143 36.8281 96.6143 38.0312C96.6143 39.2344 96.0518 40.2969 94.8174 40.2969ZM102.725 38.5469C102.725 39.6719 101.865 40.1875 101.178 40.1875C100.412 40.1875 99.8652 39.625 99.8652 38.75V35H98.9434V38.8125C98.9434 40.3437 99.7559 41.0781 100.881 41.0781C101.787 41.0781 102.381 40.5937 102.662 39.9844H102.725V41H103.646V35H102.725V38.5469ZM105.335 43.25H106.257V40.0781H106.335C106.538 40.4062 106.929 41.125 108.085 41.125C109.585 41.125 110.632 39.9219 110.632 38.0156C110.632 36.125 109.585 34.9219 108.069 34.9219C106.897 34.9219 106.538 35.6406 106.335 35.9531H106.226V35H105.335V43.25ZM106.241 38C106.241 36.6562 106.835 35.75 107.96 35.75C109.132 35.75 109.71 36.7344 109.71 38C109.71 39.2812 109.116 40.2969 107.96 40.2969C106.851 40.2969 106.241 39.3594 106.241 38ZM112.96 33H112.038V41H112.96V33ZM117.164 41.125C118.383 41.125 119.273 40.5156 119.555 39.6094L118.664 39.3594C118.43 39.9844 117.887 40.2969 117.164 40.2969C116.082 40.2969 115.336 39.5977 115.293 38.3125H119.648V37.9219C119.648 35.6875 118.32 34.9219 117.07 34.9219C115.445 34.9219 114.367 36.2031 114.367 38.0469C114.367 39.8906 115.43 41.125 117.164 41.125ZM115.293 37.5156C115.355 36.582 116.016 35.75 117.07 35.75C118.07 35.75 118.711 36.5 118.711 37.5156H115.293ZM126.582 41.125C128.207 41.125 129.301 39.8906 129.301 38.0312C129.301 36.1562 128.207 34.9219 126.582 34.9219C124.957 34.9219 123.863 36.1562 123.863 38.0312C123.863 39.8906 124.957 41.125 126.582 41.125ZM126.582 40.2969C125.348 40.2969 124.785 39.2344 124.785 38.0312C124.785 36.8281 125.348 35.75 126.582 35.75C127.816 35.75 128.379 36.8281 128.379 38.0312C128.379 39.2344 127.816 40.2969 126.582 40.2969ZM133.38 35H132.036V34.3906C132.036 33.7969 132.286 33.4844 132.896 33.4844C133.161 33.4844 133.317 33.5469 133.411 33.5781L133.677 32.7812C133.536 32.7187 133.255 32.625 132.802 32.625C131.942 32.625 131.114 33.1406 131.114 34.1719V35H130.146V35.7812H131.114V41H132.036V35.7812H133.38V35ZM137.766 41H138.688V37.25C138.688 36.3711 139.328 35.75 140.047 35.75C140.746 35.75 141.234 36.207 141.234 36.8906V41H142.172V37.0937C142.172 36.3203 142.656 35.75 143.5 35.75C144.156 35.75 144.719 36.0977 144.719 36.9844V41H145.641V36.9844C145.641 35.5742 144.883 34.9219 143.813 34.9219C142.953 34.9219 142.324 35.3164 142.016 35.9375H141.953C141.656 35.2969 141.133 34.9219 140.344 34.9219C139.563 34.9219 138.984 35.2969 138.734 35.9375H138.656V35H137.766V41ZM147.326 41H148.248V35H147.326V41ZM147.795 34C148.154 34 148.451 33.7188 148.451 33.375C148.451 33.0313 148.154 32.75 147.795 32.75C147.436 32.75 147.139 33.0313 147.139 33.375C147.139 33.7188 147.436 34 147.795 34ZM150.858 37.3906C150.858 36.3437 151.507 35.75 152.39 35.75C153.245 35.75 153.765 36.3086 153.765 37.25V41H154.687V37.1875C154.687 35.6562 153.87 34.9219 152.655 34.9219C151.749 34.9219 151.187 35.3281 150.905 35.9375H150.827V35H149.937V41H150.858V37.3906ZM160.152 38.5469C160.152 39.6719 159.293 40.1875 158.605 40.1875C157.84 40.1875 157.293 39.625 157.293 38.75V35H156.371V38.8125C156.371 40.3437 157.184 41.0781 158.309 41.0781C159.215 41.0781 159.809 40.5937 160.09 39.9844H160.152V41H161.074V35H160.152V38.5469ZM165.372 35H164.091V33.5625H163.169V35H162.263V35.7812H163.169V39.5312C163.169 40.5781 164.013 41.0781 164.794 41.0781C165.138 41.0781 165.356 41.0156 165.481 40.9687L165.294 40.1406C165.216 40.1562 165.091 40.1875 164.888 40.1875C164.481 40.1875 164.091 40.0625 164.091 39.2812V35.7812H165.372V35ZM169.21 41.125C170.429 41.125 171.319 40.5156 171.601 39.6094L170.71 39.3594C170.476 39.9844 169.933 40.2969 169.21 40.2969C168.128 40.2969 167.382 39.5977 167.339 38.3125H171.694V37.9219C171.694 35.6875 170.366 34.9219 169.116 34.9219C167.491 34.9219 166.413 36.2031 166.413 38.0469C166.413 39.8906 167.476 41.125 169.21 41.125ZM167.339 37.5156C167.401 36.582 168.062 35.75 169.116 35.75C170.116 35.75 170.757 36.5 170.757 37.5156H167.339ZM177.347 36.3437C177.058 35.4922 176.409 34.9219 175.222 34.9219C173.956 34.9219 173.019 35.6406 173.019 36.6562C173.019 37.4844 173.511 38.0391 174.612 38.2969L175.612 38.5312C176.218 38.6719 176.503 38.9609 176.503 39.375C176.503 39.8906 175.956 40.3125 175.097 40.3125C174.343 40.3125 173.87 39.9883 173.706 39.3437L172.831 39.5625C173.046 40.582 173.886 41.125 175.112 41.125C176.507 41.125 177.456 40.3633 177.456 39.3281C177.456 38.4922 176.933 37.9648 175.862 37.7031L174.972 37.4844C174.261 37.3086 173.94 37.0703 173.94 36.6094C173.94 36.0937 174.487 35.7187 175.222 35.7187C176.026 35.7187 176.358 36.1641 176.519 36.5781L177.347 36.3437Z" fill="black"/>
<path d="M258 26.6914C258 24.3908 259.57 22.3872 261.804 21.8366L288.563 15.2414C291.637 14.4838 294.632 16.7375 294.756 19.9009L295.695 43.948C295.786 46.2722 294.262 48.352 292.019 48.9659L264.32 56.5449C261.138 57.4154 258 55.0207 258 51.7221L258 26.6914Z" fill="#C3C1FF"/>
<rect x="258" y="21.774" width="45" height="36" rx="5" fill="#6C69FC"/>
<path d="M262 26.274H296C297.657 26.274 299 27.6172 299 29.274V49.774C299 51.4309 297.657 52.774 296 52.774H262" stroke="white" stroke-opacity="0.5" stroke-width="0.7" stroke-linecap="round" stroke-dasharray="3 3"/>
<mask id="mask0" mask-type="alpha" maskUnits="userSpaceOnUse" x="258" y="21" width="45" height="37">
<rect x="258" y="21.774" width="45" height="36" rx="5" fill="#6C69FC"/>
</mask>
<g mask="url(#mask0)">
<rect x="288" y="34.774" width="17" height="13" rx="3" fill="black" fill-opacity="0.15"/>
</g>
<rect x="290" y="34.774" width="16" height="11" rx="3" fill="#C3C1FF"/>
<circle cx="294.5" cy="40.274" r="1.5" fill="black"/>
<path d="M16 57C16 56.4477 16.4477 56 17 56H65V58H17C16.4477 58 16 57.5523 16 57Z" fill="#6C69FC"/>
<rect x="235" y="28.7767" width="3.17438" height="8" transform="rotate(-14.1638 235 28.7767)" fill="#34BBA8"/>
<rect x="311.227" y="58" width="3.17438" height="3.79124" transform="rotate(18.8789 311.227 58)" fill="#34BBA8"/>
<rect x="319.008" y="9" width="3.17438" height="8" transform="rotate(48.6788 319.008 9)" fill="#FED773"/>
<rect x="316.124" y="37.9921" width="3.17438" height="6.92734" transform="rotate(-18.3249 316.124 37.9921)" fill="#FB9C67"/>
<rect x="265.089" y="6.91541" width="3.17438" height="4.81415" transform="rotate(14.9797 265.089 6.91541)" fill="#FB9C67"/>
<rect x="241.172" y="57.8658" width="3.17438" height="5.02886" transform="rotate(32.038 241.172 57.8658)" fill="#FED773"/>
<defs>
<linearGradient id="paint0_linear" x1="328" y1="-2.20114e-05" x2="4.90662" y2="89.6777" gradientUnits="userSpaceOnUse">
<stop stop-color="#F2F9FF"/>
<stop offset="1" stop-color="#E9F0FF"/>
<stop offset="1" stop-color="#E9F7FF"/>
<stop offset="1" stop-color="#E9F7FF"/>
</linearGradient>
</defs>
</svg>
